<svg width="26" height="26" viewBox="0 0 26 26" fill="none" xmlns="http://www.w3.org/2000/svg">
<path d="M11.1585 14.817C11.1585 15.7647 10.471 16.0643 9.62634 16.0643H7.41161V13.4665H9.67054C10.5839 13.4714 11.1585 13.8496 11.1585 14.817ZM10.7804 10.7754C10.7804 9.90625 10.1076 9.7 9.36116 9.7H7.41652V11.9H9.51339C10.2549 11.9 10.7804 11.5759 10.7804 10.7754ZM17.2772 11.9147C16.3786 11.9147 15.7795 12.4746 15.7205 13.3732H18.775C18.6915 12.4647 18.2201 11.9147 17.2772 11.9147ZM24 4.35714V21.6429C24 22.9442 22.9442 24 21.6429 24H4.35714C3.0558 24 2 22.9442 2 21.6429V4.35714C2 3.0558 3.0558 2 4.35714 2H21.6429C22.9442 2 24 3.0558 24 4.35714ZM15.3424 9.51339H19.1629V8.58527H15.3424V9.51339ZM13.2308 14.9299C13.2308 13.7464 12.671 12.725 11.5121 12.396C12.3567 11.9933 12.7987 11.5268 12.7987 10.579C12.7987 8.70312 11.3991 8.24643 9.78348 8.24643H5.33929V17.675H9.91116C11.625 17.6652 13.2308 16.8451 13.2308 14.9299ZM20.6607 14.2031C20.6607 12.1848 19.4772 10.5004 17.3411 10.5004C15.2589 10.5004 13.8496 12.0621 13.8496 14.1147C13.8496 16.2411 15.1902 17.6996 17.3411 17.6996C18.9714 17.6996 20.0272 16.9679 20.5379 15.4013H18.883C18.7013 15.9857 17.9696 16.2902 17.4 16.2902C16.3 16.2902 15.7254 15.6469 15.7254 14.5567H20.646C20.6509 14.4438 20.6607 14.321 20.6607 14.2031Z" fill="#41B56F"/>
</svg>
