<svg width="26" height="26" viewBox="0 0 26 26" fill="none" xmlns="http://www.w3.org/2000/svg">
<path d="M21.6429 2H4.35714C3.73199 2 3.13244 2.24834 2.69039 2.69039C2.24834 3.13244 2 3.73199 2 4.35714L2 21.6429C2 22.268 2.24834 22.8676 2.69039 23.3096C3.13244 23.7517 3.73199 24 4.35714 24H11.0971V16.5205H8.00335V13H11.0971V10.3168C11.0971 7.26478 12.9141 5.57893 15.697 5.57893C17.0297 5.57893 18.4234 5.81661 18.4234 5.81661V8.81214H16.8878C15.3748 8.81214 14.9029 9.75107 14.9029 10.7141V13H18.2805L17.7403 16.5205H14.9029V24H21.6429C22.268 24 22.8676 23.7517 23.3096 23.3096C23.7517 22.8676 24 22.268 24 21.6429V4.35714C24 3.73199 23.7517 3.13244 23.3096 2.69039C22.8676 2.24834 22.268 2 21.6429 2Z" fill="#41B56F"/>
</svg>
