<svg width="26" height="26" viewBox="0 0 26 26" fill="none" xmlns="http://www.w3.org/2000/svg">
<g clip-path="url(#clip0_1662_30741)">
<path d="M13 10.3806C12.482 10.3808 11.9756 10.5346 11.545 10.8225C11.1144 11.1105 10.7788 11.5196 10.5807 11.9983C10.3826 12.4769 10.3309 13.0036 10.4321 13.5116C10.5332 14.0197 10.7828 14.4863 11.1492 14.8525C11.5155 15.2188 11.9822 15.4681 12.4903 15.5691C12.9984 15.6701 13.525 15.6182 14.0036 15.4199C14.4822 15.2216 14.8912 14.8859 15.179 14.4551C15.4668 14.0244 15.6204 13.518 15.6204 13C15.6198 12.3053 15.3436 11.6392 14.8522 11.1481C14.3609 10.6569 13.6947 10.3809 13 10.3806ZM19.1242 8.36723C18.9908 8.0293 18.7894 7.72237 18.5326 7.46548C18.2757 7.20859 17.9687 7.00723 17.6308 6.87388C16.5996 6.46679 14.1442 6.55813 13 6.55813C11.8558 6.55813 9.4029 6.46335 8.36871 6.87388C8.03077 7.00723 7.72384 7.20859 7.46695 7.46548C7.21007 7.72237 7.0087 8.0293 6.87536 8.36723C6.46875 9.39848 6.5596 11.8563 6.5596 12.9995C6.5596 14.1427 6.46875 16.5976 6.87732 17.6323C7.01067 17.9702 7.21203 18.2771 7.46892 18.534C7.7258 18.7909 8.03273 18.9923 8.37067 19.1256C9.40192 19.5327 11.8573 19.4414 13.002 19.4414C14.1467 19.4414 16.5986 19.5362 17.6328 19.1256C17.9707 18.9923 18.2776 18.7909 18.5345 18.534C18.7914 18.2771 18.9928 17.9702 19.1261 17.6323C19.5362 16.601 19.4419 14.1432 19.4419 13C19.4419 11.8568 19.5362 9.40241 19.1261 8.36772L19.1242 8.36723ZM13 17.0268C12.2036 17.0268 11.425 16.7906 10.7628 16.3482C10.1006 15.9057 9.58451 15.2768 9.27974 14.541C8.97496 13.8052 8.89521 12.9955 9.05059 12.2144C9.20596 11.4333 9.58948 10.7158 10.1526 10.1526C10.7158 9.58948 11.4333 9.20596 12.2144 9.05059C12.9955 8.89521 13.8052 8.97496 14.541 9.27974C15.2768 9.58451 15.9057 10.1006 16.3482 10.7628C16.7906 11.425 17.0268 12.2036 17.0268 13C17.0274 13.529 16.9237 14.0529 16.7216 14.5417C16.5194 15.0306 16.2229 15.4748 15.8488 15.8488C15.4748 16.2229 15.0306 16.5194 14.5417 16.7216C14.0529 16.9237 13.529 17.0274 13 17.0268ZM17.1928 9.7442C17.0069 9.74429 16.8251 9.68925 16.6704 9.58603C16.5158 9.48281 16.3953 9.33605 16.3241 9.16431C16.2528 8.99258 16.2342 8.80358 16.2704 8.62122C16.3066 8.43886 16.3961 8.27134 16.5275 8.13984C16.6589 8.00834 16.8264 7.91878 17.0087 7.88247C17.1911 7.84616 17.3801 7.86475 17.5519 7.93587C17.7236 8.007 17.8704 8.12747 17.9737 8.28205C18.077 8.43663 18.1322 8.61837 18.1322 8.80429C18.1327 8.92775 18.1088 9.0501 18.062 9.16432C18.0151 9.27853 17.9461 9.38237 17.859 9.46988C17.7719 9.55739 17.6684 9.62684 17.5544 9.67425C17.4404 9.72166 17.3182 9.7461 17.1947 9.74616L17.1928 9.7442ZM21.6429 2H4.35714C3.73199 2 3.13244 2.24834 2.69039 2.69039C2.24834 3.13244 2 3.73199 2 4.35714L2 21.6429C2 22.268 2.24834 22.8676 2.69039 23.3096C3.13244 23.7517 3.73199 24 4.35714 24H21.6429C22.268 24 22.8676 23.7517 23.3096 23.3096C23.7517 22.8676 24 22.268 24 21.6429V4.35714C24 3.73199 23.7517 3.13244 23.3096 2.69039C22.8676 2.24834 22.268 2 21.6429 2ZM20.8021 16.2411C20.7388 17.4997 20.4515 18.6149 19.5327 19.5312C18.6139 20.4476 17.4997 20.7408 16.2425 20.8007C14.9456 20.8738 11.0573 20.8738 9.7604 20.8007C8.50179 20.7373 7.39049 20.4496 6.47022 19.5312C5.54996 18.6129 5.26071 17.4972 5.2008 16.2411C5.12763 14.9437 5.12763 11.0549 5.2008 9.75893C5.26415 8.50031 5.54799 7.38509 6.47022 6.46875C7.39246 5.55241 8.5067 5.26268 9.7604 5.20277C11.0573 5.1296 14.9456 5.1296 16.2425 5.20277C17.5012 5.26612 18.6159 5.55388 19.5327 6.47219C20.4496 7.39049 20.7422 8.50621 20.8021 9.76482C20.8753 11.0573 20.8753 14.9427 20.8021 16.2411Z" fill="#41B56F"/>
</g>
<defs>
<clipPath id="clip0_1662_30741">
<rect width="26" height="26" fill="white"/>
</clipPath>
</defs>
</svg>
