<svg width="18" height="20" viewBox="0 0 18 20" fill="none" xmlns="http://www.w3.org/2000/svg">
<path d="M8.75 0C3.91797 0 0 3.91797 0 8.75C0 14.0352 5.8125 18.4258 7.60547 19.6562C7.94141 19.8867 8.34375 20 8.75 20C9.15625 20 9.55859 19.8867 9.89453 19.6562C11.6875 18.4258 17.5 14.0352 17.5 8.75C17.5 3.91797 13.582 0 8.75 0ZM10 11.9648C10 10.1914 11.4375 8.75 13.2148 8.75H14.4648C14.7617 8.75 15 8.98828 15 9.28516C15 11.0586 13.5625 12.5 11.7852 12.5H10.5352C10.2383 12.5 10 12.2617 10 11.9648ZM4.28516 8.75C6.05859 8.75 7.5 10.1875 7.5 11.9648C7.5 12.2617 7.26172 12.5 6.96484 12.5H5.71484C3.9375 12.5 2.5 11.0625 2.5 9.28516C2.5 8.98828 2.73828 8.75 3.03516 8.75H4.28516Z" fill="white"/>
</svg>
