<svg width="28" height="28" viewBox="0 0 28 28" fill="none" xmlns="http://www.w3.org/2000/svg">
<rect width="28" height="28" rx="14" fill="#41B56F"/>
<path fill-rule="evenodd" clip-rule="evenodd" d="M20.9049 9.31C21.3669 9.79057 21.3518 10.5546 20.8712 11.0166L12.5009 19.0622L7.12885 13.8985C6.64828 13.4366 6.63317 12.6725 7.09511 12.1919C7.55704 11.7114 8.32109 11.6963 8.80166 12.1582L12.5009 15.714L19.1984 9.27626C19.6789 8.81432 20.443 8.82943 20.9049 9.31Z" fill="#41B56F"/>
<path fill-rule="evenodd" clip-rule="evenodd" d="M20.3964 9.67563C20.8243 10.1187 20.8103 10.8232 20.3652 11.2491L12.6114 18.6673L7.635 13.9063C7.18983 13.4804 7.17584 12.7759 7.60375 12.3328C8.03166 11.8897 8.73943 11.8758 9.18461 12.3017L12.6114 15.5802L18.8156 9.64452C19.2607 9.21861 19.9685 9.23254 20.3964 9.67563Z" fill="white"/>
</svg>
