<svg width="161" height="114" viewBox="0 0 161 114" fill="none" xmlns="http://www.w3.org/2000/svg">
<g filter="url(#filter0_b_958_19707)">
<g clip-path="url(#clip0_958_19707)">
<rect width="159" height="16" transform="translate(1 1)" fill="white" fill-opacity="0.1"/>
<circle cx="11" cy="9" r="2" fill="#F74544"/>
<circle cx="18" cy="9" r="2" fill="#CDCDCD"/>
<circle cx="25" cy="9" r="2" fill="#37C027"/>
<path d="M1 17H160" stroke="#1F2024" stroke-width="1.5" stroke-linecap="round"/>
<rect width="159" height="96" transform="translate(1 17)" fill="#171717" fill-opacity="1"/>
<path d="M41.9944 54.1406V52.8182H49.8744V54.1406H46.6975V63H45.1663V54.1406H41.9944ZM53.6801 63.1541C52.9278 63.1541 52.2798 62.9934 51.7362 62.6719C51.196 62.3471 50.7784 61.8913 50.4834 61.3047C50.1917 60.7147 50.0459 60.0237 50.0459 59.2315C50.0459 58.4493 50.1917 57.7599 50.4834 57.1634C50.7784 56.5668 51.1894 56.1011 51.7164 55.7663C52.2467 55.4316 52.8664 55.2642 53.5757 55.2642C54.0066 55.2642 54.4242 55.3355 54.8286 55.478C55.2329 55.6205 55.5959 55.8442 55.9173 56.1491C56.2388 56.4541 56.4924 56.8501 56.678 57.3374C56.8636 57.8213 56.9564 58.4096 56.9564 59.1023V59.6293H50.8861V58.5156H55.4997C55.4997 58.1245 55.4202 57.7782 55.2611 57.4766C55.102 57.1716 54.8783 56.9313 54.5899 56.7557C54.3049 56.58 53.9701 56.4922 53.5857 56.4922C53.1681 56.4922 52.8035 56.5949 52.4919 56.8004C52.1837 57.0026 51.945 57.2678 51.776 57.5959C51.6103 57.9207 51.5274 58.2737 51.5274 58.6548V59.5249C51.5274 60.0353 51.6169 60.4695 51.7959 60.8274C51.9782 61.1854 52.2317 61.4588 52.5566 61.6477C52.8814 61.8333 53.2609 61.9261 53.695 61.9261C53.9768 61.9261 54.2336 61.8864 54.4656 61.8068C54.6977 61.724 54.8982 61.6013 55.0672 61.4389C55.2362 61.2765 55.3655 61.076 55.455 60.8374L56.8619 61.0909C56.7493 61.5052 56.5471 61.8681 56.2554 62.1797C55.9671 62.4879 55.6041 62.7282 55.1666 62.9006C54.7325 63.0696 54.2369 63.1541 53.6801 63.1541ZM64.328 57.228L62.9807 57.4666C62.9244 57.2943 62.8349 57.1302 62.7123 56.9744C62.593 56.8187 62.4305 56.6911 62.2251 56.5916C62.0196 56.4922 61.7627 56.4425 61.4545 56.4425C61.0335 56.4425 60.6822 56.5369 60.4005 56.7259C60.1188 56.9115 59.9779 57.1518 59.9779 57.4467C59.9779 57.7019 60.0724 57.9074 60.2613 58.0632C60.4502 58.219 60.7551 58.3466 61.176 58.446L62.3891 58.7244C63.0918 58.8868 63.6154 59.1371 63.9601 59.4751C64.3048 59.8132 64.4772 60.2524 64.4772 60.7926C64.4772 61.25 64.3446 61.6577 64.0795 62.0156C63.8176 62.3703 63.4514 62.6487 62.9807 62.8509C62.5134 63.053 61.9715 63.1541 61.355 63.1541C60.4999 63.1541 59.8022 62.9718 59.262 62.6072C58.7217 62.2393 58.3903 61.7173 58.2677 61.0412L59.7045 60.8224C59.7939 61.197 59.9779 61.4804 60.2563 61.6726C60.5347 61.8615 60.8976 61.956 61.3451 61.956C61.8323 61.956 62.2217 61.8549 62.5134 61.6527C62.8051 61.4472 62.9509 61.197 62.9509 60.902C62.9509 60.6634 62.8614 60.4628 62.6824 60.3004C62.5068 60.138 62.2367 60.0154 61.8721 59.9325L60.5795 59.6491C59.8669 59.4867 59.3399 59.2282 58.9985 58.8736C58.6604 58.5189 58.4914 58.0698 58.4914 57.5263C58.4914 57.0755 58.6173 56.6811 58.8692 56.343C59.1211 56.005 59.4691 55.7415 59.9133 55.5526C60.3574 55.3603 60.8662 55.2642 61.4395 55.2642C62.2648 55.2642 62.9144 55.4432 63.3884 55.8011C63.8624 56.1558 64.1756 56.6314 64.328 57.228ZM69.6762 55.3636V56.5568H65.5051V55.3636H69.6762ZM66.6237 53.5341H68.1102V60.7578C68.1102 61.0462 68.1533 61.2633 68.2394 61.4091C68.3256 61.5516 68.4366 61.6494 68.5725 61.7024C68.7117 61.7521 68.8625 61.777 69.0249 61.777C69.1443 61.777 69.2487 61.7687 69.3382 61.7521C69.4276 61.7356 69.4972 61.7223 69.547 61.7124L69.8154 62.9403C69.7293 62.9735 69.6066 63.0066 69.4475 63.0398C69.2884 63.0762 69.0896 63.0961 68.8509 63.0994C68.4598 63.1061 68.0953 63.0365 67.7572 62.8906C67.4191 62.7448 67.1457 62.5194 66.9369 62.2145C66.7281 61.9096 66.6237 61.5268 66.6237 61.0661V53.5341ZM71.3206 63V55.3636H72.8071V63H71.3206ZM72.0713 54.1854C71.8128 54.1854 71.5907 54.0992 71.4051 53.9268C71.2228 53.7512 71.1317 53.5424 71.1317 53.3004C71.1317 53.0552 71.2228 52.8464 71.4051 52.674C71.5907 52.4983 71.8128 52.4105 72.0713 52.4105C72.3298 52.4105 72.5502 52.4983 72.7325 52.674C72.9181 52.8464 73.0109 53.0552 73.0109 53.3004C73.0109 53.5424 72.9181 53.7512 72.7325 53.9268C72.5502 54.0992 72.3298 54.1854 72.0713 54.1854ZM76.2934 58.4659V63H74.8069V55.3636H76.2338V56.6065H76.3282C76.5039 56.2022 76.779 55.8774 77.1535 55.6321C77.5313 55.3868 78.007 55.2642 78.5803 55.2642C79.1007 55.2642 79.5564 55.3736 79.9475 55.5923C80.3386 55.8078 80.6419 56.1293 80.8573 56.5568C81.0728 56.9844 81.1805 57.513 81.1805 58.1428V63H79.694V58.3217C79.694 57.7682 79.5498 57.3357 79.2615 57.0241C78.9731 56.7093 78.577 56.5518 78.0732 56.5518C77.7285 56.5518 77.422 56.6264 77.1535 56.7756C76.8883 56.9247 76.6779 57.1435 76.5221 57.4318C76.3696 57.7169 76.2934 58.0616 76.2934 58.4659ZM86.3758 66.0227C85.7693 66.0227 85.2472 65.9432 84.8097 65.7841C84.3756 65.625 84.0209 65.4145 83.7458 65.1527C83.4707 64.8909 83.2652 64.6042 83.1294 64.2926L84.407 63.7656C84.4965 63.9115 84.6159 64.0656 84.765 64.228C84.9175 64.3937 85.123 64.5346 85.3815 64.6506C85.6433 64.7666 85.9797 64.8246 86.3907 64.8246C86.9542 64.8246 87.4198 64.687 87.7877 64.4119C88.1556 64.1402 88.3396 63.706 88.3396 63.1094V61.608H88.2451C88.1556 61.7704 88.0264 61.951 87.8573 62.1499C87.6916 62.3487 87.4629 62.5211 87.1713 62.6669C86.8796 62.8127 86.5001 62.8857 86.0328 62.8857C85.4295 62.8857 84.886 62.7448 84.4021 62.4631C83.9215 62.178 83.5403 61.7588 83.2586 61.2053C82.9802 60.6484 82.841 59.964 82.841 59.152C82.841 58.34 82.9785 57.6439 83.2536 57.0639C83.532 56.4839 83.9132 56.0398 84.3971 55.7315C84.881 55.42 85.4295 55.2642 86.0427 55.2642C86.5167 55.2642 86.8995 55.3438 87.1911 55.5028C87.4828 55.6586 87.7098 55.8409 87.8722 56.0497C88.038 56.2585 88.1656 56.4425 88.2551 56.6016H88.3644V55.3636H89.8211V63.169C89.8211 63.8253 89.6686 64.3639 89.3637 64.7848C89.0588 65.2057 88.6462 65.5173 88.1258 65.7195C87.6088 65.9216 87.0254 66.0227 86.3758 66.0227ZM86.3609 61.6527C86.7884 61.6527 87.1497 61.5533 87.4447 61.3544C87.743 61.1522 87.9684 60.8639 88.1208 60.4893C88.2766 60.1115 88.3545 59.6591 88.3545 59.1321C88.3545 58.6184 88.2783 58.166 88.1258 57.7749C87.9733 57.3838 87.7496 57.0788 87.4546 56.8601C87.1597 56.638 86.7951 56.527 86.3609 56.527C85.9134 56.527 85.5406 56.643 85.2423 56.875C84.944 57.1037 84.7186 57.4152 84.5661 57.8097C84.417 58.2041 84.3424 58.6449 84.3424 59.1321C84.3424 59.6326 84.4186 60.0717 84.5711 60.4496C84.7236 60.8274 84.949 61.1224 85.2472 61.3345C85.5489 61.5466 85.9201 61.6527 86.3609 61.6527ZM97.7421 63.169C97.2582 63.169 96.8207 63.0795 96.4296 62.9006C96.0385 62.7183 95.7286 62.4548 95.4999 62.1101C95.2745 61.7654 95.1618 61.3428 95.1618 60.8423C95.1618 60.4115 95.2447 60.0568 95.4104 59.7784C95.5761 59.5 95.7999 59.2796 96.0816 59.1172C96.3633 58.9548 96.6782 58.8321 97.0262 58.7493C97.3742 58.6664 97.7288 58.6035 98.0901 58.5604C98.5475 58.5073 98.9187 58.4643 99.2037 58.4311C99.4888 58.3946 99.6959 58.3366 99.8252 58.2571C99.9545 58.1776 100.019 58.0483 100.019 57.8693V57.8345C100.019 57.4003 99.8965 57.0639 99.6512 56.8253C99.4092 56.5866 99.048 56.4673 98.5674 56.4673C98.0669 56.4673 97.6725 56.5784 97.3841 56.8004C97.0991 57.0192 96.9019 57.2628 96.7925 57.5312L95.3955 57.2131C95.5612 56.7491 95.8032 56.3745 96.1214 56.0895C96.4429 55.8011 96.8124 55.5923 97.23 55.4631C97.6476 55.3305 98.0868 55.2642 98.5475 55.2642C98.8524 55.2642 99.1756 55.3007 99.517 55.3736C99.8617 55.4432 100.183 55.5724 100.481 55.7614C100.783 55.9503 101.03 56.2204 101.222 56.5717C101.414 56.9197 101.511 57.3722 101.511 57.929V63H100.059V61.956H99.9992C99.9031 62.1482 99.7589 62.3371 99.5667 62.5227C99.3744 62.7083 99.1275 62.8625 98.8259 62.9851C98.5243 63.1077 98.163 63.169 97.7421 63.169ZM98.0653 61.9759C98.4762 61.9759 98.8276 61.8946 99.1192 61.7322C99.4142 61.5698 99.6379 61.3577 99.7904 61.0959C99.9462 60.8307 100.024 60.5473 100.024 60.2457V59.2614C99.971 59.3144 99.8683 59.3641 99.7158 59.4105C99.5667 59.4536 99.396 59.4917 99.2037 59.5249C99.0115 59.5547 98.8242 59.5829 98.642 59.6094C98.4597 59.6326 98.3072 59.6525 98.1846 59.669C97.8962 59.7055 97.6327 59.7668 97.3941 59.853C97.1588 59.9392 96.9698 60.0634 96.8273 60.2259C96.6881 60.3849 96.6185 60.5971 96.6185 60.8622C96.6185 61.2301 96.7544 61.5085 97.0262 61.6974C97.298 61.883 97.6443 61.9759 98.0653 61.9759ZM104.977 58.4659V63H103.491V55.3636H104.917V56.6065H105.012C105.187 56.2022 105.463 55.8774 105.837 55.6321C106.215 55.3868 106.691 55.2642 107.264 55.2642C107.784 55.2642 108.24 55.3736 108.631 55.5923C109.022 55.8078 109.325 56.1293 109.541 56.5568C109.756 56.9844 109.864 57.513 109.864 58.1428V63H108.378V58.3217C108.378 57.7682 108.233 57.3357 107.945 57.0241C107.657 56.7093 107.261 56.5518 106.757 56.5518C106.412 56.5518 106.106 56.6264 105.837 56.7756C105.572 56.9247 105.361 57.1435 105.206 57.4318C105.053 57.7169 104.977 58.0616 104.977 58.4659ZM114.716 63.1491C114.1 63.1491 113.55 62.9917 113.066 62.6768C112.585 62.3587 112.207 61.9062 111.932 61.3196C111.66 60.7296 111.525 60.022 111.525 59.1967C111.525 58.3714 111.662 57.6655 111.937 57.0788C112.216 56.4922 112.597 56.0431 113.081 55.7315C113.565 55.42 114.113 55.2642 114.726 55.2642C115.2 55.2642 115.581 55.3438 115.87 55.5028C116.161 55.6586 116.387 55.8409 116.546 56.0497C116.708 56.2585 116.834 56.4425 116.924 56.6016H117.013V52.8182H118.5V63H117.048V61.8118H116.924C116.834 61.9742 116.705 62.1598 116.536 62.3686C116.37 62.5774 116.142 62.7597 115.85 62.9155C115.558 63.0713 115.18 63.1491 114.716 63.1491ZM115.044 61.8814C115.472 61.8814 115.833 61.7687 116.128 61.5433C116.427 61.3146 116.652 60.9981 116.804 60.5938C116.96 60.1894 117.038 59.7187 117.038 59.1818C117.038 58.6515 116.962 58.1875 116.809 57.7898C116.657 57.392 116.433 57.0821 116.138 56.8601C115.843 56.638 115.479 56.527 115.044 56.527C114.597 56.527 114.224 56.643 113.926 56.875C113.628 57.107 113.402 57.4235 113.25 57.8246C113.101 58.2256 113.026 58.678 113.026 59.1818C113.026 59.6922 113.102 60.1513 113.255 60.5589C113.407 60.9666 113.633 61.2898 113.931 61.5284C114.232 61.7637 114.604 61.8814 115.044 61.8814ZM27.7222 79.8636V75.8118H27.6327C27.5432 75.9742 27.414 76.1598 27.2449 76.3686C27.0792 76.5774 26.8505 76.7597 26.5589 76.9155C26.2672 77.0713 25.8894 77.1491 25.4253 77.1491C24.8089 77.1491 24.2587 76.9917 23.7748 76.6768C23.2942 76.3587 22.9163 75.9062 22.6412 75.3196C22.3695 74.7296 22.2336 74.022 22.2336 73.1967C22.2336 72.3714 22.3711 71.6655 22.6462 71.0788C22.9246 70.4922 23.3058 70.0431 23.7897 69.7315C24.2736 69.42 24.8221 69.2642 25.4353 69.2642C25.9092 69.2642 26.2904 69.3438 26.5787 69.5028C26.8704 69.6586 27.0958 69.8409 27.2549 70.0497C27.4173 70.2585 27.5432 70.4425 27.6327 70.6016H27.757V69.3636H29.2087V79.8636H27.7222ZM25.7535 75.8814C26.181 75.8814 26.5423 75.7687 26.8373 75.5433C27.1356 75.3146 27.3609 74.9981 27.5134 74.5938C27.6692 74.1894 27.7471 73.7187 27.7471 73.1818C27.7471 72.6515 27.6708 72.1875 27.5184 71.7898C27.3659 71.392 27.1422 71.0821 26.8472 70.8601C26.5522 70.638 26.1876 70.527 25.7535 70.527C25.306 70.527 24.9331 70.643 24.6349 70.875C24.3366 71.107 24.1112 71.4235 23.9587 71.8246C23.8096 72.2256 23.735 72.678 23.735 73.1818C23.735 73.6922 23.8112 74.1513 23.9637 74.5589C24.1162 74.9666 24.3415 75.2898 24.6398 75.5284C24.9414 75.7637 25.3126 75.8814 25.7535 75.8814ZM36.0447 73.8331V69.3636H37.5361V77H36.0745V75.6776H35.9949C35.8193 76.0852 35.5376 76.425 35.1498 76.6967C34.7653 76.9652 34.2864 77.0994 33.713 77.0994C33.2224 77.0994 32.7883 76.9917 32.4104 76.7763C32.0359 76.5575 31.7409 76.2344 31.5255 75.8068C31.3134 75.3793 31.2073 74.8506 31.2073 74.2209V69.3636H32.6938V74.0419C32.6938 74.5623 32.838 74.9766 33.1263 75.2848C33.4147 75.593 33.7892 75.7472 34.2499 75.7472C34.5283 75.7472 34.8051 75.6776 35.0802 75.5384C35.3586 75.3991 35.5889 75.1887 35.7712 74.907C35.9568 74.6252 36.048 74.2673 36.0447 73.8331ZM41.7558 77.169C41.2719 77.169 40.8344 77.0795 40.4433 76.9006C40.0522 76.7183 39.7423 76.4548 39.5136 76.1101C39.2882 75.7654 39.1755 75.3428 39.1755 74.8423C39.1755 74.4115 39.2584 74.0568 39.4241 73.7784C39.5898 73.5 39.8135 73.2796 40.0953 73.1172C40.377 72.9548 40.6919 72.8321 41.0399 72.7493C41.3879 72.6664 41.7425 72.6035 42.1038 72.5604C42.5612 72.5073 42.9324 72.4643 43.2174 72.4311C43.5025 72.3946 43.7096 72.3366 43.8389 72.2571C43.9681 72.1776 44.0328 72.0483 44.0328 71.8693V71.8345C44.0328 71.4003 43.9101 71.0639 43.6649 70.8253C43.4229 70.5866 43.0616 70.4673 42.5811 70.4673C42.0806 70.4673 41.6862 70.5784 41.3978 70.8004C41.1128 71.0192 40.9156 71.2628 40.8062 71.5312L39.4092 71.2131C39.5749 70.7491 39.8169 70.3745 40.135 70.0895C40.4565 69.8011 40.8261 69.5923 41.2437 69.4631C41.6613 69.3305 42.1005 69.2642 42.5612 69.2642C42.8661 69.2642 43.1892 69.3007 43.5306 69.3736C43.8753 69.4432 44.1968 69.5724 44.4951 69.7614C44.7967 69.9503 45.0436 70.2204 45.2359 70.5717C45.4281 70.9197 45.5242 71.3722 45.5242 71.929V77H44.0725V75.956H44.0129C43.9168 76.1482 43.7726 76.3371 43.5803 76.5227C43.3881 76.7083 43.1412 76.8625 42.8396 76.9851C42.538 77.1077 42.1767 77.169 41.7558 77.169ZM42.0789 75.9759C42.4899 75.9759 42.8412 75.8946 43.1329 75.7322C43.4279 75.5698 43.6516 75.3577 43.8041 75.0959C43.9598 74.8307 44.0377 74.5473 44.0377 74.2457V73.2614C43.9847 73.3144 43.882 73.3641 43.7295 73.4105C43.5803 73.4536 43.4097 73.4917 43.2174 73.5249C43.0252 73.5547 42.8379 73.5829 42.6556 73.6094C42.4733 73.6326 42.3209 73.6525 42.1982 73.669C41.9099 73.7055 41.6464 73.7668 41.4078 73.853C41.1724 73.9392 40.9835 74.0634 40.841 74.2259C40.7018 74.3849 40.6322 74.5971 40.6322 74.8622C40.6322 75.2301 40.7681 75.5085 41.0399 75.6974C41.3116 75.883 41.658 75.9759 42.0789 75.9759ZM48.9907 66.8182V77H47.5042V66.8182H48.9907ZM50.9905 77V69.3636H52.477V77H50.9905ZM51.7412 68.1854C51.4827 68.1854 51.2606 68.0992 51.075 67.9268C50.8927 67.7512 50.8016 67.5424 50.8016 67.3004C50.8016 67.0552 50.8927 66.8464 51.075 66.674C51.2606 66.4983 51.4827 66.4105 51.7412 66.4105C51.9997 66.4105 52.2201 66.4983 52.4024 66.674C52.588 66.8464 52.6808 67.0552 52.6808 67.3004C52.6808 67.5424 52.588 67.7512 52.4024 67.9268C52.2201 68.0992 51.9997 68.1854 51.7412 68.1854ZM58.0415 69.3636V70.5568H53.8703V69.3636H58.0415ZM54.9889 67.5341H56.4754V74.7578C56.4754 75.0462 56.5185 75.2633 56.6047 75.4091C56.6908 75.5516 56.8019 75.6494 56.9378 75.7024C57.077 75.7521 57.2278 75.777 57.3902 75.777C57.5095 75.777 57.6139 75.7687 57.7034 75.7521C57.7929 75.7356 57.8625 75.7223 57.9122 75.7124L58.1807 76.9403C58.0945 76.9735 57.9719 77.0066 57.8128 77.0398C57.6537 77.0762 57.4548 77.0961 57.2162 77.0994C56.8251 77.1061 56.4605 77.0365 56.1224 76.8906C55.7844 76.7448 55.5109 76.5194 55.3021 76.2145C55.0933 75.9096 54.9889 75.5268 54.9889 75.0661V67.5341ZM60.6254 79.8636C60.4034 79.8636 60.2012 79.8454 60.0189 79.8089C59.8366 79.7758 59.7007 79.7393 59.6112 79.6996L59.9692 78.4815C60.241 78.5545 60.4829 78.5859 60.695 78.576C60.9072 78.5661 61.0944 78.4865 61.2568 78.3374C61.4226 78.1882 61.5684 77.9446 61.6943 77.6065L61.8783 77.0994L59.0843 69.3636H60.6752L62.6091 75.2898H62.6887L64.6226 69.3636H66.2185L63.0715 78.0192C62.9256 78.4169 62.74 78.7533 62.5146 79.0284C62.2893 79.3068 62.0208 79.5156 61.7093 79.6548C61.3977 79.794 61.0364 79.8636 60.6254 79.8636ZM73.5429 77.169C73.059 77.169 72.6215 77.0795 72.2304 76.9006C71.8393 76.7183 71.5294 76.4548 71.3007 76.1101C71.0753 75.7654 70.9626 75.3428 70.9626 74.8423C70.9626 74.4115 71.0455 74.0568 71.2112 73.7784C71.3769 73.5 71.6006 73.2796 71.8824 73.1172C72.1641 72.9548 72.479 72.8321 72.827 72.7493C73.175 72.6664 73.5296 72.6035 73.8909 72.5604C74.3483 72.5073 74.7195 72.4643 75.0045 72.4311C75.2896 72.3946 75.4967 72.3366 75.626 72.2571C75.7552 72.1776 75.8199 72.0483 75.8199 71.8693V71.8345C75.8199 71.4003 75.6972 71.0639 75.452 70.8253C75.21 70.5866 74.8488 70.4673 74.3682 70.4673C73.8677 70.4673 73.4733 70.5784 73.1849 70.8004C72.8999 71.0192 72.7027 71.2628 72.5933 71.5312L71.1963 71.2131C71.362 70.7491 71.604 70.3745 71.9221 70.0895C72.2436 69.8011 72.6132 69.5923 73.0308 69.4631C73.4484 69.3305 73.8876 69.2642 74.3483 69.2642C74.6532 69.2642 74.9764 69.3007 75.3177 69.3736C75.6624 69.4432 75.9839 69.5724 76.2822 69.7614C76.5838 69.9503 76.8308 70.2204 77.023 70.5717C77.2152 70.9197 77.3113 71.3722 77.3113 71.929V77H75.8596V75.956H75.8C75.7039 76.1482 75.5597 76.3371 75.3675 76.5227C75.1752 76.7083 74.9283 76.8625 74.6267 76.9851C74.3251 77.1077 73.9638 77.169 73.5429 77.169ZM73.866 75.9759C74.277 75.9759 74.6283 75.8946 74.92 75.7322C75.215 75.5698 75.4387 75.3577 75.5912 75.0959C75.747 74.8307 75.8248 74.5473 75.8248 74.2457V73.2614C75.7718 73.3144 75.6691 73.3641 75.5166 73.4105C75.3675 73.4536 75.1968 73.4917 75.0045 73.5249C74.8123 73.5547 74.625 73.5829 74.4427 73.6094C74.2604 73.6326 74.108 73.6525 73.9854 73.669C73.697 73.7055 73.4335 73.7668 73.1949 73.853C72.9595 73.9392 72.7706 74.0634 72.6281 74.2259C72.4889 74.3849 72.4193 74.5971 72.4193 74.8622C72.4193 75.2301 72.5552 75.5085 72.827 75.6974C73.0988 75.883 73.4451 75.9759 73.866 75.9759ZM85.0136 71.228L83.6663 71.4666C83.6099 71.2943 83.5204 71.1302 83.3978 70.9744C83.2785 70.8187 83.1161 70.6911 82.9106 70.5916C82.7051 70.4922 82.4482 70.4425 82.14 70.4425C81.7191 70.4425 81.3677 70.5369 81.086 70.7259C80.8043 70.9115 80.6634 71.1518 80.6634 71.4467C80.6634 71.7019 80.7579 71.9074 80.9468 72.0632C81.1357 72.219 81.4407 72.3466 81.8616 72.446L83.0747 72.7244C83.7773 72.8868 84.301 73.1371 84.6457 73.4751C84.9904 73.8132 85.1627 74.2524 85.1627 74.7926C85.1627 75.25 85.0302 75.6577 84.765 76.0156C84.5032 76.3703 84.1369 76.6487 83.6663 76.8509C83.199 77.053 82.657 77.1541 82.0406 77.1541C81.1855 77.1541 80.4878 76.9718 79.9475 76.6072C79.4073 76.2393 79.0758 75.7173 78.9532 75.0412L80.39 74.8224C80.4795 75.197 80.6634 75.4804 80.9419 75.6726C81.2203 75.8615 81.5832 75.956 82.0306 75.956C82.5178 75.956 82.9073 75.8549 83.199 75.6527C83.4906 75.4472 83.6365 75.197 83.6365 74.902C83.6365 74.6634 83.547 74.4628 83.368 74.3004C83.1923 74.138 82.9222 74.0154 82.5576 73.9325L81.265 73.6491C80.5524 73.4867 80.0254 73.2282 79.684 72.8736C79.346 72.5189 79.1769 72.0698 79.1769 71.5263C79.1769 71.0755 79.3029 70.6811 79.5548 70.343C79.8067 70.005 80.1547 69.7415 80.5988 69.5526C81.0429 69.3603 81.5517 69.2642 82.1251 69.2642C82.9504 69.2642 83.6 69.4432 84.074 69.8011C84.5479 70.1558 84.8611 70.6314 85.0136 71.228ZM92.5194 71.228L91.1721 71.4666C91.1158 71.2943 91.0263 71.1302 90.9037 70.9744C90.7844 70.8187 90.622 70.6911 90.4165 70.5916C90.211 70.4922 89.9541 70.4425 89.6459 70.4425C89.2249 70.4425 88.8736 70.5369 88.5919 70.7259C88.3102 70.9115 88.1693 71.1518 88.1693 71.4467C88.1693 71.7019 88.2638 71.9074 88.4527 72.0632C88.6416 72.219 88.9465 72.3466 89.3675 72.446L90.5805 72.7244C91.2832 72.8868 91.8068 73.1371 92.1515 73.4751C92.4962 73.8132 92.6686 74.2524 92.6686 74.7926C92.6686 75.25 92.536 75.6577 92.2709 76.0156C92.009 76.3703 91.6428 76.6487 91.1721 76.8509C90.7048 77.053 90.1629 77.1541 89.5464 77.1541C88.6913 77.1541 87.9936 76.9718 87.4534 76.6072C86.9131 76.2393 86.5817 75.7173 86.4591 75.0412L87.8959 74.8224C87.9854 75.197 88.1693 75.4804 88.4477 75.6726C88.7261 75.8615 89.089 75.956 89.5365 75.956C90.0237 75.956 90.4131 75.8549 90.7048 75.6527C90.9965 75.4472 91.1423 75.197 91.1423 74.902C91.1423 74.6634 91.0528 74.4628 90.8738 74.3004C90.6982 74.138 90.4281 74.0154 90.0635 73.9325L88.7709 73.6491C88.0583 73.4867 87.5313 73.2282 87.1899 72.8736C86.8518 72.5189 86.6828 72.0698 86.6828 71.5263C86.6828 71.0755 86.8087 70.6811 87.0606 70.343C87.3125 70.005 87.6605 69.7415 88.1047 69.5526C88.5488 69.3603 89.0576 69.2642 89.6309 69.2642C90.4562 69.2642 91.1059 69.4432 91.5798 69.8011C92.0538 70.1558 92.367 70.6314 92.5194 71.228ZM99.1404 73.8331V69.3636H100.632V77H99.1702V75.6776H99.0906C98.915 76.0852 98.6333 76.425 98.2455 76.6967C97.861 76.9652 97.3821 77.0994 96.8087 77.0994C96.3182 77.0994 95.884 76.9917 95.5061 76.7763C95.1316 76.5575 94.8366 76.2344 94.6212 75.8068C94.4091 75.3793 94.303 74.8506 94.303 74.2209V69.3636H95.7895V74.0419C95.7895 74.5623 95.9337 74.9766 96.222 75.2848C96.5104 75.593 96.8849 75.7472 97.3456 75.7472C97.624 75.7472 97.9008 75.6776 98.1759 75.5384C98.4543 75.3991 98.6846 75.1887 98.8669 74.907C99.0525 74.6252 99.1437 74.2673 99.1404 73.8331ZM102.629 77V69.3636H104.066V70.5767H104.146C104.285 70.1657 104.53 69.8426 104.881 69.6072C105.236 69.3686 105.637 69.2493 106.084 69.2493C106.177 69.2493 106.287 69.2526 106.413 69.2592C106.542 69.2659 106.643 69.2741 106.716 69.2841V70.706C106.656 70.6894 106.55 70.6712 106.398 70.6513C106.245 70.6281 106.093 70.6165 105.94 70.6165C105.589 70.6165 105.276 70.6911 105.001 70.8402C104.729 70.986 104.513 71.1899 104.354 71.4517C104.195 71.7102 104.116 72.0052 104.116 72.3366V77H102.629ZM110.156 77.169C109.672 77.169 109.235 77.0795 108.844 76.9006C108.453 76.7183 108.143 76.4548 107.914 76.1101C107.689 75.7654 107.576 75.3428 107.576 74.8423C107.576 74.4115 107.659 74.0568 107.824 73.7784C107.99 73.5 108.214 73.2796 108.496 73.1172C108.777 72.9548 109.092 72.8321 109.44 72.7493C109.788 72.6664 110.143 72.6035 110.504 72.5604C110.962 72.5073 111.333 72.4643 111.618 72.4311C111.903 72.3946 112.11 72.3366 112.239 72.2571C112.369 72.1776 112.433 72.0483 112.433 71.8693V71.8345C112.433 71.4003 112.311 71.0639 112.065 70.8253C111.823 70.5866 111.462 70.4673 110.981 70.4673C110.481 70.4673 110.087 70.5784 109.798 70.8004C109.513 71.0192 109.316 71.2628 109.207 71.5312L107.81 71.2131C107.975 70.7491 108.217 70.3745 108.535 70.0895C108.857 69.8011 109.226 69.5923 109.644 69.4631C110.062 69.3305 110.501 69.2642 110.962 69.2642C111.266 69.2642 111.59 69.3007 111.931 69.3736C112.276 69.4432 112.597 69.5724 112.896 69.7614C113.197 69.9503 113.444 70.2204 113.636 70.5717C113.829 70.9197 113.925 71.3722 113.925 71.929V77H112.473V75.956H112.413C112.317 76.1482 112.173 76.3371 111.981 76.5227C111.789 76.7083 111.542 76.8625 111.24 76.9851C110.938 77.1077 110.577 77.169 110.156 77.169ZM110.479 75.9759C110.89 75.9759 111.242 75.8946 111.533 75.7322C111.828 75.5698 112.052 75.3577 112.204 75.0959C112.36 74.8307 112.438 74.5473 112.438 74.2457V73.2614C112.385 73.3144 112.282 73.3641 112.13 73.4105C111.981 73.4536 111.81 73.4917 111.618 73.5249C111.426 73.5547 111.238 73.5829 111.056 73.6094C110.874 73.6326 110.721 73.6525 110.599 73.669C110.31 73.7055 110.047 73.7668 109.808 73.853C109.573 73.9392 109.384 74.0634 109.241 74.2259C109.102 74.3849 109.033 74.5971 109.033 74.8622C109.033 75.2301 109.168 75.5085 109.44 75.6974C109.712 75.883 110.058 75.9759 110.479 75.9759ZM117.391 72.4659V77H115.905V69.3636H117.331V70.6065H117.426C117.602 70.2022 117.877 69.8774 118.251 69.6321C118.629 69.3868 119.105 69.2642 119.678 69.2642C120.198 69.2642 120.654 69.3736 121.045 69.5923C121.436 69.8078 121.74 70.1293 121.955 70.5568C122.17 70.9844 122.278 71.513 122.278 72.1428V77H120.792V72.3217C120.792 71.7682 120.647 71.3357 120.359 71.0241C120.071 70.7093 119.675 70.5518 119.171 70.5518C118.826 70.5518 118.52 70.6264 118.251 70.7756C117.986 70.9247 117.776 71.1435 117.62 71.4318C117.467 71.7169 117.391 72.0616 117.391 72.4659ZM127.488 77.1541C126.749 77.1541 126.113 76.9867 125.579 76.652C125.049 76.3139 124.641 75.8482 124.356 75.255C124.071 74.6617 123.929 73.9822 123.929 73.2166C123.929 72.4411 124.075 71.7566 124.366 71.1634C124.658 70.5668 125.069 70.1011 125.599 69.7663C126.129 69.4316 126.754 69.2642 127.473 69.2642C128.053 69.2642 128.571 69.3719 129.025 69.5874C129.479 69.7995 129.845 70.0978 130.123 70.4822C130.405 70.8667 130.572 71.3158 130.625 71.8295H129.179C129.099 71.4716 128.917 71.1634 128.632 70.9048C128.35 70.6463 127.972 70.517 127.498 70.517C127.084 70.517 126.721 70.6264 126.41 70.8452C126.101 71.0606 125.861 71.3688 125.689 71.7699C125.516 72.1676 125.43 72.6383 125.43 73.1818C125.43 73.7386 125.515 74.2192 125.684 74.6236C125.853 75.0279 126.091 75.3411 126.4 75.5632C126.711 75.7853 127.077 75.8963 127.498 75.8963C127.78 75.8963 128.035 75.8449 128.264 75.7422C128.496 75.6361 128.69 75.4853 128.846 75.2898C129.005 75.0942 129.116 74.8589 129.179 74.5838H130.625C130.572 75.0777 130.412 75.5185 130.143 75.9062C129.875 76.294 129.515 76.599 129.064 76.821C128.617 77.0431 128.092 77.1541 127.488 77.1541ZM135.506 77.1541C134.754 77.1541 134.106 76.9934 133.562 76.6719C133.022 76.3471 132.605 75.8913 132.31 75.3047C132.018 74.7147 131.872 74.0237 131.872 73.2315C131.872 72.4493 132.018 71.7599 132.31 71.1634C132.605 70.5668 133.016 70.1011 133.543 69.7663C134.073 69.4316 134.693 69.2642 135.402 69.2642C135.833 69.2642 136.25 69.3355 136.655 69.478C137.059 69.6205 137.422 69.8442 137.744 70.1491C138.065 70.4541 138.319 70.8501 138.504 71.3374C138.69 71.8213 138.783 72.4096 138.783 73.1023V73.6293H132.712V72.5156H137.326C137.326 72.1245 137.246 71.7782 137.087 71.4766C136.928 71.1716 136.704 70.9313 136.416 70.7557C136.131 70.58 135.796 70.4922 135.412 70.4922C134.994 70.4922 134.63 70.5949 134.318 70.8004C134.01 71.0026 133.771 71.2678 133.602 71.5959C133.436 71.9207 133.354 72.2737 133.354 72.6548V73.5249C133.354 74.0353 133.443 74.4695 133.622 74.8274C133.804 75.1854 134.058 75.4588 134.383 75.6477C134.708 75.8333 135.087 75.9261 135.521 75.9261C135.803 75.9261 136.06 75.8864 136.292 75.8068C136.524 75.724 136.724 75.6013 136.893 75.4389C137.062 75.2765 137.192 75.076 137.281 74.8374L138.688 75.0909C138.575 75.5052 138.373 75.8681 138.082 76.1797C137.793 76.4879 137.43 76.7282 136.993 76.9006C136.559 77.0696 136.063 77.1541 135.506 77.1541Z" fill="white" fill-opacity="0.8"/>
</g>
<rect x="1" y="1" width="159" height="112" rx="8" stroke="white" stroke-opacity="0.2" stroke-width="1.5"/>
</g>
<defs>
<filter id="filter0_b_958_19707" x="-14.75" y="-14.75" width="190.5" height="143.5" filterUnits="userSpaceOnUse" color-interpolation-filters="sRGB">
<feFlood flood-opacity="0" result="BackgroundImageFix"/>
<feGaussianBlur in="BackgroundImageFix" stdDeviation="7.5"/>
<feComposite in2="SourceAlpha" operator="in" result="effect1_backgroundBlur_958_19707"/>
<feBlend mode="normal" in="SourceGraphic" in2="effect1_backgroundBlur_958_19707" result="shape"/>
</filter>
<clipPath id="clip0_958_19707">
<rect x="1" y="1" width="160" height="112" rx="8" fill="white"/>
</clipPath>
</defs>
</svg>
