<svg width="20" height="22" viewBox="0 0 20 22" fill="none" xmlns="http://www.w3.org/2000/svg">
<g clip-path="url(#clip0_1883_62841)">
<path d="M9.09965 0.278614C9.64344 -0.0322729 10.3517 -0.0336771 10.895 0.278614C13.6284 1.82127 16.3627 3.3615 19.0956 4.90509C19.6096 5.19429 19.9534 5.76566 19.9482 6.35725V15.6384C19.952 16.2545 19.5742 16.8395 19.0319 17.1222C16.3075 18.6563 13.5845 20.1924 10.8606 21.7265C10.3056 22.0435 9.58306 22.0191 9.04536 21.6761C8.22859 21.2032 7.41041 20.7326 6.59356 20.2602C6.42664 20.1608 6.23848 20.0817 6.12061 19.92C6.22481 19.7797 6.4111 19.7623 6.56247 19.701C6.90341 19.5927 7.21655 19.4189 7.52976 19.2503C7.60896 19.1961 7.70566 19.2169 7.78158 19.2653C8.48002 19.6653 9.17229 20.0769 9.87307 20.4731C10.0226 20.5593 10.1739 20.4448 10.3017 20.3737C12.9752 18.8645 15.652 17.361 18.325 15.8513C18.424 15.8037 18.4788 15.6987 18.4707 15.5904C18.4726 12.5287 18.4712 9.4665 18.4717 6.40483C18.483 6.28188 18.4118 6.16884 18.3005 6.11852C15.5855 4.59139 12.8719 3.06193 10.1575 1.53441C10.1104 1.50211 10.0547 1.48479 9.99765 1.4847C9.94058 1.48462 9.88482 1.50178 9.83769 1.53394C7.12321 3.06193 4.41013 4.5928 1.69564 6.11985C1.58473 6.17025 1.51029 6.28142 1.52349 6.40483C1.52396 9.4665 1.52349 12.5287 1.52349 15.5908C1.51879 15.6437 1.53041 15.6968 1.55681 15.7428C1.5832 15.7889 1.6231 15.8258 1.67112 15.8485C2.39549 16.2588 3.1208 16.6662 3.84564 17.0751C4.25399 17.2946 4.75536 17.425 5.20527 17.2568C5.60229 17.1146 5.88059 16.71 5.87301 16.2889C5.87676 13.2451 5.87114 10.2008 5.87582 7.15751C5.8659 7.02239 5.99424 6.91076 6.12577 6.92347C6.47382 6.92113 6.82234 6.91879 7.17038 6.92441C7.31566 6.92113 7.41564 7.06663 7.39768 7.20276C7.39627 10.2658 7.40143 13.329 7.39533 16.3921C7.39627 17.2084 7.06049 18.0967 6.30448 18.4961C5.37312 18.978 4.22197 18.8758 3.30186 18.4137C2.50531 18.0166 1.74516 17.548 0.962758 17.1226C0.419048 16.8415 0.0431149 16.2541 0.0469422 15.6385V6.35725C0.0412403 5.75342 0.39874 5.17166 0.928781 4.88668C3.65272 3.35128 6.37618 1.81471 9.09965 0.278614Z" fill="#8CC84B"/>
<path d="M11.4758 6.70799C12.6638 6.63161 13.9356 6.66274 15.0047 7.2473C15.8324 7.69526 16.2913 8.63541 16.3059 9.55387C16.2828 9.67775 16.1531 9.74609 16.0347 9.73759C15.69 9.73712 15.3452 9.74227 15.0005 9.73525C14.8543 9.74087 14.7694 9.60621 14.751 9.4771C14.652 9.03765 14.412 8.60241 13.9979 8.39044C13.3622 8.07253 12.6251 8.08853 11.9318 8.09516C11.4258 8.12199 10.8816 8.16576 10.4529 8.46299C10.1237 8.68814 10.0237 9.14265 10.1412 9.5087C10.252 9.77153 10.5557 9.85633 10.8043 9.9345C12.236 10.3085 13.7532 10.2713 15.1575 10.7635C15.739 10.9641 16.3078 11.3542 16.5068 11.9622C16.7671 12.7772 16.653 13.7513 16.0725 14.4055C15.6017 14.9439 14.9161 15.2369 14.2323 15.396C13.3226 15.5986 12.3785 15.6038 11.4546 15.5138C10.5859 15.4149 9.68187 15.187 9.01124 14.5958C8.43777 14.0984 8.15767 13.3235 8.18548 12.5756C8.19212 12.4493 8.31803 12.3612 8.43917 12.3716C8.78628 12.3688 9.1334 12.3678 9.48051 12.3721C9.61915 12.3621 9.72194 12.4818 9.72905 12.6123C9.7931 13.031 9.95064 13.4705 10.3162 13.7187C11.0217 14.1733 11.9069 14.1422 12.7146 14.1549C13.3839 14.1253 14.1351 14.1163 14.6812 13.6745C14.9694 13.4225 15.0548 13.0009 14.9769 12.6382C14.8925 12.332 14.5718 12.1893 14.2964 12.096C12.883 11.6495 11.3489 11.8115 9.94923 11.3065C9.381 11.106 8.83151 10.7267 8.6132 10.1437C8.30858 9.31842 8.44816 8.29768 9.0895 7.66553C9.71483 7.03674 10.6175 6.79466 11.4758 6.70799Z" fill="#8CC84B"/>
</g>
<defs>
<clipPath id="clip0_1883_62841">
<rect width="20" height="22" fill="white"/>
</clipPath>
</defs>
</svg>
