<svg width="22" height="18" viewBox="0 0 22 18" fill="none" xmlns="http://www.w3.org/2000/svg">
<path fill-rule="evenodd" clip-rule="evenodd" d="M18.4033 1.27528L18.867 1.88706C18.9887 2.04853 18.9583 2.27997 18.7972 2.40196L18.3048 2.77693C18.3943 3.01554 18.4516 3.2703 18.4749 3.53044L19.0353 3.60758C19.2358 3.6345 19.3754 3.82108 19.3486 4.02202L19.2447 4.7845C19.2179 4.98544 19.0317 5.12717 18.8312 5.09846L18.2189 5.01414C18.1097 5.25276 17.97 5.47163 17.8053 5.66719L18.149 6.1193C18.2708 6.28076 18.2386 6.5122 18.0774 6.6342L17.4669 7.09886C17.3058 7.22086 17.0748 7.18857 16.9531 7.02889L16.5789 6.53552C16.339 6.62523 16.0865 6.68264 15.8252 6.70596L15.7482 7.26751C15.7213 7.46844 15.5351 7.60838 15.3346 7.58147L14.5737 7.47741C14.3732 7.4505 14.2335 7.26392 14.2604 7.06298L14.3445 6.44941C14.1082 6.33997 13.888 6.20003 13.6928 6.03677L13.2417 6.37944C13.0805 6.50144 12.8496 6.47094 12.7278 6.30947L12.2641 5.69769C12.1424 5.53622 12.1728 5.30478 12.3339 5.18279L12.8263 4.80782C12.7368 4.56742 12.6795 4.31445 12.6562 4.05431L12.0958 3.97716C11.8953 3.95025 11.7539 3.76367 11.7825 3.56273L11.8863 2.80025C11.915 2.59931 12.0994 2.45937 12.2999 2.48628L12.9122 2.57061C13.0214 2.33379 13.1611 2.11312 13.324 1.91756L12.9821 1.46545C12.8603 1.30578 12.8907 1.07434 13.0519 0.952347L13.6624 0.48768C13.8235 0.365683 14.0545 0.396182 14.1762 0.557649L14.5504 1.05102C14.7885 0.961317 15.0428 0.903907 15.3024 0.880584L15.3794 0.319037C15.4062 0.1181 15.5924 -0.0236326 15.7929 0.00327862L16.5538 0.107335C16.7543 0.134246 16.8958 0.320831 16.8671 0.521768L16.783 1.13534C17.0211 1.24478 17.2395 1.38472 17.4365 1.54978L17.8877 1.20711C18.0488 1.08331 18.2797 1.11381 18.4033 1.27528ZM5.31213 12.0416V9.08132H6.83394C7.11682 9.08132 7.33166 9.10464 7.48026 9.15488C7.62886 9.20332 7.75061 9.29302 7.84013 9.42399C7.93143 9.55675 7.97798 9.71643 7.97798 9.9048C7.97798 10.0681 7.94218 10.2116 7.87235 10.33C7.80253 10.4502 7.70585 10.5471 7.5841 10.6206C7.50712 10.6673 7.3997 10.7068 7.26363 10.7373C7.37284 10.7749 7.45162 10.809 7.49996 10.8467C7.53397 10.8718 7.58231 10.9238 7.64498 11.0028C7.70764 11.0817 7.75061 11.1445 7.77209 11.1876L8.2161 12.0433H7.18485L6.69787 11.1409C6.63521 11.0243 6.5815 10.9472 6.53316 10.9131C6.46692 10.8682 6.39172 10.8449 6.30936 10.8449H6.2288V12.0433H5.31213V12.0416ZM8.53121 17.1959H6.82678L6.5815 17.9997H5.04537L6.87691 13.1216H8.52405L10.3484 17.9997H8.77291L8.53121 17.1959ZM8.21252 16.1392L7.68078 14.3846L7.14725 16.1392H8.21252ZM10.7029 13.1216H13.2058C13.7519 13.1216 14.1601 13.2508 14.4305 13.5109C14.7008 13.771 14.8369 14.1424 14.8369 14.6214C14.8369 15.1148 14.6883 15.5005 14.3929 15.7786C14.0974 16.0567 13.6445 16.1948 13.0376 16.1948H12.2122V17.9997H10.7029V13.1216ZM12.2122 15.2063H12.5828C12.8746 15.2063 13.0805 15.1561 13.1987 15.0538C13.3169 14.9533 13.3759 14.8224 13.3759 14.6663C13.3759 14.5138 13.324 14.3828 13.222 14.277C13.1199 14.1711 12.9266 14.1173 12.6437 14.1173H12.2122V15.2063ZM15.4456 13.1216H16.9549V17.9997H15.4456V13.1216ZM6.2288 10.2834H6.61373C6.6549 10.2834 6.73547 10.269 6.85543 10.2421C6.9163 10.2295 6.96643 10.199 7.00403 10.1488C7.04341 10.0986 7.06132 10.0412 7.06132 9.97657C7.06132 9.88148 7.03088 9.80613 6.97001 9.7559C6.90914 9.70387 6.79634 9.67875 6.62984 9.67875H6.2288V10.2834ZM8.39156 9.08132H10.8354V9.71284H9.30823V10.1847H10.7244V10.7875H9.30823V11.3706H10.8802V12.0398H8.39156V9.08132ZM11.0968 11.062L11.9633 11.0082C11.9812 11.1499 12.0206 11.2557 12.0779 11.3293C12.1728 11.4477 12.3071 11.5087 12.4807 11.5087C12.6097 11.5087 12.7117 11.4782 12.7815 11.4172C12.8514 11.3562 12.8872 11.2845 12.8872 11.2037C12.8872 11.1266 12.8531 11.0584 12.7869 10.9974C12.7207 10.9364 12.5649 10.8808 12.3196 10.8252C11.9204 10.7355 11.6357 10.6153 11.4638 10.4664C11.2919 10.3174 11.206 10.1273 11.206 9.89583C11.206 9.74334 11.2508 9.59981 11.3385 9.46525C11.4262 9.3307 11.5587 9.22305 11.736 9.14591C11.9132 9.06876 12.1549 9.03109 12.4628 9.03109C12.8406 9.03109 13.1271 9.10106 13.3258 9.24279C13.5227 9.38452 13.6409 9.60699 13.6785 9.91557L12.8209 9.9676C12.7976 9.83304 12.7493 9.73437 12.6777 9.67516C12.6043 9.61416 12.5022 9.58366 12.3751 9.58366C12.2695 9.58366 12.1889 9.60699 12.1352 9.65184C12.0815 9.69669 12.0546 9.75231 12.0546 9.81689C12.0546 9.86354 12.0779 9.9048 12.1209 9.94427C12.1639 9.98195 12.2641 10.0196 12.4252 10.0537C12.8245 10.1398 13.111 10.2277 13.2828 10.3156C13.4547 10.4036 13.5818 10.513 13.6588 10.644C13.7376 10.7731 13.777 10.9203 13.777 11.0817C13.777 11.2719 13.7251 11.4459 13.6194 11.6056C13.5156 11.7653 13.3688 11.8873 13.1808 11.9698C12.9928 12.0523 12.7565 12.0936 12.47 12.0936C11.9687 12.0936 11.6196 11.9967 11.4262 11.8029C11.2329 11.6056 11.1237 11.3598 11.0968 11.062ZM13.9095 9.08132H16.6863V9.81331H15.7553V12.0416H14.8422V9.81331H13.9095V9.08132ZM10.8372 2.05571C10.5096 2.03059 10.1783 2.03418 9.85071 2.06647C8.84273 2.16335 7.8634 2.53114 7.05416 3.16086C6.1178 3.88746 5.40702 4.97467 5.13309 6.41532L5.04716 6.86563L4.59957 6.94457C4.16093 7.02172 3.76884 7.12757 3.42509 7.26212C3.09208 7.3913 2.79488 7.55097 2.53528 7.73935C2.32759 7.89005 2.14856 8.0587 1.99638 8.24169C1.52551 8.80683 1.30709 9.51549 1.31246 10.2331C1.31783 10.9615 1.55416 11.6971 1.991 12.3017C2.15393 12.526 2.34192 12.7323 2.55676 12.9117C2.77518 13.0929 3.02046 13.2436 3.29618 13.3566C3.45194 13.4212 3.61845 13.475 3.79211 13.5181V14.8618C3.43404 14.7973 3.10461 14.7004 2.79667 14.573C2.39026 14.4044 2.03039 14.1873 1.7135 13.9217C1.41272 13.6706 1.14953 13.3853 0.925738 13.0749C0.329546 12.2497 0.00728076 11.2414 0.000119299 10.2367C-0.00704216 9.22126 0.308062 8.21119 0.9884 7.39309C1.20862 7.12757 1.46822 6.88357 1.76542 6.66828C2.11096 6.41711 2.50663 6.20541 2.95422 6.03139C3.26216 5.91118 3.59159 5.81071 3.93892 5.72998C4.3328 4.16195 5.17248 2.95454 6.25207 2.1167C7.26184 1.33269 8.4775 0.875201 9.72896 0.754998C10.386 0.692205 11.052 0.72091 11.7037 0.842908C11.6894 0.902112 11.6769 0.961317 11.6697 1.02232L11.6679 1.03308C11.6554 1.13534 11.65 1.23761 11.6554 1.34166C11.5175 1.39548 11.3886 1.46904 11.2723 1.55875L11.2669 1.56233C11.0932 1.6933 10.9464 1.86195 10.8372 2.05571ZM20.31 5.50034C20.4103 5.59184 20.507 5.68692 20.6018 5.78919C20.7934 5.9955 20.9742 6.22873 21.1443 6.48888C21.7172 7.37156 22.0109 8.55027 21.9983 9.70387C21.9858 10.8359 21.6814 11.9626 21.0584 12.7915C20.652 13.3315 20.131 13.7728 19.5061 14.1227C19.0782 14.3631 18.5966 14.5622 18.0721 14.7237V13.3333C18.3549 13.2274 18.6181 13.109 18.8598 12.9745C19.3307 12.7107 19.7156 12.3896 20.0039 12.0039C20.4515 11.4064 20.6717 10.5614 20.6806 9.6949C20.6914 8.7853 20.4694 7.87211 20.0379 7.2083C19.9143 7.01634 19.7783 6.8441 19.635 6.68981C19.5795 6.63061 19.524 6.57499 19.4668 6.52117C19.4757 6.43147 19.4793 6.33997 19.4739 6.24847C19.6118 6.19465 19.7407 6.12109 19.8571 6.03139L19.8624 6.0278C20.0468 5.88607 20.2008 5.70666 20.31 5.50034ZM15.7696 2.29611C16.595 2.40914 17.1715 3.17162 17.0587 3.99869C16.9459 4.82576 16.185 5.40525 15.3597 5.29222C14.5343 5.1792 13.956 4.41671 14.0706 3.58964C14.1852 2.76257 14.9443 2.18309 15.7696 2.29611Z" fill="white"/>
</svg>
