<svg width="26" height="26" viewBox="0 0 26 26" fill="none" xmlns="http://www.w3.org/2000/svg">
<path d="M6.42946 11.6348C6.86652 9.55268 8.26607 7.8192 10.1469 6.93527C10.3237 7.17589 11.5219 8.84062 12.6366 10.8147C9.49375 11.6496 6.72902 11.6397 6.42946 11.6348ZM17.4491 7.99107C15.7991 6.52768 13.5549 5.97277 11.4286 6.48839C11.6152 6.73884 12.833 8.39866 13.933 10.417C16.3196 9.5183 17.3263 8.16295 17.4491 7.99107ZM8.87991 18.3036C10.8688 19.8554 13.4616 20.1058 15.6223 19.1875C15.5241 18.5982 15.1312 16.5455 14.1884 14.1C11.4826 15.0232 9.58214 16.8696 8.87991 18.3036ZM13.7317 12.9902C13.5647 12.6071 13.3781 12.229 13.1866 11.8509C9.8375 12.8527 6.58661 12.8134 6.29196 12.8036C6.29196 12.8723 6.28705 12.9411 6.28705 13.0098C6.28705 14.7335 6.94018 16.3049 8.01071 17.4982C9.10089 15.6371 11.3058 13.6728 13.7317 12.9902ZM15.4455 13.7906C16.3246 16.2018 16.6781 18.1661 16.7469 18.5737C18.2545 17.5571 19.325 15.9415 19.6246 14.0754C19.3987 14.0018 17.5473 13.4518 15.4455 13.7906ZM14.4487 11.4138C14.6844 11.8951 14.8562 12.2879 15.0379 12.7299C17.2723 12.45 19.492 12.8969 19.7129 12.946C19.6982 11.3598 19.1335 9.90625 18.1955 8.76696C18.0531 8.95848 16.9286 10.3973 14.4487 11.4138ZM24 4.35714V21.6429C24 22.9442 22.9442 24 21.6429 24H4.35714C3.0558 24 2 22.9442 2 21.6429V4.35714C2 3.0558 3.0558 2 4.35714 2H21.6429C22.9442 2 24 3.0558 24 4.35714ZM20.8571 13C20.8571 8.66875 17.3312 5.14286 13 5.14286C8.66875 5.14286 5.14286 8.66875 5.14286 13C5.14286 17.3312 8.66875 20.8571 13 20.8571C17.3312 20.8571 20.8571 17.3312 20.8571 13Z" fill="#41B56F"/>
</svg>
