<svg width="26" height="26" viewBox="0 0 26 26" fill="none" xmlns="http://www.w3.org/2000/svg">
<path d="M22.4286 2H3.56652C2.70223 2 2 2.71205 2 3.58616V22.4138C2 23.2879 2.70223 24 3.56652 24H22.4286C23.2929 24 24 23.2879 24 22.4138V3.58616C24 2.71205 23.2929 2 22.4286 2ZM8.64911 20.8571H5.38839V10.358H8.65402V20.8571H8.64911ZM7.01875 8.92411C5.97277 8.92411 5.12812 8.07455 5.12812 7.03348C5.12812 5.99241 5.97277 5.14286 7.01875 5.14286C8.05982 5.14286 8.90937 5.99241 8.90937 7.03348C8.90937 8.07946 8.06473 8.92411 7.01875 8.92411ZM20.8719 20.8571H17.6112V15.75C17.6112 14.5321 17.5866 12.9656 15.917 12.9656C14.2179 12.9656 13.9576 14.2915 13.9576 15.6616V20.8571H10.6969V10.358H13.825V11.792H13.8692C14.3062 10.967 15.3719 10.0978 16.958 10.0978C20.258 10.0978 20.8719 12.2732 20.8719 15.1018V20.8571Z" fill="#41B56F"/>
</svg>
