<svg width="22" height="22" viewBox="0 0 22 22" fill="none" xmlns="http://www.w3.org/2000/svg">
<g clip-path="url(#clip0_228_7678)">
<path d="M13.7494 7.52383C14.5121 7.52383 15.1244 6.91152 15.1244 6.1875C15.1244 5.46348 14.5121 4.8125 13.7881 4.8125C13.064 4.8125 12.4517 5.4248 12.4517 6.1875C12.4517 6.9502 12.9888 7.52383 13.7494 7.52383ZM15.4467 10.2051C15.0171 9.83447 14.3673 9.88818 13.9969 10.3232C13.2552 11.1891 12.1681 11.6875 10.9994 11.6875C9.83407 11.6875 8.74396 11.1882 8.00275 10.3232C7.63493 9.88711 6.97751 9.83984 6.54782 10.2051C6.11384 10.5746 6.07087 11.2277 6.43611 11.6574C7.57478 12.9895 9.23294 13.7517 10.9994 13.7517C12.7663 13.7517 14.4266 12.9895 15.567 11.6574C15.9322 11.2277 15.8806 10.5746 15.4467 10.2051ZM8.24939 7.52383C9.01208 7.52383 9.62439 6.91152 9.62439 6.1875C9.62439 5.46348 9.01208 4.8125 8.28806 4.8125C7.56404 4.8125 6.95173 5.4248 6.95173 6.1875C6.95173 6.9502 7.48884 7.52383 8.24939 7.52383Z" fill="white"/>
<path class="smileMsgPath" opacity="0.4" d="M19.25 0.000244141H2.75C1.23535 0.000244141 0 1.23543 0 2.75008V15.0864C0 16.6011 1.23535 17.7977 2.75 17.7977H6.875V21.4067C6.875 21.8256 7.3584 22.0705 7.69656 21.8234L13.0625 17.8364H19.25C20.7646 17.8364 22 16.6011 22 15.1251V2.75008C22 1.23543 20.7668 0.000244141 19.25 0.000244141ZM13.75 4.81258C14.5127 4.81258 15.0863 5.42488 15.0863 6.18758C15.0863 6.95027 14.474 7.5239 13.7113 7.5239C12.9486 7.5239 12.375 6.95242 12.375 6.18758C12.375 5.42273 12.9895 4.81258 13.75 4.81258ZM8.25 4.81258C9.0127 4.81258 9.58633 5.42488 9.58633 6.18758C9.58633 6.95027 9.01484 7.5239 8.25 7.5239C7.48516 7.5239 6.875 6.95242 6.875 6.18758C6.875 5.42273 7.48945 4.81258 8.25 4.81258ZM15.5676 11.6575C14.4289 12.9895 12.7686 13.7518 11 13.7518C9.23312 13.7518 7.57453 12.9895 6.43672 11.6575C6.07148 11.2278 6.11445 10.5781 6.54951 10.2073C6.97911 9.84207 7.63447 9.89041 8.00486 10.3255C8.74414 11.1891 9.83555 11.6876 11 11.6876C12.1653 11.6876 13.2554 11.1883 13.9966 10.3233C14.3672 9.88847 15.0171 9.83433 15.4464 10.2052C15.8813 10.5747 15.9328 11.2278 15.5676 11.6575Z" fill="white"/>
</g>
<defs>
<clipPath id="clip0_228_7678">
<rect width="22" height="22" fill="white"/>
</clipPath>
</defs>
</svg>
