<svg width="60" height="60" viewBox="0 0 60 60" fill="none" xmlns="http://www.w3.org/2000/svg">
<rect width="60" height="60" rx="8" fill="#161616"/>
<g clip-path="url(#clip0_958_20320)">
<path d="M42.98 31.9358C41.7214 31.9426 40.6316 32.2337 39.7175 32.6671C39.38 32.0239 39.0425 31.4618 38.9863 31.0421C38.923 30.5546 38.8457 30.2566 38.923 29.6744C39.0003 29.092 39.3519 28.266 39.3519 28.1983C39.3448 28.1374 39.2745 27.8394 38.5503 27.8327C37.8262 27.8259 37.2003 27.9681 37.13 28.1509C37.0597 28.3337 36.9191 28.7535 36.8277 29.1868C36.7011 29.8233 35.3792 32.078 34.6269 33.2629C34.3808 32.8025 34.1699 32.3962 34.1276 32.0711C34.0644 31.5837 33.987 31.2857 34.0644 30.7035C34.1417 30.1211 34.4933 29.2952 34.4933 29.2275C34.4863 29.1665 34.4159 28.8686 33.6918 28.8618C32.9675 28.8551 32.3418 28.9972 32.2715 29.1801C32.2012 29.3629 32.1238 29.7962 31.9691 30.216C31.8214 30.6358 30.0636 34.4004 29.6066 35.3821C29.3745 35.8832 29.1707 36.2827 29.023 36.5535C28.8753 36.8243 29.0159 36.5738 29.0019 36.6009C28.8753 36.8311 28.805 36.9597 28.805 36.9597V36.9666C28.7066 37.1359 28.6011 37.2983 28.5518 37.2983C28.5167 37.2983 28.4463 36.8446 28.5659 36.2218C28.826 34.915 29.4588 32.877 29.4519 32.8025C29.4519 32.7687 29.5713 32.4097 29.044 32.227C28.5307 32.0442 28.348 32.3489 28.3057 32.3489C28.2635 32.3489 28.2284 32.4572 28.2284 32.4572C28.2284 32.4572 28.7979 30.162 27.1385 30.162C26.0979 30.162 24.6635 31.2521 23.9534 32.2474C23.5034 32.4844 22.5471 32.9853 21.5346 33.5203C21.1479 33.7234 20.7471 33.9401 20.3674 34.1364L20.2902 34.0551C18.2792 31.99 14.5597 30.5275 14.7144 27.7514C14.7706 26.7426 15.1363 24.0816 21.8582 20.8587C27.3637 18.2181 31.7723 18.9426 32.5386 20.554C33.6284 22.8561 30.1831 27.1353 24.4598 27.7514C22.2801 27.9884 21.1339 27.1759 20.8457 26.8712C20.5434 26.553 20.5012 26.5394 20.3887 26.6004C20.2059 26.6952 20.3184 26.9795 20.3887 27.1488C20.5574 27.5754 21.2605 28.3337 22.4559 28.7129C23.5034 29.0446 26.0629 29.2275 29.1566 28.0764C32.623 26.7832 35.3301 23.1946 34.5355 20.1952C33.727 17.1415 28.4676 16.1394 23.4965 17.8389C20.5363 18.8545 17.33 20.4389 15.0238 22.5176C12.2816 24.9821 11.8456 27.1353 12.0284 28.029C12.6684 31.2181 17.2316 33.2967 19.0597 34.8337C18.9683 34.881 18.8839 34.9284 18.8066 34.9691C17.8925 35.4024 14.412 37.1561 13.5402 39.0112C12.5558 41.1102 13.6949 42.6202 14.4542 42.8233C16.8027 43.453 19.2074 42.3222 20.5081 40.4603C21.8018 38.5983 21.6472 36.1811 21.0495 35.0775L21.0284 35.0368L21.7456 34.6306C22.2097 34.3665 22.6667 34.1228 23.0674 33.9128C22.8425 34.5019 22.6807 35.1993 22.5964 36.2149C22.498 37.4066 23.0042 38.9503 23.6722 39.5597C23.9675 39.8237 24.3191 39.8305 24.537 39.8305C25.3105 39.8305 25.662 39.2143 26.0488 38.4763C26.5269 37.5758 26.9488 36.5331 26.9488 36.5331C26.9488 36.5331 26.4214 39.3566 27.8628 39.3566C28.3902 39.3566 28.9175 38.6998 29.1566 38.3612V38.368C29.1566 38.368 29.1706 38.3477 29.1988 38.3003C29.2283 38.2583 29.2564 38.2154 29.2831 38.1717V38.1582C29.4941 37.8061 29.9652 37.0004 30.6683 35.6665C31.5753 33.9467 32.4472 31.7936 32.4472 31.7936C32.4472 31.7936 32.5316 32.3217 32.7917 33.1884C32.9463 33.703 33.2838 34.265 33.544 34.8134C33.3331 35.0978 33.2065 35.2603 33.2065 35.2603L33.2135 35.2671C33.0449 35.4838 32.8549 35.7141 32.6581 35.9442C31.9409 36.7702 31.0831 37.7114 30.9706 37.9823C30.837 38.3004 30.8652 38.5374 31.1253 38.7271C31.3152 38.8625 31.6527 38.8895 32.0113 38.8625C32.6581 38.8218 33.1081 38.6661 33.3331 38.5713C33.6847 38.4494 34.0855 38.2666 34.4722 37.9958C35.1753 37.4948 35.6042 36.7838 35.562 35.8359C35.5409 35.3146 35.3652 34.8 35.1472 34.3125C35.2105 34.2245 35.2738 34.1364 35.337 34.0417C36.448 32.4775 37.3058 30.7578 37.3058 30.7578C37.3058 30.7578 37.3902 31.2859 37.6503 32.1526C37.7838 32.5927 38.0511 33.0735 38.2902 33.5475C37.2495 34.3667 36.5956 35.3146 36.3706 35.9376C35.9558 37.0886 36.2792 37.61 36.8909 37.7318C37.1651 37.786 37.5589 37.6641 37.8542 37.5422C38.2198 37.4271 38.6628 37.2307 39.0706 36.9396C39.7738 36.4386 40.4488 35.7412 40.4136 34.8001C40.3925 34.3667 40.273 33.9402 40.1113 33.5339C40.9972 33.1818 42.1432 32.9787 43.5988 33.148C46.7277 33.5001 47.3464 35.3823 47.227 36.1678C47.1074 36.9532 46.4535 37.3865 46.2355 37.5219C46.0175 37.6506 45.9472 37.698 45.9683 37.7928C45.9964 37.935 46.0949 37.9282 46.2847 37.9012C46.5449 37.8605 47.93 37.2579 47.9863 35.809C48.0706 33.9468 46.2355 31.9155 42.98 31.9358ZM18.8488 39.7696C17.8152 40.8597 16.3597 41.2728 15.7409 40.9207C15.073 40.5483 15.3331 38.9436 16.6058 37.7858C17.3792 37.0816 18.3847 36.4316 19.0456 36.0321C19.1933 35.9441 19.4183 35.8155 19.6855 35.6597C19.7277 35.6327 19.7558 35.6191 19.7558 35.6191C19.805 35.592 19.8613 35.5582 19.9175 35.5243C20.3886 37.1764 19.9386 38.6254 18.8488 39.7696ZM26.4074 34.8202C26.0488 35.6665 25.2894 37.84 24.8324 37.7181C24.4385 37.6165 24.1995 35.9712 24.7549 34.3462C25.0362 33.5269 25.6338 32.5519 25.9854 32.1727C26.555 31.5633 27.1737 31.3602 27.3284 31.6107C27.5113 31.9358 26.6324 34.292 26.4074 34.8202ZM32.6441 37.691C32.4894 37.7655 32.3488 37.8196 32.2855 37.7791C32.2363 37.752 32.3487 37.6504 32.3487 37.6504C32.3487 37.6504 33.1292 36.8447 33.4385 36.4723C33.6143 36.2557 33.8253 36.0052 34.0503 35.7208V35.802C34.0503 36.7769 33.08 37.4269 32.6441 37.691ZM37.4534 36.6348C37.3409 36.5535 37.355 36.303 37.7346 35.5176C37.8824 35.2061 38.2198 34.6847 38.8034 34.1905C38.8737 34.3936 38.9159 34.5899 38.9088 34.7728C38.9019 35.9915 38.0019 36.4452 37.4534 36.6348Z" fill="#CF649A"/>
</g>
<rect x="0.5" y="0.5" width="59" height="59" rx="7.5" stroke="white" stroke-opacity="0.2"/>
<defs>
<clipPath id="clip0_958_20320">
<rect width="36" height="26" fill="white" transform="translate(12 17)"/>
</clipPath>
</defs>
</svg>
