<svg width="60" height="60" viewBox="0 0 60 60" fill="none" xmlns="http://www.w3.org/2000/svg">
<rect width="60" height="60" rx="8" fill="#161616"/>
<g clip-path="url(#clip0_1188_25513)">
<path d="M30 39.8834C41.0457 39.8834 50 35.4323 50 29.9417C50 24.451 41.0457 20 30 20C18.9543 20 10 24.451 10 29.9417C10 35.4323 18.9543 39.8834 30 39.8834Z" fill="#8993BE"/>
<path fill-rule="evenodd" clip-rule="evenodd" d="M15.6172 35.8271L17.8091 25.2313H22.8773C25.0691 25.3621 26.165 26.4085 26.165 28.2401C26.165 31.3795 23.5623 33.2109 21.2334 33.08H18.768L18.22 35.8271H15.6172ZM19.3158 31.118L20.0008 27.1935H21.7816C22.7405 27.1935 23.4253 27.5859 23.4253 28.3708C23.2884 30.5947 22.1925 30.9871 20.9597 31.118H19.3158ZM25.6558 33.08L27.8475 22.4844H30.4503L29.9023 25.2313H32.368C34.5598 25.3621 35.3817 26.4085 35.1078 27.7168L34.1489 33.08H31.4092L32.3681 28.2401C32.505 27.5859 32.505 27.1935 31.5462 27.1935H29.4914L28.2586 33.08H25.6558ZM33.9734 35.8271L36.1652 25.2313H41.2336C43.4255 25.3621 44.5214 26.4085 44.5214 28.2401C44.5214 31.3795 41.9186 33.2109 39.5898 33.08H37.1241L36.5761 35.8271H33.9734ZM37.6719 31.118L38.3569 27.1935H40.1378C41.0967 27.1935 41.7816 27.5859 41.7816 28.3708C41.6447 30.5947 40.5487 30.9871 39.3159 31.118H37.672H37.6719Z" fill="#232531"/>
</g>
<rect x="0.5" y="0.5" width="59" height="59" rx="7.5" stroke="white" stroke-opacity="0.2"/>
<defs>
<clipPath id="clip0_1188_25513">
<rect width="40" height="20" fill="white" transform="translate(10 20)"/>
</clipPath>
</defs>
</svg>
