<svg width="60" height="60" viewBox="0 0 60 60" fill="none" xmlns="http://www.w3.org/2000/svg">
<rect width="60" height="60" rx="8" fill="#161616"/>
<g clip-path="url(#clip0_1188_25693)">
<path d="M41.7733 36.8079C40.251 36.7707 39.0712 36.9199 38.0817 37.3299C37.7962 37.4416 37.3394 37.4417 37.3014 37.7959C37.4536 37.9451 37.4727 38.1874 37.6059 38.3924C37.8345 38.7651 38.2338 39.2685 38.5954 39.5296C38.9949 39.8277 39.3947 40.1259 39.8132 40.3869C40.5554 40.8343 41.3928 41.0952 42.1159 41.5426C42.5346 41.8034 42.953 42.1392 43.3717 42.4187C43.581 42.5676 43.7141 42.8102 43.9807 42.9033V42.8475C43.8474 42.6796 43.8093 42.4374 43.6762 42.2509C43.4861 42.0645 43.2956 41.8967 43.1053 41.7103C42.5535 40.9835 41.8684 40.3496 41.1263 39.8277C40.5174 39.4176 39.1853 38.8584 38.938 38.1687C38.938 38.1687 38.9188 38.1501 38.8999 38.1315C39.3185 38.0942 39.8132 37.9451 40.2129 37.8332C40.8599 37.6653 41.4498 37.7027 42.1159 37.5349C42.4202 37.4604 42.7247 37.3672 43.0291 37.274V37.1063C42.6868 36.7707 42.4394 36.3234 42.0778 36.0065C41.1073 35.1861 40.0416 34.3847 38.938 33.7137C38.348 33.3408 37.5867 33.0985 36.9588 32.7817C36.7307 32.6697 36.3499 32.6139 36.2168 32.4275C35.8741 32.0174 35.6838 31.4769 35.4365 30.9922C34.8849 29.9669 34.3519 28.8299 33.8761 27.7489C33.5337 27.0218 33.3244 26.2948 32.9057 25.6239C30.9457 22.455 28.8144 20.535 25.5415 18.6522C24.8373 18.2609 24.0001 18.0931 23.1057 17.8881C22.6301 17.8694 22.1543 17.8322 21.6786 17.8134C21.3741 17.6829 21.0696 17.3289 20.8031 17.1611C19.7187 16.4899 16.9212 15.0362 16.122 16.9561C15.6082 18.1677 16.8833 19.3605 17.3208 19.9759C17.6445 20.4045 18.063 20.8891 18.2914 21.3738C18.4246 21.6905 18.4625 22.0263 18.5957 22.3618C18.9004 23.1817 19.1856 24.0953 19.5854 24.8596C19.7947 25.251 20.023 25.661 20.2894 26.0152C20.4417 26.2202 20.708 26.3135 20.7652 26.649C20.4989 27.0218 20.4797 27.5811 20.3274 28.047C19.6424 30.1534 19.9089 32.763 20.8793 34.3101C21.1837 34.776 21.9069 35.8015 22.8773 35.4099C23.7337 35.0745 23.5434 34.012 23.7906 33.08C23.8479 32.856 23.8099 32.7071 23.9239 32.558V32.5954C24.1904 33.1171 24.4567 33.6206 24.7041 34.1425C25.2941 35.0557 26.3216 36.0065 27.1779 36.6403C27.6347 36.9757 27.9962 37.5536 28.5671 37.7587V37.7026H28.529C28.4148 37.5348 28.2435 37.4604 28.0914 37.3298C27.7489 36.9944 27.3682 36.5843 27.1018 36.2114C26.3027 35.1675 25.5985 34.0119 24.9706 32.8188C24.6662 32.2411 24.3996 31.6073 24.1523 31.0295C24.038 30.8056 24.038 30.4702 23.8478 30.3585C23.5624 30.7685 23.1438 31.1227 22.9344 31.626C22.5731 32.4275 22.5349 33.4154 22.4017 34.4405C22.3255 34.4594 22.3635 34.4405 22.3254 34.478C21.7166 34.3287 21.5073 33.7137 21.2788 33.1917C20.7079 31.8683 20.6127 29.7433 21.1076 28.2148C21.2409 27.8233 21.8118 26.5932 21.5834 26.2203C21.4692 25.8661 21.0885 25.661 20.8793 25.3815C20.632 25.0273 20.3654 24.5801 20.1943 24.1885C19.7375 23.1446 19.5091 21.9889 19.0144 20.945C18.7861 20.4603 18.3866 19.9572 18.063 19.5098C17.7015 19.0066 17.3018 18.6522 17.0164 18.0558C16.9213 17.8508 16.788 17.5153 16.9402 17.2916C16.9783 17.1424 17.0543 17.0866 17.2067 17.0493C17.4541 16.8441 18.1582 17.1051 18.4054 17.217C19.1096 17.4964 19.6994 17.7576 20.2894 18.149C20.5557 18.3354 20.8412 18.6896 21.1837 18.7828H21.5833C22.1923 18.9132 22.8772 18.8201 23.4482 18.9878C24.4568 19.3046 25.3701 19.7707 26.1884 20.274C28.6813 21.8211 30.7363 24.0207 32.1255 26.649C32.3539 27.0775 32.449 27.4692 32.6583 27.9164C33.0581 28.8299 33.5528 29.7619 33.9522 30.6567C34.3519 31.5326 34.7324 32.4275 35.3033 33.1545C35.5888 33.5458 36.7304 33.751 37.2443 33.956C37.6249 34.1237 38.2149 34.273 38.5573 34.4779C39.2043 34.8692 39.8512 35.3168 40.4602 35.7454C40.7647 35.9691 41.7161 36.4352 41.7733 36.8079Z" fill="#109FC6"/>
<path d="M22.364 20.6094C22.0406 20.6094 21.8124 20.6469 21.584 20.7027V20.74H21.622C21.7744 21.0383 22.0406 21.2433 22.2308 21.5042C22.3832 21.8024 22.5163 22.1008 22.6687 22.399C22.6876 22.3803 22.7066 22.3618 22.7066 22.3618C22.9732 22.1752 23.1063 21.8771 23.1063 21.4296C22.9921 21.2993 22.973 21.1688 22.8779 21.0383C22.7638 20.8517 22.5163 20.7586 22.364 20.6094Z" fill="#109FC6"/>
</g>
<rect x="0.5" y="0.5" width="59" height="59" rx="7.5" stroke="white" stroke-opacity="0.2"/>
<defs>
<clipPath id="clip0_1188_25693">
<rect width="28" height="27" fill="white" transform="translate(16 16)"/>
</clipPath>
</defs>
</svg>
