<svg width="60" height="60" viewBox="0 0 60 60" fill="none" xmlns="http://www.w3.org/2000/svg">
<rect width="60" height="60" rx="8" fill="#161616"/>
<g clip-path="url(#clip0_1188_25723)">
<path fill-rule="evenodd" clip-rule="evenodd" d="M29.9989 43.9957H14V16.0039H45.9979V43.9957H29.9989Z" fill="white"/>
<path fill-rule="evenodd" clip-rule="evenodd" d="M14 16.0039V24.5565C18.3231 22.7226 24.1096 20.8781 31.3721 19.0186C36.0248 17.8293 40.5221 16.8251 44.8641 16.0039H14ZM34.6748 20.0717C30.864 21.0461 27.7986 22.0376 25.4785 23.0439C23.1543 24.0289 22.0688 24.831 22.222 25.4458C22.3564 25.9884 23.3285 26.2351 25.1447 26.182C26.0769 26.1649 27.5907 26.0628 29.6903 25.8735C31.7899 25.6862 34.4984 25.4118 37.8158 25.0544C41.1016 24.7076 43.8164 24.4714 45.9979 24.3353V17.8357C41.7819 18.474 38.0026 19.2186 34.6748 20.0717ZM32.7662 28.8945C31.1159 29.0201 29.0688 29.2115 26.6207 29.4732C22.8225 29.886 19.6668 30.1987 17.1557 30.4093C15.9547 30.5115 14.9091 30.5859 14 30.6391V37.5706C18.9823 36.8259 23.4881 35.9409 27.5067 34.9133C31.4561 33.9027 34.4984 32.9219 36.6358 31.9709C38.7711 31.0178 39.7558 30.2179 39.5941 29.5626C39.4534 28.9967 38.4666 28.7073 36.6379 28.6946C35.7015 28.7052 34.4123 28.7712 32.7662 28.8945ZM45.9979 31.137C41.6181 32.8858 36.1844 34.5899 29.6924 36.2515C23.6435 37.7982 18.4176 38.9109 14 39.5938V39.6555H45.9979V31.137Z" fill="#809CC9"/>
<path fill-rule="evenodd" clip-rule="evenodd" d="M15.3777 32.582C15.4617 32.582 15.5331 32.6139 15.594 32.6778C15.6549 32.7395 15.6864 32.8118 15.6864 32.8969C15.6864 32.9863 15.6549 33.0629 15.594 33.1245C15.5331 33.1862 15.4596 33.216 15.3735 33.216C15.2854 33.216 15.2119 33.1862 15.151 33.1245C15.0901 33.0607 15.0586 32.9863 15.0586 32.8969C15.0586 32.8097 15.0901 32.7352 15.151 32.6735C15.2119 32.6118 15.2895 32.582 15.3777 32.582ZM15.594 34.7202C15.6549 34.7819 15.6864 34.8564 15.6864 34.9457C15.6864 35.0329 15.6549 35.1074 15.594 35.1691C15.5289 35.2308 15.4554 35.2606 15.3735 35.2606C15.3294 35.2606 15.2875 35.2521 15.2497 35.235C15.2119 35.2202 15.1783 35.1968 15.151 35.1691C15.1216 35.1393 15.0985 35.1074 15.0838 35.067C15.067 35.0287 15.0586 34.9861 15.0586 34.9415C15.0586 34.8542 15.0901 34.7798 15.151 34.7181C15.2119 34.6564 15.2895 34.6245 15.3777 34.6245C15.4617 34.6245 15.5331 34.6564 15.594 34.7202Z" fill="white"/>
<path fill-rule="evenodd" clip-rule="evenodd" d="M16.4617 32.582C16.5457 32.582 16.6171 32.6139 16.678 32.6778C16.7389 32.7395 16.7704 32.8118 16.7704 32.8969C16.7704 32.9863 16.7389 33.0629 16.678 33.1245C16.6171 33.1862 16.5436 33.216 16.4575 33.216C16.3693 33.216 16.2937 33.1862 16.2329 33.1245C16.172 33.0607 16.1426 32.9863 16.1426 32.8969C16.1426 32.8097 16.172 32.7352 16.2329 32.6735C16.2958 32.6118 16.3735 32.582 16.4617 32.582ZM16.678 34.7202C16.7389 34.7819 16.7704 34.8564 16.7704 34.9457C16.7704 35.0329 16.7389 35.1074 16.678 35.1691C16.6129 35.2308 16.5394 35.2606 16.4575 35.2606C16.4134 35.2606 16.3714 35.2521 16.3336 35.235C16.2958 35.2202 16.2623 35.1968 16.2329 35.1691C16.2056 35.1393 16.1825 35.1074 16.1678 35.067C16.151 35.0287 16.1426 34.9861 16.1426 34.9415C16.1426 34.8542 16.172 34.7798 16.2329 34.7181C16.2958 34.6564 16.3735 34.6245 16.4617 34.6245C16.5457 34.6245 16.6171 34.6564 16.678 34.7202Z" fill="white"/>
<path fill-rule="evenodd" clip-rule="evenodd" d="M15.7864 42.456C15.7192 42.5581 15.6226 42.639 15.4966 42.6985C15.3685 42.756 15.2174 42.7858 15.0431 42.7858C14.8353 42.7858 14.6631 42.7453 14.5266 42.6666C14.43 42.6092 14.3502 42.5305 14.2915 42.4347C14.2306 42.339 14.2012 42.2454 14.2012 42.1539C14.2012 42.1007 14.218 42.056 14.2537 42.0177C14.2915 41.9816 14.3376 41.9624 14.3922 41.9624C14.4384 41.9624 14.4762 41.9773 14.5077 42.0071C14.5392 42.0347 14.5665 42.0794 14.5875 42.1369C14.6148 42.2049 14.6442 42.2624 14.6757 42.3092C14.7072 42.3539 14.7513 42.3922 14.808 42.422C14.8646 42.4517 14.9402 42.4666 15.0326 42.4666C15.1607 42.4666 15.2636 42.4368 15.3434 42.3773C15.4231 42.3156 15.463 42.2411 15.463 42.1518C15.463 42.0794 15.442 42.022 15.3979 41.9773C15.356 41.9326 15.3014 41.8986 15.2321 41.8752C15.1649 41.8518 15.0725 41.8284 14.9591 41.8007C14.8059 41.7645 14.6799 41.722 14.5749 41.6731C14.472 41.6263 14.3922 41.5603 14.3313 41.4752C14.2705 41.3922 14.2411 41.288 14.2411 41.1646C14.2411 41.0454 14.2726 40.9391 14.3355 40.8476C14.4006 40.7561 14.493 40.6859 14.6127 40.637C14.7324 40.5859 14.8751 40.5625 15.0389 40.5625C15.167 40.5625 15.2804 40.5795 15.3748 40.6114C15.4693 40.6433 15.5491 40.688 15.6121 40.7412C15.6751 40.7965 15.7213 40.854 15.7486 40.9135C15.778 40.9731 15.7927 41.0306 15.7927 41.088C15.7927 41.1391 15.7738 41.1859 15.7381 41.2284C15.7024 41.2688 15.6583 41.2901 15.6037 41.2901C15.5554 41.2901 15.5176 41.2773 15.4924 41.2518C15.4672 41.2284 15.4399 41.1859 15.4105 41.1305C15.3706 41.0497 15.3245 40.9859 15.2699 40.9391C15.2174 40.8944 15.1292 40.871 15.0095 40.871C14.8982 40.871 14.8101 40.8965 14.7408 40.9455C14.6736 40.9944 14.64 41.054 14.64 41.1242C14.64 41.1667 14.6505 41.205 14.6736 41.2348C14.6967 41.2667 14.7282 41.2944 14.7702 41.3156C14.8101 41.339 14.8499 41.3561 14.8919 41.3688C14.9339 41.3816 15.0032 41.4007 15.0977 41.4241C15.2174 41.4539 15.3266 41.4858 15.4231 41.5199C15.5197 41.5539 15.6016 41.5943 15.6688 41.6433C15.736 41.6922 15.7906 41.7539 15.8284 41.8284C15.8662 41.905 15.8851 41.9964 15.8851 42.105C15.8851 42.2347 15.8515 42.3517 15.7864 42.456Z" fill="#809CC9"/>
<path fill-rule="evenodd" clip-rule="evenodd" d="M17.5898 40.8263C17.5898 40.7391 17.6087 40.6731 17.6486 40.6285C17.6864 40.5838 17.7389 40.5625 17.8019 40.5625C17.8691 40.5625 17.9216 40.5838 17.9615 40.6285C18.0014 40.6731 18.0203 40.7391 18.0203 40.8263V41.8858C18.0203 42.0071 18.0329 42.1071 18.0602 42.1879C18.0853 42.2688 18.1336 42.3326 18.2008 42.3773C18.268 42.422 18.3625 42.4432 18.4822 42.4432C18.6501 42.4432 18.7677 42.3985 18.837 42.3071C18.9063 42.2177 18.942 42.0794 18.942 41.8943V40.8263C18.942 40.737 18.9609 40.671 18.9987 40.6285C19.0386 40.5838 19.089 40.5625 19.154 40.5625C19.2191 40.5625 19.2716 40.5838 19.3115 40.6285C19.3514 40.671 19.3724 40.737 19.3724 40.8263V41.8624C19.3724 42.0305 19.3556 42.1709 19.3241 42.2837C19.2905 42.3964 19.2296 42.4943 19.1393 42.5794C19.0638 42.6517 18.9735 42.7028 18.8706 42.7368C18.7698 42.7687 18.6501 42.7858 18.5137 42.7858C18.3499 42.7858 18.2092 42.7687 18.0916 42.7326C17.9741 42.6964 17.8796 42.6411 17.804 42.5666C17.7305 42.4922 17.6759 42.3964 17.6423 42.2794C17.6066 42.1624 17.5898 42.022 17.5898 41.8603V40.8263Z" fill="#809CC9"/>
<path fill-rule="evenodd" clip-rule="evenodd" d="M21.4264 42.7504C21.334 42.7504 21.2668 42.7291 21.2269 42.6865C21.187 42.644 21.166 42.5759 21.166 42.4823V40.8675C21.166 40.7718 21.187 40.7037 21.2269 40.6633C21.2689 40.6207 21.3361 40.6016 21.4264 40.6016H22.115C22.2179 40.6016 22.304 40.6058 22.3796 40.6186C22.4531 40.6313 22.5203 40.6569 22.579 40.6909C22.6294 40.7228 22.6735 40.7611 22.7113 40.8079C22.7512 40.8526 22.7806 40.9037 22.7995 40.9611C22.8205 41.0164 22.831 41.076 22.831 41.1377C22.831 41.3547 22.7239 41.51 22.5119 41.61C22.7911 41.7015 22.9297 41.8759 22.9297 42.1355C22.9297 42.2568 22.9003 42.3653 22.8394 42.461C22.7785 42.5589 22.6966 42.6291 22.5937 42.6759C22.5287 42.7036 22.4552 42.7206 22.3691 42.7333C22.2872 42.744 22.1885 42.7504 22.0751 42.7504H21.4264ZM21.5964 40.9249V41.4824H21.9912C22.0982 41.4824 22.1801 41.4717 22.2389 41.4526C22.2977 41.4313 22.3418 41.3909 22.3733 41.3334C22.3985 41.293 22.409 41.2462 22.409 41.1951C22.409 41.0866 22.3712 41.0143 22.2956 40.9781C22.22 40.942 22.1024 40.9249 21.945 40.9249H21.5964ZM21.5964 41.793V42.4248H22.0583C22.3502 42.4248 22.4951 42.3185 22.4951 42.1036C22.4951 41.9951 22.4573 41.9164 22.3817 41.8653C22.3061 41.8164 22.1948 41.793 22.0457 41.793H21.5964Z" fill="#809CC9"/>
<path fill-rule="evenodd" clip-rule="evenodd" d="M25.4286 42.29L25.9094 40.837C25.9367 40.7604 25.9535 40.7072 25.9661 40.6795C25.9787 40.6497 25.9997 40.6221 26.0291 40.5987C26.0585 40.5731 26.0984 40.5625 26.1467 40.5625C26.1845 40.5625 26.2181 40.571 26.2496 40.5902C26.281 40.6093 26.3062 40.6327 26.323 40.6646C26.3419 40.6944 26.3503 40.7263 26.3503 40.7582C26.3503 40.7795 26.3461 40.8029 26.3419 40.8263C26.3356 40.8518 26.3293 40.8774 26.3188 40.9008C26.3104 40.9242 26.302 40.9497 26.2936 40.9752L25.7813 42.3794C25.7624 42.4326 25.7435 42.4858 25.7268 42.5326C25.7079 42.5815 25.6869 42.6241 25.6617 42.6602C25.6386 42.6964 25.605 42.7283 25.5651 42.7517C25.5252 42.7751 25.4769 42.7858 25.4202 42.7858C25.3614 42.7858 25.3131 42.7751 25.2732 42.7517C25.2333 42.7283 25.1998 42.6985 25.1767 42.6602C25.1515 42.6241 25.1305 42.5815 25.1116 42.5326C25.0927 42.4837 25.0759 42.4326 25.057 42.3794L24.5531 40.9859C24.5426 40.9603 24.5342 40.9348 24.5258 40.9114C24.5153 40.8859 24.509 40.8604 24.5027 40.8327C24.4964 40.8029 24.4922 40.7795 24.4922 40.7604C24.4922 40.7093 24.5132 40.6646 24.5531 40.6242C24.5909 40.5816 24.6413 40.5625 24.7 40.5625C24.7735 40.5625 24.826 40.5838 24.8575 40.6306C24.8869 40.6753 24.9184 40.7476 24.9499 40.8476L25.4286 42.29Z" fill="#999999"/>
<path fill-rule="evenodd" clip-rule="evenodd" d="M28.4382 40.9335V41.4632H29.3306C29.3956 41.4632 29.4439 41.4781 29.4775 41.5079C29.509 41.5377 29.5258 41.5781 29.5258 41.627C29.5258 41.676 29.509 41.7143 29.4775 41.7462C29.446 41.776 29.3956 41.793 29.3306 41.793H28.4382V42.4078H29.4397C29.5069 42.4078 29.5594 42.4227 29.593 42.4546C29.6266 42.4865 29.6434 42.527 29.6434 42.5802C29.6434 42.6291 29.6266 42.6716 29.593 42.7014C29.5594 42.7333 29.5069 42.7504 29.4397 42.7504H28.2724C28.1779 42.7504 28.1107 42.7291 28.0708 42.6865C28.0288 42.644 28.0078 42.5759 28.0078 42.4823V40.8675C28.0078 40.8037 28.0183 40.7547 28.0351 40.7143C28.054 40.6739 28.0834 40.6462 28.1212 40.6271C28.1611 40.6101 28.2115 40.6016 28.2724 40.6016H29.4061C29.4754 40.6016 29.5258 40.6165 29.5594 40.6462C29.593 40.676 29.6098 40.7164 29.6098 40.7654C29.6098 40.8164 29.593 40.8569 29.5594 40.8867C29.5258 40.9186 29.4754 40.9335 29.4061 40.9335H28.4382Z" fill="#999999"/>
<path fill-rule="evenodd" clip-rule="evenodd" d="M31.7449 41.8291V42.5206C31.7449 42.6121 31.7239 42.6801 31.684 42.7227C31.6462 42.7653 31.5937 42.7865 31.5286 42.7865C31.4614 42.7865 31.4089 42.7653 31.369 42.7184C31.3333 42.6738 31.3145 42.6078 31.3145 42.5206V40.8675C31.3145 40.7739 31.3354 40.7058 31.3753 40.6633C31.4173 40.6207 31.4845 40.6016 31.5769 40.6016H32.2761C32.3727 40.6016 32.4545 40.6037 32.5238 40.6122C32.591 40.6207 32.654 40.6377 32.7086 40.6633C32.7758 40.6909 32.8346 40.7313 32.885 40.7845C32.9353 40.8377 32.9752 40.8994 33.0004 40.9675C33.0277 41.0377 33.0403 41.1122 33.0403 41.1909C33.0403 41.3504 32.9962 41.4802 32.908 41.576C32.8178 41.6717 32.6834 41.7398 32.5007 41.7781C32.5784 41.8206 32.6498 41.8802 32.7191 41.961C32.7884 42.0419 32.8514 42.127 32.9059 42.2164C32.9605 42.3078 33.0025 42.3887 33.034 42.461C33.0634 42.5355 33.0781 42.5844 33.0781 42.6121C33.0781 42.6419 33.0697 42.6695 33.0529 42.6972C33.034 42.7248 33.0088 42.7461 32.9794 42.7631C32.9479 42.778 32.9122 42.7865 32.8724 42.7865C32.8241 42.7865 32.7842 42.7759 32.7506 42.7525C32.717 42.7291 32.6897 42.6993 32.6666 42.6653C32.6414 42.6291 32.6099 42.578 32.57 42.5099L32.3978 42.2185C32.3349 42.1121 32.2803 42.0313 32.232 41.9759C32.1837 41.9185 32.1333 41.8823 32.0829 41.8611C32.0346 41.8398 31.9716 41.8291 31.8939 41.8291H31.7449ZM31.7449 40.9249V41.5207H32.1291C32.232 41.5207 32.3181 41.51 32.3894 41.493C32.4587 41.4738 32.5133 41.4441 32.5511 41.3994C32.5868 41.3568 32.6057 41.2951 32.6057 41.2185C32.6057 41.159 32.591 41.1058 32.5616 41.059C32.5301 41.0143 32.4902 40.9803 32.4356 40.9569C32.3873 40.9356 32.2887 40.9249 32.1396 40.9249H31.7449Z" fill="#999999"/>
<path fill-rule="evenodd" clip-rule="evenodd" d="M36.2961 42.456C36.231 42.5581 36.1345 42.639 36.0064 42.6985C35.8783 42.756 35.7292 42.7858 35.555 42.7858C35.345 42.7858 35.1728 42.7453 35.0364 42.6666C34.9398 42.6092 34.8621 42.5305 34.8012 42.4347C34.7403 42.339 34.7109 42.2454 34.7109 42.1539C34.7109 42.1007 34.7298 42.056 34.7655 42.0177C34.8012 41.9816 34.8474 41.9624 34.9041 41.9624C34.9482 41.9624 34.9881 41.9773 35.0196 42.0071C35.049 42.0347 35.0763 42.0794 35.0994 42.1369C35.1267 42.2049 35.1561 42.2624 35.1854 42.3092C35.219 42.3539 35.2631 42.3922 35.3198 42.422C35.3765 42.4517 35.4521 42.4666 35.5445 42.4666C35.6705 42.4666 35.7754 42.4368 35.8552 42.3773C35.935 42.3156 35.9749 42.2411 35.9749 42.1518C35.9749 42.0794 35.9518 42.022 35.9098 41.9773C35.8657 41.9326 35.8111 41.8986 35.7418 41.8752C35.6747 41.8518 35.5844 41.8284 35.4689 41.8007C35.3177 41.7645 35.1896 41.722 35.0868 41.6731C34.9839 41.6263 34.902 41.5603 34.8411 41.4752C34.7823 41.3922 34.7508 41.288 34.7508 41.1646C34.7508 41.0454 34.7823 40.9391 34.8474 40.8476C34.9104 40.7561 35.0028 40.6859 35.1225 40.637C35.2442 40.5859 35.3849 40.5625 35.5487 40.5625C35.6789 40.5625 35.7901 40.5795 35.8867 40.6114C35.9812 40.6433 36.061 40.688 36.1219 40.7412C36.1849 40.7965 36.231 40.854 36.2604 40.9135C36.2898 40.9731 36.3024 41.0306 36.3024 41.088C36.3024 41.1391 36.2856 41.1859 36.2499 41.2284C36.2143 41.2688 36.1681 41.2901 36.1156 41.2901C36.0652 41.2901 36.0295 41.2773 36.0022 41.2518C35.977 41.2284 35.9497 41.1859 35.9203 41.1305C35.8825 41.0497 35.8363 40.9859 35.7817 40.9391C35.7271 40.8944 35.6411 40.871 35.5214 40.871C35.4101 40.871 35.3198 40.8965 35.2526 40.9455C35.1833 40.9944 35.1498 41.054 35.1498 41.1242C35.1498 41.1667 35.1603 41.205 35.1854 41.2348C35.2085 41.2667 35.24 41.2944 35.2799 41.3156C35.3219 41.339 35.3618 41.3561 35.4038 41.3688C35.4437 41.3816 35.513 41.4007 35.6096 41.4241C35.7292 41.4539 35.8363 41.4858 35.9329 41.5199C36.0295 41.5539 36.1114 41.5943 36.1807 41.6433C36.2478 41.6922 36.3003 41.7539 36.3381 41.8284C36.3759 41.905 36.3948 41.9964 36.3948 42.105C36.3948 42.2347 36.3633 42.3517 36.2961 42.456Z" fill="#999999"/>
<path fill-rule="evenodd" clip-rule="evenodd" d="M38.1133 40.8263C38.1133 40.7391 38.1322 40.6731 38.1721 40.6285C38.212 40.5838 38.2624 40.5625 38.3253 40.5625C38.3904 40.5625 38.4429 40.5838 38.4828 40.6285C38.5227 40.671 38.5437 40.737 38.5437 40.8263V42.5198C38.5437 42.6092 38.5227 42.6751 38.4828 42.7198C38.4429 42.7645 38.3904 42.7858 38.3253 42.7858C38.2645 42.7858 38.2141 42.7645 38.1721 42.7198C38.1322 42.6751 38.1133 42.6092 38.1133 42.5198V40.8263Z" fill="#999999"/>
<path fill-rule="evenodd" clip-rule="evenodd" d="M41.8555 40.6987C42.0129 40.788 42.1305 40.9178 42.2124 41.0837C42.2943 41.2497 42.3342 41.4454 42.3342 41.6709C42.3342 41.8369 42.3111 41.9879 42.267 42.1241C42.2229 42.2603 42.1557 42.3794 42.0675 42.4773C41.9793 42.5773 41.8702 42.6539 41.7421 42.707C41.6119 42.7602 41.4649 42.7858 41.2991 42.7858C41.1332 42.7858 40.9841 42.7581 40.854 42.7049C40.7217 42.6496 40.6125 42.573 40.5243 42.4751C40.4382 42.3773 40.371 42.2581 40.327 42.1177C40.2808 41.9794 40.2598 41.8305 40.2598 41.6688C40.2598 41.5029 40.2829 41.3518 40.3291 41.2135C40.3752 41.0752 40.4424 40.9582 40.5327 40.8604C40.6209 40.7646 40.728 40.6902 40.8561 40.6391C40.9841 40.588 41.1269 40.5625 41.2886 40.5625C41.509 40.5625 41.698 40.6072 41.8555 40.6987ZM41.824 41.2561C41.7736 41.1412 41.7022 41.054 41.6098 40.9944C41.5153 40.9348 41.4082 40.905 41.2886 40.905C41.2046 40.905 41.1248 40.9221 41.0513 40.954C40.9799 40.9859 40.9169 41.0348 40.8645 41.0986C40.812 41.1603 40.77 41.2412 40.7406 41.339C40.7091 41.4369 40.6944 41.5454 40.6944 41.6688C40.6944 41.7901 40.7091 41.9028 40.7406 42.0007C40.77 42.1007 40.8141 42.1837 40.8686 42.2475C40.9232 42.3134 40.9883 42.3624 41.0597 42.3943C41.1311 42.4283 41.2088 42.4432 41.2949 42.4432C41.404 42.4432 41.5048 42.4156 41.5972 42.3603C41.6896 42.3028 41.7631 42.2177 41.8177 42.1007C41.8723 41.9837 41.8996 41.839 41.8996 41.6688C41.8996 41.5092 41.8744 41.3731 41.824 41.2561Z" fill="#999999"/>
<path fill-rule="evenodd" clip-rule="evenodd" d="M45.4268 42.0922V40.8114C45.4268 40.7284 45.4435 40.6667 45.4792 40.6242C45.5149 40.5816 45.5611 40.5625 45.6199 40.5625C45.6829 40.5625 45.7312 40.5816 45.7669 40.6242C45.8026 40.6667 45.8194 40.7284 45.8194 40.8114V42.5028C45.8194 42.6921 45.7438 42.7858 45.5884 42.7858C45.5506 42.7858 45.5149 42.7815 45.4855 42.7687C45.454 42.7581 45.4247 42.7411 45.3974 42.7156C45.3722 42.6921 45.347 42.6624 45.3239 42.6304C45.2987 42.5964 45.2777 42.5645 45.2546 42.5283L44.4441 41.2752V42.5368C44.4441 42.6177 44.4252 42.6815 44.3874 42.7219C44.3497 42.7645 44.3014 42.7858 44.2426 42.7858C44.1817 42.7858 44.1334 42.7645 44.0977 42.7219C44.0599 42.6794 44.041 42.6177 44.041 42.5368V40.8774C44.041 40.8072 44.0494 40.7518 44.0641 40.7114C44.083 40.6667 44.1145 40.6327 44.1565 40.6029C44.1985 40.5753 44.2447 40.5625 44.2951 40.5625C44.3329 40.5625 44.3665 40.5689 44.3937 40.5816C44.421 40.5944 44.4462 40.6114 44.4651 40.6327C44.4861 40.654 44.5071 40.6816 44.5302 40.7157C44.5512 40.7497 44.5743 40.7859 44.5974 40.8242L45.4268 42.0922Z" fill="#999999"/>
<path d="M14 43.8438H45.9979" stroke="#809CC9" stroke-width="0.296044" stroke-linejoin="round"/>
</g>
<rect x="0.5" y="0.5" width="59" height="59" rx="7.5" stroke="white" stroke-opacity="0.2"/>
<defs>
<clipPath id="clip0_1188_25723">
<rect width="32" height="28" fill="white" transform="translate(14 16)"/>
</clipPath>
</defs>
</svg>
