<svg width="60" height="60" viewBox="0 0 60 60" fill="none" xmlns="http://www.w3.org/2000/svg">
<g clip-path="url(#clip0_958_20306)">
<rect width="60" height="60" rx="8" fill="#161616"/>
<rect width="60" height="60" fill="#161616"/>
<g clip-path="url(#clip1_958_20306)">
<path d="M15.0117 20.0221L29.263 15.0781L43.8982 19.9342L41.5285 38.2926L29.263 44.9065L17.1895 38.3805L15.0117 20.0221Z" fill="#E23237"/>
<path d="M43.8988 19.9342L29.2637 15.0781V44.9065L41.5291 38.3036L43.8988 19.9342Z" fill="#B52E31"/>
<path d="M29.2865 18.5586L20.4062 37.796L23.7236 37.7411L25.5065 33.4013H33.4728L35.4249 37.796L38.5956 37.8509L29.2865 18.5586ZM29.3091 24.722L32.3106 30.8305H26.6686L29.3091 24.722Z" fill="white"/>
</g>
</g>
<rect x="0.5" y="0.5" width="59" height="59" rx="7.5" stroke="white" stroke-opacity="0.2"/>
<defs>
<clipPath id="clip0_958_20306">
<rect width="60" height="60" rx="8" fill="white"/>
</clipPath>
<clipPath id="clip1_958_20306">
<rect width="29" height="30" fill="white" transform="translate(15 15)"/>
</clipPath>
</defs>
</svg>
