<svg width="60" height="60" viewBox="0 0 60 60" fill="none" xmlns="http://www.w3.org/2000/svg">
<rect width="60" height="60" rx="8" fill="#161616"/>
<g opacity="0.8" clip-path="url(#clip0_1188_25682)">
<path d="M15.4878 23H17.5649V33.8682C16.4994 34.0969 15.7171 34.1885 14.8674 34.1885C12.3316 34.1883 11.0098 32.8925 11.0098 30.4072C11.0098 28.0134 12.4126 26.4584 14.584 26.4584C14.9212 26.4584 15.1775 26.4888 15.4878 26.5803V23ZM15.4878 28.4707C15.2451 28.3793 15.0428 28.3488 14.7864 28.3488C13.7344 28.3488 13.1274 29.0807 13.1274 30.3614C13.1274 31.6117 13.7074 32.2978 14.7729 32.2978C15.0022 32.2978 15.1911 32.2826 15.4878 32.2369V28.4707Z" fill="white"/>
<path d="M20.8697 26.6252V32.0682C20.8697 33.9436 20.7482 34.8432 20.3842 35.6207C20.0469 36.3679 19.6018 36.8405 18.6847 37.359L16.7559 36.3222C17.6731 35.8343 18.1181 35.4075 18.4013 34.7516C18.6981 34.0809 18.7926 33.3032 18.7926 31.2602V26.6252H20.8697ZM18.7926 23.0117H20.8697V25.4207H18.7926V23.0117ZM22.1243 27.1588C23.0416 26.6711 23.9183 26.4576 24.8759 26.4576C25.9415 26.4576 26.6428 26.7777 26.9531 27.4028C27.1283 27.7535 27.1823 28.2109 27.1823 29.1868V33.9588C26.2515 34.1113 25.0781 34.2181 24.215 34.2181C22.4751 34.2181 21.6927 33.5318 21.6927 32.0072C21.6927 30.3604 22.7312 29.5981 25.2804 29.3541V28.8357C25.2804 28.4089 25.0916 28.2565 24.5655 28.2565C23.7968 28.2565 22.9335 28.5004 22.1242 28.9731L22.1243 27.1588ZM25.375 30.8943C23.9992 31.0467 23.554 31.2907 23.554 31.9006C23.554 32.3579 23.8104 32.5713 24.3768 32.5713C24.6871 32.5713 24.9702 32.5409 25.3749 32.4647L25.375 30.8943ZM28.1939 26.9911C29.4212 26.6252 30.4329 26.4576 31.4579 26.4576C32.5235 26.4576 33.2923 26.7319 33.7511 27.2656C34.1826 27.7686 34.3174 28.3175 34.3174 29.4917V34.0961H32.2403V29.5832C32.2403 28.6837 31.9705 28.3481 31.2288 28.3481C30.9455 28.3481 30.6893 28.3786 30.271 28.5158V34.0961H28.1939V26.9911ZM35.1249 35.3768C35.8534 35.8038 36.5816 36.0018 37.3504 36.0018C38.7125 36.0018 39.2925 35.3768 39.2925 33.8825V33.8368C38.888 34.0654 38.4832 34.1569 37.9438 34.1569C36.1229 34.1569 34.9628 32.8 34.9628 30.6504C34.9628 27.982 36.6759 26.4727 39.7105 26.4727C40.6007 26.4727 41.4236 26.5793 42.4216 26.808L41.7104 28.5016C41.1574 28.3796 41.6661 28.4853 41.2482 28.4395V28.6836L41.2751 29.6744L41.2885 30.9553C41.302 31.2753 41.302 31.5956 41.3155 31.9157V32.5563C41.3155 34.5688 41.1672 35.514 40.7222 36.2916C40.0747 37.4352 38.9552 37.9992 37.3636 37.9992C36.5543 37.9992 35.8532 37.862 35.1247 37.5419L35.1249 35.3768ZM39.2522 28.3633H39.0365C38.632 28.3481 38.16 28.4699 37.8361 28.6986C37.3372 29.0189 37.0807 29.5983 37.0807 30.4216C37.0807 31.5957 37.5934 32.2665 38.5105 32.2665C38.7938 32.2665 39.0231 32.2054 39.2927 32.114V31.306C39.2927 31.0315 39.2794 30.7264 39.2794 30.4064L39.266 29.324L39.2524 28.5464L39.2522 28.3633ZM45.6464 26.427C47.7235 26.427 48.9914 27.906 48.9914 30.2997C48.9914 32.7545 47.6697 34.2944 45.5655 34.2944C43.4882 34.2944 42.2068 32.8154 42.2068 30.437C42.207 27.9668 43.5289 26.427 45.6464 26.427ZM45.6058 32.4037C46.4016 32.4037 46.8737 31.6566 46.8737 30.3606C46.8737 29.08 46.4151 28.3176 45.6194 28.3176C44.7965 28.3176 44.3243 29.0648 44.3243 30.3606C44.3245 31.6567 44.7966 32.4037 45.6058 32.4037Z" fill="white"/>
</g>
<rect x="0.5" y="0.5" width="59" height="59" rx="7.5" stroke="white" stroke-opacity="0.2"/>
<defs>
<clipPath id="clip0_1188_25682">
<rect width="38" height="15" fill="white" transform="translate(11 23)"/>
</clipPath>
</defs>
</svg>
