<svg width="60" height="60" viewBox="0 0 60 60" fill="none" xmlns="http://www.w3.org/2000/svg">
<rect width="60" height="60" rx="8" fill="#161616"/>
<g clip-path="url(#clip0_1188_25657)">
<path d="M29.7392 43.9193C29.5835 43.9193 29.4382 43.8781 29.3032 43.806L27.9224 42.9918C27.7147 42.8784 27.8185 42.8372 27.8809 42.8166C28.1611 42.7239 28.213 42.7032 28.5037 42.5384C28.5349 42.5177 28.5765 42.5281 28.6076 42.5487L29.6666 43.1773C29.7081 43.1979 29.76 43.1979 29.7911 43.1773L33.9337 40.7966C33.9752 40.776 33.9961 40.7347 33.9961 40.6833V35.9322C33.9961 35.8806 33.9752 35.8394 33.9337 35.8188L29.7911 33.4484C29.7496 33.4277 29.6977 33.4277 29.6666 33.4484L25.524 35.8188C25.4825 35.8394 25.4617 35.8909 25.4617 35.9321V40.6832C25.4617 40.7245 25.4825 40.7759 25.524 40.7966L26.6557 41.4459C27.2683 41.755 27.6524 41.3943 27.6524 41.0336V36.3443C27.6524 36.2825 27.7043 36.2207 27.777 36.2207H28.3065C28.3688 36.2207 28.4311 36.2722 28.4311 36.3443V41.0336C28.4311 41.8478 27.9846 42.3219 27.2059 42.3219C26.9672 42.3219 26.7803 42.3219 26.2508 42.0642L25.1607 41.4459C24.8907 41.2913 24.7246 41.0027 24.7246 40.6935V35.9424C24.7246 35.6333 24.8907 35.3446 25.1607 35.1901L29.3032 32.8094C29.5628 32.6651 29.9158 32.6651 30.1753 32.8094L34.3178 35.1901C34.5878 35.3446 34.754 35.6333 34.754 35.9424V40.6935C34.754 41.0027 34.5878 41.2913 34.3178 41.4459L30.1753 43.8266C30.0403 43.8885 29.8846 43.9193 29.7392 43.9193ZM31.0163 40.6523C29.1994 40.6523 28.8256 39.8278 28.8256 39.127C28.8256 39.0652 28.8775 39.0034 28.9502 39.0034H29.4901C29.5524 39.0034 29.6043 39.0446 29.6043 39.1064C29.6874 39.6526 29.9261 39.9206 31.0267 39.9206C31.8988 39.9206 32.2726 39.7248 32.2726 39.261C32.2726 38.993 32.1687 38.7973 30.8087 38.6633C29.677 38.5498 28.971 38.3026 28.971 37.4059C28.971 36.5711 29.677 36.0764 30.8606 36.0764C32.1895 36.0764 32.8436 36.5299 32.9267 37.5192C32.9267 37.5502 32.9163 37.5811 32.8955 37.612C32.8747 37.6326 32.8436 37.6532 32.8124 37.6532H32.2726C32.2206 37.6532 32.1687 37.612 32.1584 37.5605C32.0338 36.9937 31.7119 36.8081 30.8606 36.8081C29.9054 36.8081 29.7911 37.138 29.7911 37.3852C29.7911 37.6841 29.9261 37.7769 31.2135 37.9418C32.4906 38.1067 33.0928 38.3438 33.0928 39.23C33.0824 40.137 32.3349 40.6523 31.0163 40.6523Z" fill="#539E43"/>
<path d="M16.8867 25.3374C16.8867 25.1519 16.7829 24.9766 16.6168 24.8839L12.2146 22.3692C12.1419 22.3279 12.0589 22.3073 11.9759 22.297H11.9343C11.8513 22.297 11.7682 22.3279 11.6955 22.3692L7.29338 24.8839C7.12719 24.9766 7.02344 25.1518 7.02344 25.3374L7.03386 32.0982C7.03386 32.1909 7.08578 32.2836 7.16879 32.3249C7.25188 32.3765 7.35564 32.3765 7.4284 32.3249L10.0448 30.8408C10.2109 30.7481 10.3147 30.5729 10.3147 30.3874V27.2234C10.3147 27.0379 10.4185 26.8627 10.5846 26.7699L11.6955 26.1309C11.7786 26.0794 11.872 26.0587 11.9654 26.0587C12.0589 26.0587 12.1523 26.0794 12.2251 26.1309L13.3359 26.7699C13.5021 26.8627 13.6059 27.0378 13.6059 27.2234V30.3874C13.6059 30.5729 13.7097 30.7481 13.8758 30.8408L16.4922 32.3249C16.5753 32.3765 16.679 32.3765 16.7621 32.3249C16.8452 32.2836 16.8971 32.1909 16.8971 32.0982L16.8867 25.3374ZM38.046 16.031C37.963 15.9897 37.8591 15.9897 37.7864 16.031C37.7033 16.0825 37.6514 16.1649 37.6514 16.2576V22.9567C37.6514 23.0185 37.6203 23.0803 37.558 23.1216C37.4957 23.1524 37.4334 23.1524 37.3711 23.1216L36.2706 22.4929C36.1899 22.4473 36.0987 22.4233 36.0058 22.4233C35.913 22.4233 35.8217 22.4473 35.7411 22.4929L31.3389 25.0179C31.1728 25.1106 31.069 25.2859 31.069 25.4713V30.511C31.069 30.6965 31.1728 30.8718 31.3389 30.9645L35.7411 33.4895C35.8217 33.5351 35.913 33.5591 36.0058 33.5591C36.0987 33.5591 36.1899 33.5351 36.2706 33.4895L40.6727 30.9645C40.8388 30.8718 40.9427 30.6965 40.9427 30.511V17.9479C40.9427 17.7521 40.8388 17.5769 40.6727 17.4841L38.046 16.031ZM37.6411 28.8518C37.6411 28.9033 37.6203 28.9445 37.5788 28.9651L36.0734 29.8308C36.0523 29.841 36.0292 29.8462 36.0058 29.8462C35.9824 29.8462 35.9594 29.841 35.9383 29.8308L34.4329 28.9651C34.3913 28.9445 34.3706 28.893 34.3706 28.8518V27.1203C34.3706 27.0688 34.3913 27.0276 34.4329 27.007L35.9383 26.1412C35.9594 26.131 35.9824 26.1257 36.0058 26.1257C36.0292 26.1257 36.0523 26.131 36.0734 26.1412L37.5788 27.007C37.6203 27.0275 37.6411 27.0791 37.6411 27.1203V28.8518ZM52.6955 27.0791C52.8617 26.9864 52.9551 26.8111 52.9551 26.6256V25.3992C52.9551 25.2137 52.8512 25.0385 52.6955 24.9458L48.3245 22.4311C48.2439 22.3855 48.1526 22.3615 48.0598 22.3615C47.967 22.3615 47.8757 22.3855 47.7951 22.4311L43.3929 24.956C43.2267 25.0487 43.123 25.224 43.123 25.4095V30.4492C43.123 30.6347 43.2267 30.8099 43.3929 30.9026L47.7639 33.3761C47.9301 33.4688 48.1273 33.4688 48.283 33.3761L50.9305 31.9128C51.0136 31.8715 51.0655 31.7787 51.0655 31.686C51.0655 31.5933 51.0136 31.5005 50.9305 31.4592L46.5076 28.9342C46.4246 28.8828 46.3727 28.8003 46.3727 28.7076V27.1307C46.3727 27.038 46.4246 26.9453 46.5076 26.904L47.8885 26.1207C47.9289 26.0954 47.9757 26.082 48.0235 26.082C48.0712 26.082 48.118 26.0954 48.1584 26.1207L49.5392 26.904C49.6223 26.9555 49.6743 27.0379 49.6743 27.1307V28.3675C49.6743 28.4602 49.7262 28.5529 49.8092 28.5941C49.8923 28.6457 49.996 28.6457 50.0791 28.5941L52.6955 27.0791Z" fill="#333333"/>
<path d="M47.9925 26.8416C48.0079 26.8315 48.026 26.8262 48.0444 26.8262C48.0629 26.8262 48.0809 26.8315 48.0963 26.8416L48.9373 27.326C48.9685 27.3465 48.9892 27.3774 48.9892 27.4187V28.3875C48.9892 28.4287 48.9685 28.4596 48.9373 28.4802L48.0963 28.9646C48.0809 28.9747 48.0629 28.98 48.0444 28.98C48.026 28.98 48.0079 28.9747 47.9925 28.9646L47.1515 28.4802C47.1204 28.4596 47.0996 28.4287 47.0996 28.3875V27.4187C47.0996 27.3774 47.1204 27.3465 47.1515 27.326L47.9925 26.8416Z" fill="#539E43"/>
<path d="M24.2479 22.4524C24.1672 22.4068 24.076 22.3828 23.9832 22.3828C23.8904 22.3828 23.7991 22.4068 23.7185 22.4524L19.3475 24.9566C19.1813 25.0493 19.0879 25.2245 19.0879 25.41V30.4292C19.0879 30.6146 19.1917 30.7899 19.3475 30.8826L23.7185 33.387C23.7991 33.4326 23.8904 33.4565 23.9832 33.4565C24.076 33.4565 24.1672 33.4326 24.2479 33.387L28.619 30.8826C28.7851 30.7899 28.8786 30.6146 28.8786 30.4292V25.4101C28.8786 25.2246 28.7746 25.0494 28.619 24.9567L24.2479 22.4524Z" fill="url(#paint0_linear_1188_25657)"/>
</g>
<rect x="0.5" y="0.5" width="59" height="59" rx="7.5" stroke="white" stroke-opacity="0.2"/>
<defs>
<linearGradient id="paint0_linear_1188_25657" x1="686.695" y1="216.029" x2="212.609" y2="966.471" gradientUnits="userSpaceOnUse">
<stop stop-color="#41873F"/>
<stop offset="0.3288" stop-color="#418B3D"/>
<stop offset="0.6352" stop-color="#419637"/>
<stop offset="0.9319" stop-color="#3FA92D"/>
<stop offset="1" stop-color="#3FAE2A"/>
</linearGradient>
<clipPath id="clip0_1188_25657">
<rect width="46" height="28" fill="white" transform="translate(7 16)"/>
</clipPath>
</defs>
</svg>
