<svg width="60" height="60" viewBox="0 0 60 60" fill="none" xmlns="http://www.w3.org/2000/svg">
<rect width="60" height="60" rx="8" fill="#161616"/>
<g clip-path="url(#clip0_1188_25859)">
<path d="M16.2595 34.9291C16.0113 34.9291 15.7671 34.8355 15.5845 34.658L9.93607 29.1766V34.003C9.93607 34.5147 9.50881 34.9292 8.98159 34.9292C8.4547 34.9292 8.0271 34.5146 8.0271 34.003V26.9405C8.0271 26.5656 8.26001 26.2281 8.61659 26.0848C8.79095 26.0145 8.98289 25.9961 9.16805 26.0319C9.35321 26.0676 9.52326 26.1559 9.65661 26.2856L15.305 31.767V26.9405C15.305 26.4289 15.7323 26.0144 16.2595 26.0144C16.7868 26.0144 17.214 26.4289 17.214 26.9405V34.003C17.2139 34.2486 17.1133 34.4841 16.9343 34.6578C16.7553 34.8314 16.5126 34.929 16.2595 34.9291ZM20.6795 26.0233L20.4172 26.4983L18.3888 30.0754L18.1265 30.527L18.3888 30.9782L20.4173 34.4399L20.6914 34.9144H26.0009L26.2632 34.3935L27.7785 31.4297L28.4585 30.0868H26.9195L23.042 30.0983C22.5377 30.0916 22.0738 30.535 22.0738 31.0244C22.0738 31.5138 22.5377 31.9576 23.042 31.9506L25.3805 31.9391L24.8078 33.062H21.8011L20.3094 30.515L21.813 27.8755H25.0112L25.7568 29.3603H27.678L26.4671 26.5445L26.2043 26.0233H20.6796M30.3491 26.0118C29.8489 26.0177 29.4 26.4645 29.4064 26.9494V29.363H31.3154V26.9494C31.3214 26.4566 30.8565 26.0055 30.3491 26.0118ZM33.4088 34.9469C33.1557 34.9468 32.9131 34.8492 32.7341 34.6755C32.5552 34.5018 32.4547 34.2663 32.4546 34.0208V26.9583C32.4546 26.4467 32.8819 26.0322 33.4091 26.0322C33.9364 26.0322 34.3636 26.4467 34.3636 26.9584V31.7847L40.0122 26.3033C40.1456 26.1737 40.3156 26.0854 40.5008 26.0496C40.6859 26.0139 40.8778 26.0323 41.0522 26.1024C41.2266 26.1726 41.3756 26.2914 41.4805 26.4437C41.5853 26.596 41.6413 26.7751 41.6413 26.9583V34.0208C41.6413 34.5323 41.214 34.9469 40.6868 34.9469C40.1595 34.9469 39.7323 34.5323 39.7323 34.0207V29.1944L34.0837 34.6758C33.9951 34.7618 33.8899 34.8301 33.774 34.8766C33.6582 34.9231 33.534 34.947 33.4087 34.9469M48.7116 30.4824L51.6807 27.6119C52.0541 27.251 52.0553 26.6645 51.6831 26.3019C51.3112 25.9395 50.7072 25.9388 50.3334 26.2996L47.3597 29.1752L44.3859 26.2996C44.0121 25.9384 43.4081 25.9396 43.0363 26.3019C42.664 26.6645 42.6652 27.251 43.0382 27.6119L46.0074 30.4825L43.047 33.345C42.6732 33.7063 42.6725 34.2924 43.0447 34.6546C43.1332 34.7412 43.2385 34.8099 43.3546 34.8567C43.4706 34.9035 43.5951 34.9275 43.7208 34.9273C43.9645 34.9273 44.208 34.8373 44.3943 34.6569L47.3597 31.7899L50.3247 34.6569C50.4131 34.7427 50.5182 34.8108 50.6338 34.8572C50.7494 34.9036 50.8734 34.9274 50.9985 34.9273C51.2436 34.9273 51.488 34.8365 51.6746 34.6546C52.0465 34.2924 52.0457 33.7063 51.6723 33.3451L48.7116 30.4824ZM30.3491 34.9206C29.8489 34.9148 29.4 34.4679 29.4064 33.983V30.1061H31.3154V33.983C31.3214 34.4754 30.8565 34.9265 30.3491 34.9206Z" fill="#009900"/>
</g>
<rect x="0.5" y="0.5" width="59" height="59" rx="7.5" stroke="white" stroke-opacity="0.2"/>
<defs>
<clipPath id="clip0_1188_25859">
<rect width="44" height="9" fill="white" transform="translate(8 26)"/>
</clipPath>
</defs>
</svg>
