<svg width="26" height="26" viewBox="0 0 26 26" fill="none" xmlns="http://www.w3.org/2000/svg">
<g clip-path="url(#clip0_228_7630)">
<path d="M12.1875 23.1562V2.84375H13.8125V23.1562H12.1875Z" fill="#FF0BF5"/>
<path opacity="0.4" d="M9.34375 0C10.9129 0 12.1875 1.27309 12.1875 2.84375V23.1562C12.1875 24.7254 10.9129 26 9.34375 26C7.87617 26 6.66758 24.8879 6.51523 23.4559C6.25117 23.527 5.97188 23.5625 5.6875 23.5625C3.89238 23.5625 2.4375 22.1051 2.4375 20.3125C2.4375 19.9367 2.50199 19.5711 2.6198 19.2359C1.08824 18.657 0 17.1742 0 15.4375C0 13.8176 0.950117 12.416 2.32426 11.766C1.88652 11.2125 1.625 10.466 1.625 9.75C1.625 8.19102 2.72137 6.89102 4.18488 6.57109C4.10516 6.2918 4.0625 5.99219 4.0625 5.6875C4.0625 4.16711 5.10859 2.89047 6.51523 2.53551C6.66758 1.11008 7.87617 0 9.34375 0ZM19.4848 2.53551C20.8914 2.89047 21.9375 4.16711 21.9375 5.6875C21.9375 5.99219 21.8969 6.2918 21.8156 6.57109C23.2781 6.89102 24.375 8.19102 24.375 9.75C24.375 10.466 24.116 11.2125 23.6742 11.766C25.0504 12.416 26 13.8176 26 15.4375C26 17.1742 24.9133 18.657 23.3797 19.2359C23.4965 19.5711 23.5625 19.9367 23.5625 20.3125C23.5625 22.1051 22.1051 23.5625 20.3125 23.5625C20.0281 23.5625 19.7488 23.527 19.4848 23.4559C19.3324 24.8879 18.1238 26 16.6562 26C15.0871 26 13.8125 24.7254 13.8125 23.1562V2.84375C13.8125 1.27309 15.0871 0 16.6562 0C18.1238 0 19.3324 1.11008 19.4848 2.53551Z" fill="#FF0BF5"/>
</g>
<defs>
<clipPath id="clip0_228_7630">
<rect width="26" height="26" fill="white"/>
</clipPath>
</defs>
</svg>
