<svg width="32" height="27" viewBox="0 0 32 27" fill="none" xmlns="http://www.w3.org/2000/svg">
<g clip-path="url(#clip0_228_7624)">
<path d="M19.4001 8.39004H15.9551V10.125C15.9551 11.0584 15.2851 11.8125 14.3551 11.8125C13.5151 11.8125 12.7551 11.0584 12.7551 10.125V8.39004H11.1551V10.125C11.1551 11.0584 10.4851 11.8125 9.55508 11.8125C8.71508 11.765 7.95508 11.0584 7.95508 10.0775V6.70254C7.95508 5.8166 8.71508 5.01504 9.55508 5.01504H19.4001C20.1101 2.15104 22.6201 0 25.5551 0C29.1351 0 31.9551 3.02221 31.9551 6.75C31.9551 10.4783 29.1351 13.5 25.5551 13.5C22.6201 13.5 20.1101 11.3484 19.4001 8.39004ZM25.5551 10.125C27.3651 10.125 28.7551 8.61152 28.7551 6.75C28.7551 4.88584 27.3651 3.375 25.5551 3.375C23.8351 3.375 22.3551 4.88584 22.3551 6.75C22.3551 8.61152 23.8351 10.125 25.5551 10.125Z" fill="#2E98FA"/>
<path opacity="0.4" d="M12.555 18.5625H16V16.875C16 15.9416 16.715 15.1875 17.6 15.1875C18.485 15.1875 19.2 15.9416 19.2 16.875V18.5625H20.8V16.8275C20.8 15.9416 21.515 15.14 22.4 15.1875C23.285 15.1875 24 15.9416 24 16.875V20.25C24 21.1834 23.285 21.9375 22.4 21.9375H12.555C11.89 24.8484 9.38 27 6.4 27C2.8655 27 0 23.9783 0 20.25C0 16.5217 2.8655 13.5 6.4 13.5C9.38 13.5 11.89 15.6516 12.555 18.5625ZM6.4 16.875C4.6325 16.875 3.2 18.3885 3.2 20.25C3.2 22.1115 4.6325 23.625 6.4 23.625C8.165 23.625 9.6 22.1115 9.6 20.25C9.6 18.3885 8.165 16.875 6.4 16.875Z" fill="#2E98FA"/>
</g>
<defs>
<clipPath id="clip0_228_7624">
<rect width="32" height="27" fill="white"/>
</clipPath>
</defs>
</svg>
