<svg width="24" height="24" viewBox="0 0 24 24" fill="none" xmlns="http://www.w3.org/2000/svg">
<g clip-path="url(#clip0_228_7654)">
<path d="M0 8.50024C0 6.84556 1.34297 5.50024 3 5.50024H9V22.0002C9 22.8299 8.32969 23.5002 7.5 23.5002H4.5C3.67172 23.5002 3 22.8299 3 22.0002V16.0002C1.34297 16.0002 0 14.6549 0 13.0002V8.50024ZM24 10.7502C24 12.0581 23.3719 13.169 22.5 13.5815V7.91899C23.3719 8.33149 24 9.44243 24 10.7502Z" fill="#C081E7"/>
<path opacity="0.4" d="M22.5 21C22.5 21.6047 22.1344 22.1531 21.5719 22.3875C21.0141 22.6172 20.3672 22.4906 19.9406 22.0594L17.8922 19.9734C15.6422 17.7234 12.5906 16.5 9.40781 16.5H9V6H9.40781C12.5906 6 15.6422 4.73437 17.8922 2.48531L19.9406 0.439354C20.3672 0.0103774 21.0141 -0.117943 21.5719 0.114229C22.1344 0.346401 22.5 0.893432 22.5 1.49999V21Z" fill="#C081E7"/>
</g>
<defs>
<clipPath id="clip0_228_7654">
<rect width="24" height="24" fill="white"/>
</clipPath>
</defs>
</svg>
