<svg width="30" height="30" viewBox="0 0 30 30" fill="none" xmlns="http://www.w3.org/2000/svg">
<path opacity="0.4" d="M17.8945 1.27734C17.8184 0.667969 17.3613 0.175781 16.752 0.105469C16.1777 0.0351562 15.5918 0 15 0C14.3496 0 13.7051 0.0410156 13.0781 0.123047C12.4746 0.199219 12.0234 0.691406 11.9473 1.29492L11.7773 2.64844C11.7305 3.02344 11.4609 3.32812 11.1035 3.45117C10.541 3.63867 9.99023 3.87305 9.46875 4.13672C9.12891 4.3125 8.71875 4.2832 8.41406 4.04883L7.35937 3.22852C6.87891 2.85352 6.20508 2.83008 5.72461 3.20508C4.75195 3.9668 3.87891 4.8457 3.12305 5.82422C2.75391 6.30469 2.77734 6.97266 3.15234 7.45312L3.98437 8.52539C4.21875 8.82422 4.24219 9.22852 4.07227 9.56836C3.81445 10.084 3.5918 10.6172 3.41016 11.1738C3.29297 11.5371 2.98242 11.8066 2.60742 11.8535L1.27148 12.0234C0.667969 12.0996 0.175781 12.5566 0.0996094 13.1602C0.0410156 13.7578 0 14.373 0 15C0 15.6211 0.0351562 16.2363 0.111328 16.8398C0.1875 17.4434 0.679687 17.9004 1.2832 17.9766L2.61914 18.1465C2.99414 18.1934 3.30469 18.4629 3.42187 18.8262C3.60352 19.3828 3.82617 19.9219 4.08398 20.4375C4.25391 20.7773 4.22461 21.1816 3.99609 21.4805L3.16406 22.5469C2.78906 23.0273 2.76562 23.6953 3.13477 24.1758C3.89062 25.1543 4.76367 26.0332 5.73633 26.7949C6.2168 27.1699 6.89062 27.1465 7.37109 26.7715L8.42578 25.9512C8.72461 25.7168 9.14062 25.6934 9.48047 25.8633C10.0078 26.1328 10.5527 26.3613 11.1152 26.5488C11.4727 26.6719 11.7422 26.9766 11.7891 27.3516L11.959 28.7051C12.0352 29.3086 12.4863 29.8008 13.0898 29.877C13.7168 29.959 14.3613 30 15.0117 30C15.6035 30 16.1895 29.9648 16.7637 29.9004C17.373 29.8301 17.8301 29.332 17.9062 28.7285L18.0703 27.4102C18.1172 27.0293 18.3926 26.7188 18.7559 26.6016C19.3418 26.4141 19.9102 26.1797 20.4551 25.9102C20.7949 25.7402 21.1992 25.7695 21.498 25.998L22.5586 26.8301C23.0391 27.2051 23.707 27.2285 24.1875 26.8594C24.3516 26.7305 24.5098 26.6016 24.668 26.4668L26.4668 24.668C26.5723 24.5391 26.6777 24.4102 26.7832 24.2812C27.1641 23.8008 27.1348 23.127 26.7598 22.6465L25.9395 21.5977C25.7051 21.2988 25.6816 20.8828 25.8516 20.543C26.1328 19.9922 26.3789 19.4121 26.5723 18.8145C26.6895 18.4512 27 18.1816 27.375 18.1348L28.7109 17.9707C29.3145 17.8945 29.8125 17.4375 29.8828 16.834C29.8945 16.7344 29.9062 16.6289 29.918 16.5293V13.4824C29.9062 13.3828 29.8945 13.2773 29.8828 13.1777C29.8066 12.5742 29.3145 12.1172 28.7109 12.041L27.375 11.877C27 11.8301 26.6895 11.5605 26.5723 11.1973C26.373 10.5996 26.1328 10.0195 25.8516 9.46875C25.6758 9.12891 25.7051 8.71875 25.9395 8.41406L26.7598 7.36523C27.1348 6.88477 27.1582 6.21094 26.7832 5.73047C26.6777 5.60156 26.5723 5.47266 26.4668 5.34375L24.668 3.5332C24.5098 3.39844 24.3516 3.26953 24.1875 3.14062C23.707 2.76562 23.0391 2.79492 22.5586 3.16992L21.4863 4.00195C21.1875 4.23633 20.7773 4.25977 20.4434 4.08984C19.8984 3.82031 19.3301 3.58594 18.7441 3.39844C18.3809 3.28125 18.1055 2.9707 18.0586 2.5957L17.8945 1.27734ZM16.8633 9.52734L14.9883 20.7773C14.9004 21.2871 14.4199 21.6328 13.9102 21.5508C13.4004 21.4688 13.0547 20.9824 13.1367 20.4727L15.0117 9.22266C15.0996 8.71289 15.5801 8.36719 16.0898 8.44922C16.5996 8.53125 16.9453 9.01758 16.8633 9.52734ZM10.9746 13.3184L9.29297 15L10.9746 16.6816C11.3379 17.0449 11.3379 17.6426 10.9746 18.0059C10.6113 18.3691 10.0137 18.3691 9.65039 18.0059L7.30664 15.6621C6.94336 15.2988 6.94336 14.7012 7.30664 14.3379L9.65039 11.9941C10.0137 11.6309 10.6113 11.6309 10.9746 11.9941C11.3379 12.3574 11.3379 12.9551 10.9746 13.3184ZM20.3496 11.9941L22.6934 14.3379C23.0566 14.7012 23.0566 15.2988 22.6934 15.6621L20.3496 18.0059C19.9863 18.3691 19.3887 18.3691 19.0254 18.0059C18.6621 17.6426 18.6621 17.0449 19.0254 16.6816L20.707 15L19.0254 13.3184C18.6621 12.9551 18.6621 12.3574 19.0254 11.9941C19.3887 11.6309 19.9863 11.6309 20.3496 11.9941Z" fill="#41B56F"/>
</svg>
