<svg width="30" height="22" viewBox="0 0 30 22" fill="none" xmlns="http://www.w3.org/2000/svg">
<path d="M30 6.49993C30 6.98649 29.6982 7.42103 29.2477 7.58228L15.9961 12.326C15.3525 12.5562 14.6508 12.5562 14.0072 12.326L5.07187 9.12962C5.71406 8.41712 6.52031 7.88274 7.54688 7.63431L15.1828 5.72556C15.5857 5.6252 15.8287 5.2179 15.7294 4.81665C15.6298 4.41381 15.2152 4.16556 14.8195 4.27103L7.18594 6.18118C5.69063 6.55618 4.43437 7.42806 3.56578 8.59056L0.752344 7.58274C0.301781 7.41868 0 6.98743 0 6.49993C0 6.01243 0.301781 5.57884 0.752344 5.41759L14.0039 0.673838C14.6475 0.443682 15.3492 0.443682 15.9928 0.673838L29.2444 5.41759C29.7 5.58118 30 6.01243 30 6.49993ZM16.4578 13.7374C16.0172 13.9109 15.5109 13.9999 15 13.9999C14.4881 13.9999 13.9833 13.9124 13.5 13.7395L6.69375 11.3046L6 17.9984C6 19.9343 9.98906 21.4999 15 21.4999C19.9266 21.4999 24 19.9343 24 17.9998L23.3072 11.3013L16.4578 13.7374Z" fill="#FF8F4F"/>
<path opacity="0.4" d="M15.1827 5.72646L7.54679 7.63427C5.69991 8.09833 4.33116 9.54677 3.90366 11.3327C4.25757 11.5671 4.49991 12.0171 4.49991 12.4999C4.49991 12.9664 4.27426 13.3666 3.94023 13.6418L5.10413 20.6261C5.1796 21.0827 4.82804 21.4999 4.36445 21.4999H1.63538C1.17193 21.4999 0.819289 21.0837 0.895696 20.6266L2.0596 13.6422C1.72538 13.3671 1.49991 12.9265 1.49991 12.4999C1.49991 11.8793 1.87712 11.3463 2.41491 11.1185C2.93148 8.73536 4.73898 6.79286 7.1821 6.18255L14.818 4.2738C15.2136 4.16833 15.628 4.41663 15.7279 4.81942C15.8296 5.22021 15.5859 5.62802 15.1827 5.72646Z" fill="#FF8F4F"/>
</svg>
