<svg width="24" height="22" viewBox="0 0 24 22" fill="none" xmlns="http://www.w3.org/2000/svg">
<path d="M21.7078 0.5H2.20782C1.00735 0.5 0 1.50734 0 2.75V19.25C0 20.4927 1.00734 21.5 2.20781 21.5H21.7078C22.9505 21.5 23.9578 20.4927 23.9578 19.25V2.75C23.9578 1.50734 22.9922 0.5 21.7078 0.5ZM5.20782 18.125C5.20782 18.3321 5.03991 18.5 4.83282 18.5H2.58282C2.37572 18.5 2.20782 18.3321 2.20782 18.125V15.875C2.20782 15.6679 2.37572 15.5 2.58282 15.5H4.79063C4.99772 15.5 5.16563 15.6679 5.16563 15.875L5.20782 18.125ZM5.20782 12.125C5.20782 12.3321 5.03991 12.5 4.83282 12.5H2.58282C2.37572 12.5 2.20782 12.3321 2.20782 12.125V9.875C2.20782 9.66791 2.37572 9.5 2.58282 9.5H4.79063C4.99772 9.5 5.16563 9.66791 5.16563 9.875V12.125H5.20782ZM5.20782 6.125C5.20782 6.33209 5.03991 6.5 4.83282 6.5H2.58282C2.37572 6.5 2.20782 6.33209 2.20782 6.125V3.875C2.20782 3.66791 2.37572 3.5 2.58282 3.5H4.79063C4.99772 3.5 5.16563 3.66791 5.16563 3.875L5.20782 6.125ZM16.4578 17.75C16.4578 18.1642 16.122 18.5 15.7078 18.5H8.20782C7.79363 18.5 7.45782 18.1642 7.45782 17.75V13.25C7.45782 12.8358 7.79363 12.5 8.20782 12.5H15.7078C16.122 12.5 16.4578 12.8358 16.4578 13.25V17.75ZM16.4578 8.75C16.4578 9.16419 16.122 9.5 15.7078 9.5H8.20782C7.79363 9.5 7.45782 9.16419 7.45782 8.75V4.25C7.45782 3.83581 7.79363 3.5 8.20782 3.5H15.7078C16.122 3.5 16.4578 3.83581 16.4578 4.25V8.75ZM21.7078 18.125C21.7078 18.3321 21.5399 18.5 21.3328 18.5H19.125C18.9179 18.5 18.7922 18.3321 18.7922 18.125V15.875C18.7922 15.6679 18.9601 15.5 19.1672 15.5H21.375C21.5821 15.5 21.75 15.6679 21.75 15.875V18.125H21.7078ZM21.7078 12.125C21.7078 12.3321 21.5399 12.5 21.3328 12.5H19.125C18.9179 12.5 18.75 12.3321 18.75 12.125V9.875C18.75 9.66791 18.9179 9.5 19.125 9.5H21.3328C21.5399 9.5 21.7078 9.66791 21.7078 9.875V12.125ZM21.7078 6.125C21.7078 6.33209 21.5399 6.5 21.3328 6.5H19.125C18.9179 6.5 18.75 6.33209 18.75 6.125V3.875C18.75 3.66791 18.9179 3.5 19.0828 3.5H21.2906C21.4977 3.5 21.6656 3.66791 21.6656 3.875V6.125H21.7078Z" fill="#FFE381"/>
<path opacity="0.4" d="M15.707 12.5H8.20703C7.79284 12.5 7.45703 12.8358 7.45703 13.25V17.75C7.45703 18.1642 7.79284 18.5 8.20703 18.5H15.707C16.1212 18.5 16.457 18.1642 16.457 17.75V13.25C16.457 12.8375 16.1617 12.5 15.707 12.5ZM15.707 3.5H8.20703C7.79284 3.5 7.45703 3.83581 7.45703 4.25V8.75C7.45703 9.16419 7.79284 9.5 8.20703 9.5H15.707C16.1212 9.5 16.457 9.16419 16.457 8.75V4.25C16.457 3.8375 16.1617 3.5 15.707 3.5Z" fill="#FFE381"/>
</svg>
