<svg width="18" height="28" viewBox="0 0 18 28" fill="none" xmlns="http://www.w3.org/2000/svg">
<path d="M17.3327 2.625V21H0.666016V2.625C0.666016 1.17578 1.78581 0 3.16602 0H14.8327C16.2129 0 17.3327 1.17578 17.3327 2.625Z" fill="#FAD92E"/>
<path opacity="0.4" d="M0.666016 21V25.375C0.666016 26.8242 1.78581 28 3.16602 28H14.8327C16.2129 28 17.3327 26.8242 17.3327 25.375V21H0.666016ZM11.4993 24.4508C11.4993 24.9813 11.1243 25.375 10.666 25.375H7.28581C6.87435 25.375 6.49935 24.9813 6.49935 24.5C6.49935 24.0187 6.87435 23.625 7.33268 23.625H10.666C11.1243 23.625 11.4993 24.0188 11.4993 24.4508Z" fill="#FAD92E"/>
</svg>
