<svg width="28" height="22" viewBox="0 0 28 22" fill="none" xmlns="http://www.w3.org/2000/svg">
<g clip-path="url(#clip0_1768_29824)">
<path d="M14.0016 13.75C14.5531 13.75 15.0993 13.6433 15.6088 13.436C16.1184 13.2287 16.5814 12.9249 16.9714 12.5418C17.3614 12.1588 17.6708 11.704 17.8819 11.2036C18.0929 10.7031 18.2016 10.1667 18.2016 9.625C18.2016 9.0833 18.0929 8.5469 17.8819 8.04643C17.6708 7.54596 17.3614 7.09123 16.9714 6.70818C16.5814 6.32514 16.1184 6.0213 15.6088 5.814C15.0993 5.6067 14.5531 5.5 14.0016 5.5C13.45 5.5 12.9039 5.6067 12.3943 5.814C11.8847 6.0213 11.4217 6.32514 11.0317 6.70818C10.6417 7.09123 10.3323 7.54596 10.1213 8.04643C9.9102 8.5469 9.80156 9.0833 9.80156 9.625C9.80156 10.1667 9.9102 10.7031 10.1213 11.2036C10.3323 11.704 10.6417 12.1588 11.0317 12.5418C11.4217 12.9249 11.8847 13.2287 12.3943 13.436C12.9039 13.6433 13.45 13.75 14.0016 13.75ZM11.4334 15.125C8.21344 15.125 5.60156 17.6902 5.60156 20.8527C5.60156 21.4844 6.12219 22 6.76969 22H21.2334C21.8766 22 22.4016 21.4887 22.4016 20.8527C22.4016 17.6902 19.7897 15.125 16.5697 15.125H11.4334Z" fill="#FFCF57"/>
<path opacity="0.4" d="M9.8 3.4375C9.8 2.52582 9.43125 1.65148 8.77487 1.00682C8.1185 0.362164 7.22826 0 6.3 0C5.37174 0 4.4815 0.362164 3.82513 1.00682C3.16875 1.65148 2.8 2.52582 2.8 3.4375C2.8 4.34918 3.16875 5.22352 3.82513 5.86818C4.4815 6.51284 5.37174 6.875 6.3 6.875C7.22826 6.875 8.1185 6.51284 8.77487 5.86818C9.43125 5.22352 9.8 4.34918 9.8 3.4375ZM25.9 3.4375C25.9 2.52582 25.5312 1.65148 24.8749 1.00682C24.2185 0.362164 23.3283 0 22.4 0C21.4717 0 20.5815 0.362164 19.9251 1.00682C19.2687 1.65148 18.9 2.52582 18.9 3.4375C18.9 4.34918 19.2687 5.22352 19.9251 5.86818C20.5815 6.51284 21.4717 6.875 22.4 6.875C23.3283 6.875 24.2185 6.51284 24.8749 5.86818C25.5312 5.22352 25.9 4.34918 25.9 3.4375ZM4.66812 8.25C2.09125 8.25 0 10.3039 0 12.8348C0 13.3375 0.42 13.75 0.931875 13.75H10.2681C10.2769 13.75 10.2856 13.75 10.2987 13.75C9.135 12.7402 8.40438 11.2664 8.40438 9.625C8.40438 9.29844 8.435 8.98047 8.4875 8.6668C7.8925 8.39609 7.23187 8.25 6.53625 8.25H4.66812ZM17.7056 13.75C17.7144 13.75 17.7231 13.75 17.7362 13.75H27.0681C27.5844 13.75 28 13.3375 28 12.8348C28 10.3039 25.9087 8.25 23.3319 8.25H21.4681C20.7725 8.25 20.1119 8.40039 19.5169 8.6668C19.5737 8.97617 19.6 9.29844 19.6 9.625C19.6 11.2664 18.865 12.7402 17.7056 13.75Z" fill="#FFCF57"/>
</g>
<defs>
<clipPath id="clip0_1768_29824">
<rect width="28" height="22" fill="white"/>
</clipPath>
</defs>
</svg>
