<svg width="30" height="30" viewBox="0 0 30 30" fill="none" xmlns="http://www.w3.org/2000/svg">
<path d="M30 15C30 15.0527 30 15.1055 30 15.1582C29.9766 17.2969 28.0312 18.75 25.8926 18.75H20.1562C18.6035 18.75 17.3438 20.0098 17.3438 21.5625C17.3438 21.7617 17.3672 21.9551 17.4023 22.1426C17.5254 22.7402 17.7832 23.3145 18.0352 23.8945C18.3926 24.7031 18.7441 25.5059 18.7441 26.3555C18.7441 28.2188 17.4785 29.9121 15.6152 29.9883C15.4102 29.9941 15.2051 30 14.9941 30C6.71484 30 0 23.2852 0 15C0 6.71484 6.71484 0 15 0C23.2852 0 30 6.71484 30 15ZM7.5 16.875C7.5 16.3777 7.30246 15.9008 6.95083 15.5492C6.59919 15.1975 6.12228 15 5.625 15C5.12772 15 4.65081 15.1975 4.29917 15.5492C3.94754 15.9008 3.75 16.3777 3.75 16.875C3.75 17.3723 3.94754 17.8492 4.29917 18.2008C4.65081 18.5525 5.12772 18.75 5.625 18.75C6.12228 18.75 6.59919 18.5525 6.95083 18.2008C7.30246 17.8492 7.5 17.3723 7.5 16.875ZM7.5 11.25C7.99728 11.25 8.47419 11.0525 8.82582 10.7008C9.17746 10.3492 9.375 9.87228 9.375 9.375C9.375 8.87772 9.17746 8.40081 8.82582 8.04918C8.47419 7.69754 7.99728 7.5 7.5 7.5C7.00272 7.5 6.52581 7.69754 6.17417 8.04918C5.82254 8.40081 5.625 8.87772 5.625 9.375C5.625 9.87228 5.82254 10.3492 6.17417 10.7008C6.52581 11.0525 7.00272 11.25 7.5 11.25ZM16.875 5.625C16.875 5.12772 16.6775 4.65081 16.3258 4.29917C15.9742 3.94754 15.4973 3.75 15 3.75C14.5027 3.75 14.0258 3.94754 13.6742 4.29917C13.3225 4.65081 13.125 5.12772 13.125 5.625C13.125 6.12228 13.3225 6.59919 13.6742 6.95083C14.0258 7.30246 14.5027 7.5 15 7.5C15.4973 7.5 15.9742 7.30246 16.3258 6.95083C16.6775 6.59919 16.875 6.12228 16.875 5.625ZM22.5 11.25C22.9973 11.25 23.4742 11.0525 23.8258 10.7008C24.1775 10.3492 24.375 9.87228 24.375 9.375C24.375 8.87772 24.1775 8.40081 23.8258 8.04918C23.4742 7.69754 22.9973 7.5 22.5 7.5C22.0027 7.5 21.5258 7.69754 21.1742 8.04918C20.8225 8.40081 20.625 8.87772 20.625 9.375C20.625 9.87228 20.8225 10.3492 21.1742 10.7008C21.5258 11.0525 22.0027 11.25 22.5 11.25Z" fill="white"/>
</svg>
