<svg width="24" height="24" viewBox="0 0 24 24" fill="none" xmlns="http://www.w3.org/2000/svg">
<g clip-path="url(#clip0_228_7556)">
<path d="M6.15891 16.3875L8.76047 9.62346C8.91047 9.22502 9.22453 8.91096 9.62297 8.76096L16.387 6.1594C17.2964 5.80783 18.1917 6.66096 17.8402 7.61252L15.2386 14.3766C15.0886 14.775 14.7745 15.0891 14.3761 15.2391L7.61203 17.8406C6.66047 18.1922 5.80735 17.2969 6.15891 16.3875ZM11.9573 13.4578C12.8292 13.4578 13.4995 12.8297 13.4995 11.9578C13.4995 11.1703 12.8292 10.4578 11.9573 10.4578C11.1698 10.4578 10.4573 11.1703 10.4573 11.9578C10.4573 12.8297 11.1698 13.4578 11.9573 13.4578Z" fill="#41AEB5"/>
<path opacity="0.4" d="M0 12C0 5.37188 5.37188 0 12 0C18.6281 0 24 5.37188 24 12C24 18.6281 18.6281 24 12 24C5.37188 24 0 18.6281 0 12ZM7.6125 17.8406L14.3766 15.2391C14.775 15.0891 15.0891 14.775 15.2391 14.3766L17.8406 7.6125C18.1922 6.66094 17.2969 5.80781 16.3875 6.15937L9.62344 8.76094C9.225 8.91094 8.91094 9.225 8.76094 9.62344L6.15937 16.3875C5.80781 17.2969 6.66094 18.1922 7.6125 17.8406Z" fill="#41AEB5"/>
</g>
<defs>
<clipPath id="clip0_228_7556">
<rect width="24" height="24" fill="white"/>
</clipPath>
</defs>
</svg>
