<svg width="26" height="20" viewBox="0 0 26 20" fill="none" xmlns="http://www.w3.org/2000/svg">
<g clip-path="url(#clip0_228_7568)">
<path d="M9.1 10C11.9722 10 14.3 7.76133 14.3 5C14.3 2.23867 11.9722 0 9.1 0C6.22781 0 3.9 2.23867 3.9 5C3.9 7.76133 6.22781 10 9.1 10ZM11.1597 11.875H7.04031C3.15128 11.875 0 14.9062 0 18.6445C0 19.3945 0.6305 20 1.40806 20H16.7903C17.5703 20 18.2 19.3945 18.2 18.6445C18.2 14.9062 15.0475 11.875 11.1597 11.875Z" fill="#EC9462"/>
<path opacity="0.4" d="M19.4632 12.5H16.463C18.3297 13.9727 19.4997 16.1758 19.4997 18.6445C19.4997 19.1445 19.3454 19.6055 19.0935 20H24.6997C25.4188 20 25.9997 19.4375 25.9997 18.7148C25.9997 15.2969 23.091 12.5 19.4632 12.5ZM17.5497 10C20.0644 10 22.0997 8.04297 22.0997 5.625C22.0997 3.20703 20.0644 1.25 17.5497 1.25C16.5297 1.25 15.5981 1.58418 14.8392 2.1293C15.3072 2.99336 15.5997 3.96094 15.5997 5C15.5997 6.3875 15.1151 7.66172 14.3164 8.69961C15.1407 9.5 16.2822 10 17.5497 10Z" fill="#EC9462"/>
</g>
<defs>
<clipPath id="clip0_228_7568">
<rect width="26" height="20" fill="white"/>
</clipPath>
</defs>
</svg>
