<svg width="24" height="24" viewBox="0 0 24 24" fill="none" xmlns="http://www.w3.org/2000/svg">
<g clip-path="url(#clip0_228_7574)">
<path d="M17.507 1.27078C18.2102 0.463359 19.2273 0 20.2961 0C22.3398 0 23.9992 1.6575 23.9992 3.70219C23.9992 4.77188 23.5352 5.78906 22.7289 6.49219L11.957 15.8391L8.16016 12L17.507 1.27078Z" fill="#C5FA2E"/>
<path opacity="0.4" d="M11.9571 15.839L10.954 20.3578C10.8321 20.8968 10.4243 21.3187 9.89927 21.4265L1.14067 23.9203L5.6102 19.4484C5.73677 19.4812 5.86333 19.5 5.99927 19.5C6.82895 19.5 7.49927 18.8297 7.49927 18C7.49927 17.1703 6.82895 16.5 5.99927 16.5C5.16958 16.5 4.49927 17.1703 4.49927 18C4.49927 18.1359 4.51708 18.2625 4.54989 18.389L0.0800781 22.8609L2.53192 14.1C2.68005 13.575 3.10473 13.1672 3.63911 13.0453L8.1602 12L11.9571 15.839ZM23.9993 3.68481C23.9993 3.69091 23.9993 3.69653 23.9993 3.70216C23.9993 3.70778 23.9993 3.71341 23.9993 3.71903V3.68481Z" fill="#C5FA2E"/>
</g>
<defs>
<clipPath id="clip0_228_7574">
<rect width="24" height="24" fill="white"/>
</clipPath>
</defs>
</svg>
