<svg width="60" height="60" viewBox="0 0 60 60" fill="none" xmlns="http://www.w3.org/2000/svg">
<rect width="60" height="60" rx="8" fill="#161616"/>
<g clip-path="url(#clip0_1188_25522)">
<mask id="mask0_1188_25522" style="mask-type:luminance" maskUnits="userSpaceOnUse" x="21" y="21" width="24" height="24">
<path fill-rule="evenodd" clip-rule="evenodd" d="M21.7227 44.0235L42.4972 42.6137L44.0972 21.666L37.7671 34.4964L21.7227 44.0235Z" fill="white"/>
</mask>
<g mask="url(#mask0_1188_25522)">
<path fill-rule="evenodd" clip-rule="evenodd" d="M21.7227 44.0235L42.4972 42.6137L44.0972 21.666L37.7671 34.4964L21.7227 44.0235Z" fill="url(#paint0_linear_1188_25522)"/>
</g>
<mask id="mask1_1188_25522" style="mask-type:luminance" maskUnits="userSpaceOnUse" x="35" y="30" width="8" height="13">
<path fill-rule="evenodd" clip-rule="evenodd" d="M35.8828 36.6977L42.532 42.5995L40.7463 30.2754L35.8828 36.6977Z" fill="white"/>
</mask>
<g mask="url(#mask1_1188_25522)">
<path fill-rule="evenodd" clip-rule="evenodd" d="M35.8828 36.6977L42.532 42.5995L40.7463 30.2754L35.8828 36.6977Z" fill="url(#paint1_linear_1188_25522)"/>
</g>
<mask id="mask2_1188_25522" style="mask-type:luminance" maskUnits="userSpaceOnUse" x="21" y="41" width="22" height="3">
<path fill-rule="evenodd" clip-rule="evenodd" d="M21.793 43.9982L42.5562 42.6011L29.4748 41.5742L21.793 43.9982Z" fill="white"/>
</mask>
<g mask="url(#mask2_1188_25522)">
<path fill-rule="evenodd" clip-rule="evenodd" d="M21.793 43.9982L42.5562 42.6011L29.4748 41.5742L21.793 43.9982Z" fill="url(#paint2_linear_1188_25522)"/>
</g>
<mask id="mask3_1188_25522" style="mask-type:luminance" maskUnits="userSpaceOnUse" x="17" y="33" width="9" height="11">
<path fill-rule="evenodd" clip-rule="evenodd" d="M17.8887 34.8304L21.8119 43.9987L25.0797 33.293L17.8887 34.8304Z" fill="white"/>
</mask>
<g mask="url(#mask3_1188_25522)">
<path fill-rule="evenodd" clip-rule="evenodd" d="M17.8887 34.8304L21.8119 43.9987L25.0797 33.293L17.8887 34.8304Z" fill="url(#paint3_linear_1188_25522)"/>
</g>
<mask id="mask4_1188_25522" style="mask-type:luminance" maskUnits="userSpaceOnUse" x="24" y="24" width="12" height="13">
<path fill-rule="evenodd" clip-rule="evenodd" d="M24.2695 33.0213L35.8816 36.7331L32.8747 24.9551L24.2695 33.0213Z" fill="white"/>
</mask>
<g mask="url(#mask4_1188_25522)">
<path fill-rule="evenodd" clip-rule="evenodd" d="M24.2695 33.0213L35.8816 36.7331L32.8747 24.9551L24.2695 33.0213Z" fill="url(#paint4_linear_1188_25522)"/>
</g>
<mask id="mask5_1188_25522" style="mask-type:luminance" maskUnits="userSpaceOnUse" x="33" y="18" width="11" height="8">
<path fill-rule="evenodd" clip-rule="evenodd" d="M33.0156 25.7995L43.415 25.1201L35.2807 18.4766L33.0156 25.7995Z" fill="white"/>
</mask>
<g mask="url(#mask5_1188_25522)">
<path fill-rule="evenodd" clip-rule="evenodd" d="M33.0156 25.7995L43.415 25.1201L35.2807 18.4766L33.0156 25.7995Z" fill="url(#paint5_linear_1188_25522)"/>
</g>
<mask id="mask6_1188_25522" style="mask-type:luminance" maskUnits="userSpaceOnUse" x="31" y="16" width="9" height="3">
<path fill-rule="evenodd" clip-rule="evenodd" d="M31.8086 16.0742L39.611 16.1097L34.8269 18.7535L31.8086 16.0742Z" fill="white"/>
</mask>
<g mask="url(#mask6_1188_25522)">
<path fill-rule="evenodd" clip-rule="evenodd" d="M31.8086 16.0742L39.611 16.1097L34.8269 18.7535L31.8086 16.0742Z" fill="url(#paint6_linear_1188_25522)"/>
</g>
<mask id="mask7_1188_25522" style="mask-type:luminance" maskUnits="userSpaceOnUse" x="15" y="30" width="4" height="9">
<path fill-rule="evenodd" clip-rule="evenodd" d="M16.379 30.4141L15.9961 38.4235L18.0002 34.7684L16.379 30.4141Z" fill="white"/>
</mask>
<g mask="url(#mask7_1188_25522)">
<path fill-rule="evenodd" clip-rule="evenodd" d="M16.379 30.4141L15.9961 38.4235L18.0002 34.7684L16.379 30.4141Z" fill="url(#paint7_linear_1188_25522)"/>
</g>
<path fill-rule="evenodd" clip-rule="evenodd" d="M16.2712 30.2757L17.9023 34.9024L24.9898 33.3124L33.0816 25.7923L35.3651 18.5388L31.7696 16L25.6565 18.2878C23.7303 20.0792 19.993 23.6236 19.8583 23.6903C19.7249 23.7584 17.3903 28.1709 16.2712 30.2757Z" fill="white"/>
<mask id="mask8_1188_25522" style="mask-type:luminance" maskUnits="userSpaceOnUse" x="16" y="16" width="19" height="19">
<path fill-rule="evenodd" clip-rule="evenodd" d="M21.9991 21.9653C26.1734 17.8266 31.5546 15.3813 33.6197 17.4648C35.6834 19.5485 33.4948 24.6119 29.3207 28.7493C25.1464 32.8866 19.8319 35.4666 17.7682 33.383C15.703 31.3009 17.8249 26.1027 21.9991 21.9653Z" fill="white"/>
</mask>
<g mask="url(#mask8_1188_25522)">
<path fill-rule="evenodd" clip-rule="evenodd" d="M21.9991 21.9653C26.1734 17.8266 31.5546 15.3813 33.6197 17.4648C35.6834 19.5485 33.4948 24.6119 29.3207 28.7493C25.1464 32.8866 19.8319 35.4666 17.7682 33.383C15.703 31.3009 17.8249 26.1027 21.9991 21.9653Z" fill="url(#paint8_linear_1188_25522)"/>
</g>
<mask id="mask9_1188_25522" style="mask-type:luminance" maskUnits="userSpaceOnUse" x="21" y="33" width="15" height="11">
<path fill-rule="evenodd" clip-rule="evenodd" d="M21.8105 43.9956L25.0529 33.2559L35.821 36.7152C31.9276 40.366 27.5974 43.4523 21.8105 43.9956Z" fill="white"/>
</mask>
<g mask="url(#mask9_1188_25522)">
<path fill-rule="evenodd" clip-rule="evenodd" d="M21.8105 43.9956L25.0529 33.2559L35.821 36.7152C31.9276 40.366 27.5974 43.4523 21.8105 43.9956Z" fill="url(#paint9_linear_1188_25522)"/>
</g>
<mask id="mask10_1188_25522" style="mask-type:luminance" maskUnits="userSpaceOnUse" x="33" y="25" width="11" height="12">
<path fill-rule="evenodd" clip-rule="evenodd" d="M33.0957 25.7717L35.86 36.7214C39.1123 33.3017 42.0313 29.6254 43.461 25.0781L33.0957 25.7717Z" fill="white"/>
</mask>
<g mask="url(#mask10_1188_25522)">
<path fill-rule="evenodd" clip-rule="evenodd" d="M33.0957 25.7717L35.86 36.7214C39.1123 33.3017 42.0313 29.6254 43.461 25.0781L33.0957 25.7717Z" fill="url(#paint10_linear_1188_25522)"/>
</g>
<mask id="mask11_1188_25522" style="mask-type:luminance" maskUnits="userSpaceOnUse" x="35" y="16" width="10" height="10">
<path fill-rule="evenodd" clip-rule="evenodd" d="M43.4326 25.1331C44.5389 21.7943 44.7942 17.0045 39.5775 16.1152L35.2969 18.4796L43.4326 25.1331Z" fill="white"/>
</mask>
<g mask="url(#mask11_1188_25522)">
<path fill-rule="evenodd" clip-rule="evenodd" d="M43.4326 25.1331C44.5389 21.7943 44.7942 17.0045 39.5775 16.1152L35.2969 18.4796L43.4326 25.1331Z" fill="url(#paint11_linear_1188_25522)"/>
</g>
<path fill-rule="evenodd" clip-rule="evenodd" d="M15.9961 38.3737C16.1492 43.8841 20.1249 43.9663 21.8184 44.0145L17.9066 34.8789L15.9961 38.3737Z" fill="#9E1209"/>
<mask id="mask12_1188_25522" style="mask-type:luminance" maskUnits="userSpaceOnUse" x="33" y="25" width="11" height="6">
<path fill-rule="evenodd" clip-rule="evenodd" d="M33.1113 25.7866C35.6104 27.3227 40.647 30.4076 40.7492 30.4644C40.908 30.5537 42.9206 27.0702 43.3773 25.1016L33.1113 25.7866Z" fill="white"/>
</mask>
<g mask="url(#mask12_1188_25522)">
<path fill-rule="evenodd" clip-rule="evenodd" d="M33.1113 25.7866C35.6104 27.3227 40.647 30.4076 40.7492 30.4644C40.908 30.5537 42.9206 27.0702 43.3773 25.1016L33.1113 25.7866Z" fill="url(#paint12_radial_1188_25522)"/>
</g>
<mask id="mask13_1188_25522" style="mask-type:luminance" maskUnits="userSpaceOnUse" x="25" y="33" width="11" height="9">
<path fill-rule="evenodd" clip-rule="evenodd" d="M25.0488 33.2559L29.3833 41.6185C31.9463 40.2284 33.9533 38.5349 35.7915 36.7208L25.0488 33.2559Z" fill="white"/>
</mask>
<g mask="url(#mask13_1188_25522)">
<path fill-rule="evenodd" clip-rule="evenodd" d="M25.0488 33.2559L29.3833 41.6185C31.9463 40.2284 33.9533 38.5349 35.7915 36.7208L25.0488 33.2559Z" fill="url(#paint13_radial_1188_25522)"/>
</g>
<mask id="mask14_1188_25522" style="mask-type:luminance" maskUnits="userSpaceOnUse" x="17" y="34" width="5" height="10">
<path fill-rule="evenodd" clip-rule="evenodd" d="M17.8895 34.8925L17.2754 42.2055C18.4342 43.7884 20.0284 43.9259 21.7006 43.8026C20.4908 40.7914 18.0739 34.7705 17.8895 34.8925Z" fill="white"/>
</mask>
<g mask="url(#mask14_1188_25522)">
<path fill-rule="evenodd" clip-rule="evenodd" d="M17.8895 34.8925L17.2754 42.2055C18.4342 43.7884 20.0284 43.9259 21.7006 43.8026C20.4908 40.7914 18.0739 34.7705 17.8895 34.8925Z" fill="url(#paint14_linear_1188_25522)"/>
</g>
<mask id="mask15_1188_25522" style="mask-type:luminance" maskUnits="userSpaceOnUse" x="35" y="16" width="9" height="4">
<path fill-rule="evenodd" clip-rule="evenodd" d="M35.2715 18.4979L43.8823 19.7063C43.4227 17.7589 42.0115 16.5023 39.606 16.1094L35.2715 18.4979Z" fill="white"/>
</mask>
<g mask="url(#mask15_1188_25522)">
<path fill-rule="evenodd" clip-rule="evenodd" d="M35.2715 18.4979L43.8823 19.7063C43.4227 17.7589 42.0115 16.5023 39.606 16.1094L35.2715 18.4979Z" fill="url(#paint15_linear_1188_25522)"/>
</g>
</g>
<rect x="0.5" y="0.5" width="59" height="59" rx="7.5" stroke="white" stroke-opacity="0.2"/>
<defs>
<linearGradient id="paint0_linear_1188_25522" x1="40.6847" y1="46.5715" x2="34.756" y2="36.1041" gradientUnits="userSpaceOnUse">
<stop stop-color="#FB7655"/>
<stop offset="0.41" stop-color="#E42B1E"/>
<stop offset="0.99001" stop-color="#990000"/>
<stop offset="1" stop-color="#990000"/>
</linearGradient>
<linearGradient id="paint1_linear_1188_25522" x1="43.6389" y1="37.7794" x2="35.9984" y2="32.6521" gradientUnits="userSpaceOnUse">
<stop stop-color="#871101"/>
<stop offset="0.99001" stop-color="#911209"/>
<stop offset="1" stop-color="#911209"/>
</linearGradient>
<linearGradient id="paint2_linear_1188_25522" x1="37.5259" y1="46.8907" x2="29.8854" y2="41.7634" gradientUnits="userSpaceOnUse">
<stop stop-color="#871101"/>
<stop offset="0.99001" stop-color="#911209"/>
<stop offset="1" stop-color="#911209"/>
</linearGradient>
<linearGradient id="paint3_linear_1188_25522" x1="21.4851" y1="34.0676" x2="22.6696" y2="41.7654" gradientUnits="userSpaceOnUse">
<stop stop-color="white"/>
<stop offset="0.23" stop-color="#E57252"/>
<stop offset="0.46001" stop-color="#DE3B20"/>
<stop offset="0.99001" stop-color="#A60003"/>
<stop offset="1" stop-color="#A60003"/>
</linearGradient>
<linearGradient id="paint4_linear_1188_25522" x1="29.6313" y1="26.8799" x2="30.0677" y2="34.7361" gradientUnits="userSpaceOnUse">
<stop stop-color="white"/>
<stop offset="0.23" stop-color="#E4714E"/>
<stop offset="0.56" stop-color="#BE1A0D"/>
<stop offset="0.99001" stop-color="#A80D00"/>
<stop offset="1" stop-color="#A80D00"/>
</linearGradient>
<linearGradient id="paint5_linear_1188_25522" x1="36.8599" y1="19.6188" x2="38.1664" y2="25.2489" gradientUnits="userSpaceOnUse">
<stop stop-color="white"/>
<stop offset="0.17999" stop-color="#E46342"/>
<stop offset="0.39999" stop-color="#C82410"/>
<stop offset="0.99001" stop-color="#A80D00"/>
<stop offset="1" stop-color="#A80D00"/>
</linearGradient>
<linearGradient id="paint6_linear_1188_25522" x1="32.8704" y1="17.6376" x2="38.5004" y2="14.8226" gradientUnits="userSpaceOnUse">
<stop stop-color="white"/>
<stop offset="0.53999" stop-color="#C81F11"/>
<stop offset="0.99001" stop-color="#BF0905"/>
<stop offset="1" stop-color="#BF0905"/>
</linearGradient>
<linearGradient id="paint7_linear_1188_25522" x1="16.5498" y1="32.1069" x2="17.0132" y2="36.7463" gradientUnits="userSpaceOnUse">
<stop stop-color="white"/>
<stop offset="0.31" stop-color="#DE4024"/>
<stop offset="0.99001" stop-color="#BF190B"/>
<stop offset="1" stop-color="#BF190B"/>
</linearGradient>
<linearGradient id="paint8_linear_1188_25522" x1="13.3641" y1="38.0011" x2="35.1464" y2="15.6029" gradientUnits="userSpaceOnUse">
<stop stop-color="#BD0012"/>
<stop offset="0.07001" stop-color="white"/>
<stop offset="0.27" stop-color="#C82F1C"/>
<stop offset="0.33" stop-color="#820C01"/>
<stop offset="0.46001" stop-color="#A31601"/>
<stop offset="0.72" stop-color="#B31301"/>
<stop offset="0.99001" stop-color="#E82609"/>
<stop offset="1" stop-color="#E82609"/>
</linearGradient>
<linearGradient id="paint9_linear_1188_25522" x1="30.0479" y1="40.2587" x2="23.4874" y2="38.6395" gradientUnits="userSpaceOnUse">
<stop stop-color="#8C0C01"/>
<stop offset="0.53999" stop-color="#990C00"/>
<stop offset="0.99001" stop-color="#A80D0E"/>
<stop offset="1" stop-color="#A80D0E"/>
</linearGradient>
<linearGradient id="paint10_linear_1188_25522" x1="41.3172" y1="32.3846" x2="35.4887" y2="27.1606" gradientUnits="userSpaceOnUse">
<stop stop-color="#7E110B"/>
<stop offset="0.99001" stop-color="#9E0C00"/>
<stop offset="1" stop-color="#9E0C00"/>
</linearGradient>
<linearGradient id="paint11_linear_1188_25522" x1="43.4585" y1="22.7994" x2="40.5551" y2="19.6955" gradientUnits="userSpaceOnUse">
<stop stop-color="#79130D"/>
<stop offset="0.99001" stop-color="#9E120B"/>
<stop offset="1" stop-color="#9E120B"/>
</linearGradient>
<radialGradient id="paint12_radial_1188_25522" cx="0" cy="0" r="1" gradientUnits="userSpaceOnUse" gradientTransform="translate(36.3962 27.2589) scale(7.14282 7.14282)">
<stop stop-color="#A80D00"/>
<stop offset="0.99001" stop-color="#7E0E08"/>
<stop offset="1" stop-color="#7E0E08"/>
</radialGradient>
<radialGradient id="paint13_radial_1188_25522" cx="0" cy="0" r="1" gradientUnits="userSpaceOnUse" gradientTransform="translate(26.5041 36.6726) scale(9.49543 9.49543)">
<stop stop-color="#A30C00"/>
<stop offset="0.99001" stop-color="#800E08"/>
<stop offset="1" stop-color="#800E08"/>
</radialGradient>
<linearGradient id="paint14_linear_1188_25522" x1="19.7789" y1="43.991" x2="17.4128" y2="35.9636" gradientUnits="userSpaceOnUse">
<stop stop-color="#8B2114"/>
<stop offset="0.42999" stop-color="#9E100A"/>
<stop offset="0.99001" stop-color="#B3100C"/>
<stop offset="1" stop-color="#B3100C"/>
</linearGradient>
<linearGradient id="paint15_linear_1188_25522" x1="37.9299" y1="17.3899" x2="43.2345" y2="19.7315" gradientUnits="userSpaceOnUse">
<stop stop-color="#B31000"/>
<stop offset="0.44" stop-color="#910F08"/>
<stop offset="0.99001" stop-color="#791C12"/>
<stop offset="1" stop-color="#791C12"/>
</linearGradient>
<clipPath id="clip0_1188_25522">
<rect width="28" height="28" fill="white" transform="translate(16 16)"/>
</clipPath>
</defs>
</svg>
