<svg width="60" height="60" viewBox="0 0 60 60" fill="none" xmlns="http://www.w3.org/2000/svg">
<g clip-path="url(#clip0_958_20282)">
<rect width="60" height="60" rx="8" fill="#161616"/>
<rect width="60" height="60" fill="#161616"/>
<g clip-path="url(#clip1_958_20282)">
<path d="M20.0096 41.0671L18 16.0469L42 16.0972L39.875 41.0671L30.0906 43.9533L20.0096 41.0671Z" fill="#E34F26"/>
<path d="M30.0898 41.5369V18.4297L39.9732 18.4632L38.2107 39.1371L30.0898 41.5369Z" fill="#EF652A"/>
<path d="M37.256 24.2027L37.5358 21.1484H22.332L23.172 30.5122H33.6649L33.2534 34.506L29.893 35.4288L26.4833 34.422L26.3021 32.0392H23.2874L23.6993 36.9056L29.8928 38.6676L36.1357 36.9056L36.9757 27.4077H25.956L25.6431 24.2027H37.256Z" fill="white"/>
</g>
</g>
<rect x="0.5" y="0.5" width="59" height="59" rx="7.5" stroke="white" stroke-opacity="0.2"/>
<defs>
<clipPath id="clip0_958_20282">
<rect width="60" height="60" rx="8" fill="white"/>
</clipPath>
<clipPath id="clip1_958_20282">
<rect width="24" height="28" fill="white" transform="translate(18 16)"/>
</clipPath>
</defs>
</svg>
