<svg width="60" height="60" viewBox="0 0 60 60" fill="none" xmlns="http://www.w3.org/2000/svg">
<rect width="60" height="60" rx="8" fill="#161616"/>
<g clip-path="url(#clip0_1188_25866)">
<path d="M21.7031 27.626C21.7031 28.0581 21.7536 28.4085 21.8421 28.6654C21.9432 28.9223 22.0696 29.2026 22.2465 29.5062C22.3097 29.5997 22.3349 29.6931 22.3349 29.7749C22.3349 29.8916 22.2591 30.0084 22.0948 30.1252L21.2987 30.6157C21.185 30.6858 21.0712 30.7208 20.9701 30.7208C20.8438 30.7208 20.7174 30.6624 20.591 30.5573C20.4141 30.3821 20.2624 30.1953 20.1361 30.0084C20.0097 29.8099 19.8833 29.588 19.7443 29.3194C18.7586 30.3938 17.5202 30.931 16.029 30.931C14.9675 30.931 14.1208 30.6507 13.5016 30.0902C12.8823 29.5296 12.5664 28.7822 12.5664 27.8479C12.5664 26.8552 12.9455 26.0494 13.7164 25.4422C14.4873 24.8349 15.5109 24.5312 16.8125 24.5312C17.2422 24.5312 17.6845 24.5663 18.152 24.6247C18.6196 24.6831 19.0998 24.7765 19.6053 24.8816V24.0291C19.6053 23.1415 19.4031 22.5225 19.0114 22.1605C18.607 21.7985 17.9246 21.6233 16.9515 21.6233C16.5092 21.6233 16.0543 21.67 15.5867 21.7751C15.1191 21.8802 14.6642 22.0087 14.2219 22.1722C14.0197 22.2539 13.868 22.3007 13.7796 22.324C13.6911 22.3474 13.6279 22.359 13.5774 22.359C13.4005 22.359 13.312 22.2423 13.312 21.997V21.4248C13.312 21.2379 13.3373 21.0978 13.4005 21.016C13.4636 20.9343 13.5774 20.8525 13.7543 20.7708C14.1966 20.5606 14.7274 20.3854 15.3466 20.2452C15.9658 20.0934 16.6229 20.0234 17.318 20.0234C18.8218 20.0234 19.9212 20.3387 20.6289 20.9693C21.324 21.5999 21.6778 22.5576 21.6778 23.8422V27.626H21.7031ZM16.5724 29.4011C16.9894 29.4011 17.4191 29.3311 17.874 29.1909C18.329 29.0508 18.7334 28.7939 19.0746 28.4435C19.2767 28.2216 19.4284 27.9764 19.5042 27.6961C19.58 27.4158 19.6306 27.0771 19.6306 26.6801V26.1896C19.2641 26.1078 18.8724 26.0378 18.468 25.991C18.0636 25.9443 17.6718 25.921 17.2801 25.921C16.4334 25.921 15.8142 26.0728 15.3971 26.3881C14.9801 26.7034 14.7779 27.1472 14.7779 27.7311C14.7779 28.28 14.9296 28.6888 15.2455 28.969C15.5488 29.261 15.9911 29.4011 16.5724 29.4011ZM26.72 30.6624C26.4926 30.6624 26.3409 30.6274 26.2398 30.5456C26.1387 30.4756 26.0503 30.3121 25.9745 30.0902L23.0047 21.0627C22.9289 20.8292 22.891 20.6773 22.891 20.5956C22.891 20.4087 22.9921 20.3036 23.1943 20.3036H24.4327C24.6728 20.3036 24.8371 20.3387 24.9256 20.4204C25.0267 20.4905 25.1025 20.654 25.1783 20.8759L27.3014 28.607L29.2728 20.8759C29.3359 20.6423 29.4118 20.4905 29.5129 20.4204C29.614 20.3504 29.7909 20.3036 30.0184 20.3036H31.0293C31.2694 20.3036 31.4337 20.3387 31.5348 20.4204C31.6359 20.4905 31.7244 20.654 31.7749 20.8759L33.7716 28.7004L35.9578 20.8759C36.0337 20.6423 36.1221 20.4905 36.2106 20.4204C36.3117 20.3504 36.476 20.3036 36.7034 20.3036H37.8787C38.0809 20.3036 38.1946 20.3971 38.1946 20.5956C38.1946 20.654 38.182 20.7124 38.1693 20.7825C38.1567 20.8525 38.1314 20.946 38.0809 21.0744L35.0353 30.1018C34.9595 30.3354 34.871 30.4872 34.7699 30.5573C34.6688 30.6274 34.5046 30.6741 34.2897 30.6741H33.2029C32.9628 30.6741 32.7985 30.6391 32.6974 30.5573C32.5963 30.4756 32.5079 30.3237 32.4573 30.0902L30.4986 22.5576L28.5524 30.0785C28.4893 30.3121 28.4134 30.4639 28.3123 30.5456C28.2112 30.6274 28.0343 30.6624 27.8068 30.6624H26.72ZM42.9588 30.9777C42.3017 30.9777 41.6446 30.9077 41.0127 30.7675C40.3808 30.6274 39.888 30.4756 39.5594 30.3004C39.3572 30.1953 39.2182 30.0785 39.1677 29.9734C39.1171 29.8683 39.0918 29.7515 39.0918 29.6464V29.0508C39.0918 28.8055 39.1929 28.6888 39.3825 28.6888C39.4583 28.6888 39.5341 28.7004 39.61 28.7238C39.6858 28.7471 39.7995 28.7939 39.9259 28.8406C40.3556 29.0158 40.8231 29.1559 41.316 29.2493C41.8215 29.3427 42.3143 29.3895 42.8198 29.3895C43.616 29.3895 44.2352 29.261 44.6648 29.0041C45.0945 28.7471 45.322 28.3734 45.322 27.8946C45.322 27.5676 45.2082 27.299 44.9808 27.0771C44.7533 26.8552 44.3236 26.6567 43.7044 26.4699L41.872 25.9443C40.9495 25.6757 40.2671 25.2787 39.8501 24.7531C39.4331 24.2393 39.2182 23.667 39.2182 23.0598C39.2182 22.5693 39.332 22.1372 39.5594 21.7634C39.7869 21.3897 40.0902 21.0627 40.4693 20.8058C40.8484 20.5372 41.2781 20.3387 41.7836 20.1985C42.2891 20.0584 42.8198 20 43.3759 20C43.6539 20 43.9445 20.0117 44.2225 20.0467C44.5132 20.0817 44.7786 20.1285 45.044 20.1752C45.2967 20.2336 45.5368 20.292 45.7643 20.362C45.9917 20.4321 46.1687 20.5022 46.295 20.5722C46.472 20.6657 46.5983 20.7591 46.6742 20.8642C46.75 20.9576 46.7879 21.0861 46.7879 21.2496V21.7985C46.7879 22.0437 46.6868 22.1722 46.4972 22.1722C46.3961 22.1722 46.2319 22.1255 46.017 22.032C45.2967 21.7284 44.4879 21.5766 43.5907 21.5766C42.8704 21.5766 42.3017 21.6817 41.9099 21.9036C41.5182 22.1255 41.316 22.4642 41.316 22.943C41.316 23.27 41.4424 23.5502 41.6951 23.7721C41.9478 23.994 42.4154 24.2159 43.0852 24.4144L44.8797 24.94C45.7896 25.2086 46.4467 25.5823 46.8384 26.0611C47.2302 26.5399 47.4198 27.0888 47.4198 27.6961C47.4198 28.1983 47.306 28.6537 47.0912 29.0508C46.8637 29.4479 46.5604 29.7982 46.1687 30.0785C45.7769 30.3705 45.3093 30.5807 44.7659 30.7325C44.1973 30.896 43.6033 30.9777 42.9588 30.9777Z" fill="white"/>
<path d="M45.348 36.655C41.1904 39.4928 35.1498 40.9994 29.9559 40.9994C22.6769 40.9994 16.1182 38.5119 11.1644 34.3777C10.7727 34.0507 11.1265 33.6069 11.5941 33.8638C16.9523 36.7367 23.5615 38.4768 30.3982 38.4768C35.0108 38.4768 40.0783 37.5893 44.7414 35.7674C45.4365 35.4755 46.0304 36.1879 45.348 36.655Z" fill="#FF9900"/>
<path d="M47.0792 34.8328C46.5484 34.2022 43.566 34.5292 42.2139 34.681C41.8095 34.7277 41.7463 34.4007 42.1128 34.1554C44.4886 32.6139 48.3934 33.0577 48.8484 33.5715C49.3033 34.097 48.722 37.7057 46.4979 39.4341C46.1567 39.7027 45.8281 39.5626 45.9797 39.2122C46.4852 38.056 47.6099 35.4517 47.0792 34.8328Z" fill="#FF9900"/>
</g>
<rect x="0.5" y="0.5" width="59" height="59" rx="7.5" stroke="white" stroke-opacity="0.2"/>
<defs>
<clipPath id="clip0_1188_25866">
<rect width="38" height="21" fill="white" transform="translate(11 20)"/>
</clipPath>
</defs>
</svg>
