<svg width="60" height="60" viewBox="0 0 60 60" fill="none" xmlns="http://www.w3.org/2000/svg">
<rect width="60" height="60" rx="8" fill="#161616"/>
<path d="M28.5445 26.2484H26.6112L26.6145 29.9314C26.6145 31.0079 26.1611 31.8785 25.1052 31.8785C24.0493 31.8785 23.5906 31.0099 23.5906 29.9314V26.2517H21.6607V29.9314C21.6607 32.0583 23.004 33.7822 25.0927 33.7822C27.1815 33.7822 28.5445 32.0583 28.5445 29.9314V26.2484ZM45.9764 24.0039H47.9005V33.5917H45.9764V24.0039ZM49.3205 24.3574V24.0133H50.82V24.3574H50.2714V25.8755H49.8691V24.3574H49.3205ZM51.5956 24.0133L52.0242 25.2942H52.0288L52.4337 24.0133H53V25.8755H52.6233V24.5558H52.618L52.1698 25.8755H51.8621L51.4139 24.5685H51.4086V25.8755H51.032V24.0133H51.5956ZM20.0884 26.1682C18.4301 25.7786 17.3841 27.4558 17.3407 27.546C17.3191 27.5901 17.3184 27.6128 17.2449 27.6128C17.1846 27.6128 17.1793 27.546 17.1793 27.546L16.9739 26.2631H15.248V33.5857H17.18V29.622C17.18 29.298 18.037 27.7451 19.6966 28.1447C20.5359 28.3451 20.8916 28.7093 20.8916 28.7093V26.4789C20.6395 26.3374 20.3691 26.2328 20.0884 26.1682ZM31.1661 35.9979V32.3763C31.1661 32.3763 31.1694 32.2975 31.2389 32.2968C31.3085 32.2961 31.315 32.3382 31.3301 32.3763C31.4771 32.7478 32.2823 34.1617 34.0699 33.718C34.7512 33.5219 35.3653 33.1361 35.8432 32.604C36.321 32.072 36.6436 31.4147 36.7747 30.7062C36.9057 29.9977 36.8401 29.266 36.5852 28.5934C36.3302 27.9207 35.8961 27.3339 35.3315 26.8987C34.767 26.4636 34.0944 26.1974 33.3894 26.1301C32.6845 26.0629 31.975 26.1972 31.3409 26.518C30.7068 26.8388 30.1731 27.3333 29.7999 27.946C29.4267 28.5587 29.2287 29.2652 29.2282 29.9862V35.9999L31.1661 35.9979ZM33.0383 28.0237C33.4197 28.0236 33.7925 28.1386 34.1097 28.3543C34.4268 28.57 34.674 28.8766 34.82 29.2353C34.966 29.594 35.0043 29.9888 34.9299 30.3697C34.8555 30.7506 34.6719 31.1004 34.4022 31.375C34.1326 31.6496 33.789 31.8366 33.4149 31.9123C33.0409 31.988 32.6531 31.9491 32.3008 31.8004C31.9485 31.6518 31.6474 31.4001 31.4356 31.0771C31.2238 30.7542 31.1108 30.3745 31.111 29.9862C31.111 29.4657 31.314 28.9666 31.6755 28.5985C32.0369 28.2305 32.5271 28.0237 33.0383 28.0237Z" fill="#2AA9E0"/>
<path d="M43.259 33.5892H45.1955V29.9863C45.1951 29.2653 44.9971 28.5588 44.6239 27.9461C44.2507 27.3334 43.717 26.8389 43.0829 26.5181C42.4488 26.1973 41.7393 26.063 41.0343 26.1302C40.3294 26.1975 39.6568 26.4637 39.0922 26.8988C38.5277 27.334 38.0935 27.9208 37.8386 28.5935C37.5837 29.2661 37.518 29.9978 37.6491 30.7063C37.7802 31.4148 38.1028 32.0721 38.5806 32.6041C39.0584 33.1362 39.6726 33.522 40.3539 33.7181C42.1415 34.1618 42.9467 32.7479 43.0936 32.3764C43.1087 32.3383 43.1225 32.2962 43.1849 32.2969C43.2472 32.2976 43.2577 32.3764 43.2577 32.3764M43.3135 29.9863C43.3135 30.3744 43.2004 30.7539 42.9887 31.0766C42.7769 31.3993 42.4759 31.6509 42.1237 31.7994C41.7715 31.9479 41.384 31.9868 41.0101 31.9111C40.6363 31.8353 40.2929 31.6484 40.0233 31.374C39.7538 31.0995 39.5702 30.7498 39.4958 30.3692C39.4215 29.9885 39.4597 29.5939 39.6055 29.2353C39.7514 28.8767 39.9984 28.5702 40.3154 28.3546C40.6323 28.1389 41.005 28.0238 41.3861 28.0238C41.8973 28.024 42.3874 28.2308 42.7488 28.5988C43.1102 28.9668 43.3133 29.4659 43.3135 29.9863ZM9.19704 33.5738H7V24H9.35716C12.2124 24 14.3779 24.5346 14.3779 28.7869C14.3779 32.9998 12.0844 33.5738 9.19704 33.5738ZM9.72202 25.6598H8.94505V31.9127L9.74236 31.9334C11.3783 31.9334 12.4329 31.7824 12.4329 28.7869C12.4322 25.915 11.5043 25.6598 9.72136 25.6598H9.72202Z" fill="#2AA9E0"/>
<rect x="0.5" y="0.5" width="59" height="59" rx="7.5" stroke="white" stroke-opacity="0.2"/>
</svg>
