<svg width="60" height="60" viewBox="0 0 60 60" fill="none" xmlns="http://www.w3.org/2000/svg">
<rect width="60" height="60" rx="8" fill="#161616"/>
<path d="M28.5672 16.6797L29.3474 18.145C29.5228 18.4155 29.7128 18.6548 29.9366 18.8777C30.5928 19.5257 31.2045 20.2174 31.7674 20.9478C33.0893 22.6836 33.981 24.6112 34.6177 26.696C34.9996 27.9695 35.207 29.2759 35.2225 30.5969C35.2864 34.5462 33.9325 37.9374 31.2028 40.7557C30.7588 41.2026 30.2791 41.6127 29.7685 41.9817C29.4981 41.9817 29.3702 41.7743 29.2588 41.5834C29.0558 41.2293 28.9207 40.8405 28.8604 40.4369C28.7645 39.9591 28.7015 39.4813 28.7325 38.988V38.765C28.7106 38.7175 28.4722 16.7921 28.5672 16.6797Z" fill="#599636"/>
<path d="M28.5682 16.633C28.5363 16.569 28.5043 16.6175 28.4723 16.6485C28.4878 16.9683 28.3764 17.2533 28.2019 17.5255C28.01 17.796 27.7561 18.0033 27.5012 18.2262C26.0852 19.4522 24.9706 20.9331 24.0781 22.5894C22.8904 24.8185 22.2784 27.2075 22.1048 29.7225C22.0253 30.6297 22.3916 33.8308 22.6776 34.7544C23.4578 37.2064 24.8592 39.261 26.6744 41.0443C27.1202 41.4737 27.5971 41.872 28.0904 42.2547C28.2339 42.2547 28.2494 42.1269 28.2823 42.0318C28.3452 41.8285 28.3931 41.6209 28.4257 41.4106L28.7455 39.0226L28.5682 16.633Z" fill="#6CAC48"/>
<path d="M29.3478 42.952C29.3798 42.5866 29.5552 42.2833 29.7461 41.9809C29.5543 41.9014 29.4118 41.7434 29.3003 41.567C29.2042 41.4001 29.1247 41.2242 29.0628 41.0417C28.8399 40.373 28.7924 39.6714 28.7284 38.9881V38.5742C28.6489 38.6382 28.6325 39.179 28.6325 39.2594C28.586 39.9816 28.4902 40.6998 28.3456 41.409C28.2981 41.6959 28.2662 41.9818 28.0898 42.2367C28.0898 42.2687 28.0898 42.3006 28.1054 42.3481C28.3922 43.1923 28.4708 44.0519 28.5192 44.928V45.2478C28.5192 45.6297 28.5037 45.5493 28.8207 45.6772C28.9486 45.7247 29.0911 45.7411 29.219 45.8361C29.3149 45.8361 29.3305 45.7566 29.3305 45.6927L29.283 45.1674V43.702C29.2674 43.4462 29.3149 43.1923 29.3469 42.9529L29.3478 42.952Z" fill="#C2BFBF"/>
<rect x="0.5" y="0.5" width="59" height="59" rx="7.5" stroke="white" stroke-opacity="0.2"/>
</svg>
