<svg width="60" height="60" viewBox="0 0 60 60" fill="none" xmlns="http://www.w3.org/2000/svg">
<rect width="60" height="60" rx="8" fill="#161616"/>
<g clip-path="url(#clip0_1188_25518)">
<path d="M29.8801 16.0078C22.7898 16.0078 23.2325 19.0949 23.2325 19.0949L23.2404 22.2933H30.0066V23.2536H20.553C20.553 23.2536 16.0159 22.7369 16.0159 29.9197C16.0159 37.1028 19.976 36.848 19.976 36.848H22.3393V33.5148C22.3393 33.5148 22.2119 29.5388 26.2362 29.5388H32.9471C32.9471 29.5388 36.7174 29.6 36.7174 25.8803V19.7299C36.7174 19.7299 37.29 16.0078 29.8801 16.0078ZM26.1493 18.1587C26.3092 18.1585 26.4675 18.19 26.6153 18.2514C26.763 18.3128 26.8972 18.4028 27.0103 18.5163C27.1234 18.6298 27.213 18.7646 27.2741 18.9129C27.3353 19.0613 27.3666 19.2202 27.3665 19.3808C27.3666 19.5413 27.3353 19.7003 27.2741 19.8486C27.213 19.997 27.1234 20.1317 27.0103 20.2453C26.8972 20.3588 26.763 20.4488 26.6153 20.5102C26.4675 20.5715 26.3092 20.603 26.1493 20.6029C25.9894 20.603 25.831 20.5715 25.6833 20.5102C25.5355 20.4488 25.4013 20.3588 25.2882 20.2453C25.1752 20.1317 25.0855 19.997 25.0244 19.8486C24.9633 19.7003 24.9319 19.5413 24.932 19.3808C24.9319 19.2202 24.9633 19.0613 25.0244 18.9129C25.0855 18.7646 25.1752 18.6298 25.2882 18.5163C25.4013 18.4028 25.5355 18.3128 25.6833 18.2514C25.831 18.19 25.9894 18.1585 26.1493 18.1587Z" fill="url(#paint0_linear_1188_25518)"/>
<path d="M30.082 43.9039C37.1723 43.9039 36.7296 40.8167 36.7296 40.8167L36.7218 37.6185H29.9555V36.6582H39.4091C39.4091 36.6582 43.9462 37.1748 43.9462 29.9918C43.9462 22.8089 39.9861 23.0636 39.9861 23.0636H37.6227V26.3967C37.6227 26.3967 37.7501 30.3727 33.7258 30.3727H27.015C27.015 30.3727 23.2446 30.3116 23.2446 34.0314V40.1818C23.2446 40.1818 22.6721 43.9039 30.0819 43.9039H30.082ZM33.8129 41.7532C33.653 41.7534 33.4946 41.7219 33.3469 41.6605C33.1991 41.5991 33.0649 41.5091 32.9518 41.3956C32.8388 41.2821 32.7491 41.1473 32.688 40.999C32.6269 40.8506 32.5955 40.6916 32.5956 40.5311C32.5955 40.3706 32.6269 40.2116 32.688 40.0632C32.7491 39.9149 32.8387 39.7801 32.9518 39.6666C33.0649 39.553 33.1991 39.463 33.3469 39.4016C33.4946 39.3403 33.653 39.3087 33.8129 39.3089C33.9728 39.3087 34.1311 39.3403 34.2789 39.4016C34.4266 39.463 34.5608 39.553 34.6739 39.6665C34.787 39.78 34.8766 39.9148 34.9377 40.0632C34.9989 40.2115 35.0302 40.3705 35.0301 40.531C35.0302 40.6915 34.9989 40.8505 34.9377 40.9989C34.8766 41.1472 34.787 41.282 34.6739 41.3955C34.5608 41.509 34.4266 41.599 34.2789 41.6604C34.1311 41.7218 33.9728 41.7534 33.8129 41.7532Z" fill="url(#paint1_linear_1188_25518)"/>
</g>
<rect x="0.5" y="0.5" width="59" height="59" rx="7.5" stroke="white" stroke-opacity="0.2"/>
<defs>
<linearGradient id="paint0_linear_1188_25518" x1="284.42" y1="266.917" x2="1674.03" y2="1637.16" gradientUnits="userSpaceOnUse">
<stop stop-color="#387EB8"/>
<stop offset="1" stop-color="#366994"/>
</linearGradient>
<linearGradient id="paint1_linear_1188_25518" x1="419.41" y1="451.957" x2="1911.41" y2="1856.75" gradientUnits="userSpaceOnUse">
<stop stop-color="#FFE052"/>
<stop offset="1" stop-color="#FFC331"/>
</linearGradient>
<clipPath id="clip0_1188_25518">
<rect width="28" height="28" fill="white" transform="translate(16 16)"/>
</clipPath>
</defs>
</svg>
