<svg width="60" height="60" viewBox="0 0 60 60" fill="none" xmlns="http://www.w3.org/2000/svg">
<rect width="60" height="60" rx="8" fill="#161616"/>
<g clip-path="url(#clip0_1188_25687)">
<path d="M43.9344 22.3876C43.9448 22.4247 43.9501 22.4629 43.9502 22.5014V28.4749C43.9502 28.5516 43.9293 28.6269 43.8896 28.6933C43.8498 28.7596 43.7927 28.8146 43.7239 28.8528L38.5402 31.7394V37.4609C38.5402 37.6166 38.4546 37.7603 38.315 37.8387L27.4944 43.8634C27.4696 43.877 27.4426 43.8857 27.4156 43.895C27.4055 43.8983 27.3959 43.9043 27.3852 43.907C27.3096 43.9262 27.2301 43.9262 27.1544 43.907C27.142 43.9037 27.1308 43.8972 27.119 43.8928C27.0942 43.8841 27.0683 43.8765 27.0446 43.8634L16.2263 37.8387C16.1576 37.8005 16.1005 37.7455 16.0607 37.6791C16.021 37.6128 16.0001 37.5375 16 37.4609V19.5402C16 19.501 16.0056 19.4629 16.0158 19.4259C16.0191 19.4133 16.027 19.4019 16.0315 19.3894C16.04 19.3665 16.0478 19.3431 16.0602 19.3219C16.0687 19.3077 16.0811 19.2963 16.0912 19.2832C16.1041 19.2658 16.116 19.2478 16.1312 19.2326C16.1441 19.2201 16.161 19.2108 16.1756 19.1999C16.1919 19.1868 16.2066 19.1727 16.2252 19.1623L21.6352 16.15C21.7037 16.1119 21.7813 16.0918 21.8603 16.0918C21.9394 16.0918 22.017 16.1119 22.0855 16.15L27.495 19.1623H27.4961C27.5141 19.1732 27.5293 19.1868 27.5456 19.1994C27.5603 19.2103 27.5766 19.2201 27.5895 19.232C27.6053 19.2478 27.6166 19.2658 27.6301 19.2832C27.6396 19.2963 27.6526 19.3077 27.6605 19.3219C27.6734 19.3436 27.6807 19.3665 27.6897 19.3894C27.6942 19.4019 27.7021 19.4133 27.7055 19.4264C27.7159 19.4635 27.7212 19.5018 27.7213 19.5402V30.7333L32.229 28.2229V22.5008C32.229 22.4627 32.2346 22.4241 32.2447 22.3876C32.2487 22.3745 32.256 22.3631 32.2605 22.3506C32.2695 22.3277 32.2774 22.3043 32.2897 22.2831C32.2982 22.2689 32.3106 22.2575 32.3201 22.2444C32.3337 22.227 32.3449 22.209 32.3607 22.1938C32.3736 22.1812 32.3899 22.172 32.4046 22.1611C32.4215 22.148 32.4361 22.1339 32.4541 22.1235L37.8647 19.1112C37.9332 19.073 38.0108 19.0529 38.0899 19.0529C38.1689 19.0529 38.2465 19.073 38.315 19.1112L43.7245 22.1235C43.7436 22.1344 43.7583 22.148 43.7751 22.1606C43.7892 22.1714 43.8055 22.1812 43.8185 22.1932C43.8342 22.209 43.8455 22.227 43.859 22.2444C43.8692 22.2575 43.8815 22.2689 43.8894 22.2831C43.9024 22.3043 43.9097 22.3277 43.9187 22.3506C43.9237 22.3631 43.9311 22.3745 43.9344 22.3876ZM43.0484 28.2229V23.2554L41.1554 24.3094L38.5402 25.7658V30.7333L43.049 28.2229H43.0484ZM37.639 37.2088V32.2381L35.0665 33.6591L27.7207 37.714V42.7315L37.639 37.2088ZM16.9018 20.2942V37.2088L26.8189 42.731V37.7146L21.638 34.8786L21.6363 34.8775L21.6341 34.8764C21.6166 34.8666 21.602 34.8525 21.5857 34.8405C21.5716 34.8296 21.5553 34.8209 21.5429 34.8089L21.5417 34.8073C21.5271 34.7937 21.517 34.7768 21.5046 34.7615C21.4933 34.7468 21.4798 34.7343 21.4708 34.7191L21.4703 34.7174C21.4601 34.7011 21.4539 34.6815 21.4466 34.663C21.4393 34.6467 21.4297 34.6314 21.4252 34.614C21.4196 34.5933 21.4185 34.571 21.4162 34.5498C21.414 34.5334 21.4095 34.5171 21.4095 34.5008V22.8046L18.7948 21.3477L16.9018 20.2942ZM21.8609 17.0309L17.3538 19.5402L21.8598 22.0495L26.3664 19.5396L21.8598 17.0309H21.8609ZM24.2048 32.691L26.8195 31.2352V20.2942L24.9265 21.3483L22.3112 22.8046V33.7456L24.2048 32.691ZM38.0899 19.9921L33.5833 22.5014L38.0899 25.0107L42.5959 22.5008L38.0899 19.9921ZM37.639 25.7658L35.0237 24.3094L33.1307 23.2554V28.2229L35.7454 29.6787L37.639 30.7333V25.7658ZM27.2692 36.96L33.8794 33.3101L37.1836 31.4862L32.6804 28.9785L27.4955 31.8657L22.77 34.4969L27.2692 36.96Z" fill="#FF2D20"/>
</g>
<rect x="0.5" y="0.5" width="59" height="59" rx="7.5" stroke="white" stroke-opacity="0.2"/>
<defs>
<clipPath id="clip0_1188_25687">
<rect width="28" height="28" fill="white" transform="translate(16 16)"/>
</clipPath>
</defs>
</svg>
