<svg width="60" height="60" viewBox="0 0 60 60" fill="none" xmlns="http://www.w3.org/2000/svg">
<rect width="60" height="60" rx="8" fill="#161616"/>
<g clip-path="url(#clip0_1188_25714)">
<path d="M26.7243 31.5242H29.8946L28.2182 28.5172L25.1415 33.9539H23.7414L27.4836 27.4232C27.6462 27.1594 27.9174 27 28.2182 27C28.5091 27 28.7803 27.1539 28.9381 27.4123L32.6951 33.9539H31.2949L30.6343 32.7391H27.4245L26.7243 31.5242H26.7243ZM41.2692 32.739V27.0659H40.081V33.2943C40.081 33.4647 40.1402 33.6296 40.2536 33.756C40.3669 33.8825 40.5198 33.9539 40.6874 33.9539H46.1061L46.8062 32.7391H41.2692L41.2692 32.739ZM21.6113 31.722C22.7651 31.722 23.7019 30.683 23.7019 29.3967C23.7019 28.1103 22.7651 27.0658 21.6113 27.0658H16.4131V33.954H17.6009V28.2809H21.5325C22.0847 28.2809 22.5284 28.7812 22.5284 29.3969C22.5284 30.0125 22.0847 30.5127 21.5325 30.5127L18.1827 30.5073L21.7296 33.954H23.4554L21.069 31.7222H21.6114L21.6113 31.722ZM9.10125 33.9539C7.39578 33.954 6.01172 32.4148 6.01172 30.5127C6.01172 28.6106 7.39578 27.066 9.10125 27.066H12.6921C14.398 27.066 15.781 28.6106 15.781 30.5127C15.781 32.4148 14.398 33.9539 12.692 33.9539H9.10125ZM12.6123 32.7391C13.7172 32.7391 14.6121 31.744 14.6121 30.5126C14.6121 29.2814 13.7172 28.2809 12.6123 28.2809H9.18072C8.07619 28.2809 7.18081 29.2814 7.18081 30.5127C7.18081 31.744 8.07619 32.7391 9.18062 32.7391H12.6122H12.6123ZM35.1752 33.9539C33.4693 33.9539 32.0838 32.4148 32.0838 30.5127C32.0838 28.6106 33.4693 27.066 35.1752 27.066H39.4402L38.7449 28.2809H35.2541C34.1496 28.2809 33.2523 29.2814 33.2523 30.5127C33.2523 31.744 34.1496 32.7391 35.2541 32.7391H39.5387L38.8385 33.9539H35.1752ZM49.7054 32.7391C48.7933 32.7391 48.0192 32.0574 47.7826 31.1174H52.861L53.561 29.9025H47.7826C48.0192 28.9679 48.7933 28.2809 49.7054 28.2809H53.1914L53.8962 27.0658H49.6265C47.9205 27.0658 46.535 28.6105 46.535 30.5125C46.535 32.4147 47.9205 33.9538 49.6265 33.9538H53.2899L53.9899 32.7391H49.7054H49.7054Z" fill="#EA1B22"/>
</g>
<rect x="0.5" y="0.5" width="59" height="59" rx="7.5" stroke="white" stroke-opacity="0.2"/>
<defs>
<clipPath id="clip0_1188_25714">
<rect width="48" height="7" fill="white" transform="translate(6 27)"/>
</clipPath>
</defs>
</svg>
