<svg width="60" height="60" viewBox="0 0 60 60" fill="none" xmlns="http://www.w3.org/2000/svg">
<g clip-path="url(#clip0_958_20299)">
<rect width="60" height="60" rx="8" fill="#161616"/>
<rect width="60" height="60" fill="#161616"/>
<path d="M44 30.0036C44 28.1432 41.6771 26.3801 38.1158 25.2868C38.9376 21.6462 38.5724 18.7497 36.9629 17.8224C36.5919 17.6049 36.1582 17.5018 35.6845 17.5018V18.7783C35.947 18.7783 36.1582 18.8298 36.3351 18.9272C37.1113 19.3736 37.448 21.0738 37.1855 23.2604C37.1227 23.7985 37.02 24.3652 36.8944 24.9434C35.7758 24.6686 34.5544 24.4568 33.2703 24.3194C32.4998 23.2604 31.7008 22.2987 30.896 21.4573C32.7566 19.7228 34.5031 18.7726 35.6902 18.7726V17.4961C34.1207 17.4961 32.066 18.618 29.9886 20.5643C27.9111 18.6295 25.8565 17.519 24.287 17.519V18.7955C25.4684 18.7955 27.2205 19.74 29.0811 21.463C28.2821 22.3045 27.4831 23.2604 26.724 24.3194C25.4342 24.4568 24.2128 24.6686 23.0942 24.9491C22.9629 24.3766 22.8659 23.8214 22.7974 23.289C22.5291 21.1024 22.8602 19.4023 23.6307 18.9501C23.8019 18.847 24.0245 18.8012 24.287 18.8012V17.5247C23.8076 17.5247 23.3738 17.6278 22.9971 17.8453C21.3934 18.7726 21.0338 21.6634 21.8614 25.2925C18.3115 26.3916 16 28.1489 16 30.0036C16 31.864 18.3229 33.627 21.8842 34.7204C21.0624 38.361 21.4276 41.2575 23.0371 42.1848C23.4081 42.4023 23.8418 42.5054 24.3212 42.5054C25.8907 42.5054 27.9454 41.3834 30.0228 39.4372C32.1003 41.372 34.1549 42.4825 35.7244 42.4825C36.2038 42.4825 36.6376 42.3794 37.0143 42.1619C38.618 41.2346 38.9776 38.3438 38.15 34.7147C41.6885 33.6213 44 31.8583 44 30.0036ZM36.5691 26.1855C36.3579 26.9239 36.0954 27.6853 35.7986 28.4466C35.5646 27.9887 35.3192 27.5307 35.051 27.0728C34.7884 26.6148 34.5088 26.1683 34.2291 25.7333C35.0395 25.8535 35.8214 26.0023 36.5691 26.1855ZM33.9552 32.2818C33.51 33.0546 33.0534 33.7873 32.5797 34.4685C31.7293 34.5429 30.8675 34.583 30 34.583C29.1382 34.583 28.2764 34.5429 27.4317 34.4742C26.958 33.7931 26.4957 33.0661 26.0506 32.299C25.6168 31.5491 25.223 30.7878 24.8634 30.0208C25.2173 29.2537 25.6168 28.4867 26.0448 27.7368C26.49 26.964 26.9466 26.2313 27.4203 25.5501C28.2707 25.4757 29.1325 25.4356 30 25.4356C30.8618 25.4356 31.7236 25.4757 32.5683 25.5444C33.042 26.2256 33.5043 26.9526 33.9495 27.7196C34.3832 28.4695 34.777 29.2308 35.1366 29.9979C34.777 30.7649 34.3832 31.532 33.9552 32.2818ZM35.7986 31.5377C36.1068 32.3047 36.3693 33.0718 36.5862 33.8159C35.8386 33.9991 35.051 34.1537 34.2348 34.2739C34.5145 33.8331 34.7941 33.3809 35.0567 32.9172C35.3192 32.4593 35.5646 31.9956 35.7986 31.5377ZM30.0114 37.6455C29.4806 37.0959 28.9499 36.4834 28.4248 35.8137C28.9384 35.8366 29.4635 35.8538 29.9943 35.8538C30.5308 35.8538 31.0616 35.8423 31.5809 35.8137C31.0673 36.4834 30.5365 37.0959 30.0114 37.6455ZM25.7652 34.2739C24.9547 34.1537 24.1728 34.0048 23.4252 33.8217C23.6364 33.0832 23.8989 32.3219 24.1957 31.5606C24.4297 32.0185 24.6751 32.4765 24.9433 32.9344C25.2116 33.3924 25.4855 33.8388 25.7652 34.2739ZM29.9829 22.3617C30.5137 22.9112 31.0444 23.5237 31.5695 24.1935C31.0559 24.1706 30.5308 24.1534 30 24.1534C29.4635 24.1534 28.9327 24.1649 28.4134 24.1935C28.927 23.5237 29.4578 22.9112 29.9829 22.3617ZM25.7595 25.7333C25.4798 26.1741 25.2002 26.6263 24.9376 27.0899C24.6751 27.5479 24.4297 28.0058 24.1957 28.4638C23.8875 27.6967 23.6249 26.9297 23.4081 26.1855C24.1557 26.0081 24.9433 25.8535 25.7595 25.7333ZM20.5944 32.9001C18.574 32.0357 17.267 30.9023 17.267 30.0036C17.267 29.1049 18.574 27.9658 20.5944 27.1071C21.0852 26.8953 21.6217 26.7064 22.1753 26.529C22.5006 27.6509 22.9287 28.8187 23.4594 30.015C22.9344 31.2057 22.512 32.3677 22.1924 33.4839C21.6274 33.3065 21.0909 33.1119 20.5944 32.9001ZM23.6649 41.08C22.8887 40.6335 22.552 38.9334 22.8145 36.7468C22.8773 36.2087 22.98 35.642 23.1056 35.0638C24.2242 35.3386 25.4456 35.5504 26.7297 35.6878C27.5002 36.7468 28.2992 37.7084 29.104 38.5499C27.2434 40.2844 25.4969 41.2346 24.3098 41.2346C24.053 41.2289 23.8361 41.1773 23.6649 41.08ZM37.2026 36.7181C37.4709 38.9048 37.1398 40.6049 36.3693 41.0571C36.1981 41.1602 35.9755 41.206 35.713 41.206C34.5316 41.206 32.7795 40.2615 30.9189 38.5385C31.7179 37.697 32.5169 36.741 33.276 35.6821C34.5658 35.5447 35.7872 35.3329 36.9058 35.0524C37.0371 35.6305 37.1398 36.1858 37.2026 36.7181ZM39.3999 32.9001C38.9091 33.1119 38.3726 33.3008 37.819 33.4782C37.4937 32.3563 37.0656 31.1885 36.5349 29.9921C37.0599 28.8015 37.4823 27.6395 37.8019 26.5232C38.3669 26.7007 38.9034 26.8953 39.4056 27.1071C41.426 27.9715 42.733 29.1049 42.733 30.0036C42.7273 30.9023 41.4203 32.0414 39.3999 32.9001Z" fill="#61DAFB"/>
<path d="M29.995 32.6187C31.4354 32.6187 32.6032 31.4475 32.6032 30.0027C32.6032 28.5579 31.4354 27.3867 29.995 27.3867C28.5545 27.3867 27.3867 28.5579 27.3867 30.0027C27.3867 31.4475 28.5545 32.6187 29.995 32.6187Z" fill="#61DAFB"/>
</g>
<rect x="0.5" y="0.5" width="59" height="59" rx="7.5" stroke="white" stroke-opacity="0.2"/>
<defs>
<clipPath id="clip0_958_20299">
<rect width="60" height="60" rx="8" fill="white"/>
</clipPath>
</defs>
</svg>
