<svg width="60" height="60" viewBox="0 0 60 60" fill="none" xmlns="http://www.w3.org/2000/svg">
<rect width="60" height="60" rx="8" fill="#161616"/>
<g clip-path="url(#clip0_1188_25697)">
<path d="M43.8922 32.7654C43.7243 32.2724 43.2845 31.929 42.7158 31.8466C42.4476 31.8078 42.1404 31.8243 41.777 31.897C41.1435 32.0237 40.6735 32.072 40.3305 32.0813C41.6252 29.9619 42.6779 27.545 43.284 25.2699C44.264 21.5912 43.7403 19.9152 43.1283 19.1572C41.5088 17.1507 39.146 16.0728 36.2954 16.0399C34.7748 16.0218 33.4399 16.3129 32.7435 16.5223C32.0951 16.4114 31.398 16.3494 30.6665 16.338C29.2952 16.3168 28.0837 16.6066 27.0484 17.2023C26.4753 17.0144 25.5555 16.7494 24.4932 16.5804C21.9949 16.1827 19.9813 16.4926 18.5084 17.5014C16.725 18.7229 15.8982 20.8452 16.0511 23.8093C16.0997 24.7504 16.6426 27.6137 17.4975 30.3292C17.9888 31.8901 18.5127 33.1862 19.0547 34.182C19.8232 35.5941 20.6456 36.4256 21.5689 36.7243C22.0863 36.8914 23.0265 37.0085 24.0154 36.2099C24.1407 36.3571 24.3079 36.5034 24.5299 36.6392C24.8117 36.8116 25.1564 36.9524 25.5006 37.0359C26.741 37.3365 27.9029 37.2613 28.8941 36.8399C28.9003 37.0108 28.905 37.1741 28.9089 37.3152C28.9155 37.5439 28.922 37.7682 28.9307 37.978C28.9894 39.3963 29.0889 40.4991 29.3838 41.2707C29.4 41.3132 29.4218 41.3779 29.4447 41.4465C29.5918 41.8832 29.8378 42.6143 30.4637 43.1869C31.1117 43.78 31.8956 43.9619 32.6136 43.9619C32.9736 43.9619 33.3172 43.9161 33.6185 43.8535C34.6925 43.6303 35.9124 43.2903 36.7948 42.072C37.6292 40.9202 38.0347 39.1856 38.1081 36.4524C38.1176 36.3751 38.1264 36.3012 38.1348 36.2309L38.1523 36.0865L38.3488 36.1032L38.3995 36.1065C39.4935 36.1549 40.8311 35.93 41.6526 35.56C42.3018 35.2679 44.382 34.203 43.8922 32.7654Z" fill="black"/>
<path d="M42.0219 33.0446C38.7691 33.6952 38.5454 32.6274 38.5454 32.6274C41.9798 27.6862 43.4155 21.4141 42.1766 19.879C38.7965 15.6916 32.9455 17.672 32.8478 17.7233L32.8164 17.7288C32.1738 17.5994 31.4546 17.5224 30.6462 17.5096C29.1745 17.4863 28.058 17.8838 27.2108 18.5067C27.2108 18.5067 16.7731 14.3374 17.2586 23.7502C17.3619 25.7527 20.2187 38.9019 23.6262 34.9302C24.8717 33.4779 26.0751 32.2499 26.0751 32.2499C26.6727 32.6349 27.3883 32.8313 28.1384 32.7608L28.1967 32.7128C28.1785 32.8931 28.1868 33.0695 28.22 33.2783C27.3421 34.2292 27.6001 34.3962 25.8453 34.7465C24.0696 35.1013 25.1127 35.7329 25.7938 35.8982C26.6195 36.0983 28.5296 36.3818 29.8202 34.63L29.7688 34.8299C30.1127 35.0971 30.3542 36.5673 30.3137 37.9003C30.2733 39.2331 30.2462 40.1482 30.5172 40.863C30.7883 41.5778 31.0583 43.186 33.3653 42.7068C35.2928 42.3062 36.2917 41.2683 36.4307 39.5369C36.5293 38.3061 36.7525 38.4881 36.7665 37.3876L36.9456 36.8667C37.152 35.1982 36.9784 34.6599 38.1659 34.9103L38.4546 34.9349C39.3285 34.9734 40.4726 34.7985 41.144 34.496C42.5898 33.8455 43.4473 32.7592 42.0217 33.0446H42.0219Z" fill="#336791"/>
<path d="M27.8218 24.6447C27.5286 24.6052 27.2632 24.6417 27.1289 24.7404C27.0534 24.7958 27.03 24.8601 27.0237 24.9043C27.0068 25.0215 27.0915 25.1511 27.1435 25.2179C27.2908 25.4071 27.5058 25.5371 27.7186 25.5658C27.7495 25.57 27.7802 25.5719 27.8107 25.5719C28.1656 25.5719 28.4884 25.3039 28.5169 25.1061C28.5524 24.8584 28.1815 24.6932 27.8218 24.6447ZM37.5325 24.6526C37.5045 24.4584 37.1482 24.403 36.81 24.4486C36.4722 24.4942 36.1448 24.6421 36.1721 24.8367C36.194 24.988 36.4759 25.2463 36.8094 25.2463C36.8377 25.2463 36.8661 25.2445 36.8948 25.2406C37.1174 25.2107 37.2809 25.0736 37.3585 24.9946C37.4766 24.8741 37.5451 24.7398 37.5325 24.6526Z" fill="white"/>
<path d="M43.1026 32.9706C42.9786 32.607 42.5794 32.49 41.9161 32.6228C39.9468 33.0169 39.2416 32.7439 39.01 32.5785C40.5407 30.3176 41.7999 27.5844 42.4793 25.0345C42.8011 23.8266 42.9788 22.7048 42.9933 21.7904C43.0094 20.7869 42.8331 20.0494 42.4695 19.5989C41.0037 17.7828 38.8523 16.8086 36.2481 16.7819C34.4577 16.7624 32.9451 17.2066 32.6518 17.3315C32.0343 17.1826 31.3611 17.0912 30.6282 17.0796C29.2842 17.0585 28.1224 17.3705 27.1605 18.0064C26.7427 17.8556 25.663 17.4962 24.3425 17.29C22.0596 16.9336 20.2455 17.2036 18.951 18.0929C17.4063 19.154 16.6931 21.0508 16.8313 23.7305C16.8778 24.632 17.4076 27.4054 18.2436 30.0615C19.3442 33.5573 20.5405 35.5363 21.7992 35.9434C21.9465 35.991 22.1164 36.0243 22.3037 36.0243C22.7629 36.0243 23.3259 35.8237 23.9116 35.1409C24.6259 34.31 25.3649 33.4992 26.1276 32.7096C26.6224 32.9671 27.166 33.1109 27.722 33.1253C27.7231 33.1394 27.7245 33.1536 27.7258 33.1676C27.6301 33.2782 27.5364 33.3905 27.4447 33.5043C27.0595 33.9784 26.9793 34.0771 25.7393 34.3247C25.3866 34.3953 24.4498 34.5825 24.436 35.2192C24.4211 35.9149 25.5434 36.2071 25.6713 36.238C26.1169 36.3462 26.5462 36.3995 26.9556 36.3995C27.9512 36.3995 28.8274 36.0822 29.5276 35.4683C29.5061 37.9484 29.6127 40.3922 29.9199 41.1368C30.1714 41.7464 30.7859 43.236 32.7269 43.2359C33.0117 43.2359 33.3251 43.2038 33.67 43.1321C35.6957 42.7111 36.5754 41.843 36.9157 39.9291C37.0978 38.9062 37.4103 36.4638 37.5573 35.1537C37.8675 35.2475 38.2668 35.2905 38.6985 35.2904C39.5989 35.2904 40.6378 35.1049 41.2894 34.8116C42.0213 34.482 43.3421 33.6733 43.1026 32.9706ZM38.2785 24.1176C38.2718 24.5043 38.2169 24.8555 38.1587 25.222C38.0961 25.6162 38.0313 26.0237 38.015 26.5184C37.9989 26.9999 38.061 27.5005 38.1209 27.9846C38.2421 28.9624 38.3664 29.969 37.8851 30.9622C37.8051 30.8249 37.7339 30.6829 37.6718 30.5371C37.612 30.3965 37.482 30.1706 37.3021 29.8579C36.6022 28.6409 34.9632 25.7909 35.8023 24.628C36.0522 24.2818 36.6864 23.9259 38.2785 24.1176ZM36.3487 17.5651C38.6821 17.615 40.5279 18.4614 41.8347 20.0806C42.837 21.3225 41.7333 26.9736 38.5382 31.8488C38.506 31.8092 38.4737 31.7697 38.4413 31.7304L38.4008 31.6814C39.2265 30.3592 39.065 29.0511 38.9213 27.8914C38.8622 27.4154 38.8065 26.9659 38.8207 26.5436C38.8353 26.096 38.8964 25.7121 38.9554 25.341C39.0279 24.8836 39.1018 24.4103 39.0814 23.8523C39.0966 23.7938 39.1028 23.7246 39.0948 23.6426C39.0428 23.1075 38.4128 21.5063 37.1288 20.057C36.4264 19.2643 35.4021 18.3772 34.0035 17.7788C34.605 17.658 35.4277 17.5452 36.3487 17.5651ZM23.2917 34.6412C22.6464 35.3935 22.2008 35.2493 22.0543 35.202C21.0994 34.8932 19.9914 32.9364 19.0146 29.8333C18.1694 27.1484 17.6754 24.4484 17.6363 23.6913C17.5129 21.297 18.1115 19.6283 19.4156 18.7315C21.5379 17.2722 25.0272 18.1457 26.4293 18.5886C26.4091 18.6079 26.3881 18.626 26.3682 18.6456C24.0674 20.8985 24.122 24.7477 24.1277 24.983C24.1275 25.0738 24.1353 25.2023 24.1461 25.3791C24.1857 26.0266 24.2594 27.2315 24.0625 28.5961C23.8796 29.8641 24.2828 31.1052 25.1684 32.0012C25.2593 32.093 25.3548 32.1803 25.4546 32.2629C25.0604 32.6723 24.2037 33.5775 23.2917 34.6412ZM25.7504 31.4605C25.0366 30.7383 24.7124 29.7338 24.8608 28.7042C25.0686 27.2628 24.992 26.0074 24.9507 25.3329C24.9449 25.2385 24.9398 25.1558 24.9368 25.0906C25.2729 24.8016 26.8306 23.9924 27.9414 24.2392C28.4482 24.3517 28.7571 24.6864 28.8855 25.2621C29.5501 28.2424 28.9734 29.4845 28.5101 30.4828C28.4146 30.6884 28.3244 30.8828 28.2474 31.0839L28.1877 31.2394C28.0365 31.6324 27.8959 31.9978 27.8087 32.3448C27.0499 32.3427 26.3117 32.0284 25.7504 31.4604V31.4605ZM25.8669 35.4798C25.6453 35.4261 25.446 35.3329 25.3291 35.2556C25.4267 35.211 25.6005 35.1504 25.902 35.0901C27.3607 34.799 27.586 34.5935 28.078 33.9878C28.1907 33.8489 28.3186 33.6915 28.4957 33.4998L28.4959 33.4996C28.7596 33.2133 28.8802 33.2618 29.099 33.3499C29.2763 33.4209 29.449 33.6364 29.519 33.8735C29.5521 33.9855 29.5893 34.198 29.4676 34.3635C28.4399 35.7587 26.9423 35.7407 25.8669 35.4798ZM33.5011 42.3679C31.7166 42.7387 31.0847 41.8558 30.6683 40.8465C30.3996 40.195 30.2674 37.2567 30.3612 34.0119C30.3624 33.9688 30.356 33.9271 30.3438 33.8878C30.3328 33.8104 30.3162 33.7337 30.2939 33.6586C30.1546 33.1864 29.815 32.7915 29.4075 32.6278C29.2457 32.5627 28.9486 32.4434 28.5916 32.532C28.6677 32.2278 28.7997 31.8843 28.9429 31.5124L29.003 31.356C29.0706 31.1796 29.1554 30.9969 29.2451 30.8035C29.73 29.7591 30.394 28.3286 29.6733 25.0969C29.4034 23.8865 28.5019 23.2954 27.1354 23.4327C26.3162 23.5149 25.5666 23.8354 25.1928 24.0191C25.1124 24.0586 25.0389 24.0968 24.9702 24.1339C25.0745 22.9143 25.4687 20.6351 26.9433 19.193C27.8718 18.2852 29.1083 17.8369 30.6148 17.861C33.5833 17.9081 35.4868 19.3852 36.5611 20.6161C37.4869 21.6767 37.9881 22.7452 38.1882 23.3214C36.6837 23.1731 35.6605 23.461 35.1419 24.18C34.0134 25.7441 35.7592 28.7796 36.5982 30.2386C36.7521 30.5059 36.8849 30.737 36.9266 30.8352C37.1999 31.4772 37.5536 31.9059 37.8118 32.2187C37.891 32.3146 37.9678 32.4076 38.0262 32.4888C37.5705 32.6162 36.7521 32.9105 36.8267 34.3815C36.7665 35.1196 36.3387 38.5754 36.1214 39.7963C35.8345 41.4093 35.2224 42.0101 33.5011 42.368V42.3679ZM40.95 34.1028C40.4841 34.3125 39.7043 34.4697 38.9636 34.5036C38.1455 34.5407 37.729 34.4147 37.631 34.3372C37.5851 33.4205 37.9369 33.3247 38.3094 33.2233C38.3679 33.2074 38.425 33.1918 38.4801 33.1732C38.5143 33.2002 38.5518 33.227 38.593 33.2533C39.2505 33.6742 40.4234 33.7195 42.0792 33.3881L42.0973 33.3846C41.874 33.5871 41.4918 33.8588 40.95 34.1028Z" fill="white"/>
</g>
<rect x="0.5" y="0.5" width="59" height="59" rx="7.5" stroke="white" stroke-opacity="0.2"/>
<defs>
<clipPath id="clip0_1188_25697">
<rect width="28" height="28" fill="white" transform="translate(16 16)"/>
</clipPath>
</defs>
</svg>
