<svg width="60" height="60" viewBox="0 0 60 60" fill="none" xmlns="http://www.w3.org/2000/svg">
<rect width="60" height="60" rx="8" fill="#161616"/>
<g clip-path="url(#clip0_958_20316)">
<path d="M16 40.3896C16 42.3838 17.6165 44 19.6104 44H40.3895C42.3838 44 44 42.3835 44 40.3896V19.6105C44 17.6162 42.3835 16 40.3896 16H19.6105C17.6162 16 16 17.6165 16 19.6104V40.3896Z" fill="#563D7C"/>
<path d="M27.6106 28.3854V24.4202H31.1009C31.4334 24.4202 31.7539 24.4479 32.0625 24.5034C32.3712 24.5587 32.6443 24.6576 32.8818 24.8001C33.1191 24.9426 33.3091 25.1405 33.4516 25.3937C33.594 25.647 33.6653 25.9715 33.6653 26.3671C33.6653 27.0795 33.4516 27.594 33.0242 27.9105C32.5968 28.2271 32.0507 28.3854 31.3858 28.3854H27.6106ZM23.8828 21.5234V38.4766H32.0982C32.858 38.4766 33.598 38.3816 34.3183 38.1916C35.0385 38.0017 35.6796 37.7089 36.2415 37.3131C36.8034 36.9174 37.2506 36.4069 37.583 35.7817C37.9155 35.1564 38.0817 34.4163 38.0817 33.5616C38.0817 32.501 37.8244 31.5948 37.31 30.843C36.7955 30.091 36.0159 29.5647 34.9711 29.2639C35.731 28.8999 36.3049 28.4329 36.6927 27.863C37.0804 27.2932 37.2744 26.5809 37.2744 25.7261C37.2744 24.9346 37.1438 24.2698 36.8826 23.7316C36.6214 23.1935 36.2533 22.7621 35.7784 22.4376C35.3036 22.1131 34.7338 21.8796 34.0689 21.7372C33.4041 21.5946 32.668 21.5234 31.8607 21.5234H23.8828ZM27.6106 35.5798V30.926H31.6708C32.478 30.926 33.1271 31.1119 33.6178 31.484C34.1085 31.856 34.3539 32.4772 34.3539 33.3479C34.3539 33.7912 34.2787 34.1552 34.1283 34.4401C33.9779 34.725 33.7761 34.9506 33.5228 35.1168C33.2696 35.283 32.9767 35.4017 32.6443 35.473C32.3118 35.5441 31.9637 35.5798 31.5995 35.5798H27.6106Z" fill="white"/>
</g>
<rect x="0.5" y="0.5" width="59" height="59" rx="7.5" stroke="white" stroke-opacity="0.2"/>
<defs>
<clipPath id="clip0_958_20316">
<rect width="28" height="28" fill="white" transform="translate(16 16)"/>
</clipPath>
</defs>
</svg>
