<svg width="18" height="22" viewBox="0 0 18 22" fill="none" xmlns="http://www.w3.org/2000/svg">
<path d="M8.61049 21.9374C8.45516 21.9374 8.3291 21.814 8.3291 21.662V12.4433C8.3291 12.2913 8.45516 12.168 8.61049 12.168C8.76582 12.168 8.89188 12.2913 8.89188 12.4433V21.662C8.89188 21.814 8.76582 21.9374 8.61049 21.9374Z" fill="white"/>
<path d="M7.98663 10.4454L5.85708 2.80454C5.76704 2.48139 5.86519 2.13578 6.11281 1.90448L7.83536 0.29534C7.97448 0.165375 8.15637 0.0882768 8.34816 0.0779237L8.60794 0.0638258C8.86187 0.0499482 9.10904 0.145549 9.28485 0.325518L10.8453 1.92343C11.1249 2.20979 11.2336 2.61709 11.1326 3.00081L9.18873 10.3828C9.11377 10.6679 8.85106 10.8668 8.55054 10.8668C8.28716 10.8668 8.05597 10.6943 7.98663 10.4454Z" fill="white"/>
<path d="M9.7495 11.0492L14.1212 6.42445C14.306 6.22884 14.5858 6.14799 14.8496 6.21408L16.6847 6.6738C16.8328 6.71081 16.9627 6.79848 17.0508 6.92074L17.1701 7.08639C17.2864 7.24829 17.3247 7.45183 17.2747 7.64347L16.8301 9.34689C16.7505 9.6522 16.5154 9.89539 16.2084 9.99033L10.2994 11.8165C10.0714 11.8869 9.82356 11.7975 9.69682 11.5988C9.58539 11.425 9.60723 11.1999 9.7495 11.0492Z" fill="white"/>
<path d="M10.1366 12.5371L14.9594 12.5605C15.1634 12.5613 15.3423 12.684 15.4256 12.8799L16.0046 14.2414C16.0514 14.3513 16.0591 14.4787 16.0265 14.6005L15.9823 14.7655C15.9391 14.9265 15.8344 15.0642 15.6958 15.1419L14.4631 15.8338C14.2422 15.9578 13.986 15.9534 13.7857 15.8224L9.93089 13.2995C9.78209 13.2021 9.72041 13.0028 9.78074 12.8149C9.83387 12.6501 9.97952 12.5365 10.1366 12.5371Z" fill="white"/>
<path d="M7.17749 12.6021L2.35538 12.5255C2.15143 12.5222 1.96977 12.6411 1.88242 12.835L1.27395 14.1842C1.22487 14.293 1.21429 14.4203 1.24423 14.5426L1.28475 14.7082C1.32437 14.8701 1.42612 15.01 1.56322 15.0906L2.78084 15.8078C2.99898 15.9365 3.25515 15.9374 3.4582 15.8105L7.36681 13.3682C7.51763 13.274 7.58359 13.0759 7.52731 12.8867C7.47779 12.7213 7.33462 12.6045 7.17749 12.6021Z" fill="white"/>
<path d="M7.54648 11.0687L3.17482 6.44398C2.99 6.24837 2.71019 6.16753 2.44636 6.23361L0.611479 6.69333C0.463356 6.73034 0.333466 6.81801 0.245448 6.94027L0.126139 7.10592C0.00975639 7.26782 -0.0285124 7.47136 0.0214623 7.663L0.466057 9.36643C0.545746 9.67173 0.780762 9.91492 1.08781 10.0099L6.99676 11.836C7.2248 11.9065 7.47264 11.817 7.59938 11.6183C7.71059 11.4445 7.68875 11.2194 7.54648 11.0687Z" fill="white"/>
</svg>
