<svg width="22" height="22" viewBox="0 0 22 22" fill="none" xmlns="http://www.w3.org/2000/svg">
<path d="M8.58157 21.3248C8.85668 22.34 11.9376 22.1968 12.1026 20.9775C12.1026 20.9775 11.2523 17.0344 11.1122 13.6164C11.0296 11.6026 11.6074 7.64413 12.1026 5.60712C12.2616 4.9522 11.6349 4.47286 11.1478 5.59233C10.5017 7.07796 9.31513 11.0512 9.04919 13.4542C8.52672 18.1766 8.49809 21.0165 8.58157 21.3248Z" fill="white"/>
<path d="M7.19018 0.0345273C9.00956 0.397038 10.6087 2.38774 11.5125 3.75095C11.6665 3.98334 11.4128 4.31305 11.1991 4.15848C9.95596 3.25853 7.76532 2.00743 5.21259 2.02651C3.42511 2.0398 2.01741 2.13413 1.00895 2.23381C0.740174 2.2604 0.684015 1.81599 0.94274 1.7103C2.91662 0.903178 5.95992 -0.210719 7.19018 0.0345273Z" fill="white"/>
<path d="M16.5407 0.58848C14.9479 0.642931 13.2981 2.4334 12.33 3.69372C12.1651 3.90853 12.3303 4.2974 12.5341 4.17414C13.72 3.45705 15.7595 2.54273 17.9152 3.01608C19.4247 3.34772 20.601 3.69608 21.4388 3.97927C21.6621 4.05473 21.7759 3.60154 21.5729 3.44526C20.0247 2.25333 17.6177 0.551607 16.5407 0.58848Z" fill="white"/>
<path d="M18.3461 4.95658C16.8062 4.05041 14.5002 4.2142 13.061 4.44358C12.8158 4.4826 12.8136 4.82753 13.0584 4.86955C14.4823 5.11415 16.8003 5.73734 18.6601 7.31172C19.9623 8.41404 20.9401 9.33029 21.6223 10.0054C21.8041 10.1852 22.0985 9.96441 21.9691 9.7451C20.9825 8.07276 19.3873 5.56927 18.3461 4.95658Z" fill="white"/>
<path d="M16.5234 7.54907C15.9775 6.49648 14.3508 5.89601 13.2683 5.60296C13.0839 5.55301 12.899 5.77361 13.04 5.87544C13.8603 6.46797 15.0761 7.57715 15.4799 9.15646C15.7627 10.2622 15.9279 11.1493 16.0243 11.7914C16.0498 11.9624 16.3638 11.9108 16.3942 11.7305C16.6254 10.3555 16.8924 8.2608 16.5234 7.54907Z" fill="white"/>
<path d="M4.67143 3.44002C6.44077 2.88736 8.83114 3.87628 10.3011 4.64525C10.5515 4.77623 10.4949 5.18869 10.2312 5.15482C8.69631 4.95716 6.1591 4.90421 3.94027 6.14481C2.3866 7.01346 1.20486 7.77149 0.374268 8.34302C0.152909 8.49523 -0.118054 8.13036 0.0550127 7.91298C1.37486 6.25478 3.47504 3.81368 4.67143 3.44002Z" fill="white"/>
<path d="M10.0856 6.45288C10.1638 6.10208 9.9537 5.75907 9.6164 5.68675C9.27909 5.61443 8.94231 5.84019 8.86416 6.19099C8.78601 6.54179 8.99609 6.8848 9.33339 6.95712C9.6707 7.02944 10.0075 6.80368 10.0856 6.45288Z" fill="white"/>
<path d="M8.51239 7.76147C8.59054 7.41067 8.38046 7.06766 8.04315 6.99534C7.70585 6.92303 7.36906 7.14878 7.29091 7.49958C7.21277 7.85038 7.42285 8.19339 7.76015 8.26571C8.09745 8.33803 8.43424 8.11228 8.51239 7.76147Z" fill="white"/>
<path d="M13.6061 7.63257C13.6843 7.28177 13.4742 6.93876 13.1369 6.86644C12.7996 6.79412 12.4628 7.01987 12.3847 7.37068C12.3065 7.72148 12.5166 8.06449 12.8539 8.13681C13.1912 8.20912 13.528 7.98337 13.6061 7.63257Z" fill="white"/>
</svg>
