<svg width="15" height="15" viewBox="0 0 15 15" fill="none" xmlns="http://www.w3.org/2000/svg">
<path d="M12.6307 2.26191C11.3213 0.949414 9.57754 0.227539 7.72441 0.227539C3.89941 0.227539 0.786914 3.34004 0.786914 7.16504C0.786914 8.38691 1.10566 9.58066 1.71191 10.6338L0.727539 14.2275L4.40566 13.2619C5.41816 13.815 6.55879 14.1057 7.72129 14.1057H7.72441C11.5463 14.1057 14.7275 10.9932 14.7275 7.16816C14.7275 5.31504 13.94 3.57441 12.6307 2.26191ZM7.72441 12.9369C6.68691 12.9369 5.67129 12.6588 4.78691 12.1338L4.57754 12.0088L2.39629 12.5807L2.97754 10.4525L2.84004 10.2338C2.26191 9.31504 1.95879 8.25566 1.95879 7.16504C1.95879 3.98691 4.54629 1.39941 7.72754 1.39941C9.26816 1.39941 10.715 1.99941 11.8025 3.09004C12.89 4.18066 13.5588 5.62754 13.5557 7.16816C13.5557 10.3494 10.9025 12.9369 7.72441 12.9369ZM10.8869 8.61816C10.715 8.53066 9.86191 8.11191 9.70254 8.05566C9.54316 7.99629 9.42754 7.96816 9.31191 8.14316C9.19629 8.31816 8.86504 8.70566 8.76191 8.82441C8.66191 8.94004 8.55879 8.95566 8.38691 8.86816C7.36816 8.35879 6.69941 7.95879 6.02754 6.80566C5.84941 6.49941 6.20566 6.52129 6.53691 5.85879C6.59316 5.74316 6.56504 5.64316 6.52129 5.55566C6.47754 5.46816 6.13066 4.61504 5.98691 4.26816C5.84629 3.93066 5.70254 3.97754 5.59629 3.97129C5.49629 3.96504 5.38066 3.96504 5.26504 3.96504C5.14941 3.96504 4.96191 4.00879 4.80254 4.18066C4.64316 4.35566 4.19629 4.77441 4.19629 5.62754C4.19629 6.48066 4.81816 7.30566 4.90254 7.42129C4.99004 7.53691 6.12441 9.28691 7.86504 10.04C8.96504 10.515 9.39629 10.5557 9.94629 10.4744C10.2807 10.4244 10.9713 10.0557 11.115 9.64941C11.2588 9.24316 11.2588 8.89629 11.215 8.82441C11.1744 8.74629 11.0588 8.70254 10.8869 8.61816Z" fill="white" fill-opacity="0.5"/>
</svg>
