<svg width="22" height="22" viewBox="0 0 22 22" fill="none" xmlns="http://www.w3.org/2000/svg">
<path d="M10.75 1C5.91797 1 2 4.91797 2 9.75C2 15.0352 7.8125 19.4258 9.60547 20.6563C9.94141 20.8867 10.3438 21 10.75 21C11.1562 21 11.5586 20.8867 11.8945 20.6563C13.6875 19.4258 19.5 15.0352 19.5 9.75C19.5 4.91797 15.582 1 10.75 1ZM12 12.9648C12 11.1914 13.4375 9.75 15.2148 9.75H16.4648C16.7617 9.75 17 9.98828 17 10.2852C17 12.0586 15.5625 13.5 13.7852 13.5H12.5352C12.2383 13.5 12 13.2617 12 12.9648ZM6.28516 9.75C8.05859 9.75 9.5 11.1875 9.5 12.9648C9.5 13.2617 9.26172 13.5 8.96484 13.5H7.71484C5.9375 13.5 4.5 12.0625 4.5 10.2852C4.5 9.98828 4.73828 9.75 5.03516 9.75H6.28516Z" fill="white"/>
</svg>
