<svg width="24" height="16" viewBox="0 0 24 16" fill="none" xmlns="http://www.w3.org/2000/svg">
<path d="M9.66667 7.19453C10.9917 6.54141 11.6833 5.55312 11.6833 4.01484C11.6833 0.98125 9.49167 0.242188 6.9625 0.242188H0V15.4703H7.15833C9.84167 15.4703 12.3625 14.1426 12.3625 11.0488C12.3625 9.13672 11.4833 7.72305 9.66667 7.19453ZM3.24583 2.8418H6.29167C7.4625 2.8418 8.51667 3.18125 8.51667 4.58203C8.51667 5.87539 7.69583 6.39531 6.5375 6.39531H3.24583V2.8418ZM6.71667 12.8836H3.24583V8.68984H6.78333C8.2125 8.68984 9.11667 9.3043 9.11667 10.8641C9.11667 12.4023 8.0375 12.8836 6.71667 12.8836ZM21.6542 2.54102H15.6667V1.04141H21.6542V2.54102ZM24 10.1164C24 6.85508 22.15 4.13516 18.7958 4.13516C15.5375 4.13516 13.325 6.66172 13.325 9.97031C13.325 13.4035 15.4208 15.7582 18.7958 15.7582C21.35 15.7582 23.0042 14.5723 23.8 12.05H21.2083C20.9292 12.991 19.7792 13.4895 18.8875 13.4895C17.1667 13.4895 16.2625 12.4496 16.2625 10.6836H23.975C23.9875 10.5031 24 10.3098 24 10.1164ZM16.2667 8.77578C16.3625 7.32773 17.2958 6.42109 18.7042 6.42109C20.1792 6.42109 20.9208 7.31484 21.0458 8.77578H16.2667Z" fill="#517CFF"/>
</svg>
