<svg width="22" height="22" viewBox="0 0 22 22" fill="none" xmlns="http://www.w3.org/2000/svg">
<path d="M7.21875 0L9.96875 1.375L12.7188 0L15.0992 4.76094C16.6676 4.28398 18.0598 3.59648 19.1941 2.75L19.9375 3.49336C18.7687 7.02539 14.7469 9.625 9.96875 9.625C5.19063 9.625 1.16875 7.02539 0 3.49336L0.743359 2.75C1.87773 3.59648 3.26992 4.28398 4.83828 4.76094L7.21875 0ZM1.03125 13.0625C1.03125 11.434 1.46523 9.90859 2.22578 8.59375C4.32266 10.1105 7.05977 11 9.96875 11C12.8777 11 15.6148 10.1148 17.7117 8.59375C18.4723 9.90859 18.9062 11.434 18.9062 13.0625C18.9062 17.9996 14.9059 22 9.96875 22C5.03164 22 1.03125 17.9996 1.03125 13.0625ZM9.97734 16.1906C8.07383 16.1906 6.29922 15.8469 4.8125 15.2582C5.33672 17.6387 7.45078 19.4219 9.97734 19.4219C12.5039 19.4219 14.618 17.6387 15.1422 15.2582C13.6555 15.8512 11.8809 16.1906 9.97734 16.1906ZM8.25 13.0625C8.25 12.789 8.14135 12.5267 7.94795 12.3333C7.75456 12.1399 7.49225 12.0312 7.21875 12.0312C6.94525 12.0312 6.68294 12.1399 6.48955 12.3333C6.29615 12.5267 6.1875 12.789 6.1875 13.0625C6.1875 13.336 6.29615 13.5983 6.48955 13.7917C6.68294 13.9851 6.94525 14.0938 7.21875 14.0938C7.49225 14.0938 7.75456 13.9851 7.94795 13.7917C8.14135 13.5983 8.25 13.336 8.25 13.0625ZM12.7188 14.0938C12.9923 14.0938 13.2546 13.9851 13.448 13.7917C13.6414 13.5983 13.75 13.336 13.75 13.0625C13.75 12.789 13.6414 12.5267 13.448 12.3333C13.2546 12.1399 12.9923 12.0312 12.7188 12.0312C12.4452 12.0312 12.1829 12.1399 11.9895 12.3333C11.7961 12.5267 11.6875 12.789 11.6875 13.0625C11.6875 13.336 11.7961 13.5983 11.9895 13.7917C12.1829 13.9851 12.4452 14.0938 12.7188 14.0938Z" fill="white"/>
</svg>
