<svg width="22" height="22" viewBox="0 0 22 22" fill="none" xmlns="http://www.w3.org/2000/svg">
<g clip-path="url(#clip0_301_2964)">
<path d="M14.1543 16.9729C13.2477 17.5744 12.2852 17.8752 11.198 17.8752C8.48672 17.8752 6.3125 16.1307 6.3125 13.183C6.3125 11.8897 7.03867 10.7381 8.49531 8.91192C8.76602 8.56817 9.28594 8.57247 9.55664 8.91622C10.2785 9.83146 11.5461 11.4428 12.2551 12.3451C12.5215 12.6846 13.0328 12.6932 13.3164 12.3666L14.3992 11.1076C14.6785 10.7811 15.1727 10.8111 15.366 11.1936C16.4531 13.1787 15.9676 15.7053 14.1586 16.9686L14.1543 16.9729Z" fill="white"/>
<path opacity="0.4" d="M8.34492 0.23214C8.68008 -0.0815319 9.2 -0.0772351 9.53516 0.236437C10.7211 1.34933 11.834 2.54816 12.8738 3.84581C13.3465 3.22706 13.8836 2.55245 14.4637 2.00245C14.8031 1.68448 15.3273 1.68448 15.6668 2.00675C17.1535 3.42472 18.4125 5.29816 19.2977 7.07706C20.1699 8.83019 20.75 10.622 20.75 11.8853C20.75 17.3681 16.4617 22.0001 11.125 22.0001C5.72813 22.0001 1.5 17.3638 1.5 11.881C1.5 10.231 2.26484 8.21573 3.45078 6.22198C4.64961 4.19816 6.34258 2.08839 8.34492 0.23214ZM11.198 17.8751C12.2852 17.8751 13.2477 17.5743 14.1543 16.9728C15.9633 15.7095 16.4488 13.1829 15.3617 11.1978C15.1684 10.811 14.6742 10.7853 14.3949 11.1118L13.3121 12.3708C13.0285 12.6974 12.5172 12.6888 12.2508 12.3493C11.5418 11.447 10.2742 9.83566 9.55234 8.92042C9.28164 8.57667 8.76602 8.57237 8.49102 8.91612C7.03867 10.7423 6.3082 11.8939 6.3082 13.1872C6.3125 16.1306 8.48672 17.8751 11.198 17.8751Z" fill="white"/>
</g>
<defs>
<clipPath id="clip0_301_2964">
<rect width="22" height="22" fill="white"/>
</clipPath>
</defs>
</svg>
