<svg width="36" height="27" viewBox="0 0 36 27" fill="none" xmlns="http://www.w3.org/2000/svg">
<path d="M33.4553 14.1339C36.7921 10.9507 36.7921 5.79072 33.4553 2.60751C30.2787 -0.422759 25.1784 -0.587017 21.794 2.23935L21.4318 2.54521C20.8381 3.03798 20.7787 3.89892 21.2953 4.46533C21.8118 5.03173 22.7143 5.08837 23.3081 4.5956L23.6703 4.28974C25.9265 2.40927 29.3228 2.51689 31.4425 4.53896C33.6631 6.65732 33.6631 10.0954 31.4425 12.2194L24.7153 18.6311C22.4946 20.7495 18.8846 20.7495 16.664 18.6311C14.5443 16.6091 14.4315 13.3692 16.4028 11.2169L16.6818 10.911C17.1984 10.3446 17.139 9.48935 16.5453 8.99091C15.9515 8.49248 15.055 8.55478 14.5325 9.12119L14.2534 9.42705C11.2965 12.6556 11.4687 17.521 14.6453 20.5513C17.9821 23.7345 23.3912 23.7345 26.7281 20.5513L33.4553 14.1339ZM2.54465 12.8651C-0.792226 16.0483 -0.792226 21.2083 2.54465 24.3858C5.72715 27.4218 10.8275 27.5804 14.2118 24.754L14.574 24.4481C15.1678 23.9554 15.2271 23.0944 14.7106 22.528C14.194 21.9616 13.2915 21.905 12.6978 22.3977L12.3356 22.7036C10.0793 24.5841 6.68309 24.4765 4.5634 22.4544C2.34277 20.336 2.34277 16.8979 4.5634 14.7739L11.2906 8.36787C13.5112 6.24951 17.1153 6.24951 19.3418 8.36787C21.4615 10.3899 21.5743 13.6298 19.6031 15.7821L19.2825 16.1276C18.7659 16.694 18.8253 17.5493 19.419 18.0477C20.0128 18.5462 20.9093 18.4839 21.4318 17.9175L21.7525 17.572C24.7153 14.3435 24.5431 9.47802 21.3665 6.44208C18.0296 3.25888 12.6206 3.25888 9.28371 6.44208L2.54465 12.8651Z" fill="white"/>
</svg>
