<svg width="90" height="32" viewBox="0 0 90 32" fill="none" xmlns="http://www.w3.org/2000/svg">
<path d="M0 30.7955V1.26743C0 1.08202 0.143374 0.931633 0.320135 0.931633H28.4723C28.6491 0.931633 28.7925 1.08202 28.7925 1.26743V6.19512C28.7925 6.38052 28.6491 6.5309 28.4723 6.5309H8.65148C8.6122 6.5309 8.58078 6.56387 8.58078 6.60507V13.0562C8.58078 13.0974 8.6122 13.1303 8.65148 13.1303H25.9937C26.1705 13.1303 26.3139 13.2807 26.3139 13.4661V18.194C26.3139 18.3794 26.1705 18.5298 25.9937 18.5298H8.65148C8.6122 18.5298 8.58078 18.5627 8.58078 18.604V30.7934C8.58078 30.9788 8.43741 31.1292 8.26065 31.1292H0.321118C0.143375 31.1323 0 30.9819 0 30.7955Z" fill="white"/>
<path d="M30.4138 30.8954V1.36734C30.4138 1.18193 30.5571 1.03155 30.7339 1.03155H49.6719C51.579 1.03155 55.7741 1.63206 58.4432 3.43153C61.4265 5.44319 62.5775 7.06035 63.9729 10.2318C64.4806 11.3855 68.3428 12.1518 72.7442 12.8316C78.2591 13.6845 84.5165 14.7238 87.2357 16.8323C91.6213 20.2324 90.0963 25.4331 87.4262 27.8331C86.5581 28.6138 83.2222 30.6276 79.2264 31.4331C74.2683 32.4332 67.9765 32.0336 63.3994 30.8325C59.8416 29.8993 58.02 28.4727 56.9162 27.2326C54.4592 24.471 54.5869 22.0494 54.6222 21.6807C54.6252 21.6518 54.6478 21.6323 54.6752 21.6323H63.3513C63.3788 21.6323 63.4004 21.6529 63.4043 21.6807C63.4465 22.0577 63.8276 24.5256 66.641 25.6319C69.6921 26.8319 76.5563 26.6321 78.8444 25.6319C81.1325 24.6317 81.5135 22.4316 80.561 21.4314C79.7979 20.6311 77.1289 19.6309 74.6503 19.4311C72.5507 19.2621 63.4004 17.6306 60.1588 16.4306C57.8216 15.5654 56.1541 13.8308 55.2006 11.0301C54.2471 8.22944 51.578 6.82962 49.0984 6.62979C46.6984 6.43615 39.4708 6.61743 39.0152 6.62876C39.0024 6.62876 38.9926 6.64009 38.9926 6.65451V25.6061C38.9926 25.6195 39.0024 25.6309 39.0152 25.6319C39.4158 25.6587 45.0074 26.0161 47.7639 25.6309C50.4791 25.2508 52.507 24.331 53.0323 23.5533C53.0589 23.5131 53.1168 23.5275 53.1256 23.5759C53.1944 23.9416 53.4615 24.9912 54.4376 26.631C55.2674 28.0236 56.5303 28.961 56.8435 29.1814C56.8769 29.2051 56.8749 29.2556 56.8396 29.2751C56.382 29.5347 53.925 30.8511 51.0055 31.0313C48.0241 31.2157 33.1064 31.2301 30.731 31.2312C30.5552 31.2322 30.4138 31.0818 30.4138 30.8954Z" fill="white"/>
<path d="M59.8475 2.58278C59.8161 2.60338 59.819 2.65076 59.8524 2.66724C60.1931 2.8372 61.4452 3.60354 62.4478 4.83135C63.4308 6.03443 64.0416 7.53313 64.1398 7.93073C64.1516 7.97708 64.2047 7.99562 64.24 7.96575C64.5464 7.70618 65.7395 6.74721 67.2145 6.23219C69.0597 5.58739 71.6001 5.43186 74.4607 6.03237C77.3213 6.63288 78.4654 7.43219 79.2274 8.63218C79.7734 9.49123 79.8421 9.92075 79.8294 10.1082C79.8254 10.1752 79.8736 10.2318 79.9374 10.2318H88.2697C88.4475 10.2318 88.5958 10.0886 88.6075 9.90324C88.6478 9.25741 88.4534 7.2921 87.2357 5.63169C85.3286 3.03188 82.6595 2.03171 80.1809 1.23137C77.2369 0.280651 72.9347 -0.368271 67.405 0.23121C62.4586 0.767858 60.2147 2.33969 59.8475 2.58278Z" fill="white"/>
</svg>
