<svg width="60" height="60" viewBox="0 0 60 60" fill="none" xmlns="http://www.w3.org/2000/svg">
<g clip-path="url(#clip0_1322_49550)">
<rect width="60" height="60" rx="8" fill="#161616"/>
<rect width="60" height="60" fill="#161616"/>
<g clip-path="url(#clip1_1322_49550)">
<path d="M48.8566 33.7528C48.6348 33.0837 48.0536 32.6177 47.302 32.5058C46.9477 32.4532 46.5418 32.4756 46.0615 32.5742C45.2244 32.7462 44.6034 32.8117 44.1501 32.8243C45.8609 29.948 47.252 26.668 48.0529 23.5803C49.3479 18.5877 48.6559 16.3133 47.8472 15.2845C45.7071 12.5614 42.5848 11.0986 38.8181 11.0538C36.8086 11.0294 35.0446 11.4244 34.1244 11.7085C33.2676 11.558 32.3464 11.4739 31.3798 11.4584C29.5678 11.4296 27.9668 11.823 26.5988 12.6314C25.8415 12.3763 24.626 12.0168 23.2223 11.7874C19.9209 11.2477 17.2601 11.6682 15.3138 13.0374C12.9571 14.6951 11.8646 17.5753 12.0666 21.5981C12.1308 22.8752 12.8483 26.7612 13.9779 30.4466C14.6272 32.5648 15.3195 34.3239 16.0356 35.6754C17.0512 37.5917 18.138 38.7202 19.3579 39.1255C20.0417 39.3524 21.2841 39.5112 22.5908 38.4275C22.7565 38.6273 22.9774 38.8257 23.2707 39.0101C23.6432 39.244 24.0986 39.4351 24.5534 39.5484C26.1925 39.9564 27.7279 39.8544 29.0378 39.2824C29.0459 39.5144 29.0521 39.7361 29.0573 39.9275C29.066 40.2379 29.0746 40.5423 29.0861 40.827C29.1637 42.7519 29.2952 44.2485 29.6848 45.2957C29.7062 45.3533 29.735 45.4411 29.7654 45.5342C29.9597 46.1269 30.2848 47.1191 31.1118 47.8962C31.9682 48.7011 33.004 48.948 33.9527 48.948C34.4285 48.948 34.8825 48.8858 35.2807 48.8009C36.7 48.4979 38.3119 48.0365 39.478 46.3831C40.5805 44.8201 41.1164 42.4659 41.2134 38.7565C41.226 38.6516 41.2375 38.5514 41.2486 38.456L41.2718 38.26L41.5315 38.2827L41.5984 38.2872C43.044 38.3528 44.8116 38.0475 45.8972 37.5454C46.755 37.149 49.5038 35.7039 48.8566 33.7528Z" fill="black"/>
<path d="M46.3842 34.1311C42.0859 35.014 41.7903 33.5649 41.7903 33.5649C46.3286 26.859 48.2259 18.3468 46.5888 16.2635C42.1222 10.5806 34.3905 13.2683 34.2614 13.3379L34.2199 13.3454C33.3706 13.1698 32.4204 13.0653 31.3521 13.0479C29.4073 13.0163 27.9319 13.5557 26.8124 14.4011C26.8124 14.4011 13.0198 8.74284 13.6614 21.5173C13.7978 24.2349 17.573 42.0803 22.0757 36.6902C23.7215 34.7191 25.3117 33.0526 25.3117 33.0526C26.1014 33.5751 27.047 33.8416 28.0382 33.7459L28.1152 33.6809C28.0912 33.9255 28.1022 34.1649 28.146 34.4483C26.986 35.7389 27.3269 35.9654 25.0081 36.4408C22.6616 36.9223 24.04 37.7796 24.94 38.0038C26.0311 38.2754 28.5552 38.6602 30.2606 36.2827L30.1927 36.554C30.6471 36.9166 30.9662 38.912 30.9128 40.721C30.8593 42.5298 30.8236 43.7717 31.1816 44.7418C31.5399 45.7118 31.8967 47.8945 34.9452 47.2441C37.4922 46.7005 38.8123 45.2919 38.9959 42.9422C39.1262 41.2718 39.4212 41.5187 39.4397 40.0252L39.6763 39.3183C39.949 37.0539 39.7196 36.3233 41.2888 36.6631L41.6704 36.6965C42.8252 36.7488 44.337 36.5114 45.2242 36.1008C47.1346 35.218 48.2678 33.7438 46.384 34.1311H46.3842Z" fill="#336791"/>
<path d="M27.62 22.7338C27.2327 22.6801 26.8819 22.7298 26.7044 22.8636C26.6047 22.9389 26.5738 23.0261 26.5654 23.0861C26.5431 23.2452 26.655 23.421 26.7238 23.5117C26.9183 23.7685 27.2025 23.9449 27.4837 23.9838C27.5245 23.9895 27.5651 23.9921 27.6054 23.9921C28.0744 23.9921 28.5009 23.6284 28.5385 23.36C28.5855 23.0238 28.0954 22.7996 27.62 22.7338ZM40.4521 22.7444C40.4151 22.4809 39.9442 22.4058 39.4973 22.4677C39.051 22.5296 38.6183 22.7302 38.6544 22.9943C38.6833 23.1997 39.0558 23.5503 39.4966 23.5503C39.5339 23.5503 39.5715 23.5478 39.6093 23.5425C39.9036 23.5019 40.1195 23.3158 40.2221 23.2086C40.3782 23.0451 40.4687 22.8629 40.4521 22.7444Z" fill="white"/>
<path d="M47.816 34.0318C47.6521 33.5383 47.1246 33.3796 46.2482 33.5598C43.6459 34.0946 42.7139 33.7241 42.408 33.4997C44.4307 30.4313 46.0947 26.722 46.9924 23.2613C47.4176 21.622 47.6524 20.0996 47.6717 18.8587C47.6929 17.4967 47.4599 16.4959 46.9795 15.8845C45.0425 13.4198 42.1996 12.0977 38.7583 12.0614C36.3924 12.0349 34.3936 12.6378 34.0061 12.8074C33.1901 12.6053 32.3005 12.4812 31.332 12.4654C29.556 12.4367 28.0208 12.8602 26.7497 13.7233C26.1976 13.5186 24.7708 13.0309 23.0259 12.7509C20.0092 12.2673 17.612 12.6338 15.9014 13.8406C13.8602 15.2807 12.9178 17.8549 13.1004 21.4916C13.1618 22.7152 13.8619 26.4791 14.9667 30.0837C16.421 34.828 18.0018 37.5138 19.6651 38.0663C19.8598 38.131 20.0843 38.1761 20.3318 38.1761C20.9386 38.1761 21.6825 37.9038 22.4564 36.9773C23.4005 35.8495 24.377 34.7492 25.3848 33.6776C26.0386 34.0271 26.757 34.2222 27.4916 34.2418C27.4931 34.261 27.4949 34.2801 27.4967 34.2991C27.3702 34.4493 27.2464 34.6016 27.1252 34.7561C26.6162 35.3995 26.5103 35.5335 24.8717 35.8695C24.4056 35.9653 23.1677 36.2193 23.1495 37.0835C23.1298 38.0276 24.6128 38.4241 24.7818 38.4662C25.3706 38.613 25.9379 38.6854 26.4789 38.6854C27.7946 38.6854 28.9524 38.2547 29.8777 37.4215C29.8492 40.7874 29.9901 44.104 30.396 45.1145C30.7284 45.9418 31.5404 47.9635 34.1052 47.9633C34.4816 47.9633 34.8958 47.9197 35.3515 47.8224C38.0284 47.251 39.1908 46.0729 39.6405 43.4755C39.8811 42.0873 40.2941 38.7726 40.4883 36.9945C40.8982 37.1219 41.4259 37.1802 41.9963 37.18C43.1861 37.18 44.559 36.9283 45.42 36.5304C46.3872 36.083 48.1326 34.9855 47.816 34.0318ZM41.4413 22.017C41.4325 22.5419 41.36 23.0184 41.2831 23.5158C41.2003 24.0508 41.1147 24.6039 41.0932 25.2753C41.0719 25.9287 41.1539 26.608 41.2331 27.2651C41.3932 28.592 41.5576 29.9582 40.9215 31.3062C40.8158 31.1197 40.7217 30.9271 40.6396 30.7292C40.5606 30.5383 40.3889 30.2318 40.1511 29.8075C39.2263 28.1558 37.0605 24.288 38.1692 22.7097C38.4994 22.2399 39.3375 21.7569 41.4413 22.017ZM38.8912 13.1243C41.9747 13.1921 44.4138 14.3407 46.1406 16.5382C47.4651 18.2237 46.0067 25.893 41.7845 32.5094C41.742 32.4556 41.6993 32.402 41.6564 32.3486L41.6029 32.2821C42.694 30.4878 42.4807 28.7125 42.2908 27.1385C42.2127 26.4926 42.139 25.8825 42.1578 25.3094C42.1772 24.702 42.2578 24.181 42.3358 23.6773C42.4317 23.0565 42.5292 22.4142 42.5024 21.657C42.5224 21.5776 42.5305 21.4837 42.52 21.3723C42.4513 20.6462 41.6188 18.4731 39.922 16.5062C38.9939 15.4304 37.6403 14.2265 35.7922 13.4144C36.5871 13.2504 37.6741 13.0974 38.8912 13.1243ZM21.6374 36.2991C20.7847 37.3201 20.1958 37.1243 20.0022 37.0602C18.7404 36.641 17.2763 33.9853 15.9855 29.7741C14.8686 26.1302 14.2158 22.466 14.1641 21.4385C14.0011 18.189 14.7921 15.9243 16.5153 14.7073C19.3198 12.7269 23.9307 13.9123 25.7834 14.5134C25.7568 14.5396 25.7291 14.5641 25.7028 14.5907C22.6624 17.6483 22.7345 22.8722 22.742 23.1915C22.7417 23.3147 22.7522 23.4892 22.7663 23.7291C22.8186 24.6078 22.9161 26.243 22.6559 28.0949C22.4142 29.8158 22.947 31.5002 24.1173 32.7162C24.2374 32.8408 24.3636 32.9593 24.4955 33.0714C23.9746 33.627 22.8425 34.8555 21.6374 36.2991ZM24.8863 31.9823C23.9431 31.0022 23.5147 29.639 23.7108 28.2417C23.9854 26.2855 23.8841 24.5817 23.8296 23.6664C23.822 23.5383 23.8152 23.426 23.8113 23.3375C24.2554 22.9453 26.3137 21.8471 27.7816 22.1821C28.4513 22.3348 28.8595 22.789 29.0291 23.5702C29.9073 27.6149 29.1453 29.3007 28.5331 30.6555C28.4069 30.9346 28.2877 31.1984 28.186 31.4713L28.107 31.6823C27.9073 32.2156 27.7214 32.7116 27.6062 33.1825C26.6035 33.1796 25.628 32.7531 24.8863 31.9822V31.9823ZM25.0402 37.4371C24.7474 37.3643 24.4841 37.2378 24.3296 37.1328C24.4586 37.0724 24.6883 36.9901 25.0866 36.9083C27.0142 36.5132 27.312 36.2343 27.9621 35.4124C28.1111 35.2238 28.28 35.0102 28.514 34.75L28.5143 34.7497C28.8628 34.3611 29.0222 34.427 29.3113 34.5465C29.5456 34.6429 29.7738 34.9354 29.8663 35.2572C29.9101 35.4092 29.9592 35.6976 29.7983 35.9221C28.4403 37.8156 26.4614 37.7913 25.0402 37.4371ZM35.1284 46.7853C32.7702 47.2885 31.9352 46.0903 31.385 44.7206C31.0299 43.8363 30.8553 39.8487 30.9792 35.445C30.9808 35.3864 30.9724 35.3299 30.9562 35.2766C30.9417 35.1715 30.9197 35.0675 30.8903 34.9655C30.7061 34.3247 30.2574 33.7887 29.719 33.5665C29.5051 33.4783 29.1125 33.3164 28.6408 33.4366C28.7414 33.0238 28.9158 32.5576 29.105 32.0529L29.1844 31.8406C29.2737 31.6012 29.3859 31.3532 29.5044 31.0907C30.1451 29.6733 31.0225 27.7319 30.0702 23.3461C29.7135 21.7034 28.5223 20.9011 26.7165 21.0875C25.634 21.199 24.6435 21.634 24.1495 21.8834C24.0433 21.9369 23.9461 21.9888 23.8554 22.0391C23.9932 20.384 24.5141 17.2908 26.4627 15.3337C27.6896 14.1017 29.3236 13.4932 31.3143 13.526C35.2369 13.5899 37.7523 15.5945 39.1719 17.265C40.3952 18.7044 41.0576 20.1544 41.322 20.9365C39.3339 20.7352 37.9818 21.1259 37.2965 22.1017C35.8054 24.2243 38.1122 28.3441 39.2209 30.324C39.4243 30.6869 39.5997 31.0005 39.6549 31.1338C40.016 32.0051 40.4834 32.5868 40.8246 33.0114C40.9293 33.1415 41.0307 33.2677 41.1079 33.378C40.5058 33.5508 39.4243 33.9502 39.5228 35.9466C39.4433 36.9483 38.8781 41.6383 38.5909 43.2953C38.2118 45.4844 37.4029 46.2997 35.1284 46.7855V46.7853ZM44.9715 35.5684C44.3558 35.8529 43.3255 36.0664 42.3467 36.1123C41.2656 36.1626 40.7152 35.9917 40.5857 35.8864C40.525 34.6424 40.99 34.5124 41.4821 34.3748C41.5594 34.3532 41.6349 34.3321 41.7077 34.3067C41.753 34.3434 41.8025 34.3798 41.8569 34.4155C42.7258 34.9866 44.2756 35.0482 46.4637 34.5985L46.4877 34.5937C46.1925 34.8685 45.6875 35.2372 44.9715 35.5684Z" fill="white"/>
</g>
</g>
<rect x="0.5" y="0.5" width="59" height="59" rx="7.5" stroke="white" stroke-opacity="0.2"/>
<defs>
<clipPath id="clip0_1322_49550">
<rect width="60" height="60" rx="8" fill="white"/>
</clipPath>
<clipPath id="clip1_1322_49550">
<rect width="37" height="38" fill="white" transform="translate(12 11)"/>
</clipPath>
</defs>
</svg>
