<svg width="60" height="60" viewBox="0 0 60 60" fill="none" xmlns="http://www.w3.org/2000/svg">
<g clip-path="url(#clip0_1322_38555)">
<rect width="60" height="60" rx="8" fill="#161616"/>
<rect width="60" height="60" fill="#161616"/>
<path d="M16.2096 29.3692H12.4846C12.4384 29.3692 12.3942 29.3876 12.3615 29.4202C12.3289 29.4528 12.3106 29.4971 12.3105 29.5433V31.3645C12.3106 31.4107 12.3289 31.455 12.3615 31.4876C12.3942 31.5203 12.4384 31.5387 12.4846 31.5388H13.9377V33.8014C13.9377 33.8014 13.6114 33.9128 12.7094 33.9128C11.6451 33.9128 10.1584 33.5238 10.1584 30.2546C10.1584 26.9848 11.7065 26.5545 13.1599 26.5545C14.418 26.5545 14.96 26.7761 15.3048 26.8827C15.4132 26.916 15.5134 26.8082 15.5134 26.7119L15.929 24.9523C15.929 24.9074 15.9137 24.8531 15.8624 24.8163C15.7224 24.7164 14.8679 24.2383 12.7094 24.2383C10.2226 24.2383 7.67188 25.2963 7.67188 30.3821C7.67188 35.4682 10.5923 36.226 13.0533 36.226C15.091 36.226 16.3271 35.3553 16.3271 35.3553C16.378 35.327 16.3836 35.2559 16.3836 35.2232V29.5432C16.3836 29.4472 16.3056 29.3692 16.2096 29.3692ZM35.4065 24.8477C35.4067 24.8248 35.4024 24.8021 35.3938 24.781C35.3852 24.7598 35.3725 24.7405 35.3564 24.7242C35.3404 24.708 35.3213 24.695 35.3002 24.6862C35.2791 24.6773 35.2565 24.6727 35.2336 24.6727H33.1361C33.1133 24.6727 33.0906 24.6773 33.0695 24.6862C33.0484 24.695 33.0292 24.7079 33.013 24.7242C32.9969 24.7404 32.9841 24.7597 32.9755 24.7809C32.9668 24.8021 32.9624 24.8248 32.9624 24.8477L32.963 28.9009H29.6937V24.8477C29.6939 24.8248 29.6896 24.8021 29.6809 24.7809C29.6723 24.7598 29.6596 24.7405 29.6435 24.7242C29.6275 24.708 29.6083 24.695 29.5872 24.6862C29.5662 24.6773 29.5435 24.6727 29.5207 24.6727H27.4234C27.3772 24.6729 27.333 24.6915 27.3005 24.7243C27.268 24.7571 27.2499 24.8015 27.2501 24.8477V35.8228C27.2501 35.9195 27.3279 35.9982 27.4234 35.9982H29.5207C29.6166 35.9982 29.6937 35.9194 29.6937 35.8228V31.1283H32.963L32.9573 35.8228C32.9573 35.9195 33.0352 35.9982 33.1311 35.9982H35.2334C35.3295 35.9982 35.4063 35.9194 35.4065 35.8228V24.8477ZM20.1674 26.2879C20.1674 25.5326 19.5619 24.9223 18.8149 24.9223C18.0686 24.9223 17.4627 25.5326 17.4627 26.2879C17.4627 27.0423 18.0686 27.6542 18.8149 27.6542C19.5619 27.6542 20.1674 27.0423 20.1674 26.2879ZM20.0174 33.5076V28.4415C20.0175 28.3954 19.9993 28.351 19.9668 28.3182C19.9343 28.2854 19.8901 28.2669 19.8439 28.2666H17.7531C17.6572 28.2666 17.5714 28.3656 17.5714 28.4619V35.72C17.5714 35.9334 17.7043 35.9967 17.8764 35.9967H19.7601C19.9667 35.9967 20.0174 35.8951 20.0174 35.7166V33.5076ZM43.3774 28.2832H41.296C41.2006 28.2832 41.1229 28.3618 41.1229 28.4586V33.84C41.1229 33.84 40.5941 34.227 39.8437 34.227C39.0932 34.227 38.8942 33.8865 38.8942 33.1516V28.4586C38.8942 28.3618 38.8165 28.2832 38.7211 28.2832H36.6087C36.5134 28.2832 36.4352 28.3618 36.4352 28.4586V33.5069C36.4352 35.6895 37.6517 36.2235 39.3252 36.2235C40.698 36.2235 41.8048 35.4651 41.8048 35.4651C41.8048 35.4651 41.8575 35.8647 41.8813 35.9121C41.9052 35.9594 41.9674 36.0071 42.0345 36.0071L43.3784 36.0012C43.4736 36.0012 43.5518 35.9224 43.5518 35.826L43.5511 28.4587C43.5511 28.3618 43.4733 28.2832 43.3774 28.2832ZM48.2449 34.2203C47.523 34.1983 47.0334 33.8707 47.0334 33.8707V30.3952C47.0334 30.3952 47.5164 30.0991 48.1091 30.0461C48.8586 29.979 49.5807 30.2054 49.5807 31.9932C49.5808 33.8786 49.2549 34.2507 48.2449 34.2203ZM49.0659 28.0367C47.8838 28.0367 47.0797 28.5641 47.0797 28.5641V24.8478C47.0797 24.7508 47.0023 24.6727 46.9066 24.6727H44.8033C44.7805 24.6728 44.7578 24.6774 44.7367 24.6862C44.7156 24.6951 44.6965 24.708 44.6804 24.7243C44.6643 24.7406 44.6516 24.7598 44.6429 24.781C44.6343 24.8022 44.6299 24.8249 44.63 24.8478V35.8228C44.63 35.9195 44.7077 35.9982 44.8036 35.9982H46.263C46.3286 35.9982 46.3784 35.9644 46.4151 35.9051C46.4514 35.8461 46.5037 35.3991 46.5037 35.3991C46.5037 35.3991 47.3638 36.2141 48.9919 36.2141C50.9033 36.2141 51.9995 35.2446 51.9995 31.8617C51.9995 28.4787 50.2488 28.0367 49.0659 28.0367ZM26.0454 28.2657H24.4721L24.4697 26.1872C24.4697 26.1085 24.4292 26.0692 24.3383 26.0692H22.1943C22.1109 26.0692 22.0661 26.1059 22.0661 26.186V28.3339C22.0661 28.3339 20.9917 28.5932 20.9191 28.6142C20.8829 28.6247 20.851 28.6467 20.8284 28.6769C20.8057 28.7071 20.7935 28.7438 20.7935 28.7815V30.1312C20.7935 30.2283 20.871 30.3064 20.9669 30.3064H22.0661V33.5534C22.0661 35.9653 23.7579 36.2022 24.8995 36.2022C25.4211 36.2022 26.045 36.0348 26.148 35.9966C26.2103 35.9737 26.2465 35.9092 26.2465 35.8392L26.2483 34.3544C26.2483 34.2575 26.1665 34.1793 26.0744 34.1793C25.9827 34.1793 25.7482 34.2166 25.5067 34.2166C24.734 34.2166 24.4721 33.8573 24.4721 33.3922L24.472 30.3063H26.0454C26.1413 30.3063 26.2189 30.2281 26.2189 30.1311V28.4404C26.219 28.4176 26.2146 28.3949 26.206 28.3737C26.1973 28.3526 26.1845 28.3333 26.1684 28.3171C26.1523 28.3008 26.1331 28.2879 26.112 28.2791C26.0909 28.2703 26.0683 28.2658 26.0454 28.2657Z" fill="white"/>
</g>
<rect x="0.5" y="0.5" width="59" height="59" rx="7.5" stroke="white" stroke-opacity="0.2"/>
<defs>
<clipPath id="clip0_1322_38555">
<rect width="60" height="60" rx="8" fill="white"/>
</clipPath>
</defs>
</svg>
