<svg width="60" height="60" viewBox="0 0 60 60" fill="none" xmlns="http://www.w3.org/2000/svg">
<g clip-path="url(#clip0_1322_49688)">
<rect width="60" height="60" rx="8" fill="#161616"/>
<rect width="60" height="60" fill="#161616"/>
<path fill-rule="evenodd" clip-rule="evenodd" d="M16.871 40.4528V37.9651C16.871 37.6382 17.0753 37.3756 17.4138 37.3756H17.5074C17.8457 37.3756 18.0492 37.6385 18.0492 37.9651V43.2024C18.0492 44.4796 17.4182 45.4958 16.3186 46.1432C15.8149 46.4416 15.24 46.5984 14.6545 46.597H14.4209C13.1434 46.597 12.1285 45.9656 11.4801 44.8668C11.1812 44.3632 11.0245 43.788 11.0264 43.2024V42.969C11.0264 41.6914 11.6577 40.6758 12.7563 40.0272C13.2599 39.7282 13.8352 39.5713 14.4209 39.5733H14.6545C15.5191 39.5733 16.2525 39.9084 16.871 40.4528ZM12.2044 43.0855C12.2044 44.0081 12.6516 44.7017 13.46 45.1441C13.7868 45.3229 14.1417 45.419 14.5147 45.419C15.4202 45.419 16.0919 44.9918 16.5552 44.2244C16.7707 43.8674 16.871 43.4769 16.871 43.0616C16.871 42.2619 16.4924 41.6378 15.8479 41.1742C15.4572 40.8932 15.0173 40.7523 14.5376 40.7523C13.5506 40.7523 12.8402 41.251 12.4139 42.1368C12.2701 42.4363 12.2044 42.7542 12.2044 43.0855ZM22.1363 39.5733H22.2996C23.6647 39.5733 24.7028 40.2355 25.3607 41.427C25.6237 41.9037 25.7645 42.424 25.7645 42.969V43.2024C25.7645 44.4796 25.1348 45.4972 24.0335 46.1434C23.5237 46.4424 22.9606 46.597 22.3697 46.597H22.1363C20.8589 46.597 19.8437 45.9656 19.1956 44.8668C18.8966 44.3632 18.7396 43.7881 18.7414 43.2024V42.969C18.7414 41.6913 19.3753 40.679 20.4712 40.0275C20.9807 39.7248 21.5443 39.5733 22.1363 39.5733ZM19.9196 43.0855C19.9196 43.981 20.359 44.6398 21.1154 45.1031C21.4706 45.3205 21.8618 45.419 22.2767 45.419C23.1616 45.419 23.8156 44.9704 24.2709 44.2235C24.488 43.8675 24.5862 43.4762 24.5862 43.0616C24.5862 42.2289 24.1851 41.5928 23.4994 41.1318C23.1237 40.8789 22.7054 40.7523 22.253 40.7523C21.2659 40.7523 20.5556 41.251 20.1294 42.1368C19.9853 42.4363 19.9196 42.7542 19.9196 43.0855ZM30.6622 40.8464C30.4843 40.7631 30.1514 40.7354 29.9592 40.7281C28.9749 40.691 28.2627 41.2453 27.8449 42.1137C27.7006 42.4132 27.6348 42.7302 27.6348 43.0616C27.6348 44.0707 28.1646 44.7773 29.0653 45.208C29.3943 45.3652 29.8191 45.395 30.1787 45.395C30.495 45.395 30.942 45.2013 31.2226 45.068L31.2713 45.0449H31.4892L31.5132 45.0497C31.7811 45.1055 31.9833 45.2754 31.9833 45.5636V45.6802C31.9833 46.3976 30.6724 46.5618 30.1722 46.5967C28.407 46.7188 27.0868 45.7494 26.5836 44.0657C26.4961 43.7733 26.4568 43.4829 26.4568 43.1782V42.9452C26.4568 41.6676 27.0908 40.6556 28.1865 40.0047C28.696 39.7021 29.2595 39.5501 29.8514 39.5501H30.0849C30.7128 39.5501 31.2912 39.7284 31.8097 40.0825L31.8522 40.112L31.8792 40.1564C31.9351 40.2492 31.9833 40.3565 31.9833 40.4669V40.5835C31.9833 40.8842 31.7583 41.046 31.4867 41.0983L31.4642 41.1023H31.3946C31.2188 41.1023 30.8191 40.9203 30.6622 40.8464ZM34.4836 41.6441C34.9413 41.1859 35.4004 40.7286 35.8649 40.2779C35.9943 40.1522 36.4843 39.62 36.6773 39.62H36.8883L36.9123 39.625C37.1811 39.6808 37.3824 39.851 37.3824 40.1399V40.2563C37.3824 40.4534 37.1516 40.6823 37.0244 40.8172C36.7537 41.1041 36.4688 41.3816 36.1918 41.6625L34.7684 43.1075C35.3813 43.7218 35.9935 44.3365 36.6014 44.9555C36.77 45.1263 36.9373 45.2984 37.1033 45.4718C37.1618 45.5334 37.2482 45.61 37.2973 45.6953C37.3501 45.7753 37.3824 45.8654 37.3824 45.9617V46.0833L37.3756 46.1114C37.3095 46.3802 37.1389 46.597 36.841 46.597H36.7472C36.5523 46.597 36.3321 46.3766 36.1986 46.2505C35.9235 45.9912 35.6578 45.7184 35.3881 45.4534L34.4836 44.5655V45.9846C34.4836 46.3115 34.279 46.5742 33.941 46.5742H33.8482C33.5098 46.5742 33.3055 46.3115 33.3055 45.9846V37.9879C33.3055 37.661 33.5099 37.3995 33.8482 37.3995H33.941C34.279 37.3995 34.4836 37.661 34.4836 37.9879V41.6441ZM49.1673 39.62H49.2844C49.6377 39.62 49.8735 39.8581 49.8735 40.2095C49.8735 40.6972 49.4072 40.8221 49.0039 40.8221C48.4748 40.8221 47.9695 41.1424 47.6048 41.5017C47.15 41.9501 46.951 42.5243 46.951 43.1556V46.0077C46.951 46.3346 46.7468 46.597 46.4082 46.597H46.3152C45.9766 46.597 45.7725 46.3348 45.7725 46.0077V42.9918C45.7725 41.8337 46.3363 40.8884 47.2762 40.2253C47.8374 39.8292 48.4802 39.62 49.1673 39.62ZM40.7938 45.2723C41.2225 45.4221 41.7114 45.4006 42.1512 45.324C42.3762 45.2284 42.9516 44.9774 43.1632 45.0141L43.1962 45.0198L43.2266 45.0347C43.3558 45.0973 43.4791 45.186 43.5451 45.3175C43.6993 45.6257 43.6253 45.9355 43.3224 46.1105L43.2216 46.1687C42.1041 46.8137 40.9154 46.7243 39.8014 46.1219C39.2688 45.834 38.8613 45.4066 38.5608 44.8855L38.4905 44.7637C37.773 43.5213 37.8699 42.2143 38.679 41.0328C38.9583 40.6244 39.3234 40.3089 39.7502 40.0622L39.9116 39.969C40.9641 39.3614 42.0921 39.4031 43.1729 39.9363C43.7542 40.223 44.2251 40.6504 44.5495 41.2125L44.6079 41.3138C44.8436 41.7221 44.5383 42.0779 44.2231 42.3212C43.8573 42.6034 43.488 42.943 43.1374 43.2456C42.3556 43.9205 41.575 44.5969 40.7938 45.2723ZM39.782 44.5617C40.6562 43.8121 41.5307 43.0618 42.4027 42.309C42.7007 42.0521 43.0274 41.7854 43.323 41.5152C43.0858 41.2163 42.6896 41.0009 42.353 40.8724C41.6733 40.6135 41.0033 40.7004 40.3801 41.0602C39.5644 41.5312 39.217 42.2812 39.2474 43.2146C39.2595 43.5822 39.3584 43.9365 39.5534 44.2492C39.6222 44.3595 39.6989 44.463 39.782 44.5617ZM33.4239 20.9532H36.9005V24.5071H38.6582C39.4701 24.5071 40.305 24.3625 41.0737 24.1021C41.4515 23.9739 41.8754 23.7957 42.2481 23.5715C41.7573 22.9308 41.5067 22.1217 41.4331 21.3243C41.3328 20.2395 41.5517 18.8276 42.2858 17.9786L42.6513 17.5559L43.0867 17.9061C44.1831 18.7869 45.1052 20.0178 45.2678 21.421C46.5879 21.0327 48.138 21.1245 49.3016 21.7961L49.779 22.0716L49.5278 22.5621C48.5436 24.4826 46.4861 25.0777 44.4746 24.9724C41.4646 32.4694 34.9115 36.0186 26.9659 36.0186C22.8608 36.0186 19.0948 34.4841 16.9501 30.8421L16.9149 30.7828L16.6025 30.1469C15.8776 28.5438 15.6367 26.7876 15.8 25.0327L15.8491 24.5071H18.8222V20.9532H22.2986V17.4766H29.2519V14H33.4239V20.9532Z" fill="#364548"/>
<path fill-rule="evenodd" clip-rule="evenodd" d="M44.6878 22.2678C44.9209 20.456 43.5652 19.0331 42.7244 18.3574C41.7554 19.4777 41.6049 22.4136 43.125 23.6497C42.2766 24.4032 40.4891 25.0862 38.6586 25.0862H16.3777C16.1998 26.9969 16.5352 28.7564 17.3014 30.2624L17.5548 30.7261C17.7153 30.9983 17.8907 31.2614 18.0801 31.5143C18.9962 31.5732 19.8408 31.5934 20.6135 31.5763H20.6138C22.1322 31.5429 23.3712 31.3635 24.3102 31.0381C24.3766 31.0175 24.4484 31.0235 24.5104 31.0548C24.5725 31.0861 24.6199 31.1404 24.6427 31.2061C24.6655 31.2718 24.6618 31.3437 24.6324 31.4068C24.6031 31.4698 24.5504 31.5189 24.4855 31.5438C24.3605 31.5873 24.2304 31.6277 24.096 31.6662H24.0955C23.3561 31.8774 22.5632 32.0194 21.5403 32.0825C21.6011 32.0836 21.477 32.0916 21.4767 32.0916C21.4419 32.0939 21.3981 32.0989 21.3632 32.1007C20.9606 32.1234 20.526 32.1281 20.0818 32.1281C19.5958 32.1281 19.1174 32.119 18.5823 32.0916L18.5686 32.1007C20.4251 34.1874 23.3278 35.4388 26.9665 35.4388C34.6671 35.4388 41.1988 32.0252 44.0912 24.3615C46.1432 24.5721 48.1153 24.0488 49.0123 22.2976C47.5835 21.4731 45.7459 21.7359 44.6878 22.2678Z" fill="#22A0C8"/>
<path fill-rule="evenodd" clip-rule="evenodd" d="M44.6874 22.2678C44.9205 20.456 43.5647 19.0331 42.7239 18.3574C41.755 19.4777 41.6044 22.4136 43.1245 23.6497C42.2762 24.4032 40.4886 25.0862 38.6582 25.0862H17.6967C17.6058 28.0123 18.6917 30.2335 20.6128 31.5763H20.6133C22.1317 31.5429 23.3707 31.3635 24.3097 31.0381C24.3761 31.0175 24.4479 31.0235 24.51 31.0548C24.572 31.0861 24.6195 31.1404 24.6422 31.2061C24.665 31.2718 24.6613 31.3437 24.632 31.4068C24.6027 31.4698 24.55 31.5189 24.485 31.5438C24.3601 31.5873 24.2299 31.6277 24.0955 31.6662H24.095C23.3557 31.8774 22.4947 32.0376 21.4717 32.1007C21.4714 32.1007 21.4469 32.0772 21.4466 32.0772C24.0674 33.4215 27.8673 33.4167 32.2241 31.7431C37.1092 29.8663 41.6551 26.2909 44.8268 22.2015C44.7791 22.2231 44.7325 22.2451 44.6874 22.2678Z" fill="#37B1D9"/>
<path fill-rule="evenodd" clip-rule="evenodd" d="M16.4199 27.4082C16.5583 28.4317 16.8578 29.3901 17.3018 30.2629L17.5552 30.7267C17.7157 30.9989 17.891 31.262 18.0805 31.5148C18.9967 31.5737 19.8413 31.5939 20.6141 31.5769C22.1326 31.5434 23.3716 31.364 24.3106 31.0386C24.3769 31.018 24.4488 31.024 24.5108 31.0553C24.5729 31.0867 24.6203 31.1409 24.6431 31.2066C24.6658 31.2723 24.6622 31.3443 24.6328 31.4073C24.6035 31.4703 24.5508 31.5195 24.4859 31.5443C24.3609 31.5878 24.2307 31.6283 24.0963 31.6667H24.0959C23.3565 31.8779 22.5001 32.029 21.4771 32.0923C21.442 32.0944 21.3807 32.0949 21.3453 32.0969C20.943 32.1194 20.5129 32.1332 20.0685 32.1332C19.5827 32.1332 19.0858 32.1239 18.5511 32.0967C20.4075 34.1833 23.3282 35.4393 26.9669 35.4393C33.5594 35.4393 39.295 32.937 42.6239 27.4082H16.4199Z" fill="#1B81A5"/>
<path fill-rule="evenodd" clip-rule="evenodd" d="M17.8965 27.4082C18.2906 29.2053 19.2376 30.6161 20.6126 31.5769C22.131 31.5434 23.37 31.364 24.309 31.0386C24.3754 31.018 24.4472 31.024 24.5092 31.0553C24.5713 31.0867 24.6187 31.1409 24.6415 31.2066C24.6642 31.2723 24.6606 31.3443 24.6312 31.4073C24.6019 31.4703 24.5492 31.5195 24.4843 31.5443C24.3593 31.5878 24.2292 31.6283 24.0948 31.6667H24.0943C23.3549 31.8779 22.4804 32.029 21.4573 32.0923C24.0779 33.4363 27.8669 33.417 32.2233 31.7437C34.8588 30.7311 37.3953 29.2237 39.6709 27.4082H17.8965Z" fill="#1D91B4"/>
<path fill-rule="evenodd" clip-rule="evenodd" d="M19.4004 21.5332H22.4135V24.5464H19.4004V21.5332ZM19.6514 21.7844H19.8892V24.2954H19.6514V21.7844ZM20.0984 21.7844H20.3458V24.2954H20.0986L20.0984 21.7844ZM20.5548 21.7844H20.8022V24.2954H20.5548V21.7844ZM21.0116 21.7844H21.2588V24.2954H21.0116V21.7844ZM21.4682 21.7844H21.7154V24.2954H21.4682V21.7844ZM21.9246 21.7844H22.1625V24.2954H21.9246V21.7844ZM22.877 18.0566H25.8903V21.0696H22.8768L22.877 18.0566ZM23.1281 18.3078H23.3658V20.8186H23.1281V18.3078ZM23.5751 18.3078H23.8224V20.8186H23.5753L23.5751 18.3078ZM24.0316 18.3078H24.2788V20.8186H24.0316V18.3078ZM24.4881 18.3078H24.7354V20.8186H24.4881V18.3078ZM24.9447 18.3078H25.1921V20.8186H24.9447V18.3078ZM25.4012 18.3078H25.6393V20.8186H25.4012V18.3078Z" fill="#23A3C2"/>
<path fill-rule="evenodd" clip-rule="evenodd" d="M22.8781 21.5332H25.8914V24.5464H22.8779L22.8781 21.5332ZM23.1293 21.7844H23.3669V24.2953H23.1293V21.7844ZM23.5763 21.7844H23.8235V24.2953H23.5764L23.5763 21.7844ZM24.0327 21.7844H24.2799V24.2953H24.0327V21.7844ZM24.4893 21.7844H24.7365V24.2953H24.4893V21.7844ZM24.9458 21.7844H25.1932V24.2953H24.9458V21.7844ZM25.4023 21.7844H25.6404V24.2953H25.4023V21.7844Z" fill="#34BBDE"/>
<path fill-rule="evenodd" clip-rule="evenodd" d="M26.3545 21.5332H29.3676V24.5464H26.3545V21.5332ZM26.6055 21.7844H26.8432V24.2953H26.6055V21.7844ZM27.0525 21.7844H27.2997V24.2953H27.0525V21.7844ZM27.5091 21.7844H27.7563V24.2953H27.5091V21.7844ZM27.9657 21.7844H28.2129V24.2953H27.9657V21.7844ZM28.4221 21.7844H28.6696V24.2953H28.4221V21.7844ZM28.8787 21.7844H29.1165V24.2953H28.8787V21.7844Z" fill="#23A3C2"/>
<path fill-rule="evenodd" clip-rule="evenodd" d="M26.3555 18.0566H29.3686V21.0696H26.3555V18.0566ZM26.6065 18.3078H26.8441V20.8186H26.6065V18.3078ZM27.0535 18.3078H27.3007V20.8186H27.0535V18.3078ZM27.5101 18.3078H27.7573V20.8186H27.5101V18.3078ZM27.9667 18.3078H28.2139V20.8186H27.9667V18.3078ZM28.4231 18.3078H28.6706V20.8186H28.4231V18.3078ZM28.8797 18.3078H29.1175V20.8186H28.8797V18.3078ZM29.832 21.5332H32.8452V24.5464H29.832V21.5332ZM30.0832 21.7844H30.3209V24.2954H30.0832V21.7844ZM30.5302 21.7844H30.7774V24.2954H30.5302V21.7844ZM30.9866 21.7844H31.2339V24.2954H30.9866V21.7844ZM31.4432 21.7844H31.6906V24.2954H31.4432V21.7844ZM31.8998 21.7844H32.1472V24.2954H31.8998V21.7844ZM32.3564 21.7844H32.5942V24.2954H32.3564V21.7844Z" fill="#34BBDE"/>
<path fill-rule="evenodd" clip-rule="evenodd" d="M29.832 18.0566H32.8452V21.0696H29.832V18.0566ZM30.0832 18.3078H30.3208V20.8186H30.0832V18.3078ZM30.5302 18.3078H30.7774V20.8186H30.5302V18.3078ZM30.9866 18.3078H31.2339V20.8186H30.9866V18.3078ZM31.4432 18.3078H31.6906V20.8186H31.4432V18.3078ZM31.8998 18.3078H32.1472V20.8186H31.8998V18.3078ZM32.3564 18.3078H32.5942V20.8186H32.3564V18.3078Z" fill="#23A3C2"/>
<path fill-rule="evenodd" clip-rule="evenodd" d="M29.832 14.5801H32.8452V17.5935H29.832V14.5801ZM30.0832 14.8311H30.3208V17.3422H30.0832V14.8311ZM30.5302 14.8311H30.7774V17.3422H30.5302V14.8311ZM30.9866 14.8311H31.2339V17.3422H30.9866V14.8311ZM31.4432 14.8311H31.6906V17.3422H31.4432V14.8311ZM31.8998 14.8311H32.1472V17.3422H31.8998V14.8311ZM32.3564 14.8311H32.5942V17.3422H32.3564V14.8311Z" fill="#34BBDE"/>
<path fill-rule="evenodd" clip-rule="evenodd" d="M33.3086 21.5332H36.3217V24.5464H33.3086V21.5332ZM33.5595 21.7844H33.7974V24.2953H33.5596V21.7844H33.5595ZM34.0065 21.7844H34.2538V24.2953H34.0066L34.0065 21.7844ZM34.4632 21.7844H34.7106V24.2953H34.4632V21.7844ZM34.9196 21.7844H35.167V24.2953H34.9196V21.7844ZM35.3764 21.7844H35.6236V24.2953H35.3764V21.7844ZM35.8328 21.7844H36.0706V24.2953H35.8328V21.7844Z" fill="#23A3C2"/>
<path fill-rule="evenodd" clip-rule="evenodd" d="M25.7031 29.4298C25.8132 29.4283 25.9225 29.4487 26.0247 29.4898C26.1268 29.531 26.2198 29.592 26.2982 29.6693C26.3765 29.7467 26.4388 29.8388 26.4812 29.9404C26.5237 30.0421 26.5456 30.1511 26.5455 30.2612C26.5455 30.3713 26.5236 30.4803 26.4811 30.5819C26.4386 30.6835 26.3763 30.7757 26.2979 30.853C26.2195 30.9303 26.1265 30.9913 26.0244 31.0324C25.9222 31.0735 25.8129 31.0938 25.7028 31.0923C25.4843 31.0893 25.2757 31.0004 25.1222 30.8448C24.9688 30.6892 24.8828 30.4794 24.8828 30.2609C24.8829 30.0424 24.9689 29.8326 25.1225 29.6771C25.276 29.5215 25.4846 29.4327 25.7031 29.4298Z" fill="#D3ECEC"/>
<path fill-rule="evenodd" clip-rule="evenodd" d="M25.703 29.6675C25.779 29.6675 25.8515 29.6818 25.9184 29.7078C25.8723 29.7346 25.8362 29.7759 25.8159 29.8252C25.7955 29.8745 25.7919 29.9292 25.8057 29.9808C25.8195 30.0323 25.8499 30.0779 25.8922 30.1105C25.9346 30.143 25.9864 30.1607 26.0398 30.1609C26.1318 30.1609 26.2116 30.11 26.2529 30.0345C26.3019 30.1525 26.3116 30.2831 26.2807 30.407C26.2497 30.5309 26.1798 30.6416 26.0811 30.7226C25.9824 30.8037 25.8603 30.8509 25.7327 30.8573C25.6052 30.8636 25.479 30.8288 25.3727 30.7579C25.2665 30.687 25.1859 30.5838 25.1428 30.4636C25.0997 30.3433 25.0965 30.2124 25.1335 30.0902C25.1705 29.968 25.2459 29.8609 25.3484 29.7848C25.451 29.7087 25.5753 29.6676 25.703 29.6675ZM11 27.7091H49.6682C48.8264 27.4956 47.0044 27.207 47.3049 26.1035C45.7738 27.8751 42.0818 27.3465 41.1499 26.473C40.1124 27.9779 34.0718 27.4058 33.6505 26.2334C32.3496 27.76 28.3189 27.76 27.018 26.2334C26.5964 27.4058 20.5559 27.9779 19.5183 26.4728C18.5866 27.3465 14.8947 27.8751 13.3636 26.1037C13.6641 27.207 11.8422 27.4955 11 27.7091Z" fill="#364548"/>
<path fill-rule="evenodd" clip-rule="evenodd" d="M27.9129 35.4205C25.8542 34.4437 24.7244 33.1156 24.0957 31.666C23.331 31.8842 22.4119 32.0238 21.3438 32.0837C20.9415 32.1062 20.5182 32.1177 20.0742 32.1177C19.5622 32.1177 19.0226 32.1025 18.4561 32.0726C20.344 33.9594 22.6664 35.412 26.9667 35.4385C27.2842 35.4385 27.5992 35.4324 27.9129 35.4205Z" fill="#BDD9D7"/>
<path fill-rule="evenodd" clip-rule="evenodd" d="M24.8593 33.004C24.5746 32.6173 24.2983 32.1314 24.0952 31.666C23.3304 31.8845 22.411 32.0241 21.3428 32.0841C22.0765 32.4823 23.1256 32.8513 24.8593 33.004Z" fill="#D3ECEC"/>
</g>
<rect x="0.5" y="0.5" width="59" height="59" rx="7.5" stroke="white" stroke-opacity="0.2"/>
<defs>
<clipPath id="clip0_1322_49688">
<rect width="60" height="60" rx="8" fill="white"/>
</clipPath>
</defs>
</svg>
