<svg width="60" height="60" viewBox="0 0 60 60" fill="none" xmlns="http://www.w3.org/2000/svg">
<g clip-path="url(#clip0_1322_38411)">
<rect width="60" height="60" rx="8" fill="#161616"/>
<rect width="60" height="60" fill="#161616"/>
<path d="M19.7017 25.7579C19.7017 26.3108 19.7619 26.7591 19.8673 27.0878C19.9877 27.4166 20.1383 27.7752 20.349 28.1637C20.4243 28.2833 20.4544 28.4028 20.4544 28.5074C20.4544 28.6569 20.3641 28.8063 20.1684 28.9557L19.22 29.5833C19.0845 29.673 18.949 29.7178 18.8286 29.7178C18.678 29.7178 18.5275 29.6431 18.3769 29.5086C18.1662 29.2845 17.9855 29.0454 17.835 28.8063C17.6844 28.5523 17.5339 28.2683 17.3683 27.9246C16.194 29.2994 14.7187 29.9868 12.9423 29.9868C11.6777 29.9868 10.6691 29.6282 9.93141 28.9109C9.19374 28.1936 8.81738 27.2373 8.81738 26.0418C8.81738 24.7716 9.26901 23.7406 10.1873 22.9635C11.1057 22.1865 12.3251 21.7979 13.8757 21.7979C14.3875 21.7979 14.9144 21.8428 15.4714 21.9175C16.0284 21.9922 16.6005 22.1118 17.2027 22.2462V21.1554C17.2027 20.0197 16.9618 19.2277 16.4951 18.7645C16.0134 18.3012 15.2004 18.0771 14.0413 18.0771C13.5144 18.0771 12.9724 18.1369 12.4154 18.2714C11.8584 18.4058 11.3164 18.5702 10.7895 18.7794C10.5486 18.884 10.368 18.9438 10.2626 18.9737C10.1572 19.0036 10.082 19.0185 10.0217 19.0185C9.81097 19.0185 9.70559 18.8691 9.70559 18.5553V17.8231C9.70559 17.584 9.7357 17.4047 9.81097 17.3001C9.88624 17.1955 10.0217 17.0909 10.2325 16.9862C10.7594 16.7173 11.3917 16.4931 12.1293 16.3138C12.867 16.1195 13.6498 16.0299 14.4778 16.0299C16.2693 16.0299 17.579 16.4334 18.4221 17.2403C19.2501 18.0472 19.6716 19.2726 19.6716 20.9163V25.7579H19.7017ZM13.5896 28.0292C14.0864 28.0292 14.5983 27.9396 15.1402 27.7603C15.6822 27.5809 16.1639 27.2522 16.5704 26.8039C16.8113 26.52 16.9919 26.2062 17.0822 25.8475C17.1726 25.4889 17.2328 25.0556 17.2328 24.5475V23.9199C16.7962 23.8153 16.3295 23.7256 15.8478 23.6658C15.366 23.6061 14.8994 23.5762 14.4327 23.5762C13.424 23.5762 12.6864 23.7704 12.1896 24.1739C11.6928 24.5774 11.4519 25.1452 11.4519 25.8924C11.4519 26.5947 11.6326 27.1177 12.0089 27.4763C12.3702 27.8499 12.8971 28.0292 13.5896 28.0292ZM25.6783 29.6431C25.4073 29.6431 25.2267 29.5983 25.1062 29.4937C24.9858 29.404 24.8804 29.1948 24.7901 28.9109L21.2523 17.3598C21.162 17.061 21.1168 16.8667 21.1168 16.7621C21.1168 16.523 21.2373 16.3885 21.4781 16.3885H22.9535C23.2395 16.3885 23.4352 16.4334 23.5406 16.538C23.661 16.6276 23.7513 16.8368 23.8417 17.1207L26.3708 27.0131L28.7193 17.1207C28.7946 16.8219 28.8849 16.6276 29.0053 16.538C29.1258 16.4483 29.3365 16.3885 29.6075 16.3885H30.8118C31.0979 16.3885 31.2936 16.4334 31.414 16.538C31.5345 16.6276 31.6398 16.8368 31.7001 17.1207L34.0786 27.1327L36.6831 17.1207C36.7734 16.8219 36.8788 16.6276 36.9841 16.538C37.1046 16.4483 37.3003 16.3885 37.5713 16.3885H38.9713C39.2122 16.3885 39.3477 16.5081 39.3477 16.7621C39.3477 16.8368 39.3326 16.9115 39.3176 17.0012C39.3025 17.0909 39.2724 17.2104 39.2122 17.3748L35.5841 28.9258C35.4938 29.2247 35.3884 29.419 35.2679 29.5086C35.1475 29.5983 34.9518 29.658 34.6959 29.658H33.4012C33.1152 29.658 32.9195 29.6132 32.799 29.5086C32.6786 29.404 32.5732 29.2098 32.513 28.9109L30.1796 19.2726L27.8612 28.8959C27.7859 29.1948 27.6956 29.3891 27.5752 29.4937C27.4547 29.5983 27.244 29.6431 26.973 29.6431H25.6783ZM45.0232 30.0466C44.2404 30.0466 43.4575 29.9569 42.7048 29.7776C41.9521 29.5983 41.365 29.404 40.9736 29.1799C40.7327 29.0454 40.5671 28.8959 40.5069 28.7615C40.4467 28.627 40.4165 28.4775 40.4165 28.3431V27.5809C40.4165 27.2671 40.537 27.1177 40.7628 27.1177C40.8531 27.1177 40.9435 27.1327 41.0338 27.1625C41.1241 27.1924 41.2596 27.2522 41.4101 27.312C41.922 27.5361 42.479 27.7154 43.0661 27.835C43.6683 27.9545 44.2554 28.0143 44.8576 28.0143C45.806 28.0143 46.5437 27.8499 47.0555 27.5212C47.5674 27.1924 47.8384 26.7142 47.8384 26.1016C47.8384 25.6832 47.7029 25.3395 47.4319 25.0556C47.1609 24.7716 46.6491 24.5176 45.9114 24.2785L43.7285 23.6061C42.6295 23.2624 41.8166 22.7543 41.3198 22.0819C40.823 21.4244 40.5671 20.6922 40.5671 19.9151C40.5671 19.2875 40.7026 18.7346 40.9736 18.2564C41.2445 17.7782 41.6058 17.3598 42.0575 17.0311C42.5091 16.6874 43.021 16.4334 43.6231 16.254C44.2253 16.0747 44.8576 16 45.52 16C45.8512 16 46.1974 16.0149 46.5286 16.0598C46.8749 16.1046 47.191 16.1644 47.5072 16.2241C47.8083 16.2989 48.0943 16.3736 48.3653 16.4632C48.6362 16.5529 48.847 16.6426 48.9976 16.7322C49.2083 16.8518 49.3589 16.9713 49.4492 17.1058C49.5395 17.2253 49.5847 17.3897 49.5847 17.5989V18.3012C49.5847 18.6151 49.4642 18.7794 49.2384 18.7794C49.118 18.7794 48.9223 18.7197 48.6664 18.6001C47.8083 18.2116 46.8448 18.0173 45.7759 18.0173C44.9178 18.0173 44.2404 18.1518 43.7737 18.4357C43.307 18.7197 43.0661 19.153 43.0661 19.7657C43.0661 20.1841 43.2167 20.5427 43.5178 20.8266C43.8188 21.1106 44.3759 21.3945 45.1737 21.6485L47.3115 22.321C48.3954 22.6646 49.1782 23.1428 49.6449 23.7555C50.1116 24.3682 50.3374 25.0705 50.3374 25.8475C50.3374 26.4901 50.2019 27.0729 49.946 27.5809C49.675 28.089 49.3137 28.5373 48.847 28.8959C48.3803 29.2695 47.8233 29.5385 47.176 29.7328C46.4985 29.942 45.791 30.0466 45.0232 30.0466Z" fill="white"/>
<path fill-rule="evenodd" clip-rule="evenodd" d="M47.955 37.4127C42.9982 41.0738 35.7965 43.0174 29.6043 43.0174C20.9261 43.0174 13.1067 39.8083 7.20069 34.4748C6.73363 34.0529 7.15549 33.4804 7.71294 33.8119C14.101 37.5182 21.9807 39.7631 30.1316 39.7631C35.6308 39.7631 41.6724 38.618 47.2318 36.2677C48.0605 35.891 48.7686 36.8101 47.955 37.4127Z" fill="#FF9900"/>
<path fill-rule="evenodd" clip-rule="evenodd" d="M50.0189 35.0625C49.3861 34.2489 45.8305 34.6707 44.2184 34.8666C43.7363 34.9269 43.6609 34.505 44.0978 34.1886C46.9303 32.1999 51.5858 32.7724 52.1282 33.4353C52.6706 34.1133 51.9775 38.7688 49.3258 40.9986C48.9191 41.3451 48.5273 41.1643 48.7081 40.7123C49.3108 39.2207 50.6517 35.861 50.0189 35.0625Z" fill="#FF9900"/>
</g>
<rect x="0.5" y="0.5" width="59" height="59" rx="7.5" stroke="white" stroke-opacity="0.2"/>
<defs>
<clipPath id="clip0_1322_38411">
<rect width="60" height="60" rx="8" fill="white"/>
</clipPath>
</defs>
</svg>
