<svg width="60" height="60" viewBox="0 0 60 60" fill="none" xmlns="http://www.w3.org/2000/svg">
<g clip-path="url(#clip0_1322_49208)">
<rect width="60" height="60" rx="8" fill="#161616"/>
<rect width="60" height="60" fill="#161616"/>
<g clip-path="url(#clip1_1322_49208)">
<path d="M5 22V38H55V22H5Z" fill="#161616"/>
<path d="M13.8831 23.0077H13.8553L13.7165 22.8714C13.7165 23.3002 13.5295 23.549 13.3278 23.9072H13.3001C13.2389 23.8061 13.1694 23.774 13.0502 23.7709C13.1313 24.0459 13.0742 24.3945 13.0225 24.6704C13.3077 24.6483 13.5108 24.6407 13.5777 24.9975C13.7124 24.9144 13.8161 24.7518 13.9386 24.6431C14.2467 24.3701 14.5484 24.3759 14.9103 24.5069L15.1879 24.1253H14.9936V24.098C15.5346 23.9023 15.7432 23.2778 15.7432 22.7624H15.7154L15.2157 23.3348L15.1324 23.0077H15.1046C15.0859 23.2409 14.7445 23.551 14.5494 23.6619L14.5216 23.4711H14.4939L14.2718 23.6891C14.4012 23.3441 14.6825 22.7883 14.5401 22.408C14.4873 22.267 14.3253 22.3361 14.244 22.408C14.083 22.5506 13.9273 22.8014 13.8831 23.0077Z" fill="#E1CBA3"/>
<path d="M7.4426 26.3347C8.18735 26.4694 8.90762 26.5698 9.66359 26.4255C10.1974 26.3236 10.7199 26.2238 11.246 26.0803C11.5953 25.985 11.9386 25.8492 12.2733 25.7168C12.3798 25.6747 12.6343 25.6258 12.7036 25.5351C12.7644 25.4554 12.7462 25.2143 12.7822 25.1081C12.8319 24.9618 13.0649 24.7247 12.9257 24.572C12.8495 24.4886 12.6555 24.4575 12.5509 24.4176C12.2523 24.3036 11.9433 24.2019 11.6347 24.1177C11.0854 23.9679 10.4627 23.741 9.88569 23.7725C9.12372 23.814 8.45437 24.4451 7.97009 24.9718C7.79593 25.1612 7.55323 25.3545 7.45648 25.5987C7.37884 25.7947 7.4426 26.1241 7.4426 26.3347Z" fill="#638B19"/>
<path d="M13.0781 26.5513C13.2977 26.6137 13.5728 26.4912 13.7999 26.4695C13.9769 26.4526 14.2087 26.4256 14.383 26.4423C14.494 26.4529 14.7199 26.5244 14.8225 26.4559C14.9561 26.3668 14.9747 25.9852 15.003 25.8426C15.0659 25.5247 15.1332 25.0371 14.929 24.7523C14.6066 24.3029 14.0064 24.7186 13.7768 25.0249C13.6309 25.2195 13.503 25.4322 13.4066 25.6518C13.2819 25.9362 13.1358 26.2436 13.0781 26.5513Z" fill="#61D1E5"/>
<path d="M13.1893 24.7896C12.961 24.8643 12.8563 25.3098 12.8885 25.5165C12.9082 25.6429 12.9499 25.8504 13.1337 25.78C13.348 25.6978 13.4307 25.2212 13.4114 25.0258C13.4001 24.9124 13.3363 24.7415 13.1893 24.7896Z" fill="#010101"/>
<path d="M14.3838 25.0254V25.0526H14.4671L14.3838 25.0254Z" fill="#193539"/>
<path d="M13.8848 25.7897H13.9125C14.017 25.5113 14.2278 25.2173 14.5511 25.2173L14.4678 25.7897C14.6002 25.6974 14.768 25.3859 14.7084 25.2173C14.6177 24.9609 14.2574 25.0349 14.1115 25.19C14.0466 25.2591 14.0005 25.3509 13.9634 25.4353C13.9138 25.5484 13.8848 25.6665 13.8848 25.7897Z" fill="#010101"/>
<path d="M14.7168 25.2441V25.3259H14.7446L14.7168 25.2441Z" fill="#53B3C5"/>
<path d="M14.9116 26.6603C14.4464 26.5281 13.7949 26.6305 13.3291 26.7148C13.4059 27.124 13.043 27.1846 12.9404 27.5325C13.9001 27.235 14.8808 26.7551 15.7444 26.2605C15.9427 26.147 16.5848 25.8747 16.5495 25.5972C16.5343 25.4776 16.331 25.5155 16.2441 25.5155C15.9789 25.5155 15.4794 25.4915 15.2493 25.6381C15.1718 25.6875 15.1775 25.8429 15.1614 25.9243C15.1098 26.1847 14.9778 26.413 14.9116 26.6603Z" fill="#638B19"/>
<path d="M7.55371 26.5247C7.57561 26.729 7.76901 26.9339 7.84985 27.1244C7.88058 27.1968 7.90052 27.301 7.97478 27.3425C8.18775 27.4614 8.61793 27.397 8.85854 27.397C9.83883 27.397 10.819 27.1279 11.7458 26.8246C12.0292 26.7318 12.3029 26.6157 12.5787 26.5066C12.6967 26.4599 12.9073 26.4147 12.9813 26.3067C13.2107 25.9714 12.8797 25.9722 12.773 25.707C12.3021 25.7435 11.7928 26.0895 11.3294 26.2158C10.122 26.5451 8.79663 26.878 7.55371 26.5247Z" fill="#E1CBA3"/>
<path d="M6.66569 26.0332C6.61431 26.1891 6.29674 26.2268 6.19836 26.4148C5.98891 26.815 6.25581 27.3104 6.45748 27.6459C6.51835 27.7472 6.59518 28.062 6.74898 28.0684C6.8368 28.072 6.97909 27.9389 7.05437 27.8958C7.29748 27.7565 7.56804 27.6277 7.83171 27.5324C7.75548 27.1261 7.4485 26.5852 7.13765 26.3058C6.99282 26.1756 6.79071 26.1621 6.66569 26.0332Z" fill="#61D1E5"/>
<path d="M12.8004 26.5801C11.6826 27.1288 10.3701 27.4435 9.13575 27.5613C8.76634 27.5966 8.39099 27.5341 8.02525 27.5341C8.01087 27.6647 7.88755 27.6843 7.77539 27.7249V27.7521L9.55218 28.3427L10.0241 28.3291L10.7182 28.3155L11.0236 27.952L11.4123 28.0156L11.8565 27.6704L12.606 26.8799L12.8004 26.5801Z" fill="#638B19"/>
<path d="M6.69284 27.2614H6.7206V26.7981C6.96939 26.8945 7.13019 27.216 7.27585 27.425C7.38197 27.2487 7.0168 26.7067 6.83165 26.6436C6.57805 26.5572 6.50969 26.873 6.57716 27.0434C6.60729 27.1194 6.64881 27.193 6.69284 27.2614Z" fill="#231F1F"/>
<path d="M10.3298 28.5141C10.354 29.4144 9.12411 28.9075 8.63633 28.7412C8.51606 28.7002 8.39957 28.6337 8.27542 28.6049C8.03069 28.5482 7.72184 28.5958 7.47031 28.5958C7.20862 28.5958 6.78873 28.4436 6.67446 28.7321C6.47226 29.2426 6.52219 29.7853 6.58192 30.313C6.70327 31.3853 7.13591 32.4248 7.54435 33.4204C7.68271 33.7576 7.81157 34.0993 7.9654 34.4289C8.01448 34.534 8.04738 34.7545 8.14585 34.8241C8.22334 34.8789 8.51029 34.865 8.60857 34.865C8.96007 34.865 9.30998 34.9147 9.66354 34.9195C10.9162 34.9366 12.1783 34.974 13.4392 34.974C14.3149 34.974 15.1797 34.9005 16.0489 34.865C16.3516 34.8526 16.6681 34.849 16.965 34.7923C17.0315 34.7796 17.1552 34.8093 17.2103 34.7696C17.3014 34.7038 17.1356 34.2831 17.1131 34.1836C17.0499 33.9044 17.0396 33.5959 16.9049 33.3386C16.7198 32.985 16.0604 32.5379 16.7152 32.2165C16.796 32.1768 16.8756 32.1554 16.965 32.1393C16.7052 30.7546 16.4907 29.368 16.1414 27.9962C16.0502 27.6381 15.8975 27.2807 15.6695 26.9877C15.5898 26.8853 15.4899 26.7129 15.3548 26.6742C15.2724 26.6506 15.1748 26.7308 15.105 26.765C14.8759 26.8775 14.6429 26.9846 14.4109 27.0921C14.0103 27.2779 13.5927 27.4285 13.1894 27.61C13.0076 27.6918 12.7707 27.7295 12.6063 27.8417C12.2954 28.0541 12.1006 28.4171 11.7457 28.5913C11.5494 28.6877 11.3131 28.7283 11.1072 28.6413C11.0082 28.5994 10.9304 28.4902 10.8296 28.4641C10.7044 28.4317 10.4719 28.5141 10.3298 28.5141Z" fill="#61D1E5"/>
<path d="M12.9404 26.7554C12.7826 26.8328 12.6675 27.0519 12.5517 27.1779C12.2831 27.47 12.0068 27.7956 11.6911 28.041C11.6052 28.1077 11.4769 28.2097 11.3579 28.2C11.246 28.1908 11.1285 28.021 11.0063 28.1409C10.9006 28.2447 11.0089 28.4041 11.1081 28.4589C11.2718 28.5496 11.4977 28.5199 11.6633 28.4499C11.9699 28.3203 12.2234 28.0138 12.4407 27.7775C12.6749 27.5227 12.9697 27.2819 13.1532 26.9871C13.2485 26.834 13.1116 26.6713 12.9404 26.7554Z" fill="#010101"/>
<path d="M6.52734 26.8241V26.9059H6.55511L6.52734 26.8241Z" fill="#334B51"/>
<path d="M6.69434 26.8789V27.0152H6.7221L6.69434 26.8789Z" fill="#56B8CA"/>
<path d="M32.29 26.9892V34.7847H36.0657V34.4577H32.6232V31.0505H35.8714V30.7234H32.6232V27.3163H36.0657V26.9892H32.29ZM42.4788 31.2686H40.4522V31.5956H42.1179C42.1179 32.4985 42.3431 33.5999 41.5904 34.2669C41.305 34.5198 40.9294 34.5863 40.5632 34.6212C39.4583 34.7267 38.3239 34.2291 38.2034 33.013C38.0968 31.9369 38.2034 30.7968 38.2034 29.7149C38.2034 29.1011 38.1637 28.4787 38.5735 27.9704C39.2059 27.1862 40.6532 27.0808 41.4516 27.6797C41.9114 28.0244 42.1179 28.5639 42.1179 29.1152H42.4788C42.4788 28.5136 42.2456 27.8882 41.7848 27.4798C40.9216 26.7148 39.1448 26.8007 38.37 27.6433C37.8583 28.1997 37.8703 28.9032 37.8703 29.6059C37.8703 30.7593 37.7567 31.9748 37.8703 33.122C38.0149 34.5815 39.4119 35.0714 40.702 34.9483C41.1401 34.9064 41.5607 34.7818 41.8958 34.4849C42.7539 33.7242 42.4788 32.2881 42.4788 31.2686ZM44.5055 26.9892V34.7847H48.3089V34.4577H44.8386V31.0505H48.0035V30.7234H44.8386V27.3163H48.3089V26.9892H44.5055ZM50.1412 26.9892V34.7847H50.4744V31.5956C51.028 31.5956 51.5871 31.6183 52.1401 31.5956C52.267 31.5905 52.5874 31.4761 52.6862 31.5729C52.8436 31.7276 52.9336 32.0543 53.0332 32.2498C53.3192 32.8118 53.5985 33.378 53.8844 33.9398C53.9833 34.1339 54.1235 34.6573 54.3103 34.7711C54.395 34.8228 54.5957 34.7847 54.6943 34.7847L53.0285 31.4321C53.521 31.3939 53.9641 30.9669 54.1715 30.5599C54.6212 29.6765 54.3941 28.292 53.7226 27.5616C53.1776 26.9689 52.5294 26.9892 51.7792 26.9892H50.1412Z" fill="white"/>
<path d="M23.9061 27.0424V31.4308C23.9061 32.1511 24.0341 32.9949 23.7303 33.6659C23.3515 34.5027 22.0983 34.8343 21.3242 34.3383C20.8934 34.0621 20.6857 33.5573 20.6857 33.0662H20.3525C20.3525 33.5634 20.4908 34.1065 20.88 34.4564C21.8037 35.2866 23.4472 34.9171 24.0172 33.884C24.3763 33.233 24.2393 32.3634 24.2393 31.6489V27.0424H23.9061ZM25.322 34.8107C25.4058 34.8107 25.6052 34.8475 25.6737 34.7971C25.7575 34.7353 25.7875 34.4967 25.8264 34.4018C25.9824 34.0215 26.0967 33.6191 26.2289 33.2298C26.2753 33.0932 26.3563 32.6551 26.5158 32.6301C27.2767 32.511 28.1591 32.6301 28.9311 32.6301C29.1074 32.6301 29.5985 32.5473 29.7316 32.6619C29.8357 32.7516 29.869 32.994 29.912 33.1208C30.0452 33.513 30.1861 33.9007 30.3192 34.2928C30.3636 34.4236 30.3974 34.679 30.495 34.7789C30.562 34.8474 30.7567 34.8107 30.8467 34.8107C30.8409 34.5934 30.7222 34.3622 30.6524 34.1565L30.2267 32.9027L28.8293 28.7869L28.3573 27.3967C28.3054 27.2438 28.2459 26.9716 28.0149 27.0515C27.8497 27.1086 27.8143 27.388 27.7651 27.533C27.6023 28.0126 27.4215 28.4913 27.2839 28.9777C26.8894 30.372 26.3525 31.7483 25.8865 33.1208C25.7006 33.6682 25.4283 34.244 25.322 34.8107Z" fill="white"/>
<path d="M50.4746 27.3157V31.268C51.3938 31.268 52.6939 31.4616 53.4729 30.8773C54.501 30.1063 54.1001 28.0445 53.0565 27.4611C52.7522 27.291 52.3944 27.3157 52.0571 27.3157H50.4746Z" fill="#161616"/>
<path d="M7.61052 28.433V28.4057C7.3629 28.3033 7.26085 28.3197 7.13856 28.0514L6.72213 28.2785L6.5648 28.1331L6.25017 27.6152C5.99249 27.6685 5.35902 28.0453 5.83373 28.2331C6.35051 28.4374 7.06084 28.433 7.61052 28.433Z" fill="#638B19"/>
<path d="M28.0699 27.6973L27.6442 28.9784L26.8854 31.268L26.543 32.3037H29.6246L29.2637 31.1862L28.5141 28.9511L28.218 28.0789L28.0699 27.6973Z" fill="#161616"/>
<path d="M7.44315 27.897C7.33178 27.9356 7.27893 28.1019 7.39225 28.1742C7.5512 28.2755 7.86739 28.2787 8.05392 28.3423C8.53499 28.5062 8.99581 28.7212 9.49756 28.8238C9.67849 28.8608 9.909 28.9049 10.0806 28.8102C10.182 28.7542 10.2045 28.5715 10.0806 28.524C9.90028 28.4548 9.59903 28.5365 9.38651 28.4786C8.89248 28.3438 8.43779 28.1025 7.94287 27.9743C7.80489 27.9385 7.58505 27.848 7.44315 27.897Z" fill="#010101"/>
<path d="M12.773 28.2782C12.564 28.3181 12.3611 28.3952 12.1899 28.5235C11.1049 29.3373 11.9353 31.1323 13.2727 30.8222C13.4629 30.7781 13.6453 30.6931 13.8002 30.5769C14.8511 29.7887 14.0891 28.027 12.773 28.2782ZM8.74741 29.205C8.19866 29.3097 7.73458 29.6119 7.59065 30.1771C7.37242 31.0342 8.15357 31.9658 9.08056 31.7762C9.69911 31.6497 10.1299 31.1768 10.1911 30.5587C10.2622 29.8398 9.49652 29.062 8.74741 29.205Z" fill="white"/>
<path d="M12.6631 29.5868C12.1495 29.7129 12.3908 30.5347 12.9129 30.4136C13.4969 30.2782 13.2474 29.4434 12.6631 29.5868ZM8.60977 30.5408C8.06169 30.7053 8.34412 31.5306 8.8874 31.3676C9.43548 31.2032 9.15306 30.3778 8.60977 30.5408Z" fill="#231F1F"/>
<path d="M11.1084 30.9668V30.9941H11.3305L11.1084 30.9668Z" fill="#51A5B3"/>
<path d="M11.0531 31.0039C10.859 31.041 10.6418 31.0966 10.4978 31.2402C10.0557 31.681 10.8333 31.8667 11.1641 31.8035C11.3822 31.7619 11.711 31.664 11.7934 31.431C11.9279 31.0506 11.3086 30.9552 11.0531 31.0039Z" fill="#231F1F"/>
<path d="M11.8016 31.2129C11.8016 31.7926 10.688 32.0798 10.3857 31.5672C10.0636 31.6255 9.64104 31.8603 9.50658 32.1669C9.3301 32.5693 9.71811 32.97 10.1359 32.9301C10.534 32.8921 10.832 32.5435 11.2186 32.4485C11.7526 32.3175 12.4029 32.5951 12.8843 32.2668C13.131 32.0987 13.2312 31.6755 12.9676 31.4764C12.657 31.2418 12.1793 31.2129 11.8016 31.2129Z" fill="white"/>
<path d="M11.8844 31.4043C11.8561 31.7556 11.4394 31.9162 11.1348 31.9495C10.933 31.9715 10.747 31.9983 10.5518 31.9131C10.4728 31.8787 10.414 31.7792 10.3297 31.7677C10.0922 31.7354 9.70775 32.0746 9.64489 32.2766C9.53123 32.6417 9.92907 32.7715 10.2187 32.7399C10.5835 32.7001 10.9179 32.3368 11.3014 32.2584C11.7466 32.1673 12.2604 32.3671 12.6895 32.1857C12.9165 32.0897 13.0714 31.745 12.8283 31.5769C12.5698 31.3982 12.1851 31.4043 11.8844 31.4043Z" fill="#E1CBA3"/>
<path d="M16.9383 32.3129C16.1886 32.456 16.9408 33.0625 17.1003 33.3941C17.203 33.6077 17.1956 33.8501 17.253 34.0755C17.2992 34.2569 17.3873 34.5565 17.6324 34.5298C18.0779 34.4812 18.4263 33.914 18.345 33.5031C18.2117 32.8305 17.7359 32.1606 16.9383 32.3129Z" fill="#E1CBA3"/>
<path d="M11.3299 32.6035C11.376 32.7598 11.3805 32.9696 11.5012 33.0941C11.6216 33.2185 11.829 33.1339 11.8759 32.9851C11.9153 32.8604 11.8608 32.7278 11.8574 32.6035H11.3299ZM10.6914 32.9033C10.746 33.073 11.03 33.4795 11.1911 33.1487C11.2603 33.0067 11.18 32.8234 11.1356 32.6853L10.6914 32.9033Z" fill="white"/>
<path d="M7.19318 32.9844C7.01585 33.0348 6.90365 33.2397 6.82764 33.3932C6.62491 33.8027 6.40371 34.6825 6.80451 35.0514C7.07064 35.2963 7.80623 35.1981 7.91037 34.8106C7.96003 34.6259 7.678 34.1981 7.60499 34.0202C7.46844 33.6873 7.26866 33.3364 7.19318 32.9844Z" fill="#E1CBA3"/>
<path d="M6.44364 34.5937L6.4714 33.9668C6.30453 33.9668 5.6746 34.0643 5.75421 34.3211C5.81003 34.5012 6.27818 34.5809 6.44364 34.5937ZM18.4092 33.9941C18.3421 34.3068 17.954 34.5842 17.6596 34.6755C17.7523 34.7416 17.9353 34.6713 18.0483 34.6528C18.3263 34.6073 18.6228 34.5646 18.8812 34.4484C19.0876 34.3554 19.0732 34.1967 18.8812 34.1076C18.8195 34.079 18.7517 34.0607 18.6868 34.0395C18.5904 34.0079 18.5107 33.9941 18.4092 33.9941ZM12.8012 36.0929C12.7271 36.3234 12.4918 36.3382 12.2737 36.3382C11.8781 36.3382 11.3732 36.3007 10.9967 36.429C10.8687 36.4727 10.7526 36.6264 10.9134 36.7152C11.055 36.7935 11.2565 36.7743 11.4131 36.7743V36.8015C11.2146 36.8015 11.0297 36.7767 10.8579 36.8833C10.9169 37.0782 11.3994 37.1197 11.5473 36.9833C11.6479 36.8904 11.5208 36.835 11.4409 36.8288V36.8015L11.9961 36.7743V36.8015C11.7222 36.8299 11.9676 37.0287 12.1349 37.0196C12.4269 37.0037 12.3694 36.7811 12.1072 36.7743V36.747L12.7179 36.7198V36.747C12.6207 36.7495 12.5797 36.7626 12.5514 36.8561C12.7057 36.9478 12.9078 36.9143 13.0788 36.8833C13.0737 36.6923 12.8714 36.7198 12.7179 36.7198V36.6925L13.2454 36.638V36.6653C13.0568 36.7407 13.3423 36.8394 13.4398 36.8288C13.7109 36.7992 13.494 36.638 13.3287 36.638V36.6107L13.6896 36.5562C13.5307 36.9268 14.3626 36.6073 13.9117 36.5335C13.866 36.526 13.8192 36.529 13.7729 36.529C13.8777 36.4559 13.9794 36.3297 13.8793 36.2019C13.8358 36.1464 13.6901 36.0981 13.7081 36.0111C13.7396 35.8586 14.1518 35.8167 14.0089 35.575C13.948 35.4721 13.6855 35.4674 13.5786 35.4659C13.1706 35.4604 12.7248 35.4461 12.3293 35.5432C12.2033 35.5741 11.8669 35.7145 12.0563 35.893C12.1983 36.0269 12.616 36.0258 12.8012 36.0929ZM5.88839 37.1559L5.74958 37.1286V37.1014L5.83287 37.0741V37.0196C5.6928 36.9617 5.51656 36.9981 5.38867 37.0741V37.1286L5.49972 37.1559V37.1832L5.38867 37.2922H5.61077V37.3194L5.49972 37.3467V37.4012C5.65548 37.4656 5.85686 37.4314 5.99944 37.3467V37.2922L5.83287 37.2649V37.2377L5.88839 37.1559L6.30483 37.2922V37.3194C6.22603 37.3255 5.79353 37.4687 6.05497 37.5102C6.14889 37.5251 6.30163 37.5242 6.38812 37.483C6.47977 37.4393 6.49636 37.3592 6.38812 37.3467V37.3194C6.93668 37.3336 7.47323 37.3995 8.0261 37.3467C8.18459 37.3316 8.52132 37.1452 8.22043 37.0287C8.04478 36.9607 7.79606 36.9795 7.60966 36.9651C7.66417 36.7851 7.94161 36.7562 8.10938 36.747C8.58295 36.7212 9.05541 36.6203 9.52526 36.5562C9.64744 36.5396 10.136 36.5049 10.136 36.3382C10.136 36.2258 9.96791 36.213 9.88617 36.1973C9.62823 36.1481 9.37257 36.1474 9.10883 36.1474C8.64056 36.1474 8.23251 36.3835 7.804 36.5472C7.40653 36.6989 6.97045 36.7381 6.55469 36.8061C6.31467 36.8454 5.88839 36.8489 5.88839 37.1559Z" fill="#231F1F"/>
<path d="M13.6892 36.5273V36.5546H13.7725L13.6892 36.5273Z" fill="white"/>
<path d="M6.4707 37.5089V37.5361C6.67588 37.6845 7.04014 37.6324 7.24805 37.5089C7.18009 37.2844 6.61707 37.3954 6.4707 37.5089ZM8.02539 37.4544C7.85682 37.3716 7.64173 37.4092 7.47015 37.4771C7.41473 37.499 7.25998 37.5542 7.31745 37.6406C7.43147 37.812 7.98061 37.6062 8.02539 37.4544Z" fill="#231F1F"/>
</g>
</g>
<rect x="0.5" y="0.5" width="59" height="59" rx="7.5" stroke="white" stroke-opacity="0.2"/>
<defs>
<clipPath id="clip0_1322_49208">
<rect width="60" height="60" rx="8" fill="white"/>
</clipPath>
<clipPath id="clip1_1322_49208">
<rect width="50" height="16" fill="white" transform="translate(5 22)"/>
</clipPath>
</defs>
</svg>
