<svg width="60" height="60" viewBox="0 0 60 60" fill="none" xmlns="http://www.w3.org/2000/svg">
<g clip-path="url(#clip0_1322_38383)">
<rect width="60" height="60" rx="8" fill="#161616"/>
<rect width="60" height="60" fill="#161616"/>
<g clip-path="url(#clip1_1322_38383)">
<path d="M53.8873 30.8094C54.3605 30.7324 54.8064 30.5471 55.1857 30.2698C55.3587 30.0994 55.4911 29.8962 55.5741 29.6738C55.6572 29.4515 55.6889 29.215 55.6672 28.9802C55.6686 28.5936 55.5554 28.2143 55.3405 27.8849C55.1843 27.6342 54.9641 27.4242 54.6998 27.2739C54.4355 27.1236 54.1355 27.0378 53.8271 27.0243H53.5147L52.7838 27H49.4761C49.2754 27 49.1895 27.0782 49.1895 27.2698V32.7248C49.1895 32.9137 49.2726 32.9946 49.4761 32.9946H50.336C50.5366 32.9946 50.6226 32.9164 50.6226 32.7248V30.9173H51.6745C51.9058 30.9286 52.1257 31.0154 52.2965 31.1628L53.9647 32.741C54.1167 32.8874 54.3209 32.9758 54.5379 32.9892H55.8192C56.0198 32.9892 56.0685 32.8786 55.9281 32.7437L53.8873 30.8094ZM53.6694 29.6493H50.6169V28.2734H53.6694C53.8191 28.2907 53.9567 28.3595 54.0557 28.4666C54.1546 28.5737 54.208 28.7115 54.2054 28.8534V29.0665C54.2081 29.2088 54.1548 29.3469 54.0559 29.4544C53.957 29.562 53.8194 29.6314 53.6694 29.6493Z" fill="#D50C2D"/>
<path d="M47.8531 31.7266H43.1152V30.6016H46.8958C47.0964 30.6016 47.1824 30.5234 47.1824 30.3318V29.6763C47.1824 29.4874 47.0993 29.4065 46.8958 29.4065H43.1123V28.2842H47.8531C48.0538 28.2842 48.1398 28.2059 48.1398 28.0144V27.2698C48.1398 27.0809 48.0566 27 47.8531 27H41.9429C41.7422 27 41.6562 27.0782 41.6562 27.2698V32.7302C41.6562 32.9191 41.7394 33 41.9429 33H47.8531C48.0538 33 48.1398 32.9218 48.1398 32.7302V31.9937C48.1398 31.8049 48.0452 31.7266 47.8531 31.7266Z" fill="#D50C2D"/>
<path d="M40.6113 28.9694C40.6175 28.5877 40.5049 28.2125 40.2874 27.8903C40.1301 27.6334 39.9073 27.4174 39.639 27.262C39.3708 27.1065 39.0656 27.0165 38.751 27H34.4058C34.2023 27 34.1191 27.0782 34.1191 27.2698V32.7248C34.1191 32.9137 34.2023 32.9946 34.4058 32.9946H35.3402C35.5408 32.9946 35.6268 32.9191 35.6268 32.7248V28.2761H38.1434C38.6794 28.2761 39.201 28.6106 39.201 29.1151V32.7302C39.201 32.9191 39.2842 33 39.4877 33H40.3332C40.5367 33 40.6199 32.9218 40.6199 32.7302L40.6113 28.9694Z" fill="#D50C2D"/>
<path d="M32.7971 31.6915H28.7127L32.8057 28.3058C32.8878 28.2466 32.9558 28.1718 33.0052 28.0863C33.0545 28.0008 33.0842 27.9064 33.0923 27.8094V27.2698C33.0923 27.0809 33.0063 27 32.8057 27H26.8811C26.6805 27 26.5945 27.0782 26.5945 27.2698V28.0171C26.5945 28.2059 26.6776 28.2869 26.8811 28.2869H30.6789L26.8696 31.6511C26.7882 31.7108 26.7207 31.7857 26.6713 31.8712C26.622 31.9566 26.5919 32.0506 26.583 32.1475V32.7329C26.583 32.9218 26.6661 33.0027 26.8696 33.0027H32.7885C32.9891 33.0027 33.0751 32.9245 33.0751 32.7329V31.9586C33.0809 31.7698 32.9977 31.6915 32.7971 31.6915Z" fill="#D50C2D"/>
<path d="M25.2651 27H19.3491C19.1456 27 19.0625 27.0755 19.0625 27.2698V28.0144C19.0625 28.2032 19.1428 28.2842 19.3491 28.2842H21.5791V32.7302C21.5791 32.9191 21.6622 33 21.8657 33H22.8116C23.0122 33 23.0982 32.9218 23.0982 32.7302V28.2815H25.268C25.4686 28.2815 25.5546 28.2032 25.5546 28.0117V27.2698C25.5489 27.0863 25.4658 27 25.2651 27Z" fill="#D50C2D"/>
<path d="M17.7323 31.7266H13.0029V30.6016H16.7836C16.9842 30.6016 17.0702 30.5234 17.0702 30.3318V29.6763C17.0702 29.4874 16.9899 29.4065 16.7836 29.4065H13.0029V28.2842H17.7323C17.9329 28.2842 18.0189 28.2059 18.0189 28.0144V27.2698C18.0189 27.0809 17.9358 27 17.7323 27H11.8335C11.6329 27 11.5469 27.0782 11.5469 27.2698V32.7302C11.5469 32.9191 11.63 33 11.8335 33H17.7323C17.9329 33 18.0189 32.9218 18.0189 32.7302V31.9937C18.0161 31.8049 17.9329 31.7266 17.7323 31.7266Z" fill="#D50C2D"/>
<path d="M10.1998 27H9.30835C9.10771 27 9.02172 27.0782 9.02172 27.2698V29.393H5.4704V27.2698C5.4704 27.0809 5.38728 27 5.18377 27H4.28663C4.08312 27 4 27.0782 4 27.2698V32.7329C4 32.9245 4.08312 33.0027 4.28663 33.0027H5.18377C5.38441 33.0027 5.4704 32.9272 5.4704 32.7329V30.5746H9.02458V32.7329C9.02458 32.9218 9.10771 33.0027 9.31121 33.0027H10.2026C10.4033 33.0027 10.4893 32.9245 10.4893 32.7329V27.2698C10.4835 27.0863 10.4004 27 10.1998 27Z" fill="#D50C2D"/>
</g>
</g>
<rect x="0.5" y="0.5" width="59" height="59" rx="7.5" stroke="white" stroke-opacity="0.2"/>
<defs>
<clipPath id="clip0_1322_38383">
<rect width="60" height="60" rx="8" fill="white"/>
</clipPath>
<clipPath id="clip1_1322_38383">
<rect width="52" height="6" fill="white" transform="translate(4 27)"/>
</clipPath>
</defs>
</svg>
