<svg width="60" height="60" viewBox="0 0 60 60" fill="none" xmlns="http://www.w3.org/2000/svg">
<g clip-path="url(#clip0_1322_49707)">
<rect width="60" height="60" rx="8" fill="#161616"/>
<rect width="60" height="60" fill="#161616"/>
<path d="M24.5361 45.5689C23.7679 45.5689 23.0425 45.2276 22.5517 44.6088L15.0837 35.3269C14.5929 34.7081 14.4009 33.9187 14.5929 33.1504L17.2601 21.5641C17.4308 20.7959 17.9429 20.1771 18.6471 19.8358L29.4439 14.6719C29.7853 14.5014 30.1694 14.416 30.5535 14.416C30.9376 14.416 31.3216 14.5013 31.663 14.6721L42.4599 19.8145C43.164 20.1558 43.6762 20.7746 43.8468 21.5428L46.514 33.1291C46.6848 33.8973 46.514 34.6868 46.0233 35.3056L38.5551 44.5874C38.0643 45.1848 37.3389 45.5476 36.5707 45.5476L24.5364 45.5689H24.5361Z" fill="#326DE6"/>
<path d="M30.5319 14.9502C30.8308 14.9502 31.1295 15.0141 31.4068 15.1422L42.2037 20.2846C42.7585 20.5619 43.1852 21.0741 43.3133 21.6716L45.9804 33.2578C46.1298 33.8767 45.9804 34.5168 45.575 35.0075L38.1069 44.2895C37.7228 44.7802 37.1253 45.0575 36.5066 45.0575H24.5361C23.9173 45.0575 23.3199 44.7802 22.9358 44.2895L15.4677 35.0075C15.0836 34.5168 14.9341 33.8767 15.0623 33.2578L17.7295 21.6716C17.8788 21.0527 18.2842 20.5406 18.839 20.2846L29.636 15.121C29.9134 15.0143 30.2334 14.9503 30.5321 14.9503L30.5319 14.9502ZM30.5319 13.9473C30.0839 13.9473 29.6359 14.054 29.209 14.246L18.4122 19.4098C17.5587 19.8152 16.9613 20.5619 16.7478 21.4795L14.0807 33.0659C13.8674 33.9834 14.0807 34.9222 14.6782 35.6691L22.1463 44.951C22.7225 45.6764 23.5973 46.0818 24.5148 46.0818H36.4852C37.4027 46.0818 38.2776 45.6764 38.8536 44.951L46.3219 35.669C46.9193 34.9436 47.1327 33.9834 46.9193 33.0657L44.2521 21.4795C44.0388 20.5619 43.4413 19.8152 42.5878 19.4098L31.8336 14.2458C31.4282 14.054 30.9801 13.9473 30.5319 13.9473Z" fill="white"/>
<path d="M41.3507 32.339C41.3293 32.339 41.3293 32.339 41.3507 32.339H41.3294C41.308 32.339 41.2867 32.339 41.2867 32.3176C41.2441 32.3176 41.2015 32.2963 41.1587 32.2963C41.0093 32.275 40.8813 32.2537 40.7533 32.2537C40.6892 32.2537 40.6252 32.2537 40.5399 32.2322H40.5185C40.0705 32.1896 39.7077 32.147 39.3663 32.0403C39.2169 31.9762 39.1743 31.8909 39.1315 31.8055C39.1315 31.7842 39.1102 31.7842 39.1102 31.7629L38.8328 31.6776C38.9639 30.6739 38.9133 29.6547 38.6835 28.6688C38.4505 27.6748 38.0462 26.7289 37.4886 25.8736L37.702 25.6817V25.639C37.702 25.5323 37.7233 25.4256 37.8086 25.3189C38.0646 25.0841 38.3848 24.8922 38.7689 24.6574C38.8328 24.6148 38.8968 24.5935 38.9609 24.5507C39.0889 24.4867 39.1956 24.4228 39.3236 24.3374C39.3449 24.3161 39.3876 24.2948 39.4303 24.2521C39.4517 24.2307 39.473 24.2307 39.473 24.2094C39.7717 23.9533 39.8358 23.5266 39.6223 23.2491C39.5156 23.0997 39.3236 23.0145 39.1315 23.0145C38.961 23.0145 38.8115 23.0784 38.6622 23.1851L38.6195 23.2278C38.5769 23.2491 38.5555 23.2918 38.5128 23.3132C38.4061 23.4199 38.3207 23.5051 38.2354 23.6119C38.1928 23.6545 38.1502 23.7186 38.0861 23.7612C37.7873 24.0813 37.5099 24.3374 37.2325 24.5294C37.1686 24.572 37.1046 24.5935 37.0405 24.5935C36.9979 24.5935 36.9551 24.5935 36.9125 24.572H36.8699L36.6137 24.7428C36.3363 24.4441 36.0376 24.1881 35.7389 23.932C34.4527 22.9266 32.9048 22.3119 31.2793 22.1609L31.258 21.8835L31.2154 21.8409C31.1513 21.7768 31.066 21.7128 31.0446 21.5635C31.0233 21.222 31.066 20.838 31.1086 20.4112V20.3899C31.1086 20.3258 31.13 20.2406 31.1513 20.1765C31.1726 20.0486 31.1939 19.9204 31.2154 19.7711V19.5791C31.2154 19.195 30.9165 18.875 30.5539 18.875C30.3831 18.875 30.2124 18.9603 30.0844 19.0883C29.9565 19.2163 29.8924 19.387 29.8924 19.5791V19.7498C29.8924 19.8991 29.9137 20.0271 29.9564 20.1552C29.9777 20.2193 29.9777 20.2832 29.999 20.3686V20.3899C30.0416 20.8166 30.1057 21.2007 30.0631 21.5422C30.0418 21.6915 29.9564 21.7555 29.8924 21.8196L29.8498 21.8622L29.8283 22.1396C29.4443 22.1822 29.0602 22.2248 28.6761 22.3102C27.0331 22.673 25.5822 23.5053 24.4513 24.7L24.2379 24.5507H24.1953C24.1526 24.5507 24.1099 24.572 24.0673 24.572C24.0032 24.572 23.9392 24.5507 23.8751 24.5081C23.5978 24.3161 23.3204 24.0386 23.0217 23.7186C22.9791 23.6759 22.9364 23.6119 22.8723 23.5692C22.787 23.4625 22.7016 23.3771 22.5948 23.2705C22.5735 23.2491 22.5309 23.2279 22.4883 23.1851C22.4669 23.1638 22.4456 23.1638 22.4456 23.1425C22.3134 23.0333 22.1476 22.973 21.9761 22.9717C21.784 22.9717 21.592 23.0571 21.4853 23.2064C21.2719 23.4838 21.336 23.9105 21.6347 24.1666C21.656 24.1666 21.656 24.1881 21.6773 24.1881C21.7199 24.2094 21.7414 24.252 21.784 24.2733C21.9121 24.3586 22.0188 24.4227 22.1468 24.4867C22.2109 24.5081 22.2748 24.5507 22.3389 24.5935C22.7229 24.8281 23.043 25.0202 23.2991 25.2549C23.4058 25.3615 23.4058 25.4682 23.4058 25.5749V25.6176L23.6191 25.8097C23.5764 25.8736 23.5338 25.9164 23.5124 25.9803C22.4455 27.6661 22.0401 29.6505 22.3175 31.6135L22.0401 31.6988C22.0401 31.7203 22.0188 31.7203 22.0188 31.7414C21.9761 31.8268 21.9121 31.9122 21.784 31.9762C21.464 32.0829 21.0799 32.1257 20.6319 32.1683H20.6104C20.5465 32.1683 20.4611 32.1683 20.3971 32.1896C20.2691 32.1896 20.1411 32.2109 19.9917 32.2322C19.9491 32.2322 19.9065 32.2537 19.8637 32.2537C19.8424 32.2537 19.8211 32.2537 19.7996 32.275C19.4155 32.3603 19.1808 32.723 19.2449 33.0644C19.309 33.3632 19.5863 33.5553 19.9277 33.5553C19.9917 33.5553 20.0344 33.5553 20.0984 33.5339C20.1198 33.5339 20.1411 33.5339 20.1411 33.5125C20.1837 33.5125 20.2264 33.4912 20.269 33.4912C20.4185 33.4486 20.5252 33.406 20.6532 33.3419C20.7172 33.3206 20.7811 33.2778 20.8452 33.2566H20.8665C21.2719 33.1071 21.6347 32.9791 21.9761 32.9365H22.0188C22.1468 32.9365 22.2322 33.0004 22.2961 33.0432C22.3175 33.0432 22.3175 33.0645 22.3388 33.0645L22.6376 33.0219C23.1497 34.6007 24.1312 36.0091 25.4328 37.0333C25.7315 37.2679 26.0302 37.46 26.3503 37.6521L26.2223 37.9294C26.2223 37.9508 26.2436 37.9508 26.2436 37.972C26.2863 38.0574 26.3289 38.1641 26.2863 38.3135C26.1584 38.6336 25.9663 38.9536 25.7315 39.3164V39.3377C25.6889 39.4018 25.6462 39.4444 25.6036 39.5084C25.5182 39.6151 25.4541 39.7218 25.3687 39.8498C25.3474 39.8712 25.3261 39.9138 25.3048 39.9566C25.3048 39.9779 25.2835 39.9992 25.2835 39.9992C25.1128 40.362 25.2408 40.7674 25.5609 40.9167C25.6461 40.9593 25.7315 40.9808 25.8169 40.9808C26.073 40.9808 26.329 40.81 26.4571 40.5753C26.4571 40.5539 26.4784 40.5326 26.4784 40.5326C26.4997 40.49 26.521 40.4474 26.5423 40.4259C26.6064 40.2766 26.6277 40.1698 26.6704 40.0418L26.7344 39.8498C26.8838 39.4231 26.9905 39.0817 27.1825 38.783C27.2677 38.6549 27.3746 38.6336 27.4599 38.5909C27.4812 38.5909 27.4812 38.5909 27.5025 38.5695L27.652 38.2922C28.5908 38.6549 29.6151 38.8469 30.6392 38.8469C31.258 38.8469 31.8981 38.783 32.4957 38.6336C32.8717 38.5495 33.2422 38.4426 33.6052 38.3135L33.7331 38.5482C33.7545 38.5482 33.7545 38.5482 33.7758 38.5695C33.8825 38.5909 33.9678 38.6336 34.0532 38.7616C34.2239 39.0603 34.3519 39.4231 34.5013 39.8285V39.8498L34.5653 40.0418C34.608 40.1698 34.6293 40.2979 34.6932 40.4259C34.7147 40.4685 34.736 40.49 34.7573 40.5326C34.7573 40.5539 34.7788 40.5753 34.7788 40.5753C34.9067 40.8313 35.1627 40.9808 35.4188 40.9808C35.5042 40.9808 35.5896 40.9593 35.6748 40.9167C35.8242 40.8314 35.9522 40.7033 35.995 40.5326C36.0376 40.362 36.0376 40.1699 35.9523 39.9992C35.9523 39.9779 35.9309 39.9779 35.9309 39.9566C35.9096 39.9139 35.8883 39.8713 35.8669 39.8498C35.8029 39.7218 35.7176 39.6151 35.6322 39.5084C35.5896 39.4444 35.5469 39.4018 35.5043 39.3378V39.3164C35.2694 38.9536 35.056 38.6336 34.9494 38.3135C34.9068 38.1641 34.9494 38.0789 34.9707 37.9722C34.9707 37.9508 34.9921 37.9508 34.9921 37.9295L34.8853 37.6735C36.0163 37.012 36.9765 36.073 37.702 34.9209C38.0861 34.3234 38.3848 33.6619 38.5981 33.0004L38.8541 33.0431C38.8756 33.0431 38.8756 33.0217 38.8968 33.0217C38.9822 32.9791 39.0463 32.9152 39.1743 32.9152H39.2169C39.5584 32.9578 39.921 33.0857 40.3266 33.2352H40.3479C40.4118 33.2565 40.4758 33.2991 40.5399 33.3204C40.6679 33.3845 40.7746 33.4271 40.9239 33.4699C40.9666 33.4699 41.0092 33.4912 41.052 33.4912C41.0733 33.4912 41.0946 33.4912 41.1159 33.5125C41.18 33.5339 41.2226 33.5339 41.2867 33.5339C41.6067 33.5339 41.8841 33.3206 41.9695 33.0432C41.9695 32.7871 41.7348 32.4457 41.3507 32.3391V32.339ZM31.4713 31.2934L30.5324 31.7416L29.5936 31.2934L29.359 30.2906L29.999 29.4798H31.0446L31.6847 30.2906L31.4714 31.2934H31.4713ZM37.0405 29.0744C37.2061 29.78 37.2565 30.5077 37.1899 31.2293L33.9252 30.2906C33.6265 30.2053 33.4558 29.9065 33.5198 29.6078C33.5411 29.5224 33.5839 29.437 33.6478 29.3731L36.2297 27.0472C36.5924 27.6447 36.8697 28.3277 37.0405 29.0744ZM35.2055 25.767L32.4103 27.7515C32.1755 27.9008 31.8554 27.858 31.6634 27.6234C31.5995 27.5593 31.5781 27.4739 31.5567 27.3887L31.3647 23.9105C32.8179 24.0779 34.1716 24.7322 35.2055 25.767ZM29.0175 24.0171C29.2523 23.9745 29.4656 23.9319 29.7003 23.8892L29.5083 27.3032C29.487 27.6018 29.2523 27.8579 28.9321 27.8579C28.8469 27.8579 28.7402 27.8366 28.6761 27.794L25.8382 25.767C26.7131 24.8922 27.8013 24.2945 29.0175 24.0171ZM24.814 27.0471L27.3531 29.3089C27.5879 29.501 27.6092 29.8636 27.4172 30.0984C27.3531 30.1836 27.2679 30.2477 27.1612 30.2692L23.8538 31.2293C23.7258 29.7784 24.0458 28.3061 24.814 27.0471ZM24.2378 32.8296L27.6306 32.2534C27.908 32.2321 28.1641 32.4242 28.228 32.7016C28.2494 32.8295 28.2494 32.9363 28.2067 33.0431L26.9051 36.1796C25.7102 35.4114 24.7499 34.2378 24.2378 32.8296ZM32.0262 37.0758C31.5354 37.1825 31.0446 37.2465 30.5324 37.2465C29.7857 37.2465 29.0602 37.1186 28.3775 36.9051L30.0631 33.8539C30.2338 33.6618 30.5111 33.5765 30.7459 33.7045C30.8455 33.7656 30.9324 33.8452 31.0019 33.9391L32.6449 36.9051C32.4529 36.9691 32.2395 37.0119 32.026 37.0758H32.0262ZM36.187 34.1099C35.6535 34.9634 34.9493 35.6462 34.1386 36.1796L32.7944 32.9575C32.7303 32.7016 32.837 32.4242 33.0931 32.2961C33.1783 32.2534 33.285 32.2321 33.3917 32.2321L36.8058 32.8083C36.6778 33.2777 36.4643 33.7045 36.187 34.1099Z" fill="white"/>
</g>
<rect x="0.5" y="0.5" width="59" height="59" rx="7.5" stroke="white" stroke-opacity="0.2"/>
<defs>
<clipPath id="clip0_1322_49707">
<rect width="60" height="60" rx="8" fill="white"/>
</clipPath>
</defs>
</svg>
