<svg width="22" height="22" viewBox="0 0 22 22" fill="none" xmlns="http://www.w3.org/2000/svg">
<path d="M6.04156 0.910547C6.62164 0.330469 7.40797 0.00390625 8.22867 0.00390625H13.7716C14.5923 0.00390625 15.3787 0.330469 15.9588 0.910547L21.0892 6.04102C21.6693 6.62109 21.9959 7.40742 21.9959 8.22812V13.7711C21.9959 14.5918 21.6693 15.3781 21.0892 15.9582L15.9588 21.0887C15.3787 21.6687 14.5923 21.9953 13.7716 21.9953H8.22867C7.40797 21.9953 6.62164 21.6687 6.04156 21.0887L0.911096 15.9582C0.331018 15.3781 0.00445557 14.5918 0.00445557 13.7711V8.22812C0.00445557 7.40742 0.331018 6.62109 0.911096 6.04102L6.04156 0.910547ZM11.0002 5.49961C10.4287 5.49961 9.96891 5.95937 9.96891 6.53086V11.3434C9.96891 11.9148 10.4287 12.3746 11.0002 12.3746C11.5716 12.3746 12.0314 11.9148 12.0314 11.3434V6.53086C12.0314 5.95937 11.5716 5.49961 11.0002 5.49961ZM12.3752 15.1246C12.3752 14.7599 12.2303 14.4102 11.9724 14.1523C11.7146 13.8945 11.3648 13.7496 11.0002 13.7496C10.6355 13.7496 10.2857 13.8945 10.0279 14.1523C9.77002 14.4102 9.62516 14.7599 9.62516 15.1246C9.62516 15.4893 9.77002 15.839 10.0279 16.0969C10.2857 16.3547 10.6355 16.4996 11.0002 16.4996C11.3648 16.4996 11.7146 16.3547 11.9724 16.0969C12.2303 15.839 12.3752 15.4893 12.3752 15.1246Z" fill="#F04A4A"/>
</svg>
