<svg width="26" height="22" viewBox="0 0 26 22" fill="none" xmlns="http://www.w3.org/2000/svg">
<g clip-path="url(#clip0_228_7668)">
<path d="M0 1.03125C0 0.459766 0.482986 0 1.08333 0H3.13715C4.35139 0 5.3941 0.820703 5.61979 1.95508L7.94896 13.5996C8.04826 14.0852 8.49514 14.4375 9.01424 14.4375H22.0278C22.6281 14.4375 23.1111 14.8973 23.1111 15.4688C23.1111 16.0402 22.6281 16.5 22.0278 16.5H9.01424C7.45243 16.5 6.11181 15.443 5.82292 13.9863L3.49375 2.3418C3.46215 2.17852 3.31319 2.0625 3.13715 2.0625H1.08333C0.482986 2.0625 0 1.60273 0 1.03125ZM5.77778 19.9375C5.77778 19.6666 5.83382 19.3984 5.94271 19.1482C6.05159 18.898 6.21119 18.6706 6.41238 18.4791C6.61357 18.2876 6.85242 18.1356 7.1153 18.032C7.37817 17.9283 7.65991 17.875 7.94444 17.875C8.22898 17.875 8.51072 17.9283 8.77359 18.032C9.03646 18.1356 9.27532 18.2876 9.47651 18.4791C9.6777 18.6706 9.8373 18.898 9.94618 19.1482C10.0551 19.3984 10.1111 19.6666 10.1111 19.9375C10.1111 20.2084 10.0551 20.4766 9.94618 20.7268C9.8373 20.977 9.6777 21.2044 9.47651 21.3959C9.27532 21.5874 9.03646 21.7394 8.77359 21.843C8.51072 21.9467 8.22898 22 7.94444 22C7.65991 22 7.37817 21.9467 7.1153 21.843C6.85242 21.7394 6.61357 21.5874 6.41238 21.3959C6.21119 21.2044 6.05159 20.977 5.94271 20.7268C5.83382 20.4766 5.77778 20.2084 5.77778 19.9375ZM20.9444 17.875C21.5191 17.875 22.0702 18.0923 22.4765 18.4791C22.8828 18.8659 23.1111 19.3905 23.1111 19.9375C23.1111 20.4845 22.8828 21.0091 22.4765 21.3959C22.0702 21.7827 21.5191 22 20.9444 22C20.3698 22 19.8187 21.7827 19.4124 21.3959C19.0061 21.0091 18.7778 20.4845 18.7778 19.9375C18.7778 19.3905 19.0061 18.8659 19.4124 18.4791C19.8187 18.0923 20.3698 17.875 20.9444 17.875Z" fill="#3FFFD1"/>
<path opacity="0.4" d="M7.70517 12.375H20.7277C22.1993 12.375 23.4857 11.4383 23.8649 10.0848L25.7156 3.54063C26.027 2.44922 25.1604 1.375 23.9732 1.375H5.42114C5.51142 1.55547 5.57913 1.75313 5.61975 1.95508L7.70517 12.375Z" fill="#3FFFD1"/>
</g>
<defs>
<clipPath id="clip0_228_7668">
<rect width="26" height="22" fill="white"/>
</clipPath>
</defs>
</svg>
