<svg width="26" height="22" viewBox="0 0 26 22" fill="none" xmlns="http://www.w3.org/2000/svg">
<g clip-path="url(#clip0_228_7648)">
<path d="M12.0478 0.34046C12.5534 -0.113161 13.4065 -0.113161 13.9527 0.34046L25.5082 9.96469C26.1086 10.4674 26.1673 11.3354 25.6436 11.9069C25.1155 12.4784 24.2037 12.5342 23.6034 12.0358L13.0002 3.20226L2.39576 12.0358C1.79541 12.5342 0.883155 12.4784 0.357648 11.9069C-0.167678 11.3354 -0.106831 10.4674 0.493606 9.96469L12.0478 0.34046Z" fill="#7FFE53"/>
<path opacity="0.4" d="M13.0001 3.20215L23.1157 11.6275L23.1338 20.2771C23.1383 21.2267 22.3303 22.0001 21.3282 22.0001H17.6945C16.697 22.0001 15.889 21.231 15.889 20.2814V16.4872C15.889 15.7267 15.2435 15.1122 14.4445 15.1122H11.5557C10.7567 15.1122 10.1112 15.7267 10.1112 16.4872V20.2814C10.1112 21.231 9.30323 22.0001 8.30566 22.0001H4.69906C3.66086 22.0001 2.89305 21.231 2.8926 20.2814L2.88989 11.6232L13.0001 3.20215Z" fill="#7FFE53"/>
</g>
<defs>
<clipPath id="clip0_228_7648">
<rect width="26" height="22" fill="white"/>
</clipPath>
</defs>
</svg>
