<svg width="20" height="18" viewBox="0 0 20 18" fill="none" xmlns="http://www.w3.org/2000/svg">
<path d="M18.0898 0.25H1.83985C0.839457 0.25 0 1.08945 0 2.125V15.875C0 16.9105 0.839453 17.75 1.83984 17.75H18.0898C19.1254 17.75 19.9648 16.9105 19.9648 15.875V2.125C19.9648 1.08945 19.1602 0.25 18.0898 0.25ZM4.33985 14.9375C4.33985 15.1101 4.19993 15.25 4.02735 15.25H2.15235C1.97977 15.25 1.83985 15.1101 1.83985 14.9375V13.0625C1.83985 12.8899 1.97977 12.75 2.15235 12.75H3.99219C4.16477 12.75 4.30469 12.8899 4.30469 13.0625L4.33985 14.9375ZM4.33985 9.9375C4.33985 10.1101 4.19993 10.25 4.02735 10.25H2.15235C1.97977 10.25 1.83985 10.1101 1.83985 9.9375V8.0625C1.83985 7.88992 1.97977 7.75 2.15235 7.75H3.99219C4.16477 7.75 4.30469 7.88992 4.30469 8.0625V9.9375H4.33985ZM4.33985 4.9375C4.33985 5.11008 4.19993 5.25 4.02735 5.25H2.15235C1.97977 5.25 1.83985 5.11008 1.83985 4.9375V3.0625C1.83985 2.88992 1.97977 2.75 2.15235 2.75H3.99219C4.16477 2.75 4.30469 2.88992 4.30469 3.0625L4.33985 4.9375ZM13.7148 14.625C13.7148 14.9702 13.435 15.25 13.0898 15.25H6.83985C6.49469 15.25 6.21485 14.9702 6.21485 14.625V10.875C6.21485 10.5298 6.49469 10.25 6.83985 10.25H13.0898C13.435 10.25 13.7148 10.5298 13.7148 10.875V14.625ZM13.7148 7.125C13.7148 7.47016 13.435 7.75 13.0898 7.75H6.83985C6.49469 7.75 6.21485 7.47016 6.21485 7.125V3.375C6.21485 3.02984 6.49469 2.75 6.83985 2.75H13.0898C13.435 2.75 13.7148 3.02984 13.7148 3.375V7.125ZM18.0898 14.9375C18.0898 15.1101 17.9499 15.25 17.7773 15.25H15.9375C15.7649 15.25 15.6602 15.1101 15.6602 14.9375V13.0625C15.6602 12.8899 15.8001 12.75 15.9727 12.75H17.8125C17.9851 12.75 18.125 12.8899 18.125 13.0625V14.9375H18.0898ZM18.0898 9.9375C18.0898 10.1101 17.9499 10.25 17.7773 10.25H15.9375C15.7649 10.25 15.625 10.1101 15.625 9.9375V8.0625C15.625 7.88992 15.7649 7.75 15.9375 7.75H17.7773C17.9499 7.75 18.0898 7.88992 18.0898 8.0625V9.9375ZM18.0898 4.9375C18.0898 5.11008 17.9499 5.25 17.7773 5.25H15.9375C15.7649 5.25 15.625 5.11008 15.625 4.9375V3.0625C15.625 2.88992 15.7649 2.75 15.9023 2.75H17.7422C17.9148 2.75 18.0547 2.88992 18.0547 3.0625V4.9375H18.0898Z" fill="#FFE381"/>
</svg>
