<svg width="24" height="24" viewBox="0 0 24 24" fill="none" xmlns="http://www.w3.org/2000/svg">
<g clip-path="url(#clip0_228_7586)">
<path d="M17.4289 8.07192C17.9398 8.58286 17.9398 9.41724 17.4289 9.92817L11.4289 15.9282C10.918 16.4391 10.0836 16.4391 9.57266 15.9282L6.57266 12.9282C6.06172 12.4172 6.06172 11.5829 6.57266 11.0719C7.08359 10.561 7.91797 10.561 8.42891 11.0719L10.5008 13.1438L15.5727 8.07192C16.0836 7.56099 16.918 7.56099 17.4289 8.07192Z" fill="#FF52F8"/>
<path opacity="0.4" d="M0 12C0 5.37188 5.37188 0 12 0C18.6281 0 24 5.37188 24 12C24 18.6281 18.6281 24 12 24C5.37188 24 0 18.6281 0 12ZM17.4281 9.92813C17.9391 9.41719 17.9391 8.58281 17.4281 8.07187C16.9172 7.56094 16.0828 7.56094 15.5719 8.07187L10.5 13.1437L8.42813 11.0719C7.91719 10.5609 7.08281 10.5609 6.57187 11.0719C6.06094 11.5828 6.06094 12.4172 6.57187 12.9281L9.57187 15.9281C10.0828 16.4391 10.9172 16.4391 11.4281 15.9281L17.4281 9.92813Z" fill="#FF52F8"/>
</g>
<defs>
<clipPath id="clip0_228_7586">
<rect width="24" height="24" fill="white"/>
</clipPath>
</defs>
</svg>
