<svg width="30" height="26" viewBox="0 0 30 26" fill="none" xmlns="http://www.w3.org/2000/svg">
<path d="M22.2008 4.875H7.80078C5.59078 4.875 3.80078 6.69297 3.80078 8.9375V22.75C3.80078 24.5466 5.23178 26 7.00078 26H23.0008C24.7698 26 26.2008 24.5466 26.2008 22.75V8.9375C26.2008 6.69297 24.4158 4.875 22.2008 4.875ZM11.8008 21.125H8.60078V19.5H11.8008V21.125ZM10.2008 15.0312C9.09578 15.0312 8.20078 14.1223 8.20078 13C8.20078 11.8777 9.09578 10.9688 10.2008 10.9688C11.3058 10.9688 12.2008 11.8777 12.2008 13C12.2008 14.1223 11.3058 15.0312 10.2008 15.0312ZM16.6008 21.125H13.4008V19.5H16.6008V21.125ZM21.4008 21.125H18.2008V19.5H21.4008V21.125ZM19.8008 15.0312C18.6948 15.0312 17.8008 14.1233 17.8008 13C17.8008 11.8767 18.6958 10.9688 19.8008 10.9688C20.9058 10.9688 21.8008 11.8777 21.8008 13C21.8008 14.1223 20.9058 15.0312 19.8008 15.0312Z" fill="#FF6099"/>
<path opacity="0.4" d="M1.06861 11.8523C0.768609 12.157 0.599609 12.5684 0.599609 13V19.5C0.599609 19.9316 0.768359 20.344 1.06836 20.6487C1.36836 20.9534 1.77461 21.125 2.19961 21.125H3.79961V11.375H2.19961C1.77461 11.375 1.36861 11.5477 1.06861 11.8523ZM28.9296 11.8523C28.6296 11.5477 28.2246 11.375 27.7996 11.375H26.1996V21.125H27.7996C28.2246 21.125 28.6306 20.9536 28.9306 20.6489C29.2306 20.3442 29.3996 19.9316 29.3996 19.5V13C29.3996 12.5684 29.2296 12.157 28.9296 11.8523ZM14.9996 0C14.1196 0 13.3996 0.730234 13.3996 1.625V4.875H16.5996V1.625C16.5996 0.730234 15.8796 0 14.9996 0ZM8.59961 21.125H11.7996V19.5H8.59961V21.125ZM13.3996 21.125H16.5996V19.5H13.3996V21.125ZM18.1996 21.125H21.3996V19.5H18.1996V21.125Z" fill="#FF6099"/>
</svg>
