<svg width="30" height="30" viewBox="0 0 30 30" fill="none" xmlns="http://www.w3.org/2000/svg">
<path opacity="1" d="M27.6562 3.75C27.6562 3.37704 27.5081 3.01935 27.2444 2.75563C26.9806 2.49191 26.623 2.34375 26.25 2.34375C25.877 2.34375 25.5194 2.49191 25.2556 2.75563C24.9919 3.01935 24.8438 3.37704 24.8438 3.75C24.8438 4.12296 24.9919 4.48065 25.2556 4.74437C25.5194 5.00809 25.877 5.15625 26.25 5.15625C26.623 5.15625 26.9806 5.00809 27.2444 4.74437C27.5081 4.48065 27.6562 4.12296 27.6562 3.75ZM22.5 3.75C22.5 2.75544 22.8951 1.80161 23.5984 1.09835C24.3016 0.395088 25.2554 0 26.25 0C27.2446 0 28.1984 0.395088 28.9016 1.09835C29.6049 1.80161 30 2.75544 30 3.75C30 4.74456 29.6049 5.69839 28.9016 6.40165C28.1984 7.10491 27.2446 7.5 26.25 7.5C25.2554 7.5 24.3016 7.10491 23.5984 6.40165C22.8951 5.69839 22.5 4.74456 22.5 3.75ZM0 9.375C0 5.49023 3.14648 2.34375 7.03125 2.34375H15V1.04883C15 0.46875 15.4688 0 16.0488 0C16.2832 0 16.5059 0.0761719 16.6934 0.222656L20.2559 2.99414C20.4902 3.17578 20.625 3.45703 20.625 3.75C20.625 4.04297 20.4902 4.32422 20.2559 4.50586L16.6934 7.27734C16.5117 7.41797 16.2832 7.5 16.0488 7.5C15.4688 7.5 15 7.03125 15 6.45117V5.15625H7.03125C4.69922 5.15625 2.8125 7.04297 2.8125 9.375C2.8125 11.707 4.69922 13.5938 7.03125 13.5938H22.9688C26.8535 13.5938 30 16.7402 30 20.625C30 24.1113 27.4629 27 24.1406 27.5566C23.6074 28.9805 22.2363 30 20.625 30C18.5566 30 16.875 28.3184 16.875 26.25C16.875 24.1816 18.5566 22.5 20.625 22.5C22.1426 22.5 23.4551 23.4023 24.041 24.7031C25.8516 24.2285 27.1875 22.582 27.1875 20.625C27.1875 18.293 25.3008 16.4062 22.9688 16.4062H7.03125C3.14648 16.4062 0 13.2598 0 9.375ZM7.22461 24.8438H9.375V23.5488C9.375 22.9688 9.84375 22.5 10.4238 22.5C10.6582 22.5 10.8809 22.5762 11.0684 22.7227L14.6309 25.4941C14.8652 25.6758 15 25.957 15 26.25C15 26.543 14.8652 26.8242 14.6309 27.0059L11.0684 29.7773C10.8867 29.918 10.6582 30 10.4238 30C9.84375 30 9.375 29.5312 9.375 28.9512V27.6562H7.22461C6.66797 29.0332 5.32031 30 3.75 30C1.68164 30 0 28.3184 0 26.25C0 24.1816 1.68164 22.5 3.75 22.5C5.32617 22.5 6.67383 23.4668 7.22461 24.8438ZM5.15625 26.25C5.15625 25.877 5.00809 25.5194 4.74437 25.2556C4.48065 24.9919 4.12296 24.8438 3.75 24.8438C3.37704 24.8438 3.01935 24.9919 2.75563 25.2556C2.49191 25.5194 2.34375 25.877 2.34375 26.25C2.34375 26.623 2.49191 26.9806 2.75563 27.2444C3.01935 27.5081 3.37704 27.6562 3.75 27.6562C4.12296 27.6562 4.48065 27.5081 4.74437 27.2444C5.00809 26.9806 5.15625 26.623 5.15625 26.25ZM20.625 27.6562C20.998 27.6562 21.3556 27.5081 21.6194 27.2444C21.8831 26.9806 22.0312 26.623 22.0312 26.25C22.0312 25.877 21.8831 25.5194 21.6194 25.2556C21.3556 24.9919 20.998 24.8438 20.625 24.8438C20.252 24.8438 19.8944 24.9919 19.6306 25.2556C19.3669 25.5194 19.2188 25.877 19.2188 26.25C19.2188 26.623 19.3669 26.9806 19.6306 27.2444C19.8944 27.5081 20.252 27.6562 20.625 27.6562Z" fill="white"/>
</svg>
