<svg width="24" height="24" viewBox="0 0 24 24" fill="none" xmlns="http://www.w3.org/2000/svg">
<path d="M21 1.5C22.6547 1.5 24 2.84297 24 4.5V10.5H0V4.5C0 2.84297 1.34297 1.5 3 1.5H21ZM4.5 7.5C5.32969 7.5 6 6.82969 6 6C6 5.17031 5.32969 4.5 4.5 4.5C3.67172 4.5 3 5.17031 3 6C3 6.82969 3.67172 7.5 4.5 7.5ZM9 4.5C8.17031 4.5 7.5 5.17031 7.5 6C7.5 6.82969 8.17031 7.5 9 7.5C9.82969 7.5 10.5 6.82969 10.5 6C10.5 5.17031 9.82969 4.5 9 4.5ZM13.5 7.5C14.3297 7.5 15 6.82969 15 6C15 5.17031 14.3297 4.5 13.5 4.5C12.6703 4.5 12 5.17031 12 6C12 6.82969 12.6703 7.5 13.5 7.5Z" fill="#41B56F"/>
<path opacity="0.4" d="M10.5 6C10.5 6.82969 9.82969 7.5 9 7.5C8.17031 7.5 7.5 6.82969 7.5 6C7.5 5.17031 8.17031 4.5 9 4.5C9.82969 4.5 10.5 5.17031 10.5 6ZM24 19.5C24 21.1547 22.6547 22.5 21 22.5H3C1.34297 22.5 0 21.1547 0 19.5V10.5H24V19.5ZM12 6C12 5.17031 12.6703 4.5 13.5 4.5C14.3297 4.5 15 5.17031 15 6C15 6.82969 14.3297 7.5 13.5 7.5C12.6703 7.5 12 6.82969 12 6Z" fill="#41B56F"/>
</svg>
