<svg width="22" height="22" viewBox="0 0 22 22" fill="none" xmlns="http://www.w3.org/2000/svg">
<path d="M20.464 12.5356C21.3123 7.30875 17.7628 2.38388 12.536 1.5356C7.3091 0.687314 2.38424 4.23684 1.53595 9.46369C0.68767 14.6905 4.2372 19.6154 9.46404 20.4637C14.6909 21.312 19.6158 17.7624 20.464 12.5356Z" fill="white"/>
<path d="M17.0369 5.88072C17.1346 5.93354 17.2271 5.9964 17.329 6.0413C17.4389 6.08989 17.4225 6.04341 17.414 6.01858C17.4214 6.02862 17.4294 6.03918 17.4368 6.04975C17.4394 6.03179 17.4415 6.01753 17.4716 6.00855L17.4695 6.00327C17.4584 5.93988 17.4584 5.93988 17.5033 5.88759C17.4964 5.92826 17.5102 5.96946 17.5001 6.01013C17.4943 6.01119 17.4869 6.0133 17.4817 6.01541C17.4811 6.01541 17.4806 6.01489 17.4801 6.01489C17.4943 6.07404 17.4928 6.07985 17.4875 6.0994C17.4822 6.10045 17.4748 6.09887 17.4706 6.09623C17.47 6.0957 17.4695 6.09517 17.469 6.09464C17.4991 6.13373 17.5487 6.14429 17.5847 6.1744C17.5825 6.19764 17.5641 6.31595 17.4188 6.373C17.5894 6.51614 17.7146 6.75964 17.8884 7.09609C17.8762 7.07021 17.8762 7.07021 17.8741 7.06018C17.8757 7.06176 18.0341 7.28624 18.0331 7.40773C18.031 7.40931 18.0289 7.41195 18.0268 7.41354C17.975 7.38343 17.9819 7.31688 17.9433 7.27832C17.9412 7.28096 17.9391 7.28466 17.937 7.2873C17.9417 7.30737 17.9544 7.32427 17.957 7.3454C17.9422 7.33167 17.9422 7.33167 17.9306 7.33219C17.9322 7.36547 17.957 7.39558 17.9444 7.43044C17.9269 7.42621 17.8857 7.39241 17.9068 7.36547C17.9021 7.36177 17.8952 7.35755 17.8899 7.35491C17.881 7.36653 17.8746 7.37551 17.8995 7.43625C17.8815 7.43097 17.8741 7.43044 17.8487 7.43149C17.8482 7.43149 17.8482 7.43149 17.8477 7.43149C17.8472 7.43149 17.8472 7.43149 17.8466 7.43149C17.8461 7.43149 17.8461 7.43149 17.8456 7.43149C17.8451 7.43149 17.8451 7.43149 17.8445 7.43149C17.844 7.43149 17.844 7.43149 17.8435 7.43149C17.8429 7.43149 17.8429 7.43149 17.8424 7.43149C17.8419 7.43149 17.8419 7.43149 17.8414 7.43149C17.8408 7.43149 17.8408 7.43149 17.8403 7.43149C17.8112 7.43097 17.8065 7.42938 17.788 7.42199C17.7912 7.43889 17.8012 7.48959 17.7891 7.55668V7.5572C17.7722 7.63326 17.7315 7.57569 17.7178 7.55668C17.704 7.5366 17.6966 7.52393 17.6781 7.49329C17.6818 7.51442 17.6861 7.53555 17.6898 7.55668C17.6908 7.56143 17.6919 7.56777 17.6924 7.57199C17.6987 7.60844 17.7051 7.64488 17.7114 7.6808C17.6771 7.65545 17.6612 7.65122 17.6517 7.66443C17.6454 7.67288 17.6459 7.69876 17.6459 7.71144C17.6465 7.75369 17.6454 7.76214 17.6401 7.7801C17.5847 7.71566 17.5355 7.68186 17.4706 7.66337C17.5244 7.6602 17.5466 7.62798 17.5767 7.55615C17.6031 7.49171 17.6142 7.46847 17.647 7.44523C17.5725 7.35385 17.3427 7.44259 17.3095 7.52974C17.3311 7.53713 17.3364 7.5403 17.3591 7.55615C17.4706 7.64858 17.5376 7.83028 17.5514 7.89947C17.5699 7.99455 17.5281 7.98029 17.517 7.97131C17.4304 7.90475 17.3898 7.80228 17.3206 7.72253C17.3163 7.71777 17.3163 7.71777 17.3137 7.71777C17.3116 7.722 17.3105 7.72306 17.3089 7.7463C17.2989 7.71883 17.2931 7.7088 17.2593 7.67446C17.2197 7.63432 17.2139 7.61108 17.2287 7.55615C17.2514 7.48326 17.3771 7.12778 17.609 7.26142C17.4748 7.00155 17.5334 7.00049 17.5683 6.99996C17.638 6.99838 17.6391 6.67829 17.3813 6.4348C17.4135 6.45751 17.4516 6.47124 17.4806 6.49871C17.4648 6.47388 17.4648 6.47388 17.4098 6.40575C17.4098 6.40628 17.4104 6.40733 17.4093 6.41473C17.4014 6.42265 17.3961 6.42793 17.3602 6.41473C17.357 6.41367 17.0839 6.27581 17.2408 6.1913C17.2228 6.18391 17.1996 6.16859 17.189 6.15222C17.1415 6.07616 17.114 5.99006 17.067 5.91347C17.058 5.90344 17.0459 5.89023 17.0369 5.88072ZM7.22101 2.72531C7.24848 2.72109 7.27858 2.7063 7.35042 2.66985C7.4381 2.62548 7.45025 2.62073 7.46609 2.62443C7.46979 2.63182 7.46609 2.65031 7.40007 2.68622C7.4138 2.69362 7.43387 2.69256 7.48775 2.68147C7.52948 2.67249 7.53423 2.67196 7.55536 2.66985C7.56328 2.64291 7.56487 2.63657 7.55377 2.62178C7.53846 2.60066 7.51152 2.59749 7.49145 2.58376C7.53001 2.58217 7.60131 2.579 7.7286 2.55735C7.82949 2.54044 7.79727 2.48604 7.79674 2.48551C7.78512 2.47706 7.75713 2.47759 7.74181 2.47812C7.63934 2.48498 7.54585 2.51456 7.51838 2.52935C7.51838 2.53041 7.51786 2.53199 7.51733 2.53305C7.50307 2.53463 7.48828 2.53411 7.47455 2.53833C7.46821 2.54044 7.46768 2.54942 7.46028 2.54995C7.46768 2.55312 7.47243 2.5547 7.48933 2.55576C7.48299 2.5584 7.47613 2.56104 7.47032 2.56368C7.44391 2.55101 7.41856 2.55999 7.38369 2.59538C7.38211 2.58006 7.35887 2.56791 7.37208 2.55048C7.35993 2.55576 7.32348 2.57266 7.2939 2.56104C7.2902 2.55946 7.28439 2.56104 7.2807 2.56263C7.26538 2.57214 7.26116 2.59273 7.24373 2.60013C7.24689 2.59115 7.24689 2.59115 7.24478 2.5864C7.2321 2.58587 7.21362 2.61545 7.21837 2.62284C7.22629 2.63446 7.2321 2.62284 7.24108 2.60594C7.28017 2.61756 7.32137 2.5996 7.35993 2.61597C7.1814 2.68464 7.1814 2.68464 7.174 2.69732C7.17929 2.71369 7.22048 2.72531 7.22101 2.72531ZM4.93711 3.57887C4.99416 3.54348 5.2535 3.36548 5.25614 3.36389C5.2535 3.36653 5.2498 3.37023 5.24716 3.37287C5.27568 3.36865 5.28255 3.36759 5.3697 3.31847C5.45421 3.26459 5.57358 3.27093 5.62799 3.16635C5.60475 3.16793 5.58362 3.17797 5.56143 3.18431C5.60422 3.15948 5.64647 3.1336 5.69031 3.11036C5.67394 3.12779 5.65492 3.14205 5.63749 3.1579C5.67183 3.15314 5.75739 3.09716 5.76426 3.08871C5.75634 3.09187 5.74577 3.09768 5.73785 3.10191C5.76373 3.08659 5.79067 3.07233 5.81549 3.0549C5.80757 3.05913 5.79701 3.06494 5.78908 3.06916C5.79067 3.06494 5.79067 3.06494 5.9037 2.963C5.91638 2.96617 5.94543 2.97303 5.96128 2.93764C5.96233 2.94134 5.96392 2.94609 5.96497 2.94979C6.00617 2.96247 6.02677 2.92391 6.05846 2.91335C6.04051 2.9144 6.04051 2.9144 6.01198 2.92919C6.08435 2.88377 6.08804 2.88271 6.14614 2.87162C6.22009 2.84732 6.2671 2.78183 6.33524 2.74855C6.33154 2.74961 6.32626 2.75014 6.32256 2.75119C6.32309 2.74697 6.32361 2.74116 6.32414 2.73693C6.36904 2.70999 6.4282 2.7195 6.46992 2.68253C6.46623 2.68253 6.46147 2.682 6.45778 2.682C6.47309 2.67355 6.49105 2.67038 6.50373 2.6577C6.49317 2.6577 6.49317 2.6577 6.45355 2.66932C6.61201 2.58587 6.78631 2.54467 6.95005 2.47548C6.96114 2.47072 6.97593 2.46438 6.98649 2.45963C6.9247 2.44326 6.9247 2.44326 6.72134 2.51615C6.78314 2.42213 6.94477 2.50347 6.98174 2.3672C6.97276 2.36403 6.96061 2.36086 6.95163 2.36139C6.90674 2.3672 6.84705 2.3841 6.82117 2.39466C6.818 2.39625 6.81483 2.39783 6.81166 2.39942L6.81642 2.3973L6.81431 2.39783L6.80691 2.401C6.80638 2.40153 6.80533 2.40206 6.8048 2.40206L6.80691 2.401L6.80744 2.40047L6.80849 2.39994C6.81219 2.39836 6.81642 2.39572 6.82012 2.39413C6.74987 2.41104 6.74987 2.41104 6.67539 2.45118C6.68701 2.44114 6.68701 2.44114 6.71501 2.42371C6.69599 2.43111 6.67856 2.44167 6.65955 2.44959C6.66324 2.44748 6.66747 2.44484 6.67116 2.44273C6.66219 2.44695 6.64951 2.45276 6.64053 2.45699C6.65004 2.45171 6.66271 2.44537 6.67169 2.44061C6.64951 2.45118 6.62204 2.46544 6.59458 2.4797C6.15459 2.70735 5.73521 2.96881 5.33854 3.25931C5.11511 3.42305 4.89961 3.59683 4.69151 3.77905C4.78552 3.69824 4.96299 3.54876 5.01634 3.51548C4.99099 3.53872 4.96299 3.55774 4.93711 3.57887ZM17.0443 5.77667C17.0168 5.73494 16.9915 5.70748 16.8647 5.59339C16.7506 5.49092 16.729 5.46768 16.7189 5.43916C16.72 5.43652 16.7216 5.43335 16.7226 5.43123C16.7395 5.42754 16.7491 5.42595 16.8103 5.4455C16.794 5.39954 16.7786 5.36785 16.7052 5.30817C16.5954 5.2189 16.4559 5.17982 16.3423 5.09636C16.2256 5.01027 16.1379 4.89301 16.0223 4.80586C15.9848 4.77786 15.9298 4.74406 15.8818 4.74564C15.8691 4.74723 15.8664 4.74775 15.8543 4.75198C15.8897 4.79371 15.9457 4.80955 15.979 4.85339C15.979 4.85339 15.979 4.85392 15.9795 4.85392C16.1559 4.96643 16.5436 5.37419 16.7295 5.57015C16.8911 5.74023 16.9313 5.77984 16.9677 5.80731C16.9366 5.76664 16.9207 5.74023 16.9001 5.69533C16.9133 5.6985 16.9133 5.6985 16.9556 5.72808C16.9989 5.7566 17.0348 5.78142 17.0443 5.77667ZM8.40046 3.11459C8.4031 3.12093 8.40522 3.12621 8.43004 3.1336C8.43479 3.12938 8.44061 3.12304 8.4443 3.11776C8.44219 3.11406 8.43849 3.10931 8.43533 3.10614C8.43691 3.10138 8.44166 3.09663 8.44483 3.09293C8.50716 3.18853 8.57952 3.20649 8.66667 3.14733C8.64449 3.10244 8.60699 3.06652 8.58744 3.02004C8.64977 3.00367 8.70734 2.95243 8.72424 2.89909C8.75805 2.91493 8.79766 2.89116 8.8938 2.83465C8.99732 2.7739 9.1188 2.78869 9.22814 2.75436C9.24187 2.75014 9.25877 2.74274 9.27198 2.73746C9.19698 2.72531 9.12144 2.7195 9.04803 2.72109C9.00471 2.72373 8.98517 2.72531 8.95137 2.73535C8.92918 2.74168 8.91386 2.76123 8.89221 2.76915C8.81509 2.79556 8.73322 2.80665 8.65716 2.83623C8.67037 2.85472 8.66403 2.86106 8.61068 2.88747C8.60804 2.88852 8.36877 3.04064 8.373 3.07339C8.39201 3.08448 8.41578 3.08184 8.43374 3.0961C8.40997 3.10402 8.40574 3.10561 8.40046 3.11459ZM17.0052 7.39082C17.0063 7.39241 17.0079 7.39399 17.0089 7.39558C17.0079 7.39347 17.0068 7.39188 17.0052 7.39082C17.0052 7.3903 17.0052 7.3903 17.0052 7.39082ZM4.29008 4.86237C4.21877 4.90991 4.21877 4.90991 4.0862 5.05886C4.08567 5.05939 4.07405 5.10006 4.10944 5.10059C4.13321 5.10111 4.16384 5.0821 4.17705 5.07365C4.16279 5.08474 4.15539 5.09055 4.14535 5.09795C4.29536 5.02241 4.32547 5.05727 4.33498 5.09583C4.35399 5.03139 4.42054 5.01291 4.4591 4.96695C4.50822 4.90727 4.46333 4.91202 4.43956 4.91413C4.42635 4.91519 4.42582 4.91519 4.41949 4.91413C4.44801 4.88086 4.49026 4.83068 4.48128 4.80955C4.51773 4.82276 4.5753 4.56447 4.57425 4.5613C4.57266 4.55813 4.56844 4.55497 4.56632 4.55232C4.65031 4.51694 4.78816 4.39704 4.79292 4.35478C4.78183 4.3421 4.76439 4.35003 4.68992 4.38277C4.8114 4.29193 4.8114 4.29193 4.8431 4.26023C4.83359 4.26921 4.82091 4.28136 4.8114 4.29034C4.70576 4.36957 4.6334 4.38964 4.61386 4.39387C4.61861 4.38436 4.62548 4.37591 4.62918 4.36587C4.62759 4.36587 4.62601 4.36534 4.62442 4.36534C4.66404 4.33629 4.6915 4.31041 4.71369 4.28083C4.69626 4.28083 4.68569 4.29034 4.64978 4.32203C4.59643 4.36693 4.59643 4.36693 4.5959 4.3701C4.5621 4.39809 4.54044 4.42661 4.53622 4.4319C4.55682 4.41235 4.5753 4.39123 4.59537 4.37115C4.59537 4.37274 4.59485 4.37432 4.59485 4.37591C4.5959 4.37696 4.59749 4.37802 4.59854 4.37908C4.60435 4.37802 4.60435 4.37802 4.61175 4.3738C4.57425 4.40971 4.55417 4.44246 4.55417 4.44299C4.56474 4.44669 4.56844 4.43929 4.57636 4.4245C4.57689 4.42609 4.57741 4.42767 4.57741 4.42873C4.58428 4.42926 4.58851 4.42926 4.61228 4.41235C4.61122 4.41341 4.47019 4.53278 4.46174 4.54123C4.46227 4.54123 4.54414 4.49528 4.57266 4.47151C4.55206 4.49317 4.55206 4.49317 4.49079 4.54387C4.49554 4.53965 4.50136 4.53437 4.50611 4.53014C4.45012 4.56764 4.45012 4.56764 4.41368 4.60778C4.43005 4.59669 4.44009 4.58877 4.45699 4.57504C4.44801 4.58454 4.42318 4.60937 4.41368 4.63314C4.41896 4.63314 4.43005 4.63314 4.50083 4.565C4.44431 4.62733 4.43427 4.64 4.43216 4.66377C4.44008 4.67222 4.44061 4.67222 4.47547 4.67328C4.44537 4.69546 4.40417 4.73983 4.39466 4.76677C4.39572 4.76783 4.39677 4.76941 4.39783 4.77047C4.40047 4.76994 4.40417 4.76888 4.40681 4.76783C4.36455 4.81008 4.34818 4.82381 4.29008 4.86237ZM17.5324 5.68899C17.5329 5.68265 17.526 5.66522 17.5133 5.63881C17.5128 5.63776 17.5123 5.63617 17.5118 5.63512C17.5118 5.63617 17.5112 5.63776 17.5112 5.63829C17.5102 5.64515 17.5081 5.65783 17.5128 5.67156C17.5107 5.67051 17.5075 5.66892 17.5054 5.66786C17.5123 5.67684 17.5318 5.69955 17.5324 5.68899ZM5.32956 3.50598C5.3079 3.51232 5.28519 3.50175 5.26406 3.51073C5.23554 3.52288 5.21758 3.53608 5.18166 3.56778C5.20068 3.54823 5.20808 3.53978 5.2086 3.53239C5.19698 3.52605 5.14892 3.55351 5.08236 3.60369C5.18959 3.50809 5.20174 3.49172 5.20913 3.48115C5.20808 3.48115 5.20649 3.48168 5.20543 3.48168C5.18906 3.4933 5.16635 3.51232 5.1373 3.5382C5.14311 3.53027 5.14363 3.52922 5.14469 3.52499C5.14047 3.52394 5.13624 3.52341 5.08395 3.57094C5.08501 3.56936 5.08553 3.56778 5.08606 3.56619C5.08237 3.56566 5.07972 3.56513 5.04539 3.59049C5.04698 3.58996 5.04909 3.59049 5.05067 3.59049C5.05173 3.59524 5.04962 3.60052 5.05015 3.60528C5.0512 3.6058 5.05226 3.60633 5.05279 3.60686C5.04803 3.61003 5.04169 3.61426 5.03694 3.61795C5.0343 3.62271 5.0343 3.62324 5.0343 3.6264C5.03483 3.62693 5.03588 3.62799 5.03641 3.62852C5.03588 3.62905 4.95719 3.65915 4.95877 3.68081C4.96247 3.68239 4.96299 3.68239 4.96986 3.67975C4.85049 3.7669 4.90225 3.78064 4.90278 3.78064C4.92444 3.78592 5.00948 3.76004 5.09346 3.70827C5.11036 3.69771 5.13201 3.68345 5.14786 3.67183C5.17585 3.6507 5.19857 3.62271 5.23079 3.60686C5.2292 3.60633 5.22762 3.60528 5.22656 3.60422C5.22973 3.59524 5.23607 3.57992 5.32956 3.50598ZM17.0132 7.40033C17.0116 7.39822 17.0105 7.39663 17.0089 7.39505C17.0105 7.39716 17.0121 7.39875 17.0132 7.40033ZM4.64291 3.82025L4.64133 3.82131L4.63499 3.82712C4.65348 3.81074 4.67196 3.7949 4.69045 3.77905C4.66985 3.79648 4.65347 3.81074 4.64291 3.82025ZM10.172 2.55418C10.1715 2.55365 10.1715 2.55259 10.171 2.55206C10.2069 2.5415 10.238 2.53833 10.2983 2.53358C10.2539 2.53886 10.2444 2.54995 10.2354 2.56527C10.3014 2.58745 10.3595 2.62971 10.4298 2.64238C10.49 2.65348 10.5243 2.63076 10.5391 2.62073C10.5428 2.61809 10.5539 2.61016 10.566 2.59538C10.566 2.59485 10.5666 2.59485 10.5671 2.59432C10.5639 2.59168 10.5639 2.59168 10.5454 2.58534C10.5217 2.57636 10.5248 2.57002 10.5444 2.55523C10.4715 2.55682 10.4419 2.5415 10.4044 2.52196C10.3601 2.49872 10.3257 2.48815 10.247 2.48868C10.2185 2.48921 10.2016 2.49027 10.1741 2.49291C10.1784 2.51192 10.1794 2.53199 10.1414 2.52565C10.1688 2.53199 10.1852 2.53411 10.2116 2.53622C10.1815 2.53622 10.1636 2.53516 10.1372 2.53305C10.1435 2.53991 10.1578 2.55629 10.172 2.55418ZM12.5948 2.81352C12.5896 2.81563 12.5896 2.81563 12.5848 2.8151C12.6086 2.81827 12.6323 2.81616 12.6561 2.81933C12.738 2.82989 12.8161 2.8563 12.8985 2.86422C12.9519 2.86951 12.9894 2.86317 12.9973 2.85525C12.9889 2.83623 12.8515 2.81457 12.8499 2.81457C12.8494 2.81457 12.8494 2.81457 12.8489 2.81457C12.8489 2.81457 12.8489 2.8151 12.8494 2.8151C12.8489 2.8151 12.8489 2.8151 12.8489 2.8151C12.8146 2.81246 12.7813 2.8019 12.7475 2.79767C12.6852 2.80084 12.636 2.75225 12.5748 2.75383C12.5568 2.75542 12.5552 2.7607 12.5531 2.76598C12.5631 2.785 12.5859 2.79345 12.5948 2.81352ZM10.6342 2.66562C10.6347 2.66562 10.6347 2.66562 10.6347 2.66562H10.6352C10.7345 2.66457 10.7985 2.64186 10.8275 2.62865C10.8312 2.62707 10.836 2.62443 10.8397 2.62284C10.8048 2.59115 10.7182 2.56104 10.6648 2.5621C10.5967 2.5658 10.5872 2.63974 10.6088 2.65717C10.6205 2.66562 10.6305 2.66562 10.6342 2.66562ZM13.3031 2.84838C13.3042 2.84679 13.3047 2.84415 13.3052 2.84257C13.2345 2.7982 13.1758 2.78077 13.1019 2.78288C13.0702 2.78552 13.0496 2.78869 13.0158 2.80243C13.0248 2.80031 13.0464 2.80771 13.0882 2.82197C13.1658 2.84891 13.2825 2.88905 13.3031 2.84838ZM17.376 5.36415C17.3765 5.3631 17.3755 5.3594 17.3728 5.35465C17.3655 5.34144 17.3433 5.31345 17.3311 5.30922V5.30975C17.3327 5.31714 17.347 5.33722 17.3559 5.34884C17.3612 5.35517 17.3728 5.36838 17.376 5.36415ZM17.4563 5.51891C17.4568 5.51839 17.4574 5.51733 17.4568 5.51627C17.4552 5.51258 17.4479 5.50888 17.4415 5.50677V5.50835C17.4431 5.52261 17.4542 5.52208 17.4563 5.51891ZM17.5255 5.7698C17.525 5.76875 17.5239 5.76716 17.5234 5.76611C17.5176 5.76452 17.5176 5.76452 17.5144 5.76505C17.506 5.76769 17.5033 5.77826 17.506 5.79569C17.5054 5.79357 17.5044 5.79146 17.5033 5.78935C17.5028 5.79199 17.5028 5.79357 17.5281 5.84692C17.5392 5.839 17.5514 5.82262 17.5255 5.7698ZM17.4811 5.56645C17.4838 5.56751 17.4854 5.56539 17.4854 5.56117C17.4854 5.56117 17.4854 5.56064 17.4854 5.56011C17.479 5.55377 17.4716 5.54638 17.4685 5.54691C17.4653 5.54849 17.4753 5.56434 17.4811 5.56645ZM8.72741 2.52618C8.73111 2.52882 8.77654 2.5378 8.77706 2.5378C8.79132 2.53939 8.80506 2.53622 8.81034 2.53516C8.8114 2.52935 8.81087 2.52777 8.80558 2.52354C8.80928 2.52248 8.81404 2.52143 8.81826 2.52037C8.86105 2.5378 8.86105 2.5378 8.9482 2.5003C8.95823 2.53041 8.95823 2.53041 9.11194 2.47759C9.10983 2.48076 9.10771 2.48498 9.1056 2.48868C9.09504 2.49872 9.09451 2.49977 9.09345 2.50294C9.09662 2.504 9.10613 2.50241 9.12145 2.49819L9.1262 2.48868L9.12725 2.48604C9.13095 2.47389 9.13043 2.47231 9.12884 2.46808C9.11035 2.46016 9.1056 2.4591 9.05964 2.46333C9.06598 2.45752 9.07444 2.45065 9.08077 2.44484C9.05014 2.44431 9.0232 2.45963 8.99309 2.46122C8.99309 2.4628 8.99573 2.47495 9.02426 2.47336C9.00683 2.4797 8.98834 2.48287 8.97038 2.48815C8.95982 2.48868 8.94397 2.49027 8.87795 2.50611C8.87848 2.50822 8.87953 2.51139 8.88059 2.51351C8.86897 2.51139 8.85999 2.51086 8.84731 2.51139C8.86738 2.50505 8.87953 2.50083 8.89591 2.49343C8.87161 2.48657 8.85365 2.48445 8.82354 2.48287C8.83886 2.48076 8.86263 2.47495 8.87689 2.46967C8.89644 2.47442 8.94239 2.48604 8.94714 2.46702C8.94609 2.46544 8.94397 2.4628 8.94186 2.46227C8.92918 2.45857 8.91492 2.46122 8.90277 2.4554C8.87003 2.44062 8.8658 2.44114 8.86157 2.4422C8.85999 2.44537 8.85999 2.44537 8.86527 2.4591C8.82196 2.46702 8.78076 2.48604 8.73534 2.4834L8.72636 2.48815C8.72847 2.49396 8.72847 2.49449 8.72794 2.49766C8.7253 2.49924 8.72319 2.50083 8.70998 2.49502C8.70998 2.49977 8.70998 2.5003 8.7121 2.50664C8.71104 2.50664 8.70998 2.50717 8.70893 2.50717C8.6952 2.504 8.67935 2.50083 8.64977 2.50347C8.64924 2.51139 8.64924 2.51667 8.65083 2.52618C8.72424 2.52513 8.72424 2.52513 8.72741 2.52618ZM17.4045 5.41592C17.4014 5.41063 17.3977 5.40694 17.3961 5.40482C17.3924 5.40535 17.3956 5.41486 17.4077 5.43652C17.4098 5.43229 17.4093 5.42437 17.4045 5.41592ZM8.4068 2.51245C8.42634 2.50981 8.46332 2.50453 8.50452 2.5077C8.47864 2.51192 8.47863 2.51192 8.47599 2.51403C8.47599 2.51509 8.47705 2.51615 8.47758 2.5172C8.45909 2.52143 8.44906 2.52301 8.4348 2.52301C8.44378 2.54308 8.47018 2.54467 8.53674 2.52882C8.53198 2.53041 8.52565 2.53305 8.52142 2.53463C8.52776 2.53675 8.53357 2.53675 8.54043 2.53569C8.53462 2.54256 8.52353 2.55576 8.55205 2.55259C8.5679 2.55101 8.59378 2.54361 8.60223 2.54097C8.60382 2.54044 8.60593 2.53992 8.60751 2.53939C8.58797 2.53094 8.57001 2.52935 8.54466 2.53463C8.55417 2.53199 8.55998 2.52988 8.56948 2.52407C8.56684 2.52354 8.56368 2.52301 8.56104 2.52248C8.58163 2.5172 8.60223 2.51139 8.62336 2.50611C8.6223 2.49238 8.62019 2.46967 8.54888 2.47125C8.49818 2.47389 8.44325 2.48657 8.38515 2.50875C8.39624 2.51192 8.40205 2.51298 8.4068 2.51245ZM16.6165 18.6476C16.5848 18.6651 16.5536 18.6841 16.5214 18.701C16.617 18.635 16.617 18.635 16.6207 18.6244C16.6128 18.6265 16.6027 18.6292 16.5948 18.6307C16.4232 18.7253 16.2673 18.8473 16.0867 18.9265C15.8321 19.039 15.8321 19.039 15.764 19.0771C15.6261 19.1547 15.6124 19.1737 15.6103 19.1864C15.6731 19.2112 16.3783 18.8114 16.5663 18.682C16.5816 18.6719 16.6012 18.6582 16.6165 18.6476ZM16.5262 18.7174C16.5716 18.7142 16.9693 18.4469 17.1035 18.3349C17.1056 18.3334 17.1077 18.3312 17.1098 18.3297C17.0797 18.3397 17.0607 18.3672 17.0322 18.3798C17.0417 18.3661 17.0417 18.3661 17.2081 18.2219C17.1822 18.2415 17.1563 18.261 17.1315 18.2816C17.1431 18.271 17.1547 18.2594 17.1669 18.2489C17.0031 18.3872 16.5314 18.7137 16.5262 18.7174ZM17.4188 18.0096C17.3396 18.0751 17.2683 18.149 17.1912 18.2172C17.2012 18.2113 17.2096 18.2029 17.2191 18.1966C17.217 18.1997 17.2128 18.204 17.2091 18.2082C17.2852 18.1369 17.3607 18.0645 17.4394 17.9953C17.4331 18.0001 17.4246 18.0054 17.4188 18.0096ZM16.1881 3.63433C16.1876 3.6338 16.1865 3.6338 16.186 3.63327C16.1871 3.6338 16.1876 3.6338 16.1881 3.63433ZM16.1844 3.63222C16.1849 3.63274 16.186 3.63274 16.1865 3.63327C16.186 3.63274 16.1849 3.63222 16.1844 3.63222ZM3.95151 5.07471C3.97528 5.06467 4.10468 5.00287 4.30645 4.75673C4.32705 4.73138 4.38991 4.65426 4.34712 4.65585C4.34448 4.65585 4.34079 4.65638 4.33815 4.65691C4.25892 4.68279 4.20557 4.7504 4.13057 4.78314C4.11683 4.81853 4.10469 4.83438 4.07458 4.85286C4.08937 4.86977 4.0619 4.90199 3.99165 4.97171C3.95415 5.00815 3.84059 5.12066 3.95151 5.07471ZM15.9256 18.1253C15.9261 18.1247 15.9267 18.1247 15.9267 18.1242C15.9251 18.1258 15.923 18.1274 15.9214 18.129C15.923 18.1279 15.9246 18.1268 15.9256 18.1253ZM17.8968 16.9305C17.9016 16.9247 17.9069 16.9183 17.9116 16.912L17.9111 16.9125C17.9063 16.9183 17.9016 16.9247 17.8968 16.9305ZM17.2091 18.2087C17.1948 18.2219 17.1811 18.2351 17.1669 18.2483C17.1853 18.2319 17.1996 18.2187 17.2091 18.2087ZM15.7608 18.6598C15.7381 18.6593 15.7154 18.6556 15.6921 18.6561C15.6689 18.6571 15.6203 18.6593 15.5379 18.7121C15.4428 18.7733 15.3641 18.8552 15.2749 18.9239C15.3826 18.9049 15.3958 18.8964 15.5205 18.813C15.6388 18.7337 15.7323 18.6714 15.7545 18.6619C15.7566 18.6608 15.7592 18.6603 15.7608 18.6598ZM7.61927 8.5819C7.64779 8.58665 7.65466 8.58348 7.65624 8.58137C7.65941 8.57714 7.64779 8.57133 7.6367 8.57186C7.62614 8.57239 7.62191 8.57714 7.61927 8.5819ZM5.31001 7.05437C5.31054 7.05437 5.31054 7.05384 5.31107 7.05384L5.31001 7.05437ZM3.93144 6.49079L3.93091 6.49448C3.92827 6.50874 3.92299 6.52459 3.90609 6.57477C3.87492 6.6672 3.8221 6.82249 3.867 6.79397C3.90714 6.76809 3.98162 6.64079 4.01753 6.56315C4.0619 6.46649 4.03549 6.46755 4.02704 6.46807C4.02176 6.4686 4.00486 6.47283 3.96366 6.49607C3.93249 6.5135 3.93249 6.51191 3.93144 6.49079ZM2.86766 6.7908C2.86872 6.78974 2.86977 6.78816 2.8703 6.7871C2.86924 6.78816 2.86819 6.78974 2.86766 6.7908ZM4.0207 6.43744C4.03496 6.4179 4.07775 6.35768 4.12211 6.26578C4.13743 6.23356 4.14852 6.20715 4.15275 6.19711C4.15011 6.1987 4.14588 6.20028 4.14324 6.20134C4.08514 6.24201 4.02704 6.3487 4.02968 6.3561C4.00961 6.39835 4.00803 6.41737 4.0207 6.43744ZM17.1579 11.4067C17.1626 11.3364 17.1378 11.2936 17.123 11.2683C17.1214 11.272 17.1188 11.2762 17.1172 11.2799C17.1003 11.3185 17.0728 11.3855 17.0823 11.3998C17.0882 11.3977 17.0913 11.3961 17.1098 11.3713C17.0295 11.507 16.9413 11.6465 16.9329 11.6581L16.9218 11.6745C16.8938 11.7199 16.8795 11.7495 16.8605 11.8017C16.9778 11.741 17.1463 11.5693 17.1579 11.4067ZM17.6993 12.9749C17.704 12.9574 17.7024 12.9326 17.6998 12.9146C17.684 12.9178 17.6634 12.9226 17.6475 12.9257C17.5091 12.9537 17.3676 12.9617 17.2297 12.9949C17.1917 13.0039 17.1632 13.0219 17.1457 13.0467C17.1352 13.062 17.1283 13.0773 17.123 13.0895C17.0929 13.1581 17.0802 13.2321 17.0565 13.3029C17.0116 13.437 16.907 13.5416 16.8663 13.6784C16.8256 13.8157 16.8584 13.9584 16.8357 14.0973C16.8822 14.0825 16.9165 14.082 16.9556 14.0957C16.9561 14.092 17.0316 13.7149 17.0945 13.6531C17.123 13.6932 17.1272 13.6995 17.1119 13.8247C17.0903 14.0001 17.1843 13.9668 17.2033 13.9584C17.1954 13.9763 17.1721 14.0318 17.1795 14.0983C17.1827 14.1004 17.1869 14.1026 17.1901 14.1047C17.2456 14.0783 17.2931 13.9362 17.291 13.8834C17.2693 13.8902 17.2566 13.8976 17.2376 13.915C17.2603 13.7714 17.198 13.6362 17.1943 13.4957C17.2831 13.6087 17.3332 13.342 17.4399 13.315C17.3243 13.2939 17.2065 13.361 17.0913 13.3066C17.0459 13.2849 17.0654 13.249 17.1584 13.1819C17.2598 13.109 17.3237 13.1169 17.45 13.1328C17.5604 13.1465 17.5683 13.1386 17.6148 13.0937C17.6095 13.1011 17.6021 13.1106 17.5968 13.1175C17.6908 13.006 17.6908 13.006 17.6993 12.9749ZM17.9047 13.6652C17.8535 13.6678 17.779 13.6969 17.8403 13.7502C17.8488 13.7576 17.8588 13.764 17.8651 13.7682C17.8614 13.7708 17.8614 13.7714 17.8604 13.773C17.8609 13.773 17.8614 13.7735 17.8614 13.774C17.863 13.7735 17.8641 13.773 17.8667 13.7693C17.9554 13.8179 18.0463 13.8221 18.0732 13.7788C18.0922 13.7481 18.0658 13.7207 18.0611 13.7175C18.0621 13.7286 18.0722 13.7407 18.0775 13.7502C18.0289 13.6673 17.9253 13.6647 17.9047 13.6652ZM17.4056 11.1785C17.4051 11.178 17.4056 11.1769 17.4045 11.1764C17.4045 11.1774 17.4045 11.1785 17.4056 11.1785ZM17.4484 13.3166C17.4457 13.3145 17.4436 13.314 17.4415 13.314C17.4436 13.3145 17.4463 13.3155 17.4484 13.3166ZM17.3903 11.4236C17.4119 11.4716 17.5007 11.3919 17.5012 11.3913C17.517 11.3771 17.5255 11.3623 17.5271 11.348C17.5292 11.3269 17.5207 11.3174 17.4954 11.2883C17.4405 11.2255 17.4273 11.2065 17.4172 11.1896C17.4135 11.1912 17.4114 11.189 17.4061 11.179C17.4061 11.1801 17.4061 11.1811 17.4061 11.1822C17.4056 11.1922 17.4045 11.2007 17.3993 11.2366C17.3898 11.2936 17.375 11.3908 17.3903 11.4236ZM17.1051 14.5103L17.1505 14.523C17.1494 14.5251 17.1478 14.5283 17.1473 14.5304C17.1325 14.5346 17.1125 14.5383 17.0977 14.5415C17.1066 14.551 17.1066 14.551 17.1389 14.5637L17.1431 14.5605C17.1748 14.5515 17.2044 14.5362 17.236 14.5267C17.2339 14.5314 17.2313 14.5373 17.2292 14.542C17.2408 14.5394 17.2582 14.5378 17.2677 14.5309C17.2799 14.5219 17.2809 14.5061 17.292 14.4966C17.2942 14.495 17.2973 14.4939 17.2994 14.4929C17.2973 14.4924 17.2947 14.4913 17.2926 14.4902C17.292 14.4902 17.292 14.4902 17.2915 14.4902C17.2772 14.4881 17.264 14.4961 17.2498 14.4918C17.2191 14.495 17.2044 14.4976 17.1864 14.5034C17.151 14.4633 17.1003 14.5013 17.0998 14.5019C17.0095 14.4755 16.8668 14.4865 16.7934 14.5003C16.7454 14.5093 16.7042 14.5399 16.655 14.5473C16.6191 14.5526 16.5853 14.5383 16.5499 14.5351C16.5584 14.5473 16.5637 14.5531 16.5795 14.5589C16.5494 14.5811 16.5362 14.5642 16.513 14.5336C16.4575 14.5325 16.4353 14.542 16.4205 14.5478C16.4031 14.4939 16.3756 14.4807 16.3629 14.4818C16.3128 14.4976 16.3466 14.5409 16.3973 14.6059L16.4004 14.6043C16.4823 14.627 16.5642 14.589 16.6461 14.6033C16.6218 14.542 16.9318 14.5763 16.935 14.5774C16.9334 14.5795 16.9313 14.5827 16.9297 14.5853C16.9894 14.561 17.0438 14.5272 17.1051 14.5103ZM15.5691 14.4237C15.5701 14.4237 15.5712 14.4237 15.5722 14.4237C15.4011 14.3878 15.2939 14.3524 15.1296 14.2769C15.2162 14.2504 15.2796 14.1823 15.3626 14.1496C15.5015 14.129 15.5865 14.2726 15.7201 14.2679C15.8353 14.2636 15.9441 14.2103 16.0619 14.2224C16.0698 14.2235 16.0809 14.224 16.0888 14.2261C16.1675 14.242 16.177 14.28 16.186 14.3144C16.1416 14.345 16.0915 14.3693 16.0265 14.3439C16.0603 14.3978 16.0661 14.4078 16.1707 14.4237C16.3302 14.448 16.3128 14.5103 16.3038 14.5288C16.3022 14.5325 16.299 14.5367 16.2964 14.5394C16.2763 14.5621 16.1717 14.6033 16.1723 14.5003C16.1533 14.5726 16.0059 14.5357 15.5685 14.4253C15.568 14.4237 15.5685 14.4237 15.5691 14.4237ZM16.0212 14.3397V14.3402C16.0212 14.3402 16.0212 14.3402 16.0212 14.3397ZM15.5802 14.4237C15.5865 14.4237 15.5987 14.4232 15.6008 14.4221C15.5992 14.4205 15.5722 14.4184 15.5707 14.42C15.5712 14.4205 15.5722 14.421 15.5802 14.4237ZM17.5081 14.5024C17.516 14.485 17.4991 14.4865 17.479 14.4887C17.2324 14.5462 17.0771 14.7565 17.0385 14.8325C17.0533 14.8278 17.0871 14.8172 17.1975 14.757C17.2978 14.7015 17.4854 14.5531 17.5081 14.5024ZM16.5119 13.7909C16.513 13.7904 16.6054 13.7613 16.5293 13.8538C16.5515 13.8284 16.5784 13.792 16.5938 13.7619C16.6371 13.6758 16.6265 13.5749 16.6677 13.4883C16.7179 13.3826 16.814 13.3071 16.861 13.1993C16.8943 13.1238 16.8917 13.0911 16.8869 13.0361C16.9477 13.1122 16.9735 13.0684 16.9815 13.0456C17.0021 12.9902 16.9957 12.8787 16.8478 12.6648C16.8679 12.678 16.8679 12.678 16.8811 12.6833C16.8822 12.6785 16.8822 12.6785 16.8346 12.6009C16.8547 12.6025 16.9191 12.603 16.9012 12.5344C16.9028 12.537 16.9049 12.5402 16.9065 12.5423C16.9091 12.5412 16.9123 12.5396 16.9149 12.5386C16.9139 12.5296 16.9123 12.5111 16.9012 12.4736C16.9519 12.5196 16.9836 12.4609 16.9804 12.4234C16.9793 12.4123 16.9735 12.3981 16.9688 12.388L16.9709 12.3859C16.9873 12.3674 17.1272 12.2079 17.0491 12.2063C17.0216 12.2058 16.9709 12.2291 16.9466 12.2401C16.9667 12.2269 16.9667 12.2269 16.973 12.2153C16.9572 12.2079 16.9572 12.2079 16.9112 12.2127C16.9603 12.1028 16.8769 12.0495 16.8563 12.0511C16.841 12.0563 16.8383 12.0595 16.8272 12.0727C16.8272 12.0695 16.8272 12.0658 16.8267 12.0632C16.8251 12.0632 16.6783 12.0711 16.6202 12.4387C16.617 12.4049 16.6128 12.3986 16.5922 12.3769C16.5647 12.4308 16.5526 12.4646 16.5388 12.5233C16.4897 12.5116 16.5077 12.443 16.4596 12.4308C16.4036 12.5856 16.1511 12.7974 16.1163 12.743C16.1147 12.7403 16.1142 12.7366 16.1131 12.734C16.0788 12.8148 16.0666 12.8676 16.0629 12.9527C16.0133 12.9136 15.9013 12.9326 15.9082 12.8433C15.821 12.9294 15.7851 12.9648 15.7983 13.1423C15.7988 13.1481 15.877 13.7238 15.9753 13.7302C16.0054 13.7323 16.0328 13.6842 16.046 13.661C16.0629 13.7587 16.2742 13.7687 16.3355 13.7365C16.3038 13.8728 16.4485 13.82 16.5119 13.7909ZM16.176 9.41274C16.1733 9.41644 16.1712 9.42013 16.1686 9.4233C16.1723 9.42013 16.1739 9.41749 16.176 9.41274ZM16.9403 9.07892C16.9809 9.00603 16.9941 8.97804 16.9873 8.94793C16.9862 8.94582 16.9846 8.94318 16.9841 8.94106C16.9915 8.95427 17.0021 8.97276 17.0042 9.01396C17.0068 9.0673 16.9936 9.13333 16.9815 9.19196C16.9587 9.30182 16.9482 9.3615 16.9667 9.41749C16.9355 9.37893 16.9355 9.37893 16.9049 9.35622C16.9065 9.35728 16.908 9.35834 16.9096 9.35886C16.9001 9.35041 16.9001 9.35041 16.898 9.34724C16.9017 9.34883 16.9054 9.35094 16.9091 9.35358C16.8473 9.27805 16.87 9.20463 16.9403 9.07892ZM16.9292 9.37418L16.9128 9.35834C16.9128 9.35886 16.9128 9.35939 16.9128 9.36045L16.9249 9.37048L16.9292 9.37418ZM16.9302 9.3689L16.9244 9.36415H16.9239L16.9302 9.3689ZM16.9968 9.45658C16.9973 9.45711 16.9978 9.45711 16.9984 9.45764C16.9878 9.44443 16.9778 9.4307 16.9667 9.41749C16.9667 9.41802 16.9672 9.41855 16.9672 9.41908C16.9714 9.43017 16.9799 9.44549 16.9968 9.45658ZM15.1497 14.2557L15.1502 14.2552C15.1444 14.2478 15.1402 14.2441 15.1381 14.2441C15.1375 14.2441 15.1365 14.2441 15.1365 14.2457C15.137 14.2489 15.1428 14.2621 15.1497 14.2557ZM14.0664 12.2729C14.0669 12.2729 14.0669 12.2729 14.0664 12.2729V12.2729ZM14.078 10.4195C14.0722 10.41 14.0643 10.3978 14.0584 10.3888C13.8926 10.4961 13.8926 10.4961 13.8456 10.4348C13.7796 10.3482 13.7616 10.2161 13.7526 10.1527C13.7151 9.88072 13.4917 9.72068 13.3623 9.50412C13.347 9.47876 13.3285 9.44337 13.3132 9.41802C13.2979 9.3932 13.2741 9.36256 13.2572 9.33879C13.2339 9.34091 13.2033 9.34355 13.1801 9.3446C13.1658 9.45711 13.1658 9.45711 13.1204 9.50887C13.1072 9.49038 13.0919 9.46345 13.0818 9.44338C13.0707 9.46133 13.0512 9.48246 13.0338 9.49408C13.0126 9.48774 12.9825 9.48352 12.9603 9.4851C12.9529 9.49461 12.9429 9.50729 12.9355 9.51679C12.9281 9.5094 12.9181 9.49936 12.9112 9.49197C12.9022 9.49778 12.8906 9.50517 12.8822 9.51098C12.8674 9.49567 12.8558 9.46714 12.8536 9.44602C12.6793 9.84797 12.2166 10.0059 12.0397 10.4063C11.8691 10.7924 11.9832 11.2371 11.7909 11.619C11.7624 11.6755 11.7254 11.76 11.671 11.7928C11.4497 11.9259 10.4446 10.1121 10.7588 9.5094C10.7488 9.50253 10.7356 9.49302 10.7256 9.48563C10.7234 9.4645 10.7171 9.43651 10.7097 9.41644C10.6992 9.4138 10.6854 9.40957 10.6754 9.40693C10.6817 9.42014 10.6923 9.43651 10.6955 9.45024C10.7234 9.56169 10.5756 9.67578 10.4884 9.66257C10.3278 9.63828 10.3569 9.44813 10.2433 9.38263C10.3553 9.36996 10.3696 9.33615 10.3828 9.3034C10.2856 9.30816 10.2037 9.29178 10.0717 9.19301C9.87095 9.02346 9.84295 8.91941 9.83397 8.88508C9.47111 8.6907 9.05806 9.01131 8.69942 8.77468C8.66403 8.75144 8.61808 8.7187 8.58163 8.69704C8.41261 8.59721 8.2156 8.70655 8.04446 8.62415C7.82843 8.5201 7.84956 8.20846 7.60765 8.12712C7.59339 8.12237 7.57279 8.12395 7.558 8.12237C7.55747 8.1229 7.50571 8.18417 7.42014 8.24174C7.42014 8.24174 7.42014 8.24174 7.42067 8.24174H7.4212C7.50624 8.26234 7.51838 8.28188 7.5543 8.44879L7.81206 9.00128C7.95308 9.15815 8.46966 9.14442 8.49395 8.72239C8.5922 8.82697 8.51191 8.97909 8.59273 9.08843C8.67354 9.19777 8.83992 9.17136 8.91387 9.29178C8.93658 9.32929 8.9408 9.39425 8.93182 9.43704C8.90383 9.57754 8.70629 9.95678 8.16014 10.3894C8.14957 10.3978 7.08791 11.2324 6.85339 11.0068L5.97448 8.70074C5.96445 8.67433 5.95071 8.63947 5.94173 8.61253C5.88469 8.44404 5.89789 8.34474 5.91374 8.23012C5.80546 8.37537 5.80704 8.42502 5.81127 8.52485C5.7051 8.37907 5.67077 8.29667 5.65809 8.15564C5.54929 8.34421 5.53872 8.48524 5.75634 8.87082C5.92008 9.16132 5.92008 9.16132 6.16621 10.0455C6.2708 10.4216 6.38225 10.6228 6.56289 10.7628C6.64793 10.8288 6.80691 10.9514 6.84124 11.0343C6.88614 11.142 6.83807 11.1801 6.75092 11.2498C7.19883 11.4188 7.19883 11.4188 7.3108 11.385C7.89446 11.2107 7.89446 11.2107 7.90027 11.2413C7.90502 11.2667 8.00273 11.8778 7.07576 13.0404C6.15829 14.1913 6.8386 14.8325 6.84652 14.8378C6.84494 14.8515 6.84283 14.8705 6.84124 14.8843C6.85656 15.1093 7.0034 15.2984 7.01555 15.5239C7.03086 15.807 6.70972 15.8577 6.63366 16.0775C6.53489 16.3606 6.88508 16.5291 6.81959 16.8037C6.79529 16.9062 6.71025 16.969 6.66483 17.0028C6.80004 17.1312 6.92787 17.2522 6.75832 17.7006C6.59405 18.1353 6.21428 18.0265 6.21058 18.0249C6.13664 17.9916 5.25455 17.0541 5.21705 17.0139C4.94081 16.7203 4.36403 15.8472 4.36139 15.8414C4.20557 15.5413 4.24677 15.1896 4.11155 14.8843L4.09782 14.8568C4.09412 14.851 3.75132 14.2763 3.82157 14.1348C3.59762 14.0244 3.1476 13.4766 3.32085 13.1692C3.12753 12.9595 3.32983 12.6215 3.08105 12.4298C3.07154 12.4387 3.05886 12.4514 3.04936 12.4604C3.03668 12.4562 3.01978 12.4504 3.0071 12.4456C2.99178 12.4646 2.96062 12.4821 2.93685 12.4852C2.59089 12.1382 2.59089 12.1382 2.49317 12.2111C2.02889 12.5555 1.97238 12.4224 1.87783 12.2021C1.87572 12.1974 1.65546 11.5635 1.59736 10.6793C1.57359 10.3186 1.71885 9.97526 1.70775 9.61609C1.70564 9.6293 1.703 9.64726 1.70089 9.66046C1.75423 8.90092 2.56976 7.56777 2.57768 7.55562C2.70286 7.37339 2.75991 7.30367 2.7953 7.28888C2.84548 7.26776 2.87875 7.31159 2.92154 7.32005C2.96009 7.32797 2.97594 7.32216 3.12964 7.21599C3.26961 7.11933 3.32455 7.09081 3.40747 7.07021C3.44286 7.06123 3.44286 7.06123 3.8052 7.03482C3.88601 7.03271 3.93989 7.03113 3.86383 7.2012C3.81101 7.31952 3.71858 7.4204 3.70326 7.55562C3.73865 7.80334 4.33022 8.26973 4.44061 7.91426C4.49132 7.74947 4.55365 7.71461 4.59696 7.71408C4.61544 7.71408 4.64027 7.71196 4.65876 7.71513C4.83729 7.74894 4.94504 7.91479 5.11776 7.96021C5.28572 8.00458 5.43203 7.86567 5.59947 7.90264C5.61109 7.92799 5.63116 7.96021 5.64912 7.98187C5.89578 7.95176 6.003 7.73256 6.08857 7.55562C6.25284 7.20173 6.19579 7.12937 6.17466 7.11511C6.17466 7.11511 5.77113 7.12673 5.6845 7.13201C5.51179 7.1431 5.41354 7.10983 5.38079 7.09926C5.3866 7.0887 5.394 7.07497 5.39928 7.06493C5.37393 7.05753 5.33907 7.05278 5.31266 7.05278C5.32481 6.98623 5.31741 6.91651 5.34858 6.85365C5.24135 6.73904 5.394 6.63498 5.37974 6.52195C5.30526 6.47177 5.24082 6.45223 5.14945 6.51086C5.14733 6.5378 5.15367 6.57477 5.16476 6.59907C5.14047 6.59959 5.10825 6.60382 5.08448 6.60963C5.08237 6.62178 5.07973 6.63815 5.07761 6.6503C5.06652 6.62283 5.04803 6.58797 5.03113 6.56368C5.00208 6.68833 5.09557 6.79714 5.07656 6.92021C5.06916 6.90964 5.05965 6.89591 5.05226 6.88534C5.05173 6.90806 5.04011 6.93869 5.02427 6.95507C5.00631 6.94133 4.97409 6.9313 4.95137 6.93447C4.9593 6.94503 4.97039 6.95982 4.97831 6.97038C4.95983 6.98729 4.93341 7.00894 4.91334 7.02426C4.91123 7.05331 4.90753 7.0924 4.90436 7.12145C4.89327 7.12831 4.87901 7.13782 4.86845 7.14469C4.70893 7.03799 4.8056 6.91492 4.83729 6.87425C4.81141 6.87267 4.757 6.86897 4.74221 6.79238C4.72478 6.70153 4.75383 6.55998 4.75436 6.55892C4.78711 6.41103 4.68305 6.2943 4.66245 6.15908C4.65717 6.12369 4.63235 6.08038 4.62865 6.04446C4.62548 6.01277 4.63816 5.96788 4.65611 5.94094C4.6503 5.92932 4.64291 5.914 4.63763 5.90238C4.62654 5.90661 4.61122 5.91189 4.60013 5.91559C4.58903 5.90978 4.57425 5.90185 4.56316 5.89657C4.44537 5.98161 4.401 6.0133 4.41843 6.18391C4.43639 6.35874 4.60963 6.45593 4.63763 6.62547C4.58164 6.64713 4.53041 6.60963 4.476 6.61333L4.47389 6.61544C4.47442 6.61702 4.45752 6.83464 4.35716 6.95243C4.27371 6.94239 4.21877 7.02532 4.13743 7.02056C4.07088 6.90436 4.28902 6.90489 4.34501 6.82619C4.51984 6.58163 4.26156 6.13954 4.25892 6.13531C4.17071 5.99534 4.0244 6.13584 3.90767 6.13267C3.90714 6.13267 3.90661 6.13267 3.87809 6.13426C3.87545 6.13478 3.49621 6.43955 3.29814 6.7834C3.16556 7.01317 3.02717 7.14627 2.87505 7.19011C2.81959 7.14997 2.82646 7.07866 2.79266 7.02796C2.78051 7.03113 2.76466 7.03535 2.75304 7.03852C2.83121 6.86105 2.83121 6.86105 2.87083 6.78552C2.86819 6.78869 2.86502 6.79291 2.86238 6.79608C3.1682 6.14852 3.1682 6.14852 3.42754 6.15908C3.56329 6.16436 3.90291 5.74921 3.77192 5.51944C3.84957 5.47138 3.85326 5.46979 3.97263 5.43916C4.04975 5.24425 4.87426 4.7879 4.88165 4.78526C4.8901 4.79318 4.90172 4.80427 4.91017 4.81219C5.00049 4.71448 5.05332 4.5893 5.14311 4.49158C5.1579 4.47679 5.17902 4.45778 5.19487 4.44404L5.1991 4.44193C5.26882 4.38383 5.29787 4.38013 5.33748 4.37432C5.26882 4.44827 5.22022 4.54123 5.13307 4.59828C5.14681 4.59722 5.16476 4.59564 5.17797 4.59458C5.13413 4.66272 5.13413 4.66272 5.0792 4.66747C5.08448 4.65426 5.09187 4.63736 5.09768 4.62416C5.05226 4.69758 5.05543 4.70286 5.0792 4.7467C5.0792 4.7467 5.15156 4.73825 5.25086 4.73032C5.24082 4.73719 5.22762 4.74617 5.21758 4.75304C5.22392 4.76413 5.23237 4.77945 5.23871 4.79054C5.24241 4.79054 5.61689 4.75621 5.69665 4.70444C5.81497 4.52803 5.91585 4.41288 5.99666 4.36217C6.01779 4.3738 6.04156 4.39756 6.05424 4.41816C6.1884 4.40285 6.15724 4.25654 6.2296 4.1921C6.27608 4.1509 6.27608 4.1509 6.64845 4.12871C6.64423 4.11393 6.63895 4.09385 6.63472 4.07906C6.62204 4.0722 6.60514 4.06375 6.59194 4.05688C6.59035 4.04843 6.58824 4.03734 6.58666 4.02889C6.25337 4.08804 6.25337 4.08804 6.19157 4.06692C6.29245 3.91374 6.29245 3.91374 6.67592 3.61795C6.52063 3.50756 6.47732 3.63961 6.46359 3.68345C5.94385 3.88469 5.96973 4.04209 5.9824 4.11762C5.42622 4.60197 5.42622 4.60197 5.28994 4.61095C5.2947 4.59669 5.30156 4.57768 5.30632 4.56342C5.19434 4.67909 5.19434 4.67909 5.16159 4.70391C5.1505 4.69863 5.13571 4.69229 5.12462 4.68701C5.19487 4.6606 5.19487 4.6606 5.20596 4.57662C5.36072 4.60673 5.46002 4.29668 5.50228 4.16463C5.3866 4.25812 5.33695 4.28506 5.24558 4.31939C5.23554 4.31253 5.22287 4.30355 5.21283 4.29668C5.22022 4.25442 5.24822 4.21851 5.24927 4.17414C5.34435 4.08593 5.39928 3.95652 5.52552 3.89948C5.6095 3.86039 5.62007 3.85511 5.69137 3.82078C5.89684 3.71989 6.08012 3.58256 6.27766 3.469L6.28189 3.46795C6.37168 3.41037 6.39281 3.39664 6.41182 3.37921C6.41763 3.37393 6.42344 3.36812 6.43084 3.36072C6.40337 3.36812 6.36534 3.37393 6.33735 3.37604C6.41077 3.3322 6.49316 3.30843 6.5687 3.26935C6.56077 3.27833 6.55074 3.29047 6.54281 3.29998C6.63895 3.29259 6.71025 3.22287 6.79899 3.19699C6.79846 3.20861 6.7974 3.22445 6.79688 3.23607C6.89459 3.21072 6.89459 3.21072 6.91096 3.1954C6.92417 3.19751 6.94213 3.20068 6.95533 3.2028C6.99125 3.1542 6.99812 3.14575 7.08527 3.11512C7.09636 3.12145 7.11115 3.12991 7.12171 3.13624C7.09795 3.15103 7.06784 3.17163 7.04565 3.18801C7.127 3.14892 7.20939 3.13624 7.24425 3.13043C7.23474 3.1373 7.22154 3.14681 7.21203 3.15367C7.22629 3.14945 7.24531 3.14364 7.25904 3.13941C7.27119 3.14628 7.28704 3.15579 7.29919 3.16318C7.27119 3.17269 7.23422 3.18537 7.20675 3.19487C7.33721 3.20332 7.33721 3.20332 7.35306 3.20544C7.35517 3.21706 7.35834 3.23237 7.36098 3.24399C7.58018 3.29153 7.66205 3.30896 7.68529 3.36389C7.71646 3.43784 7.58388 3.52816 7.52208 3.54031C7.40429 3.56355 7.31661 3.47217 7.20886 3.45844C7.27806 3.73627 7.27806 3.73627 7.35464 3.71673C7.34883 3.69243 7.33616 3.66074 7.32295 3.63855C7.48247 3.6338 7.60131 3.49805 7.76346 3.50281C7.77086 3.51231 7.78089 3.52499 7.78882 3.53503C7.84956 3.39875 7.84956 3.39875 7.86171 3.35174C7.85537 3.34171 7.84692 3.32798 7.84058 3.31741C7.94622 3.26248 8.00168 3.28467 8.00432 3.38291C7.91189 3.38661 7.89393 3.38977 7.88072 3.46108C8.09781 3.47904 8.25046 3.27516 8.46702 3.29048C8.44536 3.30632 8.41789 3.32798 8.39729 3.34488C8.7216 3.32903 8.76967 3.30421 8.82988 3.27252C8.82619 3.26723 8.82618 3.26723 8.70681 3.17691C9.24187 3.33696 9.24187 3.33696 9.26247 3.33009C9.19592 3.26037 9.16793 3.19487 9.18007 3.13624C9.19909 3.04328 9.31952 3.03589 9.34117 2.94504C9.36652 2.94715 9.3998 2.95455 9.42357 2.963H9.4241C9.4241 2.963 9.4241 2.963 9.43096 2.963C9.44258 2.96669 9.4579 2.9725 9.46952 2.9762C9.52498 3.0961 9.5028 3.23502 9.5646 3.35333C9.53132 3.44101 9.52762 3.44999 9.41089 3.49964C9.68555 3.48115 9.65545 3.37446 9.6396 3.31688C9.75633 3.25667 9.81707 3.37763 9.90845 3.40034C9.78221 3.29153 9.60738 3.24241 9.51917 3.08606C9.57939 3.04645 9.57939 3.04645 9.59576 2.98307C9.6058 2.99046 9.619 2.99997 9.62904 3.00684C9.63009 3.03747 9.63537 3.07867 9.64171 3.10931C9.66707 3.12198 9.66706 3.12198 9.81602 3.13149C9.80175 3.11036 9.80175 3.11036 9.694 3.05649C9.70562 3.05913 9.72094 3.06282 9.73256 3.06599C9.74154 3.0586 9.75422 3.04856 9.7632 3.04117C9.75316 3.03483 9.73995 3.02585 9.72992 3.01951C9.73098 3.02004 9.91584 3.06124 10.031 3.06547C9.97659 2.99046 9.94648 2.97198 9.85141 2.95666C9.85141 2.95666 9.8514 2.95666 9.86936 2.94874C9.97342 2.92233 10.0838 2.95243 10.1857 2.91018C10.1741 2.90542 10.1593 2.89909 10.1477 2.89433C10.1255 2.78711 10.181 2.78817 10.4155 2.79186C10.4324 2.7739 10.463 2.75806 10.4868 2.7533C10.4868 2.7533 10.5523 2.77285 10.7155 2.7644C10.7055 2.75647 10.6923 2.74644 10.6823 2.73852C10.6933 2.73852 10.7076 2.73852 10.7182 2.73852C10.7594 2.68517 10.7594 2.68517 10.8148 2.67302C11.2854 2.66298 11.6647 3.01423 12.1342 3.00631C12.1406 2.9968 12.1496 2.98412 12.1559 2.97462C12.1527 2.963 12.148 2.94715 12.1443 2.93553C12.3756 2.9931 12.5753 3.1711 12.8357 3.11828C12.832 3.10508 12.8267 3.08712 12.823 3.07392C12.9403 3.03589 13.0485 3.09557 13.1616 3.10508C13.1616 3.10508 13.1621 3.10508 13.1352 3.09927C13.1267 3.09187 13.1151 3.08184 13.1066 3.07444C13.15 3.07286 13.15 3.07286 13.2244 3.08078C13.197 3.06916 13.1605 3.05332 13.1331 3.0417C13.1288 3.0306 13.1236 3.01582 13.1193 3.00472C13.5535 2.96828 13.5841 2.99257 13.6966 3.0829C13.8937 3.24082 14.1218 3.13255 14.3342 3.15896C14.5211 3.18272 14.7102 3.18484 14.8972 3.20808C14.9205 3.21072 14.9495 3.22498 14.969 3.23766C14.958 3.23449 14.9437 3.22973 14.9326 3.22604C15.0874 3.28202 15.1117 3.28625 15.1851 3.29893C15.0176 3.22868 15.0176 3.22868 14.9976 3.18801C15.3657 3.16793 16.2626 3.41407 16.4094 3.5757C16.3973 3.5757 16.3809 3.5757 16.3688 3.5757C16.3867 3.58415 16.4792 3.62852 16.5563 3.6882C16.3418 3.80071 16.223 3.57887 16.0503 3.54401C16.1374 3.60211 16.1374 3.60211 16.1675 3.62429C16.1612 3.6338 16.1527 3.64648 16.1464 3.65598C16.2953 3.73521 16.4564 3.79067 16.5954 3.88944C16.5457 3.87043 16.5367 3.86726 16.4659 3.86145C16.4744 3.8773 16.486 3.89789 16.4945 3.91321C16.4865 3.92325 16.476 3.93592 16.4681 3.94596C16.5145 3.98822 16.5246 3.9972 16.5763 4.0854C16.5711 4.09544 16.5637 4.10917 16.5584 4.11921C16.374 4.07854 16.3291 4.09016 16.2895 4.10019C16.3048 4.19791 16.56 4.34316 16.5626 4.34422C16.5652 4.34527 16.8563 4.5201 17.0058 4.69335C17.0042 4.70761 17.0021 4.72716 17.001 4.74142C17.038 4.78631 17.038 4.78631 17.1426 4.88931C17.1426 4.88931 17.1426 4.88931 17.1251 4.89618C17.1489 4.9865 17.2154 5.05199 17.2588 5.13069C17.2672 5.1402 17.2762 5.18615 17.2836 5.2263C17.2746 5.21626 17.2625 5.20358 17.253 5.19355L17.2514 5.19196C17.2456 5.17876 17.254 5.15869 17.2577 5.14495C16.9635 4.82698 16.5726 4.63102 16.2515 4.34686C16.2515 4.34686 16.2515 4.34686 16.252 4.34686C16.252 4.34686 16.252 4.34686 16.2526 4.34686C16.2526 4.34686 16.2526 4.34686 16.2531 4.34686C16.261 4.33471 16.2716 4.31833 16.28 4.30671C16.1559 3.96973 15.9245 3.86303 15.8585 3.86462C15.9272 3.91533 15.9457 3.92747 16.0091 3.9655C15.9974 3.96603 15.9821 3.96709 15.9705 3.96762C15.9779 3.99667 15.9927 4.03417 16.0059 4.06111C15.8073 3.92642 15.7856 3.92114 15.6958 3.89948C15.6884 3.90793 15.6784 3.91902 15.6705 3.92747C15.6795 3.99667 15.6795 3.99667 15.9378 4.20847C15.8495 4.33154 15.7487 4.24228 15.7296 4.22326C15.7386 4.21639 15.7508 4.20689 15.7603 4.20002C15.7603 4.20002 15.7603 4.20002 15.755 4.19738C15.7328 4.19421 15.7027 4.19157 15.6805 4.19104C15.68 4.19104 15.6795 4.19104 15.6789 4.19104C15.6784 4.19104 15.6779 4.19104 15.6774 4.19104C15.6768 4.19104 15.6763 4.19104 15.6758 4.19104C15.6752 4.19104 15.6747 4.19104 15.6742 4.19104C15.6737 4.19104 15.6731 4.19104 15.6726 4.19104C15.6721 4.19104 15.6715 4.19104 15.671 4.19104C15.6705 4.19104 15.67 4.19104 15.6694 4.19104C15.6689 4.19104 15.6684 4.19104 15.643 4.19104C15.6161 4.18999 15.5802 4.18682 15.5532 4.18259C15.5548 4.18365 15.5564 4.18523 15.558 4.18629C15.4381 4.21798 15.3081 4.08435 15.1935 4.20847C15.1022 4.30724 15.0948 4.78631 15.5221 4.79476C15.3979 4.68279 15.3979 4.68279 15.3832 4.6437C15.3847 4.64476 15.549 4.7467 15.5786 4.83227C15.5971 4.82117 15.6235 4.80955 15.6441 4.80269C15.6261 4.78631 15.6061 4.75937 15.5981 4.73613C15.6943 4.73666 15.8332 4.7636 15.9467 4.89142C15.9356 4.88984 15.9203 4.88773 15.9092 4.88614C16.5621 5.27436 16.7269 6.00907 16.6255 6.2288C16.6123 6.23356 16.5948 6.23937 16.5816 6.24412C16.5325 6.22035 16.5325 6.22035 16.4802 6.16278C16.4728 6.17123 16.4628 6.18232 16.4554 6.19077C16.4496 6.18127 16.4416 6.16859 16.4358 6.15908C16.4475 6.18549 16.4554 6.22511 16.4538 6.25416C16.4416 6.25204 16.4258 6.24993 16.4137 6.24782C16.5806 6.39043 16.4258 6.6091 16.5357 6.76545C16.6323 6.90277 16.8225 6.93552 16.9017 7.0924C16.9329 7.15472 16.9329 7.15472 16.9799 7.37181C16.9577 7.37498 16.9292 7.3829 16.9086 7.39082C16.9086 7.40139 16.908 7.41618 16.908 7.42674C16.6925 7.50967 16.6059 7.10032 16.6128 7.0607C16.6218 7.0681 16.6339 7.07761 16.6429 7.08447C16.6329 7.02162 16.626 7.00313 16.5277 6.95243L16.532 6.94926L16.5225 6.9482C16.524 6.94926 16.5256 6.95031 16.5267 6.95137C16.4554 6.92654 16.3788 6.92126 16.3091 6.89063C16.3033 6.86739 16.3054 6.83253 16.317 6.8114C16.2298 6.7702 16.1923 6.65294 16.0772 6.65347C15.971 6.654 16.0249 6.81562 15.9187 6.81351C15.9071 6.81351 15.8923 6.80559 15.8812 6.80242C15.8701 6.71368 15.8591 6.71051 15.8142 6.69625C15.8216 6.68358 15.8363 6.66773 15.8385 6.65294C15.8427 6.62125 15.7899 6.48128 15.6921 6.52089C15.689 6.52195 15.4096 6.71474 15.5437 6.86316C15.7085 7.04644 15.9541 6.92232 16.1416 7.01898C16.1231 7.11669 16.0138 7.17585 16.0275 7.2873C16.0328 7.33061 16.0371 7.36441 16.2071 7.55245C16.3545 7.70932 16.4712 7.8176 16.5853 7.90317C16.5769 7.90898 16.5652 7.91743 16.5563 7.92324C16.4976 7.89683 16.4612 7.83556 16.3952 7.82077C16.4015 7.82341 16.5483 7.88732 16.5674 8.078C16.5605 8.0854 16.551 8.09596 16.5441 8.10335C16.7068 8.13822 16.7068 8.13821 16.738 8.25759C16.7348 8.26762 16.7226 8.27766 16.7163 8.28664C16.7575 8.37537 16.7564 8.38435 16.7485 8.44351C16.7374 8.44509 16.7226 8.44721 16.711 8.44879C16.6931 8.50319 16.6698 8.75937 16.7168 8.86606C16.7168 8.86606 16.7168 8.86606 16.7285 8.85444C16.7057 8.99758 16.7026 9.01977 16.5938 9.12646C16.4749 9.24319 16.307 9.28333 16.1828 9.39108C16.1707 9.34988 16.1659 9.33457 16.1147 9.30129C16.1548 9.38263 16.1617 9.39742 16.065 9.52155C16.0629 9.51943 15.8379 9.34302 15.7893 9.74339C15.8712 9.811 15.9055 9.87385 15.8675 10.0302C15.8305 10.1469 15.7159 10.1728 15.6504 10.1776C15.6636 10.1538 15.6805 10.1216 15.6927 10.0978C15.7069 9.78142 15.7069 9.78142 15.7576 9.74973C15.7576 9.7043 15.7576 9.59761 15.6895 9.56644C15.652 9.54954 15.2358 9.58651 15.2643 9.82103C15.3171 10.2594 15.7893 10.4707 15.8501 10.9044C15.8717 11.0591 15.8089 11.5899 15.5786 11.4193C15.5717 11.534 15.465 11.8345 15.3108 11.7532C15.3261 11.7283 15.3467 11.6956 15.362 11.6713C15.2775 11.3311 14.8972 11.2207 14.7715 10.9123C14.5016 11.0934 14.5872 11.5308 14.5977 11.5804C14.641 11.7822 14.8217 11.8868 14.9273 12.0447C15.1085 12.3152 15.052 12.6527 15.1793 12.9379C15.1851 12.9511 15.2052 12.9606 15.2162 12.9701C14.9479 13.0192 14.8502 12.8 14.744 12.321C14.6548 11.918 14.6104 11.7875 14.4625 11.9042C14.4266 11.769 14.4118 11.7125 14.443 11.4716C14.5254 10.8362 14.2423 10.3661 14.1535 10.2372C14.1562 10.3851 14.125 10.3989 14.078 10.4195ZM7.47507 6.07774C7.50148 6.08989 7.50148 6.08989 7.53476 6.07668C7.44549 6.21401 7.46451 6.2774 7.63511 6.41578C7.74234 6.50293 7.76769 6.5341 7.7772 6.59009C7.65677 6.5716 7.59973 6.78921 7.6087 6.86263C7.62297 6.98042 7.72808 7.03694 7.81259 7.08289C7.83741 7.09609 7.83847 7.09979 7.84058 7.1093C7.84164 7.1093 7.84269 7.1093 7.84375 7.1093L7.84269 7.11247C7.96154 7.1843 8.06137 7.06282 8.1744 7.07866C8.17493 7.07866 8.17598 7.07919 8.17651 7.07919C8.17123 6.65664 8.16753 6.40152 7.98689 6.22405C7.85959 6.0994 7.85537 6.07035 7.84798 6.02281C7.86329 6.00327 7.89762 5.99112 7.92192 5.98636C7.89181 5.91928 7.89182 5.91928 8.09517 5.87808C8.06348 5.85326 8.05819 5.84639 8.07351 5.77667C8.0846 5.72755 8.10098 5.6536 7.94833 5.64674C7.78195 5.63881 7.72227 5.82368 7.57701 5.85379C7.55694 5.85273 7.54427 5.84639 7.53106 5.82949C7.52948 5.91611 7.45606 5.98636 7.47507 6.07774ZM6.35901 5.77033C6.32309 5.83266 6.39545 5.84534 6.5893 5.87861C6.6062 5.83424 6.63419 5.7603 6.68648 5.78037C6.68542 5.75607 6.68543 5.75237 6.65902 5.73917C6.63472 5.72702 6.63366 5.7228 6.63472 5.69744C6.67962 5.70378 6.72451 5.6911 6.77205 5.65783C6.77733 5.65413 6.78367 5.64885 6.78895 5.64515C6.69335 5.59497 6.51746 5.65677 6.39281 5.74392C6.4002 5.73706 6.4002 5.73706 6.40231 5.73389C6.40231 5.73389 6.37591 5.7529 6.36376 5.76558C6.36745 5.76241 6.37274 5.75766 6.37696 5.75449L6.36376 5.76664L6.36217 5.76716L6.35848 5.77033H6.35901ZM6.57556 6.50399C6.73455 6.51825 6.82064 6.41684 6.84336 6.38515C6.92681 6.26895 6.76571 6.07035 6.56183 5.94516C6.41605 5.8559 6.27027 6.01964 6.12501 5.94464C6.11709 5.91347 6.11709 5.91347 6.24703 5.79991C6.1398 5.74128 6.06744 5.70959 5.96867 5.75818L5.95547 5.74287L5.96286 5.75554L5.96656 5.75871C5.87359 5.80836 5.81233 5.91559 5.74155 6.03971C5.65968 6.18338 5.62852 6.20873 5.55351 6.27053C5.58309 6.29166 5.59365 6.30011 5.61742 6.34712C5.63749 6.38673 5.6676 6.44695 5.70035 6.45434C5.88205 6.49554 6.00776 6.29905 6.18946 6.34025C6.32784 6.37141 6.42925 6.49079 6.57556 6.50399ZM12.1395 11.7463C12.1342 11.7473 12.1284 11.7526 12.1163 11.7664C12.1279 11.7928 12.1316 11.7954 12.1327 11.7928C12.1332 11.7907 12.1321 11.7848 12.1316 11.7806C12.1332 11.7801 12.1348 11.779 12.1358 11.7785L12.1385 11.7759C12.1427 11.7701 12.1453 11.7642 12.1459 11.7574C12.1464 11.7542 12.1464 11.7458 12.1395 11.7463ZM15.2162 12.9722C15.2157 12.9722 15.2157 12.9722 15.2152 12.9722C15.2157 12.9727 15.2157 12.9727 15.2162 12.9722ZM19.577 13.9045C19.5749 13.9055 19.5749 13.9055 19.5749 13.9055C19.6192 13.7524 19.6076 13.6029 19.567 13.6076C19.5574 13.6108 19.5506 13.6171 19.5384 13.634C19.5405 13.6425 19.5411 13.6499 19.5421 13.6694C19.5411 13.6678 19.539 13.6668 19.5368 13.6663C19.5284 13.6721 19.5263 13.6805 19.5252 13.6848C19.53 13.6848 19.53 13.6848 19.54 13.6763C19.5453 13.7233 19.5342 13.8701 19.5337 13.8712C19.5305 13.8802 19.5184 13.887 19.5131 13.895C19.4872 13.9362 19.4703 13.9821 19.4397 14.0202C19.4217 14.0429 19.4117 14.0402 19.4037 14.0344C19.3736 14.0112 19.3583 13.9996 19.3118 14.0455C19.3039 14.0529 19.3039 14.0529 19.286 14.1501C19.2912 14.1533 19.4243 14.2203 19.531 13.9098C19.5295 13.9568 19.5305 13.9721 19.5358 13.98C19.5368 13.98 19.5384 13.9795 19.5395 13.979L19.539 13.9816C19.5564 13.9631 19.5611 13.952 19.5685 13.9325L19.5754 13.915L19.5765 13.9082L19.5733 13.9108C19.5754 13.9092 19.5765 13.9066 19.577 13.9045ZM12.1179 11.7822C12.1274 11.9623 12.1205 12.0938 12.0989 12.1731C12.046 12.3637 11.9267 12.1889 11.9256 12.1868C11.8738 12.097 11.8971 11.9908 11.924 11.8678C11.952 11.7384 11.9663 11.6544 11.9219 11.5847C11.915 11.5836 11.8981 11.5794 11.8944 11.5567L11.905 11.5635C11.9034 11.5614 11.9013 11.5588 11.8997 11.5567C11.9087 11.5498 11.915 11.5477 11.9272 11.5461C11.9399 11.5456 12.0085 11.5487 12.0909 11.6502C12.1121 11.6766 12.1438 11.7267 12.1142 11.7658C12.1126 11.7685 12.1115 11.7701 12.1179 11.7822ZM11.9795 11.5984C11.961 11.5752 11.9504 11.5878 11.9504 11.5878C11.9504 11.5878 11.9457 11.6005 11.9621 11.601C11.9636 11.601 11.9689 11.601 11.9784 11.5984C11.979 11.5984 11.9795 11.5984 11.9795 11.5984ZM18.8349 13.4671C18.659 13.4703 18.6421 13.6953 18.4815 13.7201C18.4166 13.7302 18.4535 13.5284 18.4541 13.5263C18.453 13.5289 18.4514 13.5326 18.4504 13.5353C18.471 13.3483 18.4805 13.2627 18.3553 13.2749C18.3009 13.2897 18.2523 13.315 18.191 13.3895C18.2011 13.3309 18.181 13.3177 18.1725 13.3118C18.162 13.3161 18.1572 13.3177 18.144 13.3398C18.219 13.4677 18.2835 13.5786 18.4039 13.5448C18.3595 13.6024 18.2824 13.5971 18.228 13.6356C18.228 13.6356 18.2285 13.6351 18.229 13.6351C18.3077 13.7022 18.209 13.7867 18.2502 13.8575C18.2655 13.8591 18.2771 13.8601 18.3363 13.7423C18.3305 13.7957 18.3273 13.8247 18.3548 13.8643C18.3859 13.9087 18.4435 13.914 18.481 13.9488C18.5396 14.0038 18.5396 14.0112 18.5534 14.383C18.5449 14.364 18.5206 14.3048 18.3997 14.5383C18.4615 14.5108 18.5317 14.513 18.5935 14.4855C18.5301 14.6656 18.6616 14.6577 18.6727 14.6519C18.6854 14.645 18.7974 14.5579 18.7789 14.5151C18.7763 14.5145 18.7731 14.514 18.7704 14.5135C18.8301 14.4839 18.8301 14.4839 18.8428 14.4718C18.8428 14.4686 18.8423 14.4638 18.8423 14.4607L18.8454 14.4691C18.8597 14.4512 18.8692 14.439 18.884 14.3962C18.8993 14.4517 18.9585 14.4797 18.9722 14.5362C18.9944 14.626 18.9458 14.7195 18.9849 14.8082C19.0324 14.917 19.0879 14.8642 19.0884 14.8637C19.108 14.842 19.1111 14.7992 19.1159 14.7707C19.1328 14.6645 19.0837 14.5621 19.0985 14.4559C19.1132 14.346 19.1872 14.2563 19.2014 14.1464C19.2057 14.1152 19.202 14.0724 19.1962 14.0413C19.1941 14.0349 19.0393 13.4634 18.8349 13.4671ZM15.1101 14.1189C15.1 14.0925 15.1 14.0925 15.0974 14.0814L15.0969 14.0804C15.0974 14.0804 15.0979 14.0804 15.0985 14.0804C15.1323 14.0635 15.1735 14.0772 15.2062 14.0555C15.2411 14.0328 15.2849 13.9906 15.2986 13.951C15.352 13.7978 15.3029 13.6478 15.277 13.5675C15.3742 13.7323 15.3969 13.7719 15.4914 13.7196C15.4582 13.6863 15.4809 13.6531 15.4946 13.6483C15.5004 13.652 15.5099 13.6578 15.5152 13.6536L15.4988 13.6372L15.5041 13.6362C15.5015 13.634 15.4983 13.6314 15.4957 13.6293H15.4951L15.4946 13.6282C15.3129 13.4534 15.3129 13.4534 15.2448 13.4999C15.1872 13.3964 15.1117 13.3034 15.0689 13.1914C15.0441 13.127 15.0583 13.0546 15.0272 12.9912C15.0044 12.9458 14.9812 12.9379 14.9342 12.922C14.9205 12.9463 14.9189 12.9516 14.9215 12.9733C14.8983 12.9426 14.8824 12.9279 14.8539 12.9094C14.8729 12.9173 14.8729 12.9173 14.8877 12.9141C14.9062 12.8476 14.8111 12.7689 14.8101 12.7683C14.7335 12.7065 14.6389 12.6738 14.5629 12.6109C14.4662 12.5312 14.4034 12.4176 14.2993 12.3453C14.2639 12.3204 14.19 12.2692 14.0933 12.2703C14.0849 12.2708 14.0759 12.2713 14.0674 12.2718C14.2143 12.3014 14.4424 12.7731 14.7398 13.4729C14.9437 13.9547 15.0372 14.1654 15.1101 14.1189ZM18.2238 13.6383C18.2248 13.6372 18.2269 13.6362 18.228 13.6356C18.2264 13.6362 18.2253 13.6372 18.2238 13.6383ZM18.6104 14.8848C18.3854 15.1742 18.2967 15.5487 18.032 15.8134C17.8789 15.966 17.8408 15.6575 17.8408 15.6538C17.835 15.5614 17.835 15.5614 18.1097 15.0517C18.0922 15.0697 18.0922 15.0697 18.041 15.1193C18.0421 15.086 18.0627 15.0575 18.0653 15.0248C18.032 15.0977 18.032 15.0977 17.7806 14.9408C17.6834 15.1272 17.6834 15.1272 17.6343 15.1404C17.5287 15.1684 17.3824 15.2889 17.3184 15.5366C17.2699 15.5107 17.2635 15.5091 17.1933 15.5361C17.2028 15.4463 17.1024 15.422 17.0823 15.3496C17.0686 15.366 16.8098 15.6306 16.6809 15.6829C16.6751 15.7394 16.6709 15.7542 16.6439 15.8144C16.6418 15.8086 16.6392 15.8002 16.6371 15.7943C16.617 15.8139 16.617 15.8139 16.5969 15.8598C16.5964 15.8308 16.5964 15.8002 16.6186 15.7061C16.5552 15.7458 16.505 15.7769 16.373 15.9311C16.2441 16.0817 16.2013 16.1139 16.1337 16.1514C16.0191 16.2153 15.8865 16.2264 15.7682 16.2798C15.6198 16.3463 15.5131 16.4931 15.3377 16.509C15.3361 16.4916 15.342 16.4678 15.3504 16.4525C15.0963 16.5829 15.0208 16.8713 14.9886 16.9944C14.9717 17.0578 14.9717 17.0578 14.9511 17.0789C14.9527 17.0662 14.9506 17.0488 14.9469 17.0361C14.7852 17.2247 14.8433 17.4951 14.7023 17.6911C14.6157 17.811 14.4741 17.8796 14.4018 18.0127C14.397 18.0217 14.3991 18.037 14.3981 18.0471C14.4725 18.1084 14.6822 18.0254 14.8354 17.9647C14.8455 17.961 15.8506 17.5918 16.0349 17.7286C16.0381 17.7629 16.0381 17.7629 15.8575 18.0719C15.9937 17.9784 16.1416 17.9024 16.2689 17.7962C16.186 17.9573 16.008 17.9964 15.8802 18.0994C15.9335 18.092 15.9525 18.0788 16.0973 17.9747C16.092 17.9816 16.092 17.9816 15.9272 18.1237C15.9277 18.1231 15.9288 18.1221 15.9298 18.1216C15.9356 18.1237 15.9441 18.1268 15.9499 18.129C15.9087 18.2552 15.7444 18.2927 15.7286 18.4374C15.7487 18.4538 15.7487 18.4538 16.0006 18.374C15.9684 18.4047 15.9684 18.4047 15.9367 18.4184C15.9436 18.4189 15.9531 18.4189 15.9599 18.4195C15.9499 18.4475 15.9499 18.4475 15.9103 18.4929C16.9778 17.9927 17.6211 17.2759 17.8477 16.9907C17.8361 17.0044 17.8202 17.0224 17.8091 17.0367C17.8318 17.0092 17.854 16.9817 17.8762 16.9543C17.872 16.9595 17.8662 16.9664 17.8614 16.9717L17.8688 16.9627L17.873 16.958C17.8789 16.9506 17.8868 16.9405 17.8931 16.9331C17.8889 16.9384 17.8836 16.9447 17.8794 16.95C17.9074 16.9125 17.9914 16.7979 18.0468 16.6516C18.0944 16.5254 18.154 16.4034 18.1968 16.275C18.2349 16.1625 18.2069 16.0373 18.2618 15.928C18.481 15.4912 18.481 15.4912 18.4873 15.338C18.4979 15.066 18.5497 14.9857 18.6152 14.8843L18.6157 14.8837C18.6152 14.8832 18.6152 14.8827 18.6136 14.8827C18.6125 14.8832 18.6115 14.8837 18.6104 14.8848ZM17.6517 13.8031C17.6824 13.821 17.7347 13.8015 17.7473 13.7671C17.75 13.7598 17.75 13.7539 17.7505 13.7487H17.75C17.7458 13.7133 17.7056 13.6853 17.6639 13.6879C17.6306 13.6958 17.628 13.7207 17.6269 13.7291C17.6253 13.7444 17.6206 13.7851 17.6517 13.8031ZM17.1008 10.0423L17.1003 10.0402C17.1003 10.0397 17.0998 10.0392 17.0998 10.0386C17.0998 10.0392 17.0998 10.0397 17.0998 10.0402L17.1008 10.0423ZM17.4389 12.022C17.4389 12.022 17.4389 12.0215 17.4394 12.0215C17.4331 12.0289 17.4278 12.0352 17.4236 12.0389C17.432 12.0315 17.4362 12.0257 17.4389 12.022ZM17.8419 12.0373C17.8472 12.1335 17.8503 12.1361 17.8678 12.1519C17.8752 12.1261 17.8836 12.0907 17.8873 12.0637C17.8878 12.06 17.9354 11.7019 17.8102 11.5509C17.8107 11.5498 17.8112 11.5487 17.8118 11.5477C17.825 11.5408 17.825 11.5408 17.8197 11.4336C17.8112 11.4553 17.8023 11.4764 17.7949 11.498C17.7965 11.507 17.7986 11.5186 17.8007 11.5276C17.7584 11.4996 17.7584 11.4996 17.7479 11.3031C17.835 11.3396 17.8086 11.2059 17.7833 11.1463C17.75 11.0676 17.7399 11.0686 17.6618 11.0787C17.6031 10.8764 17.6031 10.8764 17.5778 10.8727C17.5641 10.8832 17.5641 10.8832 17.5577 10.9096C17.5429 10.8156 17.4362 10.8161 17.4146 10.8346C17.4056 10.8426 17.4024 10.86 17.4008 10.8716C17.3945 10.8373 17.3919 10.8135 17.3908 10.7654C17.3913 10.766 17.3919 10.766 17.3924 10.7665C17.395 10.7491 17.3956 10.7406 17.395 10.7227C17.395 10.7174 17.3929 10.711 17.3929 10.7058C17.3855 10.5399 17.4378 10.3719 17.3718 10.2087C17.3227 10.0872 17.1563 10.1675 17.104 10.0519L17.1008 10.046C17.1019 10.0503 17.1035 10.0561 17.1061 10.0592C17.1257 10.2024 17.0649 10.3508 17.1331 10.4913C17.1225 10.4887 17.1077 10.4955 17.0977 10.5008C17.0755 10.5843 17.1177 10.7438 17.1959 10.8045C17.2244 10.7887 17.2281 10.7697 17.2096 10.7369C17.2498 10.7633 17.2498 10.7633 17.2313 10.9022C17.2228 10.9033 17.2123 10.9049 17.2038 10.9059C17.1827 10.9609 17.2123 10.9941 17.3216 11.1177C17.3861 11.039 17.3095 10.9524 17.2582 10.9075C17.2815 10.9001 17.3084 10.8938 17.3665 10.9028C17.3549 10.9371 17.3718 10.9503 17.3882 10.9582C17.3998 10.9529 17.4125 10.9477 17.3982 10.9107C17.4663 10.9339 17.4917 11.0052 17.5461 11.0438C17.5355 10.991 17.5091 10.9714 17.5017 10.9672C17.5033 10.9461 17.5081 10.8822 17.5741 10.9519C17.6132 10.9936 17.6475 11.0581 17.6586 11.0792C17.656 11.0797 17.6517 11.0797 17.6491 11.0802C17.6401 11.1362 17.6401 11.1362 17.7299 11.2651C17.7109 11.281 17.6982 11.2852 17.6824 11.2646C17.6861 11.2635 17.6903 11.2625 17.6935 11.2614C17.695 11.2403 17.695 11.2403 17.6829 11.2192C17.6739 11.2281 17.6697 11.2318 17.6776 11.2577L17.6718 11.245C17.6544 11.2915 17.6549 11.3311 17.6744 11.3972C17.6729 11.3966 17.6702 11.3956 17.6681 11.395C17.6686 11.3972 17.6686 11.3972 17.6998 11.4537L17.7906 11.6158C17.7711 11.6813 17.7711 11.6813 17.6269 11.8408C17.6285 11.8356 17.6311 11.8287 17.6332 11.8234C17.6126 11.788 17.4943 11.7949 17.4716 11.8746C17.4579 11.9232 17.4621 11.9761 17.4394 12.0225C17.4859 11.9634 17.4964 11.9359 17.5023 11.9211C17.5472 11.9813 17.6649 11.8741 17.6655 11.9523C17.666 12.0099 17.628 12.0637 17.6465 12.1234C17.6644 12.1815 17.7278 12.1995 17.7568 12.2475C17.7563 12.1651 17.8234 12.1113 17.8419 12.0373ZM17.4817 11.6327C17.5033 11.6343 17.5487 11.5598 17.5678 11.5197C17.5678 11.5197 17.5788 11.4568 17.581 11.4267C17.5889 11.328 17.5435 11.3369 17.5435 11.3369C17.4975 11.3729 17.4436 11.6301 17.4817 11.6327ZM17.5403 11.1679C17.5662 11.1119 17.5794 11.0787 17.5794 11.0528C17.5794 11.0512 17.5788 11.0491 17.5788 11.048C17.6126 11.0781 17.6449 11.1362 17.6401 11.1896C17.6391 11.2038 17.6354 11.2139 17.6332 11.2202C17.6058 11.1584 17.5751 11.1505 17.5308 11.1933C17.5308 11.1927 17.5308 11.1927 17.5308 11.1922L17.5303 11.1954C17.5313 11.1912 17.5318 11.1853 17.5318 11.1811C17.5324 11.1632 17.5339 11.1616 17.5355 11.1605C17.5371 11.1611 17.5376 11.1611 17.5403 11.1679ZM17.5472 11.1653L17.5498 11.1663L17.5508 11.1595L17.5472 11.1653ZM17.0998 10.0386C17.0998 10.0381 17.0998 10.0381 17.0998 10.0376C17.0992 10.0376 17.0998 10.0381 17.0998 10.0386ZM17.9856 13.0007C17.9782 13.0113 17.9713 13.0219 17.9634 13.0319C17.9697 12.9854 17.9644 12.9384 17.9713 12.8919C17.9771 12.8539 17.9771 12.8539 17.9929 12.8381C17.9898 12.8396 17.9861 12.8423 17.9829 12.8439C17.9517 12.8687 17.9185 12.9136 17.9026 13.0615C17.9005 13.0551 17.9005 13.0551 17.8979 13.0525C17.8915 13.072 17.9005 13.2305 17.9068 13.2659C17.9201 13.3388 17.9375 13.342 17.9496 13.3383C17.9058 13.155 18.0257 13.1587 18.0273 13.1587C18.0114 13.0911 18.0125 13.0578 18.0521 12.9379C18.0283 12.9305 17.9824 12.9844 17.9856 13.0007ZM12.1316 11.8081C12.1327 11.8097 12.1337 11.8113 12.1342 11.8128C12.1284 11.797 12.1221 11.7817 12.1158 11.7664C12.1163 11.7711 12.1168 11.7775 12.1173 11.7827C12.1221 11.7912 12.1269 11.7996 12.1316 11.8081ZM8.13056 15.5081L8.12316 15.4928C8.12369 15.4949 8.12475 15.498 8.12528 15.5007C8.11471 15.4753 8.11366 15.4753 8.10151 15.469C8.09675 15.4827 8.09675 15.4827 8.09358 15.6433C8.07668 15.6158 8.07404 15.609 8.06506 15.5788C8.02281 15.6829 8.02175 15.7341 8.05344 15.9988C8.09306 16.3278 8.03126 16.9701 7.84269 16.9838C7.77667 16.9886 7.64673 16.894 7.60131 16.7403C7.55853 16.5956 7.50254 15.8451 7.50307 15.8398C7.50888 15.7378 7.6087 15.7093 7.65783 15.6412C7.67262 15.6206 7.6779 15.5947 7.69269 15.5741C7.70008 15.5641 7.71276 15.5519 7.72174 15.5429C7.79674 15.4663 7.80572 15.3565 7.8596 15.2688C7.89182 15.2165 7.90449 15.1531 7.95097 15.1093C8.00854 15.0929 8.05397 15.2281 8.08196 15.3443C8.10362 15.4346 8.11101 15.4653 8.13056 15.5081ZM8.11366 15.47C8.11101 15.4637 8.10943 15.4568 8.10573 15.451C8.10626 15.4542 8.10784 15.4568 8.1089 15.46C8.11048 15.4632 8.1126 15.4669 8.11366 15.47ZM17.1019 10.045L17.0998 10.0376C17.1003 10.0402 17.1008 10.0423 17.1019 10.045Z" fill="#0D0F0C"/>
</svg>
