<svg width="20" height="20" viewBox="0 0 20 20" fill="none" xmlns="http://www.w3.org/2000/svg">
<path d="M9.54515 8.93375C9.47939 8.92101 9.41141 8.90652 9.35231 8.87426C9.28455 8.83716 9.25012 8.78162 9.23945 8.70611C9.22679 8.61611 9.22035 8.52479 9.21102 8.43435C9.20613 8.38781 9.20146 8.34149 9.19658 8.29495C9.19436 8.27344 9.19213 8.25215 9.18991 8.23064C9.1888 8.21988 9.18747 8.20912 9.18658 8.19859C9.18614 8.19376 9.18569 8.18871 9.18569 8.18388C9.18769 8.17488 9.18436 8.16741 9.17592 8.16127C9.16503 8.19332 9.21613 8.20693 9.22701 8.1751C9.23679 8.14678 9.21168 8.12154 9.18325 8.1211C9.14859 8.12066 9.13304 8.15381 9.13282 8.18366C9.13259 8.2291 9.1417 8.2763 9.14659 8.32152C9.15148 8.36981 9.15659 8.41788 9.16148 8.46618C9.17081 8.55728 9.17458 8.65101 9.19213 8.74079C9.20613 8.81301 9.24701 8.87074 9.30966 8.9096C9.37608 8.95087 9.45518 8.96887 9.53116 8.98379C9.56426 8.9906 9.57848 8.94011 9.54515 8.93375Z" fill="black"/>
<path d="M2.66176 16.4454C2.07969 17.1817 0.788032 18.6343 0.0826628 19.4205C-0.103732 19.6282 0.0455622 19.9561 0.326377 19.9561H0.404134C0.494554 19.9561 0.580531 19.9192 0.642292 19.8539C1.08573 19.3842 2.91458 17.4487 3.09498 17.2807C3.30048 17.0897 3.99963 16.8986 4.12293 17.1108C4.21379 17.2673 3.56752 18.7393 3.22139 19.5022C3.12475 19.7152 3.28226 19.9561 3.51864 19.9561H3.83367C3.96986 19.9561 4.09182 19.8724 4.13914 19.7459C4.42085 18.9944 5.39548 16.4792 5.8498 16.389C6.38433 16.2829 6.67203 16.3253 6.79555 16.4739C6.89219 16.5905 6.38211 18.6662 6.1575 19.5562C6.10618 19.7593 6.26169 19.9561 6.47364 19.9561H7.37007C7.53536 19.9561 7.67443 19.8337 7.69354 19.6715C7.7864 18.8846 8.04833 16.7243 8.14897 16.5163C8.27227 16.2616 9.22113 15.3485 9.92028 15.3485C10.6194 15.3485 11.5203 16.1553 11.7258 16.5587C11.8918 16.8846 12.0795 18.9139 12.1455 19.6827C12.1597 19.8493 12.3008 19.9774 12.47 19.9774H13.5404C13.7493 19.9774 13.9043 19.7859 13.8583 19.5845C13.6502 18.6736 13.1701 16.4854 13.3327 16.3677C13.5382 16.219 14.396 16.389 14.7248 16.8136C14.9943 17.1615 15.5228 19.0623 15.7052 19.7384C15.7432 19.8794 15.8723 19.9774 16.02 19.9774H16.4246C16.6558 19.9774 16.8136 19.7457 16.7263 19.534C16.4208 18.792 15.8407 17.3692 15.8407 17.2596C15.8407 17.111 16.0051 17.026 16.2519 17.0473C16.4725 17.0662 18.931 19.4134 19.4466 19.908C19.5075 19.9662 19.5886 19.9987 19.6735 19.9987C19.961 19.9987 20.1076 19.6576 19.9081 19.4532C19.0554 18.579 17.4669 16.9105 17.2579 16.4015C16.9851 15.7372 10.7016 14.5564 10.048 14.4352C10.0116 14.4284 9.97449 14.428 9.93805 14.4335C9.30533 14.5314 3.43955 15.4614 2.66176 16.4454Z" fill="white"/>
<path d="M17.2591 16.4713C17.2429 16.1581 17.2051 15.823 17.1651 15.5316C17.0996 15.0527 16.7517 14.6588 16.2805 14.5303L10.2834 12.895C10.0652 12.8355 9.83486 12.8372 9.61758 12.8998L3.94931 14.5325C3.51231 14.6583 3.18262 15.0141 3.09398 15.4552C3.03977 15.7255 2.97934 16.031 2.92936 16.2956C2.8225 16.8617 8.02712 15.4442 9.42852 15.0529C9.65291 14.9903 9.8904 14.9925 10.1135 15.0593C11.5833 15.4991 17.2949 17.1652 17.2591 16.4713Z" fill="white"/>
<path d="M9.11245 11.3365C9.01537 10.7901 9.54323 10.2738 9.96112 10.2497C10.4545 10.2211 10.948 10.6478 10.9182 11.351C10.9053 11.6577 10.8462 11.9329 10.7693 12.1578C10.7376 12.2506 10.7918 12.3508 10.8875 12.3773L11.2997 12.4913C11.4114 12.5223 11.522 12.4382 11.5205 12.3235L11.4838 9.63944C11.4829 9.57729 11.4483 9.52042 11.3932 9.49077L10.0878 8.78851C10.0347 8.75996 9.97045 8.76062 9.91802 8.79048L8.61058 9.53205C8.55727 9.56236 8.52416 9.61791 8.52327 9.67874L8.4844 12.3514C8.48262 12.4665 8.59348 12.5506 8.70545 12.5194L9.13578 12.3993C9.22731 12.3736 9.28019 12.2803 9.25641 12.1892C9.19754 11.9641 9.17244 11.6744 9.11245 11.3365Z" fill="white"/>
<path d="M8.5625 9.00826V7.33093C8.5625 7.33093 8.89152 7.10352 10.0017 7.10352C11.1118 7.10352 11.4819 7.33093 11.4819 7.33093V9.00826L10.0017 8.18375L8.5625 9.00826Z" fill="white"/>
<path d="M8.56055 5.71496V6.7761C8.56055 6.7761 9.21837 6.58314 9.8351 6.53485C10.4518 6.48656 11.4387 6.7761 11.4387 6.7761V5.66688L10.0408 4.94336L8.56055 5.71496Z" fill="white"/>
<path d="M4.14042 3.77175L3.35751 7.49718C3.35485 7.50991 3.35352 7.52265 3.35352 7.53561V13.926C3.35352 14.0576 3.48615 14.1489 3.611 14.1035L5.06773 13.5723C5.14282 13.5448 5.19281 13.4741 5.19281 13.3948V7.37881C5.19281 7.36718 5.19169 7.35554 5.18947 7.34412L4.51565 3.77548C4.47722 3.5717 4.18307 3.56884 4.14042 3.77175Z" fill="white"/>
<path d="M6.67557 1.81641L5.89267 5.96983C5.89 5.98389 5.88867 5.99838 5.88867 6.01265V13.1372C5.88867 13.2839 6.0213 13.3858 6.14616 13.3351L7.60288 12.7428C7.67798 12.7123 7.72796 12.6332 7.72796 12.5449V5.83786C7.72796 5.8249 7.72685 5.81194 7.72463 5.79921L7.05081 1.82058C7.01237 1.5933 6.71823 1.59023 6.67557 1.81641Z" fill="white"/>
<path d="M4.41635 3.19015C4.75928 3.11607 4.97288 2.76481 4.89346 2.4056C4.81403 2.04638 4.47165 1.81523 4.12873 1.88931C3.78581 1.96338 3.5722 2.31464 3.65162 2.67386C3.73105 3.03308 4.07343 3.26423 4.41635 3.19015Z" fill="white"/>
<path d="M6.97299 1.43624C7.31592 1.36216 7.52952 1.01091 7.4501 0.651689C7.37067 0.292471 7.02829 0.0613205 6.68537 0.135399C6.34245 0.209478 6.12884 0.560734 6.20826 0.919953C6.28769 1.27917 6.63007 1.51032 6.97299 1.43624Z" fill="white"/>
<path d="M15.4955 3.75204L14.8217 7.32068C14.8195 7.3321 14.8184 7.34374 14.8184 7.35538V13.3714C14.8184 13.4507 14.8683 13.5214 14.9434 13.5488L16.4002 14.08C16.525 14.1255 16.6577 14.0341 16.6577 13.9026V7.51217C16.6577 7.49921 16.6563 7.48626 16.6537 7.47374L15.8707 3.74831C15.8281 3.5454 15.5339 3.54826 15.4955 3.75204Z" fill="white"/>
<path d="M12.9643 1.82058L12.2904 5.79921C12.2882 5.81194 12.2871 5.8249 12.2871 5.83786V12.5449C12.2871 12.6332 12.3371 12.7121 12.4122 12.7428L13.8689 13.3351C13.9938 13.3858 14.1264 13.2839 14.1264 13.1372V6.01265C14.1264 5.99816 14.1251 5.98389 14.1224 5.96983L13.3395 1.81641C13.2968 1.59023 13.0027 1.5933 12.9643 1.82058Z" fill="white"/>
<path d="M16.3583 2.653C16.4377 2.29378 16.2241 1.94252 15.8812 1.86844C15.5383 1.79436 15.1959 2.02551 15.1165 2.38473C15.037 2.74395 15.2506 3.09521 15.5936 3.16929C15.9365 3.24337 16.2789 3.01221 16.3583 2.653Z" fill="white"/>
<path d="M13.8056 0.918621C13.885 0.559403 13.6714 0.208146 13.3285 0.134067C12.9855 0.0599885 12.6432 0.29114 12.5637 0.650358C12.4843 1.00958 12.6979 1.36083 13.0408 1.43491C13.3838 1.50899 13.7261 1.27784 13.8056 0.918621Z" fill="white"/>
</svg>
