<svg width="20" height="20" viewBox="0 0 20 20" fill="none" xmlns="http://www.w3.org/2000/svg">
<path d="M9.6875 0C4.33723 0 0 4.33723 0 9.6875C0 15.0378 4.33723 19.375 9.6875 19.375C15.0378 19.375 19.375 15.0378 19.375 9.6875C19.375 4.33723 15.0378 0 9.6875 0ZM14.1778 6.58828C14.032 8.12012 13.4012 11.8374 13.0802 13.5531C12.9444 14.2791 12.677 14.5225 12.4181 14.5463C11.8556 14.5981 11.4284 14.1745 10.8835 13.8173C10.0309 13.2584 9.54918 12.9105 8.72152 12.3651C7.76508 11.7348 8.38512 11.3886 8.9302 10.8221C9.07285 10.674 11.5516 8.41941 11.5995 8.21488C11.6055 8.1893 11.6113 8.09379 11.5545 8.04363C11.4977 7.99348 11.4142 8.01047 11.3539 8.0241C11.2684 8.04353 9.90629 8.94381 7.26762 10.725C6.88103 10.9904 6.53085 11.1198 6.21707 11.113C5.87117 11.1055 5.20582 10.9175 4.71117 10.7566C4.10449 10.5595 3.6223 10.4552 3.6643 10.1203C3.68617 9.94579 3.92641 9.76741 4.385 9.58512C7.20911 8.3547 9.09229 7.5435 10.0345 7.15152C12.7248 6.0325 13.2839 5.83812 13.6482 5.83164C13.7284 5.83031 13.9076 5.85016 14.0236 5.94434C14.1008 6.01143 14.15 6.10505 14.1615 6.20668C14.1812 6.33287 14.1867 6.46087 14.1778 6.58828Z" fill="white" fill-opacity="0.5"/>
</svg>
