<svg width="22" height="22" viewBox="0 0 22 22" fill="none" xmlns="http://www.w3.org/2000/svg">
<path d="M22 17.0458C21.1998 17.2493 20.7048 17.0548 20.2606 16.3879L17.1022 12.0181L16.6458 11.4131L12.9573 16.4023C12.5359 17.0025 12.0938 17.2638 11.3073 17.0513L16.0304 10.7112L11.6332 4.98433C12.3894 4.8372 12.9119 4.91214 13.376 5.58933L16.6519 10.0134L19.9519 5.61339C20.3748 5.0132 20.8292 4.78495 21.5882 5.00633L19.8832 7.26683L17.5732 10.2746C17.2982 10.6184 17.336 10.8535 17.589 11.1856L22 17.0458ZM0.0055 10.6053L0.391875 8.70508C1.44375 4.94445 5.75438 3.38177 8.72713 5.70552C10.4644 7.07227 10.8962 9.00552 10.8103 11.1711H1.0175C0.870375 15.0693 3.67606 17.4219 7.25313 16.2215C8.50781 15.8001 9.24687 14.8176 9.61675 13.5884C9.80444 12.9724 10.1152 12.8761 10.6941 13.0521C10.3984 14.5894 9.73156 15.8736 8.32219 16.6773C6.21637 17.8805 3.21062 17.4913 1.62937 15.8193C0.6875 14.8493 0.298375 13.62 0.12375 12.3055C0.09625 12.0883 0.04125 11.8813 0 11.673C0.00366667 11.3173 0.0055 10.9617 0.0055 10.606V10.6053ZM1.03537 10.3441H9.88488C9.82713 7.52533 8.07194 5.52333 5.67325 5.50614C3.04012 5.48552 1.1495 7.44008 1.03537 10.3441Z" fill="white"/>
</svg>
