<svg width="22" height="22" viewBox="0 0 22 22" fill="none" xmlns="http://www.w3.org/2000/svg">
<g clip-path="url(#clip0_1883_62788)">
<path d="M0 11C0 7.96353 1.07422 5.37109 3.22267 3.22265C5.37109 1.07422 7.96353 0 11 0C14.0364 0 16.6289 1.07422 18.7773 3.22265C20.9258 5.37109 22 7.96353 22 11C22 14.0364 20.9258 16.6289 18.7773 18.7773C16.6289 20.9258 14.0365 22 11 22C7.96353 22 5.37109 20.9258 3.22267 18.7773C1.07422 16.6289 0 14.0364 0 11ZM1.20312 11C1.20312 13.6927 2.16276 15.9987 4.08203 17.918C6.0013 19.8372 8.30728 20.7969 11 20.7969C13.6927 20.7969 15.9987 19.8372 17.918 17.918C19.8372 15.9987 20.7969 13.6927 20.7969 11C20.7969 8.30728 19.8373 6.0013 17.918 4.08203C15.9987 2.16276 13.6927 1.20312 11 1.20312C8.30728 1.20312 6.00132 2.16276 4.08203 4.08203C2.16276 6.0013 1.20312 8.30728 1.20312 11ZM4.29689 13.3633C4.2396 13.306 4.2396 13.2487 4.29689 13.1914C4.41145 13.0768 4.55471 13.0338 4.72656 13.0625C4.89843 13.0911 4.99869 13.1198 5.02734 13.1484C5.22786 13.2344 5.44988 13.4277 5.69334 13.7285C5.93681 14.0293 6.13018 14.237 6.27343 14.3515C6.96093 14.9245 7.66273 14.9674 8.37888 14.4805C8.43617 14.2799 8.52928 14.1081 8.65816 13.9648C8.78705 13.8216 8.90882 13.7213 9.02341 13.664C9.13801 13.6067 9.33853 13.5208 9.62499 13.4062C8.67966 13.3203 7.91339 13.1556 7.32615 12.9121C6.73891 12.6686 6.27341 12.3606 5.92966 11.9882C5.47133 11.4726 5.19202 10.7994 5.09176 9.96872C4.99148 9.13799 5.05594 8.37888 5.28513 7.69138C5.457 7.26169 5.70049 6.87499 6.01557 6.53122C5.78641 5.81508 5.82938 4.99867 6.14448 4.08201C7.06115 4.1393 7.89187 4.4544 8.63667 5.02732C10.069 4.65492 11.5585 4.6406 13.1054 4.98435C13.3059 4.84112 13.6139 4.66209 14.0292 4.44723C14.4446 4.23238 14.9674 4.11063 15.5976 4.08198C15.7122 4.39709 15.7909 4.76948 15.8339 5.19917C15.8769 5.62886 15.8554 6.0299 15.7695 6.40229C16.4283 7.08979 16.7721 8.00646 16.8007 9.15229C16.8007 10.069 16.6432 10.8281 16.3281 11.4296C16.013 12.0312 15.4544 12.5325 14.6523 12.9335C14.108 13.1913 13.3919 13.3489 12.5038 13.4062C12.9049 13.6067 13.1985 13.8144 13.3847 14.0292C13.5709 14.2441 13.6927 14.5806 13.75 15.039V16.3925L13.7929 17.7031C13.8789 17.8463 13.9792 17.968 14.0937 18.0683C14.2083 18.1686 14.3086 18.2402 14.3945 18.2832C14.4804 18.3261 14.5091 18.3906 14.4804 18.4765C14.4518 18.5625 14.3372 18.6054 14.1367 18.6054C13.6497 18.6054 13.263 18.4336 12.9766 18.0898C12.8906 17.9466 12.8476 17.7747 12.8476 17.5742V15.5117C12.8476 15.2825 12.7904 15.1178 12.6758 15.0175C12.5612 14.9172 12.4466 14.8528 12.332 14.8242V17.5312C12.332 18.0182 12.3893 18.3333 12.5039 18.4765C12.6185 18.6197 12.6901 18.763 12.7188 18.9062C12.7474 18.9348 12.7259 18.9563 12.6543 18.9706C12.5827 18.9849 12.4609 18.9635 12.289 18.9062C11.9167 18.8202 11.6588 18.6269 11.5156 18.3261C11.3724 18.0253 11.3008 17.703 11.3008 17.3593V14.6953H10.7422V17.3594C10.7422 17.7031 10.6705 18.0326 10.5273 18.3476C10.3268 18.7487 9.9544 18.9635 9.41015 18.9922C9.32421 18.9635 9.28124 18.9349 9.28124 18.9063C9.30989 18.8776 9.39582 18.7344 9.53905 18.4766C9.5677 18.4193 9.60352 18.3047 9.64649 18.1328C9.68948 17.9609 9.71095 17.7604 9.71095 17.5313V14.8242C9.59637 14.8528 9.48893 14.9173 9.38867 15.0176C9.28841 15.1179 9.23827 15.2826 9.23827 15.5117V17.5742C9.23827 17.7747 9.1953 17.9466 9.10937 18.0898C8.85155 18.4336 8.46484 18.6055 7.94923 18.6055C7.74871 18.6055 7.63413 18.5625 7.60548 18.4766C7.57682 18.4193 7.58399 18.3692 7.62698 18.3262C7.66997 18.2832 7.73441 18.2331 7.82035 18.1758C7.90629 18.1185 7.96358 18.0755 7.99222 18.0469C8.10681 17.9609 8.19272 17.8464 8.25004 17.7031C8.33597 17.5885 8.35745 17.2878 8.31448 16.8008C8.27151 16.3138 8.26434 15.9987 8.29298 15.8555C7.54817 16.1133 6.78908 15.9844 6.01562 15.4688C5.78645 15.2396 5.55729 14.9101 5.32812 14.4805C5.15624 14.1653 4.81249 13.793 4.29689 13.3633Z" fill="white"/>
</g>
<defs>
<clipPath id="clip0_1883_62788">
<rect width="22" height="22" fill="white"/>
</clipPath>
</defs>
</svg>
