<svg width="22" height="22" viewBox="0 0 22 22" fill="none" xmlns="http://www.w3.org/2000/svg">
<g clip-path="url(#clip0_1883_62790)">
<path d="M10.9061 0.00585938C5.33508 0.00585938 5.68292 2.43147 5.68292 2.43147L5.68911 4.94447H11.0054V5.69894H3.57756C3.57756 5.69894 0.0126953 5.29302 0.0126953 10.9367C0.0126953 16.5805 3.1242 16.3803 3.1242 16.3803H4.98113V13.7614C4.98113 13.7614 4.88103 10.6374 8.04297 10.6374H13.3158C13.3158 10.6374 16.2782 10.6854 16.2782 7.7628V2.93039C16.2782 2.93039 16.7281 0.00585938 10.9061 0.00585938ZM7.97466 1.6958C8.10028 1.69569 8.2247 1.72045 8.34079 1.76867C8.45687 1.81688 8.56235 1.88761 8.65118 1.9768C8.74001 2.06599 8.81046 2.17189 8.85848 2.28844C8.9065 2.40499 8.93116 2.52991 8.93105 2.65604C8.93116 2.78217 8.9065 2.90709 8.85848 3.02364C8.81046 3.14019 8.74001 3.24609 8.65118 3.33528C8.56235 3.42447 8.45687 3.4952 8.34079 3.54341C8.2247 3.59163 8.10028 3.61639 7.97466 3.61628C7.84903 3.61639 7.72461 3.59163 7.60853 3.54341C7.49244 3.4952 7.38696 3.42447 7.29813 3.33528C7.2093 3.24609 7.13886 3.14019 7.09083 3.02364C7.04281 2.90709 7.01815 2.78217 7.01826 2.65604C7.01815 2.52991 7.04281 2.40499 7.09083 2.28844C7.13886 2.17189 7.2093 2.06599 7.29813 1.9768C7.38696 1.88761 7.49244 1.81688 7.60853 1.76867C7.72461 1.72045 7.84903 1.69569 7.97466 1.6958Z" fill="url(#paint0_linear_1883_62790)"/>
<path d="M11.0639 21.9242C16.6348 21.9242 16.287 19.4986 16.287 19.4986L16.2808 16.9857H10.9645V16.2312H18.3923C18.3923 16.2312 21.9571 16.6371 21.9571 10.9933C21.9571 5.34955 18.8456 5.54971 18.8456 5.54971H16.9887V8.16857C16.9887 8.16857 17.0888 11.2926 13.9269 11.2926H8.65407C8.65407 11.2926 5.69165 11.2445 5.69165 14.1672V18.9997C5.69165 18.9997 5.24181 21.9242 11.0638 21.9242H11.0639ZM13.9953 20.2344C13.8696 20.2345 13.7452 20.2098 13.6291 20.1615C13.5131 20.1133 13.4076 20.0426 13.3187 19.9534C13.2299 19.8642 13.1595 19.7583 13.1114 19.6418C13.0634 19.5252 13.0388 19.4003 13.0389 19.2742C13.0388 19.148 13.0634 19.0231 13.1114 18.9065C13.1594 18.79 13.2299 18.6841 13.3187 18.5949C13.4075 18.5057 13.513 18.4349 13.6291 18.3867C13.7452 18.3385 13.8696 18.3137 13.9953 18.3138C14.1209 18.3137 14.2453 18.3385 14.3614 18.3867C14.4775 18.4349 14.583 18.5057 14.6718 18.5948C14.7606 18.684 14.8311 18.7899 14.8791 18.9065C14.9271 19.023 14.9518 19.148 14.9517 19.2741C14.9518 19.4002 14.9271 19.5251 14.8791 19.6417C14.8311 19.7582 14.7606 19.8641 14.6718 19.9533C14.583 20.0425 14.4775 20.1132 14.3614 20.1615C14.2453 20.2097 14.1209 20.2345 13.9953 20.2344Z" fill="url(#paint1_linear_1883_62790)"/>
</g>
<defs>
<linearGradient id="paint0_linear_1883_62790" x1="210.902" y1="197.149" x2="1302.74" y2="1273.77" gradientUnits="userSpaceOnUse">
<stop stop-color="#387EB8"/>
<stop offset="1" stop-color="#366994"/>
</linearGradient>
<linearGradient id="paint1_linear_1883_62790" x1="316.964" y1="342.537" x2="1489.25" y2="1446.3" gradientUnits="userSpaceOnUse">
<stop stop-color="#FFE052"/>
<stop offset="1" stop-color="#FFC331"/>
</linearGradient>
<clipPath id="clip0_1883_62790">
<rect width="22" height="22" fill="white"/>
</clipPath>
</defs>
</svg>
