<svg width="22" height="22" viewBox="0 0 22 22" fill="none" xmlns="http://www.w3.org/2000/svg">
<g clip-path="url(#clip0_1883_62774)">
<path d="M15.2437 15.3026C16.0555 15.2144 16.6714 14.4802 16.6434 13.599C16.6155 12.7179 15.9155 12.0129 15.0757 12.0129H15.0197C14.1518 12.0423 13.4799 12.806 13.5079 13.7165C13.5359 14.1571 13.7039 14.5389 13.9558 14.8032C13.004 16.7712 11.5482 18.2103 9.36452 19.4146C7.88073 20.237 6.34098 20.5307 4.80124 20.3251C3.5414 20.1489 2.56154 19.5615 1.94554 18.5921C1.04973 17.153 0.965765 15.5962 1.72167 14.0396C2.25362 12.9234 3.09341 12.101 3.62536 11.6898C3.51338 11.308 3.34537 10.6619 3.26141 10.192C-0.798017 13.276 -0.37804 17.4467 0.853788 19.4146C1.77762 20.8832 3.65337 21.7937 5.72507 21.7937C6.28495 21.7937 6.84483 21.7349 7.4048 21.5881C10.9883 20.8538 13.7039 18.6215 15.2437 15.3026ZM20.171 11.6605C18.0433 9.04643 14.9077 7.60725 11.3242 7.60725H10.8763C10.6244 7.07857 10.0924 6.72606 9.50451 6.72606H9.44848C8.58069 6.75545 7.90883 7.51908 7.93676 8.42966C7.96477 9.31077 8.66465 10.0157 9.50451 10.0157H9.56046C10.1764 9.98631 10.7083 9.57511 10.9323 9.01704H11.4362C13.5639 9.01704 15.5796 9.66319 17.3994 10.9262C18.7992 11.8955 19.807 13.1585 20.3669 14.6857C20.8428 15.9194 20.8148 17.1236 20.3109 18.1516C19.5271 19.7083 18.2113 20.5601 16.4755 20.5601C15.3557 20.5601 14.2918 20.2076 13.7319 19.9432C13.424 20.237 12.864 20.7069 12.472 21.0007C13.6759 21.5881 14.9077 21.9112 16.0835 21.9112C18.7712 21.9112 20.7589 20.3544 21.5148 18.7978C22.3266 17.0942 22.2706 14.1571 20.171 11.6605ZM5.94902 15.8018C5.97704 16.683 6.67691 17.3878 7.51678 17.3878H7.57281C8.44069 17.3585 9.11255 16.5948 9.08454 15.6843C9.05661 14.8031 8.35665 14.0983 7.51678 14.0983H7.46083C7.4048 14.0983 7.32076 14.0983 7.2649 14.1276C6.11703 12.1303 5.64111 9.95692 5.80912 7.60716C5.92101 5.84487 6.48098 4.31752 7.46083 3.05451C8.27269 1.96776 9.84044 1.43908 10.9044 1.40978C13.8719 1.351 15.1316 5.22801 15.2157 6.78475C15.5796 6.87284 16.1955 7.07848 16.6155 7.22535C16.2795 2.46723 13.4799 0 10.7924 0C8.27269 0 5.94902 1.90916 5.02511 4.72882C3.73733 8.48836 4.5772 12.101 6.14496 14.9501C6.00505 15.1556 5.92101 15.4787 5.94902 15.8018Z" fill="#764ABC"/>
</g>
<defs>
<clipPath id="clip0_1883_62774">
<rect width="22" height="22" fill="white"/>
</clipPath>
</defs>
</svg>
