<svg width="22" height="22" viewBox="0 0 22 22" fill="none" xmlns="http://www.w3.org/2000/svg">
<g clip-path="url(#clip0_1883_62776)">
<path d="M0 11V0H22V22H0" fill="#007ACC"/>
<path d="M4.82324 11.0388V11.9353H7.68324V20.0753H9.71274V11.9353H12.5727V11.0553C12.5727 10.5603 12.5727 10.1588 12.5507 10.1478C12.5507 10.1313 10.8072 10.1258 8.68974 10.1258L4.83974 10.1423V11.0443L4.82324 11.0388ZM17.6767 10.1203C18.2377 10.2523 18.6667 10.5053 19.0517 10.9068C19.2552 11.1268 19.5577 11.5118 19.5797 11.6108C19.5797 11.6438 18.6282 12.2873 18.0507 12.6448C18.0287 12.6613 17.9407 12.5678 17.8527 12.4248C17.5667 12.0178 17.2752 11.8418 16.8187 11.8088C16.1587 11.7648 15.7187 12.1113 15.7187 12.6888C15.7187 12.8648 15.7517 12.9638 15.8177 13.1068C15.9662 13.4093 16.2412 13.5908 17.0937 13.9648C18.6667 14.6413 19.3487 15.0868 19.7612 15.7248C20.2287 16.4398 20.3332 17.5618 20.0197 18.4033C19.6677 19.3218 18.8097 19.9433 17.5832 20.1468C17.1982 20.2128 16.3182 20.2018 15.9057 20.1303C15.0257 19.9653 14.1842 19.5253 13.6672 18.9588C13.4637 18.7388 13.0732 18.1503 13.0952 18.1118L13.3042 17.9798L14.1292 17.5013L14.7507 17.1383L14.8937 17.3308C15.0752 17.6168 15.4822 18.0018 15.7187 18.1338C16.4337 18.5023 17.3907 18.4528 17.8637 18.0238C18.0672 17.8368 18.1552 17.6388 18.1552 17.3638C18.1552 17.1108 18.1167 16.9953 17.9902 16.8028C17.8142 16.5608 17.4622 16.3628 16.4722 15.9228C15.3337 15.4388 14.8497 15.1308 14.3987 14.6578C14.1402 14.3718 13.9037 13.9263 13.7937 13.5578C13.7112 13.2388 13.6837 12.4578 13.7607 12.1443C13.9972 11.0443 14.8277 10.2743 16.0157 10.0543C16.4007 9.97726 17.3082 10.0103 17.6877 10.1093L17.6767 10.1203Z" fill="white"/>
</g>
<defs>
<clipPath id="clip0_1883_62776">
<rect width="22" height="22" fill="white"/>
</clipPath>
</defs>
</svg>
