<svg width="60" height="60" viewBox="0 0 60 60" fill="none" xmlns="http://www.w3.org/2000/svg">
<g clip-path="url(#clip0_1322_38397)">
<rect width="60" height="60" rx="8" fill="#161616"/>
<rect width="60" height="60" fill="#161616"/>
<path d="M35.7468 22.648H36.9363L40.3263 19.2559L40.4928 17.8157C38.5508 16.1006 36.2039 14.9091 33.6737 14.3539C31.1436 13.7987 28.5137 13.8981 26.0326 14.6426C23.5515 15.3872 21.3011 16.7523 19.4939 18.6092C17.6866 20.466 16.3823 22.7531 15.7041 25.2546C16.0818 25.0997 16.5001 25.0746 16.8936 25.1832L23.6736 24.0644C23.6736 24.0644 24.0186 23.4931 24.197 23.5288C25.6497 21.9323 27.6574 20.9518 29.809 20.7881C31.9605 20.6244 34.0933 21.2898 35.7706 22.648H35.7468Z" fill="#EA4335"/>
<path d="M45.1562 25.2551C44.377 22.3838 42.7771 19.8026 40.5529 17.8281L35.795 22.589C36.7866 23.3997 37.5813 24.4252 38.1191 25.588C38.6569 26.7509 38.9237 28.0207 38.8996 29.3018V30.1469C39.4556 30.1469 40.0063 30.2565 40.52 30.4694C41.0338 30.6823 41.5006 30.9945 41.8938 31.3879C42.287 31.7814 42.599 32.2485 42.8118 32.7626C43.0246 33.2766 43.1341 33.8276 43.1341 34.384C43.1341 34.9405 43.0246 35.4915 42.8118 36.0055C42.599 36.5196 42.287 36.9867 41.8938 37.3802C41.5006 37.7736 41.0338 38.0857 40.52 38.2987C40.0063 38.5116 39.4556 38.6212 38.8996 38.6212H30.4305L29.5859 39.4782V44.5604L30.4305 45.4055H38.8996C41.2645 45.4239 43.5726 44.6801 45.4824 43.2842C47.3922 41.8883 48.8022 39.9144 49.5039 37.6544C50.2056 35.3945 50.1617 32.9686 49.3787 30.7355C48.5957 28.5025 47.1152 26.5809 45.1562 25.2551Z" fill="#4285F4"/>
<path d="M21.948 45.3585H30.4171V38.5742H21.948C21.3446 38.5741 20.7483 38.4442 20.1995 38.1934L19.01 38.5623L15.5962 41.9544L15.2988 43.1447C17.2132 44.5911 19.5492 45.3689 21.948 45.3585Z" fill="#34A853"/>
<path d="M21.9488 23.3497C19.6541 23.3634 17.4209 24.0939 15.5613 25.4392C13.7016 26.7845 12.3083 28.6774 11.576 30.8535C10.8436 33.0297 10.8088 35.3803 11.4764 37.5772C12.144 39.774 13.4806 41.7074 15.2996 43.1073L20.2121 38.1917C19.5879 37.9095 19.0413 37.4799 18.6194 36.9399C18.1975 36.3998 17.9129 35.7654 17.7899 35.0911C17.6669 34.4168 17.7092 33.7226 17.9133 33.0683C18.1173 32.4139 18.4769 31.8189 18.9613 31.3342C19.4457 30.8495 20.0404 30.4896 20.6944 30.2855C21.3483 30.0813 22.042 30.0389 22.7159 30.162C23.3898 30.2851 24.0238 30.5699 24.5635 30.9921C25.1032 31.4142 25.5325 31.9611 25.8146 32.5858L30.7271 27.6702C29.696 26.3214 28.3671 25.2295 26.8442 24.48C25.3214 23.7305 23.6459 23.3436 21.9488 23.3497Z" fill="#FBBC05"/>
</g>
<rect x="0.5" y="0.5" width="59" height="59" rx="7.5" stroke="white" stroke-opacity="0.2"/>
<defs>
<clipPath id="clip0_1322_38397">
<rect width="60" height="60" rx="8" fill="white"/>
</clipPath>
</defs>
</svg>
