<svg width="60" height="60" viewBox="0 0 60 60" fill="none" xmlns="http://www.w3.org/2000/svg">
<g clip-path="url(#clip0_1322_38501)">
<rect width="60" height="60" rx="8" fill="#161616"/>
<rect width="60" height="60" fill="#161616"/>
<g clip-path="url(#clip1_1322_38501)">
<path fill-rule="evenodd" clip-rule="evenodd" d="M14.2119 36.2776V31.4043L25.7606 41.7743V46.591L14.2119 36.2776Z" fill="#24478F" stroke="black" stroke-width="0.548523" stroke-linejoin="round"/>
<path fill-rule="evenodd" clip-rule="evenodd" d="M25.7734 41.7861L41.5268 37.9668V42.8628L25.7734 46.6595V41.7861Z" fill="#2E5CB8" stroke="black" stroke-width="0.548523" stroke-linejoin="round"/>
<path fill-rule="evenodd" clip-rule="evenodd" d="M41.5381 37.9682V42.8642L45.7541 28.6976V23.8242L41.5381 37.9682Z" fill="#193366" stroke="black" stroke-width="0.548523" stroke-linejoin="round"/>
<path fill-rule="evenodd" clip-rule="evenodd" d="M34.2156 13.4531L45.753 23.8231L41.537 37.9671L25.761 41.7638L14.2236 31.4051L18.4396 17.2498L34.2156 13.4531ZM33.819 21.6811C37.4456 23.5738 38.6923 27.7558 36.5843 31.0311C34.499 34.2951 29.8296 35.4171 26.1803 33.5245C22.5536 31.6545 21.307 27.4498 23.415 24.1858C25.489 20.9105 30.147 19.7771 33.8076 21.6698L33.819 21.6811Z" fill="#8DA6D8" stroke="black" stroke-width="0.548523" stroke-linejoin="round"/>
<path fill-rule="evenodd" clip-rule="evenodd" d="M22.6901 29.5462C22.3923 28.6592 22.2988 27.7163 22.4166 26.7881C22.5343 25.8598 22.8603 24.9702 23.3701 24.1856C25.5235 20.8989 30.1701 19.7656 33.7968 21.6922C36.9135 23.3129 38.2848 26.6109 37.2761 29.5689C36.6805 27.8457 35.4363 26.4227 33.8081 25.6022C30.1815 23.7889 25.5348 24.8089 23.3815 28.1182C23.0959 28.5719 22.8675 29.0592 22.7015 29.5689L22.6901 29.5462Z" fill="url(#paint0_linear_1322_38501)" stroke="black" stroke-width="0.548523" stroke-linejoin="round"/>
</g>
</g>
<rect x="0.5" y="0.5" width="59" height="59" rx="7.5" stroke="white" stroke-opacity="0.2"/>
<defs>
<linearGradient id="paint0_linear_1322_38501" x1="20.1401" y1="16.7396" x2="20.1401" y2="35.0996" gradientUnits="userSpaceOnUse">
<stop stop-color="#8DA6D8"/>
<stop offset="1" stop-color="#2E5CB8"/>
</linearGradient>
<clipPath id="clip0_1322_38501">
<rect width="60" height="60" rx="8" fill="white"/>
</clipPath>
<clipPath id="clip1_1322_38501">
<rect width="34" height="34" fill="white" transform="translate(13 13)"/>
</clipPath>
</defs>
</svg>
