<svg width="60" height="60" viewBox="0 0 60 60" fill="none" xmlns="http://www.w3.org/2000/svg">
<g clip-path="url(#clip0_1322_38586)">
<rect width="60" height="60" rx="8" fill="#161616"/>
<rect width="60" height="60" fill="#161616"/>
<g clip-path="url(#clip1_1322_38586)">
<path d="M46.9407 27.8212C46.8815 27.1971 46.7827 26.4808 46.5852 25.6827C46.3876 24.8949 46.0913 24.0252 45.6567 23.1248C45.2221 22.2243 44.6591 21.2932 43.9282 20.3826C43.6417 20.0245 43.3257 19.6766 42.9898 19.339C43.4936 17.2619 42.3774 15.4611 42.3774 15.4611C40.4514 15.3383 39.2266 16.0852 38.7722 16.4229C38.6932 16.3922 38.6241 16.3512 38.545 16.3205C38.2191 16.1875 37.8833 16.0545 37.5277 15.942C37.182 15.8294 36.8264 15.7271 36.4609 15.635C36.0955 15.5429 35.73 15.4713 35.3547 15.4099C35.2855 15.3997 35.2263 15.3894 35.1571 15.3792C34.3176 12.5961 31.9075 11.4297 31.9075 11.4297C29.211 13.1998 28.7073 15.6759 28.7073 15.6759C28.7073 15.6759 28.6974 15.7271 28.6776 15.8192C28.5295 15.8601 28.3813 15.9113 28.2332 15.9522C28.0257 16.0136 27.8183 16.0954 27.6208 16.1773C27.4133 16.2591 27.2158 16.341 27.0084 16.4331C26.6034 16.6173 26.1984 16.8219 25.8034 17.047C25.4181 17.2721 25.0428 17.5177 24.6773 17.7735L24.5786 17.7325C20.845 16.2591 17.5361 18.0293 17.5361 18.0293C17.2299 22.1425 19.0275 24.7312 19.3831 25.2018C19.2942 25.4576 19.2152 25.7134 19.1362 25.9692C18.8596 26.9003 18.6522 27.8519 18.5238 28.8444C18.504 28.9876 18.4843 29.1309 18.4744 29.2741C15.0174 31.0443 14 34.6561 14 34.6561C16.8743 38.0838 20.2326 38.2987 20.2326 38.2987L20.2424 38.2884C20.6672 39.0763 21.161 39.8232 21.7142 40.5292C21.9512 40.826 22.1883 41.1022 22.4451 41.3785C21.3981 44.489 22.5932 47.0674 22.5932 47.0674C25.7935 47.1902 27.8973 45.6145 28.3418 45.2564C28.6579 45.3689 28.9838 45.4712 29.3098 45.5531C30.2975 45.8191 31.305 45.9726 32.3125 46.0135C32.5594 46.0238 32.8162 46.034 33.0632 46.0238H33.4187L33.5768 46.0135V46.0238C35.088 48.2543 37.7351 48.5715 37.7351 48.5715C39.6217 46.5149 39.7303 44.4685 39.7303 44.0285V43.9978V43.9365V43.8444C40.1254 43.5579 40.5007 43.2509 40.8563 42.9133C41.607 42.2073 42.2688 41.3989 42.8219 40.5292L42.9701 40.2837C45.1036 40.4064 46.6148 38.9126 46.6148 38.9126C46.2592 36.6104 44.9949 35.4849 44.7282 35.27C44.4615 35.0552 44.7183 35.2598 44.6986 35.2496C44.6788 35.2393 44.6788 35.2291 44.6788 35.2291C44.669 35.2189 44.6492 35.2086 44.6295 35.1984C44.6393 35.0552 44.6492 34.9221 44.6591 34.7789C44.6788 34.5333 44.6788 34.2775 44.6788 34.032V33.7045V33.6432L44.669 33.4897L44.6591 33.285C44.6591 33.2134 44.6492 33.152 44.6393 33.0906C44.6295 33.0292 44.6295 32.9576 44.6196 32.8962L44.5998 32.7018L44.5702 32.5074C44.5307 32.2516 44.4912 32.0061 44.4319 31.7503C44.2047 30.7578 43.8294 29.8164 43.3454 28.9672C42.8515 28.1179 42.2391 27.371 41.5379 26.7366C40.8465 26.1022 40.0661 25.5906 39.2562 25.2121C38.4364 24.8335 37.587 24.5879 36.7375 24.4754C36.3128 24.414 35.8881 24.3935 35.4633 24.4037H35.1473L34.9892 24.414C34.93 24.414 34.8707 24.4242 34.8213 24.4242C34.604 24.4447 34.3867 24.4754 34.1793 24.5163C33.3298 24.68 32.5298 24.9972 31.8285 25.4372C31.1272 25.8771 30.5148 26.4194 30.021 27.0333C29.5271 27.6473 29.1419 28.3328 28.8752 29.0388C28.6085 29.7448 28.4603 30.4815 28.4208 31.1875C28.411 31.3614 28.411 31.5456 28.411 31.7196V31.8526L28.4208 31.9958C28.4307 32.0777 28.4307 32.1698 28.4406 32.2516C28.4702 32.6097 28.5394 32.9576 28.6283 33.285C28.8159 33.9501 29.1122 34.5538 29.4777 35.0654C29.8432 35.577 30.2876 35.9965 30.7519 36.3341C31.2161 36.6616 31.7198 36.8969 32.2137 37.0504C32.7076 37.2039 33.2014 37.2653 33.6657 37.2653H33.9225C33.9521 37.2653 33.9817 37.2653 34.0114 37.255C34.0608 37.255 34.1101 37.2448 34.1595 37.2448C34.1694 37.2448 34.1892 37.2448 34.199 37.2346L34.2484 37.2243C34.2781 37.2243 34.3077 37.2141 34.3373 37.2141C34.3966 37.2039 34.446 37.1936 34.5052 37.1834C34.5645 37.1732 34.6139 37.1629 34.6633 37.1425C34.7719 37.122 34.8707 37.0811 34.9695 37.0504C35.167 36.9788 35.3646 36.8969 35.5325 36.8048C35.7103 36.7127 35.8683 36.6002 36.0263 36.4979C36.0658 36.4672 36.1152 36.4365 36.1547 36.3955C36.3128 36.2625 36.3424 36.017 36.214 35.8532C36.1054 35.71 35.9078 35.6691 35.7498 35.7612L35.6312 35.8226C35.493 35.8942 35.3547 35.9556 35.2065 36.0067C35.0584 36.0579 34.9003 36.0988 34.7423 36.1295C34.6633 36.1397 34.5843 36.15 34.4954 36.1602C34.4559 36.1602 34.4163 36.1704 34.367 36.1704H34.1299C34.0805 36.1704 34.0311 36.1704 33.9817 36.1602H33.9225C33.9027 36.1602 33.8731 36.1602 33.8533 36.15C33.804 36.1397 33.7644 36.1397 33.7151 36.1295C33.3496 36.0784 32.9841 35.9658 32.6384 35.8021C32.2829 35.6384 31.947 35.4133 31.6408 35.1268C31.3346 34.8403 31.0679 34.5026 30.8605 34.1138C30.6531 33.725 30.5049 33.2953 30.4358 32.8451C30.4062 32.62 30.3864 32.3846 30.3963 32.1595C30.3963 32.0981 30.4062 32.0367 30.4062 31.9754V31.8935C30.4062 31.8628 30.416 31.8321 30.416 31.8014C30.4259 31.6786 30.4457 31.5558 30.4654 31.4331C30.6333 30.4508 31.1075 29.489 31.8384 28.7625C32.026 28.5784 32.2236 28.4147 32.431 28.2612C32.6384 28.1077 32.8656 27.9747 33.1027 27.8621C33.3397 27.7496 33.5768 27.6575 33.8336 27.5859C34.0805 27.5142 34.3373 27.4733 34.604 27.4426C34.7324 27.4324 34.8608 27.4222 34.9991 27.4222H35.3053L35.4139 27.4324C35.7004 27.4529 35.977 27.4938 36.2535 27.5654C36.8066 27.6882 37.3499 27.9031 37.8536 28.1896C38.8611 28.7728 39.7204 29.6732 40.2439 30.7578C40.5106 31.3001 40.6983 31.8833 40.7872 32.487C40.8069 32.6404 40.8267 32.7939 40.8366 32.9474L40.8465 33.0599L40.8563 33.1725V33.6125C40.8563 33.6841 40.8465 33.8069 40.8465 33.8785C40.8366 34.0422 40.8168 34.2161 40.7971 34.3799C40.7773 34.5436 40.7477 34.7073 40.718 34.871C40.6884 35.0347 40.6489 35.1984 40.6094 35.3519C40.5304 35.6691 40.4316 35.9863 40.3131 36.3035C40.076 36.9174 39.76 37.5108 39.3846 38.0531C38.6241 39.1377 37.587 40.0176 36.4017 40.5804C35.809 40.8567 35.1868 41.0613 34.5447 41.1636C34.2287 41.225 33.9027 41.2557 33.5768 41.2659H33.0829C32.9051 41.2659 32.7372 41.2557 32.5594 41.2352C31.868 41.1841 31.1865 41.0511 30.5148 40.8567C29.853 40.6622 29.211 40.386 28.5986 40.0586C27.3837 39.3833 26.2873 38.4624 25.4379 37.3471C25.0132 36.7946 24.6378 36.1909 24.3316 35.5668C24.0254 34.9426 23.7785 34.2775 23.6007 33.6125C23.4229 32.9372 23.3143 32.2516 23.2649 31.5558L23.255 31.4228V30.8396V30.768V30.5122C23.2649 30.1745 23.2945 29.8164 23.334 29.4685C23.3735 29.1207 23.4328 28.7625 23.5019 28.4147C23.5711 28.0668 23.6501 27.7189 23.7489 27.371C23.9365 26.6855 24.1736 26.0204 24.4502 25.3962C25.0132 24.1479 25.7441 23.0327 26.6232 22.1425C26.8405 21.9174 27.0676 21.7128 27.3047 21.5081C27.5418 21.3137 27.7887 21.1295 28.0455 20.9556C28.2924 20.7817 28.5591 20.6282 28.8258 20.4849C28.9542 20.4133 29.0925 20.3417 29.2308 20.2803L29.4382 20.1882L29.6456 20.0961C29.9222 19.9733 30.2086 19.871 30.5049 19.7789C30.5741 19.7585 30.6531 19.738 30.7222 19.7073C30.7914 19.6868 30.8704 19.6664 30.9395 19.6459C31.0877 19.605 31.2359 19.5641 31.384 19.5334C31.4532 19.5129 31.5322 19.5027 31.6112 19.4822C31.6902 19.4617 31.7594 19.4515 31.8384 19.431C31.9174 19.4208 31.9865 19.4003 32.0655 19.3901L32.1742 19.3696L32.2927 19.3492C32.3717 19.339 32.4409 19.3287 32.5199 19.3185C32.6088 19.3083 32.6878 19.298 32.7767 19.2878C32.8459 19.2776 32.9644 19.2673 33.0335 19.2571C33.0829 19.2469 33.1422 19.2469 33.1916 19.2366L33.3002 19.2264L33.3496 19.2162H33.4089C33.4978 19.2059 33.5768 19.2059 33.6657 19.1957L33.7941 19.1855H33.8928C33.962 19.1855 34.041 19.1752 34.1101 19.1752C34.3966 19.165 34.6929 19.165 34.9793 19.1752C35.5522 19.1957 36.1152 19.2673 36.6585 19.3696C37.7549 19.5845 38.7821 19.9426 39.7204 20.4235C40.6588 20.8942 41.4885 21.4774 42.2194 22.1118C42.2688 22.1527 42.3083 22.1937 42.3577 22.2346C42.3972 22.2755 42.4466 22.3164 42.4861 22.3574C42.575 22.4392 42.654 22.5211 42.7429 22.6029C42.8318 22.6848 42.9108 22.7666 42.9898 22.8485C43.0688 22.9304 43.1479 23.0122 43.2269 23.1043C43.5331 23.4419 43.8195 23.7796 44.0763 24.1275C44.5899 24.813 45.0048 25.5088 45.3307 26.1636L45.39 26.2864L45.4493 26.4092C45.4888 26.4911 45.5283 26.5729 45.5579 26.6548C45.5974 26.7366 45.6271 26.8082 45.6666 26.8901C45.6962 26.972 45.7357 27.0436 45.7653 27.1254C45.8839 27.4324 46.0024 27.7291 46.0913 28.0054C46.2394 28.4556 46.3481 28.8546 46.437 29.2025C46.4666 29.3458 46.595 29.4378 46.7333 29.4174C46.8815 29.4071 46.9901 29.2844 46.9901 29.1309C47 28.7625 46.9901 28.3226 46.9407 27.8212Z" fill="url(#paint0_linear_1322_38586)"/>
</g>
</g>
<rect x="0.5" y="0.5" width="59" height="59" rx="7.5" stroke="white" stroke-opacity="0.2"/>
<defs>
<linearGradient id="paint0_linear_1322_38586" x1="30.4951" y1="11.3581" x2="30.4951" y2="11.4287" gradientUnits="userSpaceOnUse">
<stop stop-color="#F05A28"/>
<stop offset="1" stop-color="#FBCA0A"/>
</linearGradient>
<clipPath id="clip0_1322_38586">
<rect width="60" height="60" rx="8" fill="white"/>
</clipPath>
<clipPath id="clip1_1322_38586">
<rect width="33" height="38" fill="white" transform="translate(14 11)"/>
</clipPath>
</defs>
</svg>
