<svg width="60" height="60" viewBox="0 0 60 60" fill="none" xmlns="http://www.w3.org/2000/svg">
<g clip-path="url(#clip0_1322_49557)">
<rect width="60" height="60" rx="8" fill="#161616"/>
<rect width="60" height="60" fill="#161616"/>
<g clip-path="url(#clip1_1322_49557)">
<path d="M12.8567 30.9749C12.8567 31.1677 12.7994 31.3562 12.6921 31.5166C12.5847 31.6769 12.4322 31.8018 12.2537 31.8756C12.0753 31.9494 11.8789 31.9687 11.6894 31.9311C11.5 31.8935 11.326 31.8006 11.1894 31.6643C11.0528 31.528 10.9598 31.3542 10.9221 31.1651C10.8844 30.976 10.9037 30.78 10.9777 30.6018C11.0516 30.4237 11.1768 30.2714 11.3374 30.1643C11.498 30.0572 11.6868 30 11.88 30C12.139 30 12.3874 30.1027 12.5706 30.2855C12.7538 30.4684 12.8567 30.7164 12.8567 30.9749ZM14.12 30.9749C14.12 31.1677 14.1773 31.3562 14.2846 31.5166C14.3919 31.6769 14.5444 31.8018 14.7229 31.8756C14.9014 31.9494 15.0977 31.9687 15.2872 31.9311C15.4766 31.8935 15.6507 31.8006 15.7873 31.6643C15.9239 31.528 16.0169 31.3542 16.0546 31.1651C16.0922 30.976 16.0729 30.78 15.999 30.6018C15.9251 30.4237 15.7999 30.2714 15.6393 30.1643C15.4786 30.0572 15.2898 30 15.0967 30C14.8376 30 14.5892 30.1027 14.406 30.2855C14.2229 30.4684 14.12 30.7164 14.12 30.9749Z" fill="#419EDA"/>
<path d="M20.77 32.0332H20.555C20.1251 32.0329 19.701 31.9344 19.315 31.7454C19.4404 31.0226 19.4962 30.2894 19.4817 29.556C19.064 28.9512 18.5884 28.3885 18.0617 27.8756C18.2947 27.4373 18.6397 27.0682 19.0617 26.8059L19.245 26.6927L19.1017 26.5264C18.3796 25.715 17.4889 25.0706 16.4917 24.6381L16.2933 24.5516L16.2433 24.7612C16.125 25.2438 15.8806 25.6864 15.535 26.0439C14.8824 25.6975 14.1975 25.4156 13.49 25.2021C12.7834 25.4122 12.099 25.6908 11.4467 26.0339C11.1025 25.6772 10.8592 25.2357 10.7417 24.7545L10.69 24.5449L10.4917 24.6314C9.49329 25.0711 8.60227 25.7215 7.88 26.538L7.73667 26.7044L7.92 26.8175C8.34141 27.0784 8.68637 27.4457 8.92 27.8823C8.3942 28.3918 7.91868 28.9506 7.5 29.551C7.48438 30.2894 7.5402 31.0276 7.66667 31.7554C7.2827 31.9431 6.86089 32.041 6.43333 32.0415H6.21667L6 32.0149L6.02 32.2295C6.12384 33.313 6.46525 34.3604 7.02 35.2974L7.13333 35.477L7.3 35.3373C7.68117 35.0153 8.1414 34.8005 8.63333 34.7151C8.95078 35.3698 9.33029 35.9926 9.76667 36.5751C10.4674 36.8204 11.1902 36.9976 11.925 37.1041C11.9981 37.6011 11.9359 38.1085 11.745 38.5732L11.6667 38.7728L11.8767 38.8194C12.4075 38.9369 12.9496 38.9966 13.4933 38.9974L15.11 38.8194L15.32 38.7728L15.2383 38.5732C15.0472 38.1073 14.9856 37.5987 15.06 37.1008C15.792 36.9942 16.5119 36.8176 17.21 36.5734C17.6486 35.9935 18.0303 35.3729 18.35 34.7201C18.8418 34.8058 19.302 35.0206 19.6833 35.3423L19.85 35.4804L19.96 35.2957C20.5153 34.3589 20.8568 33.3114 20.96 32.2278L20.98 32.0132L20.77 32.0332ZM15.8033 34.6552C14.2881 35.0712 12.6885 35.0712 11.1733 34.6552C10.3268 33.348 9.84099 31.841 9.765 30.2863C10.2518 29.6837 10.8161 29.1478 11.4433 28.6925C12.0741 28.2346 12.7622 27.861 13.49 27.5812C14.2158 27.8606 14.9021 28.2331 15.5317 28.6892C16.1614 29.1476 16.7279 29.6869 17.2167 30.293C17.1759 31.0667 17.0341 31.8318 16.795 32.5689C16.5561 33.3042 16.2227 34.0054 15.8033 34.6552Z" fill="#419EDA"/>
<path d="M26.9247 26.2294C29.3797 26.2294 30.758 27.9879 30.758 30.733C30.7611 31.0302 30.7411 31.3273 30.698 31.6214H24.198C24.3163 33.696 25.5647 35.0004 27.4047 35.0004C28.2595 34.9908 29.0926 34.7298 29.7997 34.2501L30.388 35.3115C29.4533 35.9456 28.3514 36.2894 27.2213 36.2997C24.6497 36.3097 22.6113 34.4281 22.6113 31.287C22.6113 28.146 24.728 26.2294 26.9247 26.2294ZM29.3397 30.555C29.3397 28.5985 28.468 27.5121 26.9647 27.5121C25.618 27.5121 24.3913 28.6185 24.1947 30.555H29.333H29.3397ZM32.6047 27.7899H31.1797V26.5655L32.6797 26.4673L32.878 23.7804H34.243V26.4673H36.833V27.7983H34.248V33.1254C34.248 34.3116 34.6247 34.9821 35.733 34.9821C36.1073 34.9551 36.4748 34.8681 36.8213 34.7242L37.138 35.9487C36.5662 36.1596 35.9653 36.2814 35.3563 36.3097C33.298 36.3097 32.6047 35.0054 32.6047 33.1088V27.7899ZM42.1447 26.2294C42.6655 26.2269 43.1818 26.3268 43.6639 26.5235C44.1461 26.7202 44.5847 27.0097 44.9547 27.3757L44.143 28.4221C43.5697 27.923 42.9763 27.5737 42.203 27.5737C40.4613 27.5737 39.203 29.071 39.203 31.287C39.203 33.5031 40.403 34.9621 42.1663 34.9621C43.0763 34.9621 43.8497 34.5079 44.423 33.9938L45.1547 35.0603C44.2992 35.8433 43.1868 36.2876 42.0263 36.3097C39.473 36.3097 37.5147 34.4796 37.5147 31.292C37.513 28.0661 39.6663 26.2294 42.1447 26.2294ZM49.7447 26.2294C50.853 26.2294 51.578 26.6437 52.4363 27.3357L52.3563 25.6953V22.002H53.9997V36.0685H52.6547L52.5163 34.9421H52.4563C51.7047 35.6725 50.6747 36.3097 49.5463 36.3097C47.133 36.3097 45.5697 34.4796 45.5697 31.287C45.5697 28.1576 47.548 26.2294 49.7447 26.2294ZM49.903 34.9421C50.793 34.9421 51.5697 34.5079 52.358 33.6112V28.6002C51.5463 27.8698 50.8147 27.592 50.0247 27.592C48.4813 27.592 47.2547 29.0726 47.2547 31.2671C47.2513 33.5596 48.2213 34.9421 49.903 34.9421Z" fill="white"/>
</g>
</g>
<rect x="0.5" y="0.5" width="59" height="59" rx="7.5" stroke="white" stroke-opacity="0.2"/>
<defs>
<clipPath id="clip0_1322_49557">
<rect width="60" height="60" rx="8" fill="white"/>
</clipPath>
<clipPath id="clip1_1322_49557">
<rect width="48" height="17" fill="white" transform="translate(6 22)"/>
</clipPath>
</defs>
</svg>
