<svg width="60" height="60" viewBox="0 0 60 60" fill="none" xmlns="http://www.w3.org/2000/svg">
<g clip-path="url(#clip0_1322_49545)">
<rect width="60" height="60" rx="8" fill="#161616"/>
<rect width="60" height="60" fill="#161616"/>
<g clip-path="url(#clip1_1322_49545)">
<path d="M46.8997 40.2852C44.7794 40.2329 43.136 40.4428 41.7578 41.0198C41.3602 41.1771 40.724 41.1773 40.671 41.6758C40.883 41.8857 40.9095 42.2267 41.0951 42.5152C41.4135 43.0398 41.9697 43.7482 42.4733 44.1157C43.0299 44.5353 43.5867 44.955 44.1695 45.3223C45.2033 45.952 46.3697 46.3192 47.3768 46.9489C47.9602 47.3159 48.5429 47.7885 49.126 48.1819C49.4176 48.3915 49.603 48.7329 49.9743 48.8639V48.7854C49.7886 48.5491 49.7356 48.2081 49.5502 47.9458C49.2854 47.6834 49.02 47.4472 48.7549 47.1849C47.9864 46.1619 47.0322 45.2698 45.9986 44.5353C45.1505 43.9581 43.2949 43.1711 42.9505 42.2004C42.9505 42.2004 42.9238 42.1743 42.8975 42.148C43.4805 42.0956 44.1695 41.8857 44.7264 41.7282C45.6275 41.4919 46.4491 41.5446 47.3768 41.3084C47.8008 41.2035 48.2249 41.0723 48.6489 40.9411V40.7051C48.1721 40.2329 47.8275 39.6033 47.3238 39.1573C45.9721 38.0027 44.4876 36.8748 42.9505 35.9304C42.1287 35.4056 41.0684 35.0645 40.1938 34.6186C39.876 34.4611 39.3457 34.3825 39.1603 34.1201C38.683 33.5431 38.418 32.7823 38.0735 32.1002C37.3051 30.6571 36.5627 29.0569 35.9 27.5354C35.4232 26.5122 35.1316 25.4889 34.5484 24.5447C31.8184 20.0848 28.8499 17.3826 24.2911 14.7328C23.3103 14.182 22.1441 13.9458 20.8984 13.6574C20.236 13.631 19.5732 13.5786 18.9106 13.5523C18.4865 13.3686 18.0624 12.8702 17.6913 12.6341C16.1808 11.6895 12.2843 9.64348 11.1711 12.3456C10.4554 14.0508 12.2314 15.7297 12.8408 16.5956C13.2917 17.199 13.8746 17.881 14.1927 18.5632C14.3783 19.0089 14.4311 19.4815 14.6167 19.9536C15.041 21.1076 15.4383 22.3934 15.9951 23.4691C16.2867 24.0199 16.6046 24.597 16.9757 25.0955C17.1878 25.384 17.5587 25.5153 17.6384 25.9874C17.2675 26.5122 17.2408 27.2993 17.0286 27.9551C16.0745 30.9196 16.4457 34.5924 17.7973 36.7698C18.2213 37.4255 19.2286 38.8688 20.5803 38.3177C21.7732 37.8456 21.5081 36.3502 21.8524 35.0384C21.9322 34.7233 21.8792 34.5137 22.0381 34.3038V34.3564C22.4092 35.0908 22.7802 35.7993 23.1248 36.5338C23.9465 37.8192 25.3776 39.1573 26.5703 40.0493C27.2067 40.5213 27.7102 41.3347 28.5054 41.6233V41.5444H28.4522C28.2932 41.3083 28.0546 41.2035 27.8427 41.0197C27.3657 40.5477 26.8354 39.9705 26.4645 39.4457C25.3514 37.9764 24.3705 36.35 23.4959 34.671C23.0719 33.8579 22.7007 32.9658 22.3562 32.1526C22.197 31.8375 22.197 31.3655 21.9321 31.2082C21.5345 31.7853 20.9514 32.2838 20.6599 32.9921C20.1565 34.1201 20.1033 35.5106 19.9178 36.9533C19.8118 36.9799 19.8646 36.9533 19.8116 37.0061C18.9637 36.7959 18.6721 35.9304 18.3538 35.1957C17.5586 33.3332 17.4261 30.3424 18.1154 28.1912C18.301 27.6402 19.0962 25.9089 18.7781 25.3841C18.6191 24.8856 18.0887 24.597 17.7973 24.2036C17.4529 23.7051 17.0816 23.0757 16.8432 22.5246C16.207 21.0554 15.8889 19.4288 15.1999 17.9597C14.8818 17.2775 14.3254 16.5694 13.8746 15.9397C13.3711 15.2315 12.8145 14.7328 12.4168 13.8933C12.2845 13.6049 12.0987 13.1326 12.3108 12.8178C12.3638 12.6079 12.4697 12.5293 12.6819 12.4768C13.0265 12.1881 14.0073 12.5554 14.3516 12.7128C15.3324 13.1061 16.154 13.4737 16.9757 14.0245C17.3467 14.2869 17.7443 14.7854 18.2213 14.9166H18.778C19.6262 15.1001 20.5802 14.9691 21.3754 15.2051C22.7803 15.6509 24.0524 16.3069 25.1922 17.0153C28.6644 19.1927 31.5267 22.2884 33.4618 25.9874C33.7798 26.5906 33.9122 27.1419 34.2038 27.7713C34.7606 29.0569 35.4497 30.3686 36.006 31.6279C36.5627 32.8607 37.0927 34.1201 37.8879 35.1434C38.2856 35.6941 39.8757 35.9828 40.5914 36.2715C41.1216 36.5074 41.9433 36.7175 42.4203 37.006C43.3214 37.5566 44.2226 38.1866 45.0708 38.7898C45.4949 39.1046 46.82 39.7606 46.8997 40.2852Z" fill="#00546B"/>
<path d="M19.8639 17.4883C19.4134 17.4883 19.0954 17.5411 18.7773 17.6196V17.6721H18.8304C19.0426 18.0919 19.4134 18.3805 19.6783 18.7477C19.8905 19.1673 20.0759 19.5873 20.2881 20.0071C20.3145 19.9807 20.341 19.9546 20.341 19.9546C20.7123 19.6921 20.8977 19.2724 20.8977 18.6427C20.7386 18.4592 20.7121 18.2756 20.5796 18.0919C20.4207 17.8294 20.0759 17.6983 19.8639 17.4883Z" fill="#00546B"/>
</g>
</g>
<rect x="0.5" y="0.5" width="59" height="59" rx="7.5" stroke="white" stroke-opacity="0.2"/>
<defs>
<clipPath id="clip0_1322_49545">
<rect width="60" height="60" rx="8" fill="white"/>
</clipPath>
<clipPath id="clip1_1322_49545">
<rect width="39" height="38" fill="white" transform="translate(11 11)"/>
</clipPath>
</defs>
</svg>
