<svg width="60" height="60" viewBox="0 0 60 60" fill="none" xmlns="http://www.w3.org/2000/svg">
<g clip-path="url(#clip0_1322_49535)">
<rect width="60" height="60" rx="8" fill="#161616"/>
<rect width="60" height="60" fill="#161616"/>
<path d="M11.8622 15.9199L12.3254 17.0816C12.4263 17.2911 12.5437 17.4857 12.6756 17.6619C13.0637 18.1792 13.433 18.7215 13.7636 19.3024C14.549 20.6777 15.079 22.2048 15.4577 23.8584C15.6846 24.8682 15.8079 25.9029 15.8172 26.9501C15.8555 30.0798 15.0505 32.7675 13.4228 35.0013C13.159 35.3554 12.8742 35.6804 12.5711 35.9731C12.4096 35.9731 12.3344 35.8031 12.2681 35.6575C12.1406 35.3742 12.0692 35.0642 12.0313 34.7491C11.9744 34.3706 11.9366 33.9921 11.9557 33.6005V33.4237C11.9463 33.3857 11.8044 16.0089 11.8609 15.9205L11.8622 15.9199Z" fill="#599636"/>
<path d="M11.863 15.8825C11.8439 15.8315 11.8247 15.87 11.806 15.895C11.8154 16.1471 11.7491 16.3744 11.6445 16.5891C11.5311 16.8045 11.3793 16.9677 11.228 17.1445C10.3857 18.1163 9.72353 19.2899 9.19313 20.6023C8.49273 22.3691 8.12383 24.2618 8.02013 26.2559C7.97338 26.9756 8.19013 29.512 8.36098 30.2435C8.82423 32.1872 9.65723 33.8147 10.741 35.2279C11.0062 35.5679 11.2901 35.8841 11.5833 36.1867C11.6683 36.1867 11.6781 36.0859 11.6968 36.0099C11.7341 35.8488 11.7625 35.6842 11.7818 35.5175C11.8668 34.8868 11.9144 34.2555 11.9709 33.6248L11.8668 15.8825H11.863Z" fill="#6CAC48"/>
<path d="M12.3267 36.7429C12.3458 36.4528 12.4542 36.2131 12.5634 35.9734C12.4499 35.911 12.3645 35.7841 12.2982 35.6447C12.2413 35.5183 12.1941 35.3614 12.1563 35.2282C12.0237 34.6984 11.9948 34.143 11.9574 33.6002V33.2715C11.9106 33.3225 11.9004 33.7509 11.9004 33.8144C11.8719 34.3946 11.8154 34.963 11.7304 35.5178C11.7019 35.7444 11.6837 35.9722 11.5791 36.174C11.5791 36.1995 11.5791 36.225 11.5885 36.2624C11.7585 36.931 11.8061 37.6127 11.835 38.3069V38.5591C11.835 38.8617 11.8256 38.7988 12.0147 38.8991C12.0904 38.937 12.1762 38.9501 12.2515 39.0254C12.3084 39.0254 12.3178 38.9631 12.3178 38.9121L12.2893 38.4956V37.3339C12.2799 37.1322 12.3084 36.9299 12.3275 36.7406L12.3267 36.7429Z" fill="#C2BFBF"/>
<path d="M19.514 31.4652V32.6671C19.513 32.7147 19.5151 32.7623 19.5201 32.8094C19.5318 32.9518 19.5974 33.0386 19.6937 33.0785C19.7836 33.11 19.8749 33.1338 19.9671 33.1497C20.0205 33.1578 20.0383 33.189 20.0444 33.2654C20.0504 33.5345 20.0327 33.5663 19.8369 33.5501C19.3804 33.5183 18.9234 33.5107 18.4669 33.5501H18.4235C18.2811 33.5582 18.2694 33.542 18.2694 33.3522C18.2694 33.3204 18.2755 33.281 18.2755 33.2492C18.2755 33.1913 18.305 33.1624 18.3466 33.1624C18.4421 33.1468 18.5307 33.1149 18.6201 33.0912C18.7446 33.0519 18.8153 32.9489 18.8275 32.7828C18.8449 32.6011 18.8449 32.4113 18.8449 32.229L18.8509 30.1101C18.8529 30.0486 18.8417 29.9877 18.8186 29.9344C18.7956 29.8811 18.7616 29.8377 18.7207 29.8092C18.6134 29.7297 18.4999 29.6661 18.3822 29.6194C18.3466 29.6038 18.3111 29.5962 18.2816 29.5719C18.1948 29.5164 18.1926 29.414 18.2755 29.3503C18.305 29.3272 18.3406 29.311 18.3762 29.3029C18.7361 29.2321 19.0897 29.1128 19.4316 28.947C19.5028 28.9152 19.5206 28.9239 19.5271 29.0182C19.5331 29.0761 19.5271 29.1455 19.521 29.1999C19.5093 29.3029 19.5093 29.4053 19.5093 29.5008C19.5093 29.5401 19.5153 29.58 19.5449 29.6038C19.5744 29.6275 19.6043 29.6038 19.6317 29.5806C19.7562 29.4533 19.8808 29.3353 20.017 29.2334C20.2123 29.0911 20.4206 28.9644 20.6463 28.925C20.9197 28.8776 21.1562 28.9725 21.3641 29.2097C21.45 29.3123 21.5257 29.4292 21.5893 29.5575C21.6488 29.6732 21.6544 29.6761 21.7317 29.5968C21.9573 29.3752 22.1943 29.1779 22.4495 29.0356C22.7164 28.8851 22.9893 28.862 23.2619 28.9881C23.5405 29.1223 23.7306 29.3833 23.8434 29.7392C23.9389 30.0239 23.9797 30.3178 23.9797 30.6245V32.7435C23.9797 32.8858 24.0231 32.9749 24.1281 33.0443C24.2409 33.1022 24.3655 33.1311 24.484 33.163C24.5612 33.1861 24.5612 33.1861 24.5612 33.2903C24.5495 33.5507 24.5317 33.5669 24.3416 33.5507C23.8656 33.5151 23.3885 33.5151 22.9125 33.5507C22.8171 33.5588 22.8171 33.5588 22.8118 33.432V33.3927C22.8058 33.1786 22.8058 33.1786 22.9603 33.1323L23.1143 33.0768C23.1665 33.0604 23.2131 33.021 23.2464 32.9651C23.2798 32.9091 23.2981 32.8398 23.2983 32.7683L23.3157 32.1752L23.304 30.6256C23.2994 30.4873 23.2774 30.3509 23.2389 30.2223C23.0905 29.7398 22.7645 29.5662 22.4499 29.6136C22.2125 29.6454 22.0051 29.7716 21.8094 29.9538C21.7677 29.9932 21.7382 30.0406 21.7443 30.1199C21.7976 30.6262 21.7616 31.1325 21.7681 31.6383V32.7377C21.7681 32.9356 21.8276 33.0305 21.9699 33.0779L22.2433 33.1572C22.285 33.1653 22.3084 33.189 22.3084 33.2521V33.3099C22.3024 33.5316 22.2911 33.5414 22.1244 33.5391C21.6501 33.5073 21.1753 33.5159 20.7071 33.5391C20.5465 33.5472 20.5335 33.5235 20.5408 33.3076C20.5469 33.1803 20.5582 33.1734 20.6476 33.1497L20.8429 33.1022C21.0165 33.0548 21.0803 32.968 21.092 32.7226L21.1093 32.1926L21.0976 30.6031C21.0859 30.4052 21.0542 30.2154 20.9731 30.0337C20.8546 29.7409 20.6693 29.591 20.4154 29.5748C20.1602 29.5517 19.935 29.6778 19.7211 29.8352C19.5726 29.951 19.5075 30.0881 19.5193 30.3178V31.4722L19.514 31.4652ZM30.6877 31.5133V32.6283C30.6886 32.7076 30.6925 32.7868 30.6994 32.8655C30.7019 32.9181 30.7172 32.968 30.7428 33.008C30.7685 33.048 30.8032 33.0757 30.8417 33.0872C30.9441 33.1269 31.0495 33.1508 31.1559 33.1583C31.2154 33.1664 31.2271 33.1977 31.2332 33.2613V33.3169C31.2271 33.5935 31.2037 33.6253 31.0019 33.6097C30.5505 33.5703 30.1005 33.5778 29.6496 33.6097L29.476 33.6178C29.4404 33.6178 29.4326 33.5946 29.4226 33.5622C29.4053 33.4527 29.4053 33.3396 29.4226 33.2301C29.4287 33.1826 29.4521 33.1722 29.4877 33.1589C29.5745 33.1433 29.6483 33.1196 29.7308 33.1011C29.8792 33.0536 29.9326 32.9738 29.9382 32.7689L29.9556 32.1046V30.1593C29.9556 30.0169 29.9139 29.9301 29.8193 29.8665C29.7125 29.7872 29.5997 29.7322 29.4808 29.6767C29.4452 29.6611 29.4096 29.6449 29.3801 29.6211C29.3028 29.55 29.2933 29.4475 29.3684 29.3683C29.402 29.3314 29.4434 29.3091 29.4869 29.3046C29.8666 29.2253 30.2342 29.1148 30.59 28.925C30.6317 28.9019 30.6495 28.9169 30.6673 28.9644C30.6851 29.0118 30.6911 29.0674 30.6846 29.1223L30.6673 29.4938C30.6673 29.5413 30.6499 29.6096 30.679 29.6281C30.7146 29.6599 30.7384 29.5887 30.768 29.5702C30.9431 29.3744 31.1365 29.2096 31.3434 29.0801C31.5274 28.9644 31.7166 28.8903 31.9306 28.9065C32.3281 28.9383 32.6128 29.2074 32.7964 29.6738C32.8918 29.9191 32.9326 30.1876 32.9504 30.4648L32.9678 31.0434L32.9739 32.7909C32.9799 32.9251 33.0155 33.0125 33.1162 33.06C33.2206 33.1064 33.3277 33.1408 33.4365 33.163C33.532 33.1786 33.5372 33.2023 33.5432 33.3209V33.3603C33.5315 33.6293 33.5194 33.6369 33.3176 33.6207C32.8751 33.589 32.4317 33.589 31.9892 33.6207C31.9297 33.6288 31.8707 33.6207 31.8156 33.6288C31.78 33.6288 31.7561 33.6207 31.7505 33.5732C31.7388 33.4702 31.7266 33.3678 31.7444 33.2567C31.7505 33.2093 31.7683 33.1855 31.8095 33.1774L32.0829 33.1196C32.1784 33.0877 32.2313 33.0038 32.2435 32.8881L32.2552 32.6665L32.2491 31.0139C32.2491 30.8241 32.243 30.6343 32.2135 30.4445C32.1424 30.0395 31.9111 29.7502 31.5973 29.7097C31.3239 29.6703 31.0765 29.7652 30.85 29.9625C30.7371 30.0574 30.6894 30.1917 30.6894 30.3577V31.552C30.6894 31.5289 30.6894 31.5289 30.6955 31.5289L30.6877 31.5133Z" fill="#47474A"/>
<path d="M48.0579 29.2752C47.9928 28.6977 47.8322 28.1839 47.5536 27.7331C47.3108 27.3349 46.9966 27.0248 46.6401 26.8316C46.2669 26.6262 45.8689 26.5625 45.4657 26.5469C45.2995 26.5388 43.0341 26.5863 42.8679 26.5469C42.8263 26.5388 42.7968 26.555 42.7725 26.6025C42.743 26.6603 42.713 26.7211 42.6952 26.7842C42.624 26.9983 42.624 26.9821 42.7959 27.0133C42.9382 27.0451 43.0745 27.0607 43.2112 27.1163C43.3358 27.1718 43.4247 27.2667 43.4542 27.4484C43.466 27.5352 43.4781 30.3185 43.4781 31.6158L43.4542 32.5416C43.4482 32.6128 43.4425 32.6839 43.4247 32.747C43.4009 32.8419 43.3596 32.9206 43.2885 32.9611C43.2101 33.0102 43.1257 33.0397 43.0394 33.0479C42.8788 33.071 42.8554 33.0797 42.802 33.317L42.7846 33.4038C42.7729 33.5068 42.7785 33.5224 42.8558 33.5224L44.629 33.5455L45.3234 33.5299L45.8038 33.4506C46.3493 33.3164 46.8358 33.0155 47.2507 32.5335C47.4877 32.2544 47.6812 31.9158 47.8201 31.5371C47.9863 31.0944 48.0574 30.6113 48.0752 30.1217C48.1047 29.8451 48.0926 29.5605 48.0579 29.2758V29.2752ZM47.1977 30.3977C47.1739 30.9041 47.097 31.3942 46.9013 31.8368C46.6522 32.4143 46.2964 32.8176 45.8042 32.9594C45.5907 33.0172 45.3772 33.0462 45.1533 33.0068C44.9927 32.9837 44.8391 32.9594 44.6906 32.8882C44.4237 32.7609 44.3287 32.541 44.3231 32.1938L44.317 27.4259C44.317 27.1412 44.4125 27.0787 44.5661 27.07C44.7974 27.0469 45.0348 27.0544 45.2661 27.0856C45.5123 27.1174 45.754 27.1953 45.9839 27.3171C46.1547 27.412 46.3129 27.5429 46.4526 27.7048C46.7729 28.0693 46.9864 28.5264 47.1036 29.0646C47.199 29.4997 47.2164 29.9424 47.199 30.385L47.1977 30.3977ZM52.987 31.1731C52.987 31.1257 52.987 31.0863 52.9809 31.0389C52.9275 30.6037 52.7553 30.2716 52.4888 30.0187C52.3169 29.8527 52.1212 29.7421 51.9194 29.6629C51.8838 29.6473 51.8543 29.6311 51.8187 29.6235C51.8248 29.5842 51.8426 29.5761 51.8604 29.568C51.9789 29.4887 52.0917 29.4019 52.1924 29.2833C52.3764 29.0779 52.4962 28.8244 52.56 28.516C52.5955 28.3499 52.5955 28.1839 52.5838 28.0097C52.5742 27.806 52.5302 27.6077 52.4552 27.4297C52.3803 27.2517 52.2762 27.0985 52.1507 26.9815C51.8773 26.7124 51.5575 26.6019 51.2255 26.5938C50.5849 26.5782 49.9387 26.5938 49.2986 26.5938C49.1146 26.5938 48.931 26.6094 48.741 26.5706C48.7054 26.5625 48.6542 26.5475 48.6281 26.6025C48.5847 26.7055 48.5326 26.8079 48.5153 26.9265C48.5092 26.9821 48.5214 27.0133 48.5687 27.0214L48.9779 27.1007C49.1385 27.1325 49.2513 27.2511 49.2626 27.4409C49.2742 27.5721 49.28 27.704 49.28 27.8361L49.2682 29.3145L49.2622 32.2401C49.2622 32.4137 49.2448 32.5804 49.2205 32.754C49.2147 32.8091 49.197 32.8608 49.1697 32.9028C49.1424 32.9449 49.1065 32.9756 49.0664 32.9912C48.948 33.0386 48.8351 33.0861 48.7106 33.0861C48.6773 33.0819 48.6439 33.0929 48.6159 33.1173C48.5879 33.1417 48.567 33.178 48.5565 33.2203C48.5326 33.2915 48.5131 33.3708 48.5031 33.442C48.4914 33.5369 48.5092 33.5693 48.5804 33.5577C48.6338 33.5496 50.591 33.6132 50.9586 33.5658C51.1782 33.534 51.3926 33.4946 51.6109 33.4078C51.9841 33.2498 52.3287 33.0201 52.6012 32.6324C52.8269 32.3159 52.9571 31.9363 52.9688 31.4937C52.9861 31.3907 52.9861 31.2883 52.9861 31.1772L52.987 31.1731ZM50.1106 27.9328L50.128 27.3003C50.128 27.1817 50.1635 27.1267 50.2525 27.1024C50.3948 27.0631 50.5372 27.0793 50.6795 27.0868C50.8219 27.1024 50.9581 27.1261 51.1005 27.1817C51.3609 27.2847 51.5631 27.4826 51.682 27.8141C51.736 27.9649 51.7643 28.1297 51.7649 28.2967C51.771 28.5183 51.7588 28.7318 51.6937 28.9448C51.5931 29.2376 51.4334 29.4274 51.2016 29.4829C50.9699 29.5385 50.312 29.5147 50.2113 29.5147C50.1223 29.5147 50.1158 29.4991 50.1158 29.3805V28.6358C50.1019 28.4042 50.0998 28.1716 50.1097 27.9397L50.1106 27.9328ZM52.0375 32.1869C51.9368 32.5428 51.7528 32.7887 51.4919 32.9218C51.3496 32.9929 51.2073 33.0375 51.058 33.0248C50.874 33.0167 50.6904 33.0248 50.5068 32.9773C50.2577 32.9061 50.1449 32.5896 50.1271 32.3605C50.0976 31.9572 50.1154 31.5458 50.1097 31.2454V30.2016C50.1097 30.0743 50.1214 30.0355 50.2226 30.0355L50.7802 30.0436L51.16 30.1015C51.4268 30.1808 51.6699 30.3156 51.86 30.5916C52.014 30.8132 52.0973 31.0817 52.1151 31.3745C52.1325 31.6511 52.1212 31.9201 52.044 32.1811L52.0375 32.1869Z" fill="#C2BFBF"/>
<path d="M36.9688 29.8046L37.1228 29.8364C37.289 29.8445 37.4848 29.7653 37.5438 29.4568C37.5763 29.3095 37.5763 29.1528 37.5438 29.0055C37.5082 29.0055 37.4904 29.0449 37.4726 29.0611C37.3837 29.156 37.283 29.2115 37.1762 29.2271C36.9627 29.259 36.7492 29.2428 36.5417 29.1403L36.251 29.0061C36.0482 28.9175 35.8348 28.8803 35.6217 28.8961C35.3192 28.928 35.0345 29.0622 34.7676 29.252C34.4829 29.4574 34.2816 29.7658 34.1861 30.1854C34.1327 30.4307 34.1267 30.683 34.1505 30.9364C34.21 31.5139 34.4352 31.9172 34.8384 32.1307C34.8622 32.1388 34.88 32.1539 34.9035 32.1626C34.9569 32.2019 34.9629 32.2418 34.9152 32.2968L34.7668 32.431L34.4109 32.7238C34.3219 32.795 34.3102 32.8511 34.3397 32.9767C34.375 33.1244 34.4407 33.2559 34.5294 33.3563C34.6108 33.4494 34.703 33.5242 34.8024 33.5779C34.8675 33.6172 34.8675 33.6358 34.8084 33.7052L34.4699 34.0292C34.3571 34.145 34.2443 34.2607 34.1497 34.4088C34.0839 34.5027 34.0364 34.6168 34.0116 34.7409C33.9868 34.8651 33.9853 34.9955 34.0073 35.1205C34.0514 35.395 34.1592 35.6441 34.3154 35.8323C34.4697 36.0227 34.6572 36.1585 34.8609 36.2275C35.1929 36.3548 35.5371 36.3617 35.8751 36.2749C36.3612 36.1563 36.7865 35.8699 37.1207 35.3815C37.352 35.0575 37.4882 34.6779 37.5004 34.2242C37.5133 33.9619 37.4561 33.7019 37.3388 33.4905C37.2215 33.2791 37.0518 33.1301 36.8598 33.0699L36.5396 32.9906L35.561 32.8749C35.4542 32.8668 35.3474 32.843 35.2585 32.7719C35.1456 32.677 35.1161 32.4953 35.1873 32.3766C35.2407 32.2899 35.3058 32.2343 35.3891 32.2262L35.5787 32.2031C35.9538 32.1522 36.3059 31.9383 36.5808 31.5943C36.7276 31.4132 36.8325 31.1799 36.8833 30.922C36.9545 30.5817 36.9545 30.2276 36.895 29.8804C36.8776 29.7936 36.8833 29.7855 36.9662 29.8011L36.9688 29.8046ZM35.5149 33.7434C35.5505 33.7515 35.5861 33.7434 35.6217 33.7434C35.8708 33.759 36.126 33.7827 36.369 33.8707C36.4484 33.902 36.5257 33.9416 36.6003 33.9893C36.8377 34.1629 36.9267 34.4638 36.8967 34.7878C36.8611 35.1437 36.7127 35.3966 36.4814 35.5632C36.3274 35.6789 36.1551 35.7293 35.9771 35.753C35.912 35.7611 35.8526 35.753 35.7875 35.753C35.58 35.7611 35.3782 35.7298 35.1825 35.6188C35.0463 35.5476 34.9334 35.4452 34.8327 35.3022C34.6253 35.0256 34.529 34.5193 34.8388 34.1079C35.0285 33.8765 35.2424 33.7127 35.5149 33.7434ZM36.1911 31.2761C36.0665 31.695 35.7936 31.8217 35.521 31.7662C35.2719 31.7187 35.0879 31.537 34.9699 31.2362C34.8158 30.8328 34.7746 30.4145 34.8631 29.9788C34.9282 29.6547 35.0766 29.4094 35.3375 29.3538C35.6694 29.2746 35.9884 29.4331 36.1559 29.8758C36.2427 30.0899 36.2805 30.3503 36.2805 30.7217C36.2744 30.8722 36.251 31.0776 36.1915 31.2755L36.1911 31.2761ZM28.7189 30.7379C28.6655 30.3109 28.547 29.9232 28.3274 29.5992C28.0011 29.1166 27.5862 28.9048 27.1175 28.9031C26.7082 28.895 26.3233 29.0535 25.9787 29.3382C25.64 29.6085 25.3917 30.0414 25.2848 30.5482C25.1841 31.007 25.1893 31.474 25.2674 31.9398C25.4749 33.1896 26.1987 33.7266 27.0641 33.6479C27.3193 33.6248 27.5623 33.5137 27.7932 33.3632C28.1373 33.1491 28.3864 32.8095 28.5583 32.3587C28.6946 31.9872 28.7536 31.5914 28.7479 31.1407L28.7184 30.7374L28.7189 30.7379ZM27.8769 32.4935C27.8345 32.6715 27.7541 32.829 27.6456 32.947C27.5371 33.065 27.4051 33.1382 27.2659 33.1578C27.0055 33.2053 26.7616 33.1185 26.5425 32.9125C26.3842 32.7573 26.2561 32.5539 26.1688 32.3194C25.9258 31.6551 25.8841 30.9596 26.0082 30.2478C26.0482 30.0276 26.1346 29.8272 26.2573 29.6704C26.4769 29.4013 26.7317 29.3382 27.0168 29.4175C27.2902 29.4968 27.4972 29.6941 27.6678 29.995C27.8383 30.2959 27.9169 30.6431 27.9642 31.0076C27.988 31.1893 27.988 31.3791 27.9937 31.4977C27.9937 31.8773 27.9698 32.1921 27.8808 32.4941L27.8769 32.4935ZM41.6774 30.8016C41.634 30.3427 41.5056 29.9238 41.2621 29.576C40.9418 29.1097 40.5265 28.9118 40.0643 28.9037C39.6668 28.8956 39.2992 29.046 38.9612 29.307C38.5814 29.6079 38.3206 30.0343 38.2199 30.6118C38.0997 31.2418 38.1501 31.9082 38.3623 32.4935C38.5576 33.0473 38.89 33.4032 39.3292 33.5611C39.8152 33.7347 40.2783 33.656 40.7288 33.3632C41.1202 33.1104 41.3988 32.7152 41.559 32.177C41.6544 31.8605 41.6891 31.5208 41.6952 31.1251C41.7013 31.0539 41.6891 30.9272 41.6779 30.801L41.6774 30.8016ZM40.8589 32.3911C40.7635 32.8181 40.5625 33.0947 40.2245 33.1584C39.9754 33.2058 39.7384 33.1266 39.5245 32.9368C39.3405 32.7707 39.2103 32.5491 39.1152 32.2887C39.0085 32.0121 38.949 31.7193 38.9256 31.419C38.89 31.0475 38.89 30.6841 38.9551 30.3121C38.9675 30.2387 38.9854 30.1672 39.0085 30.0986C39.1747 29.5448 39.5423 29.2919 39.9754 29.4187C40.2661 29.5055 40.4853 29.7195 40.6515 30.0436C40.8121 30.3601 40.8889 30.7079 40.9249 31.0851C40.9423 31.2356 40.9488 31.3935 40.9423 31.5278C40.9423 31.8362 40.9249 32.1209 40.8555 32.3975L40.8589 32.3911Z" fill="#47474A"/>
</g>
<rect x="0.5" y="0.5" width="59" height="59" rx="7.5" stroke="white" stroke-opacity="0.2"/>
<defs>
<clipPath id="clip0_1322_49535">
<rect width="60" height="60" rx="8" fill="white"/>
</clipPath>
</defs>
</svg>
