<svg width="60" height="60" viewBox="0 0 60 60" fill="none" xmlns="http://www.w3.org/2000/svg">
<g clip-path="url(#clip0_1322_38513)">
<rect width="60" height="60" rx="8" fill="#161616"/>
<rect width="60" height="60" fill="#161616"/>
<g clip-path="url(#clip1_1322_38513)">
<path d="M44.4001 25.4846C44.4001 33.4796 38.1626 39.9671 30.4642 39.9671C22.7657 39.9671 16.5283 33.4796 16.5283 25.4846C16.5283 17.4894 22.7658 11.002 30.4642 11.002C38.1627 11.002 44.4002 17.4894 44.4002 25.4846" fill="#D33833"/>
<path d="M17.1007 29.0712C17.1007 29.0712 16.0892 13.9721 29.7891 13.5379L28.8338 11.916L21.4051 14.4516L19.281 16.9301L17.4266 20.5393L16.3701 24.7425L16.6849 27.5523" fill="#EF3D3A"/>
<path d="M20.9229 15.6064C18.4842 18.1534 16.9669 21.66 16.9669 25.5432C16.9669 29.4265 18.4842 32.9329 20.9229 35.4799C23.3729 38.0269 26.7334 39.5917 30.4645 39.5917C34.1958 39.5917 37.5561 38.0269 40.0061 35.48C42.4449 32.9329 43.9621 29.4265 43.9621 25.5432C43.9621 21.6598 42.4449 18.1534 40.0061 15.6064C37.5562 13.0708 34.1958 11.4948 30.4645 11.4948C26.7446 11.4948 23.373 13.0594 20.9229 15.6064ZM20.3048 36.0853C17.7088 33.3898 16.1016 29.655 16.1016 25.5432C16.1016 21.4315 17.7088 17.6966 20.3048 14.9897C22.9009 12.2942 26.4973 10.6152 30.4646 10.6152C34.4318 10.6152 38.0282 12.2942 40.6243 14.9897C43.2204 17.6852 44.8276 21.42 44.8276 25.5432C44.8276 29.6549 43.2204 33.3898 40.6243 36.0853C38.0282 38.7922 34.4318 40.4597 30.4645 40.4597C26.4973 40.4597 22.9009 38.7922 20.3048 36.0853Z" fill="#231F20"/>
<path d="M36.3313 25.5649L34.2071 25.8847L31.3413 26.216L29.4869 26.2617L27.6775 26.2046L26.2951 25.7706L25.0701 24.4227L24.1148 21.6701L23.9013 21.0762L22.6314 20.6422L21.8895 19.3973L21.3613 17.6154L21.9458 16.0508L23.3282 15.5596L24.4408 16.0965L24.9689 17.2844L25.6095 17.1815L25.823 16.9074L25.6095 15.6624L25.5534 14.0976L25.868 11.939L25.8568 10.7055L26.8233 9.12935L28.5203 7.88434L31.4874 6.59375L34.7803 7.0848L37.6462 9.18644L38.9724 11.3451L39.8264 12.9098L40.04 16.7931L39.3994 20.1396L38.2305 23.1093L37.1292 24.6969" fill="#F0D6B7"/>
<path d="M34.5319 34.8955L26.9458 35.2153V36.5059L27.5864 41.0403L27.2717 41.4172L21.9671 39.5783L21.5962 38.9273L21.068 32.8282L19.8205 29.1733L19.5508 28.3052L23.799 25.3357L25.1252 24.7988L26.294 26.2607L27.3054 27.1745L28.4743 27.5514L29.0025 27.7114L29.6431 30.5211L30.1264 31.115L31.3514 30.681L30.4972 32.3598L35.105 34.5756L34.5319 34.8954" fill="#335061"/>
<path d="M21.9449 16.0733L23.3273 15.5822L24.4399 16.119L24.9681 17.3069L25.6087 17.2041L25.7662 16.5531L25.4514 15.3081L25.766 12.3385L25.4964 10.7166L26.4516 9.58593L28.5195 7.91836L27.9351 7.10742L25.0131 8.56929L23.7881 9.54023L23.1025 11.0478L22.0461 12.5098L21.7314 14.2344L21.9449 16.0733Z" fill="#6D6B6D"/>
<path d="M24.1253 11.0028C24.1253 11.0028 24.9231 9.00404 28.1037 8.03322C31.2842 7.0624 28.2611 7.33647 28.2611 7.33647L24.8107 8.68427L23.4847 10.032L22.9002 11.1056L24.1253 11.0028ZM22.5294 15.6971C22.5294 15.6971 21.4167 11.9165 25.6649 11.3798L25.5076 10.7287L22.5856 11.4255L21.7314 14.2352L21.9449 16.074L22.5294 15.6971Z" fill="#DCD9D8"/>
<path d="M24.2252 20.7097L24.9219 20.0244C24.9219 20.0244 25.2367 20.0587 25.2929 20.4355C25.349 20.8125 25.5064 24.2161 27.7879 26.0436C28.0014 26.2149 26.0908 25.7694 26.0908 25.7694L24.3937 23.0739M33.9916 19.6817C33.9916 19.6817 34.1151 18.0484 34.5535 18.1741C34.9918 18.2997 34.9918 18.7451 34.9918 18.7451C34.9918 18.7451 33.9354 19.4304 33.9916 19.6817ZM38.3971 13.6969C38.3971 13.6969 37.5204 13.8796 37.4418 14.6677C37.3631 15.4557 38.3971 14.8276 38.5544 14.7705M31.9799 13.754C31.9799 13.754 30.811 13.9139 30.811 14.6677C30.811 15.4214 32.1372 15.3643 32.508 15.0446M24.7646 17.2604C24.7646 17.2604 22.753 16.0154 22.5395 17.2033C22.326 18.3911 21.8539 19.2476 22.8542 20.4926L22.1686 20.2756L21.5281 18.6081L21.3145 16.9862L22.5395 15.6956L23.9218 15.7984L24.7197 16.4495L24.7647 17.2604M25.72 13.8568C25.72 13.8568 26.619 9.10534 31.1819 8.19162C34.9355 7.43777 36.9136 8.35162 37.6553 9.21953C37.6553 9.21953 34.3062 5.17636 31.1256 6.40986C27.9452 7.65487 25.6075 9.91628 25.6637 11.3669C25.7536 13.8567 25.7199 13.8567 25.7199 13.8567M38.0262 9.75639C38.0262 9.75639 36.4866 9.6993 36.4303 11.1041C36.4303 11.1041 36.4303 11.3212 36.5315 11.5381C36.5315 11.5381 37.7565 10.1333 38.4983 10.8871" fill="#F7E4CD"/>
<path d="M31.2955 11.687C31.2955 11.687 31.0259 9.53981 29.2277 10.7847C28.0588 11.5956 28.1711 12.7263 28.3735 12.9434C28.587 13.1604 28.5309 13.5944 28.6882 13.2975C28.8455 13.0005 28.8005 12.0297 29.385 11.7555C29.9581 11.4815 30.9247 11.1846 31.2955 11.687Z" fill="#F7E4CD"/>
<path d="M26.3059 26.2617L21.3157 28.523C21.3157 28.523 23.3837 36.8836 22.3272 39.4763L21.5855 39.2023L21.5293 36.0156L20.1469 29.9851L19.5625 28.3174L24.766 24.7539L26.3057 26.2616M26.8115 30.8873L27.5196 31.7669V34.9991H26.6768C26.6768 34.9991 26.5756 32.7377 26.5756 32.4636C26.5756 32.1894 26.6768 31.2186 26.6768 31.2186M26.8341 35.4903L24.4402 35.593L25.1258 36.0842L26.8228 36.3584" fill="#49728B"/>
<path d="M35.005 34.9536L36.9716 34.8965L37.4549 39.8534L35.4432 40.1276L35.0049 34.9535" fill="#335061"/>
<path d="M35.5312 34.9532L38.4982 34.7932C38.4982 34.7932 39.7233 31.6638 39.7233 31.5039C39.7233 31.3439 40.7797 26.9696 40.7797 26.9696L38.3859 24.434L37.9026 24L36.6326 25.2906V30.3047L35.5312 34.9532Z" fill="#335061"/>
<path d="M36.8592 34.5766L35.0049 34.9535L35.2747 36.4612C35.9602 36.781 37.129 35.9244 37.129 35.9244M36.9154 25.131L40.6355 27.9407L40.7366 26.65L37.927 24.0117L36.9155 25.131" fill="#49728B"/>
<path d="M28.6776 45.5748L27.5762 41.0405L27.0255 37.694L26.9355 35.2155L31.9142 34.9414H35.0048L34.724 40.6064L35.2071 44.9809L35.151 45.7918L31.1163 46.1117L28.6776 45.5748Z" fill="white"/>
<path d="M34.3179 34.8961C34.3179 34.8961 34.0482 40.5041 34.8462 44.5016C34.8462 44.5016 33.2503 45.5295 30.9238 45.7922L35.3857 45.6323L35.9138 45.3125L35.2733 36.4722L35.1046 34.5762" fill="#DCD9D8"/>
<path d="M37.5337 39.4299L39.6016 38.836L43.5239 38.619L44.1084 36.7801L43.0518 33.5935L41.8269 33.4336L40.1298 33.9705L38.5114 34.7814L37.6461 34.6214L36.9717 34.8956" fill="white"/>
<path d="M37.5 38.3455C37.5 38.3455 38.8824 37.6945 39.0959 37.7516L38.5115 34.782L39.197 34.5078C39.197 34.5078 39.6803 37.3176 39.6803 37.6374C39.6803 37.6374 42.6473 37.7973 42.917 37.7973C42.917 37.7973 43.5576 36.5522 43.4003 35.2617L43.9847 36.9863L44.0409 37.9571L43.1868 39.2477L42.2315 39.4648L40.6356 39.4077L40.1073 38.711L38.253 38.9851L37.6685 39.2021" fill="#DCD9D8"/>
<path d="M35.4095 34.5196L34.2406 31.5043L33.0156 29.7225C33.0156 29.7225 33.2854 28.9688 33.6562 28.9688H34.8813L36.0502 29.4027L35.9489 31.4016L35.4095 34.5196Z" fill="white"/>
<path d="M35.646 33.4923C35.646 33.4923 34.1625 30.5798 34.1625 30.1457C34.1625 30.1457 34.4323 29.4947 34.8031 29.6547C35.174 29.8146 35.972 30.2486 35.972 30.2486V29.2206L34.1625 28.8438L32.9375 29.0036L35.0054 33.9834L35.4324 34.0405" fill="#DCD9D8"/>
<path d="M29.1495 26.3752L27.6773 26.2152L26.2949 25.7812V26.2724L26.9692 27.0263L29.0933 27.9971" fill="white"/>
<path d="M26.7789 26.5352C26.7789 26.5352 28.4197 27.2319 28.9593 27.072L29.0153 27.7231L27.5319 27.4032L26.6328 26.7521L26.7789 26.5352Z" fill="#DCD9D8"/>
<path d="M37.5328 29.1516C36.6337 29.1287 35.8132 29.0145 35.1052 28.8089C35.1502 28.5119 35.0603 28.2264 35.139 28.0094C35.3413 27.8609 35.6671 27.8609 35.9706 27.8267C35.7121 27.701 35.3413 27.6439 35.049 27.7239C35.0377 27.5183 34.9479 27.3926 34.8916 27.2327C35.3974 27.0499 36.5888 25.8507 37.263 26.239C37.589 26.4332 37.7239 27.5068 37.7463 28.0437C37.7687 28.4776 37.7014 28.9117 37.5328 29.1516Z" fill="#D33833"/>
<path d="M37.5328 29.1516C36.6337 29.1287 35.8132 29.0145 35.1052 28.8089C35.1502 28.5119 35.0603 28.2264 35.139 28.0094C35.3413 27.8609 35.6671 27.8609 35.9706 27.8267C35.7121 27.701 35.3413 27.6439 35.049 27.7239C35.0377 27.5183 34.9479 27.3926 34.8916 27.2327C35.3974 27.0499 36.5888 25.8507 37.263 26.239C37.589 26.4332 37.7239 27.5068 37.7463 28.0437C37.7687 28.4776 37.7014 28.9117 37.5328 29.1516Z" fill="black" stroke="#D33833" stroke-width="0.335888"/>
<path d="M33.2292 27.6555C33.2292 27.7241 33.2292 27.7925 33.2178 27.8611C32.9369 28.0439 32.4873 28.0439 32.1726 28.2038C32.6223 28.2265 32.9819 28.3407 33.2966 28.4892C33.2852 28.6606 33.2852 28.8434 33.2741 29.0147C32.7571 29.3688 32.2851 29.9056 31.6782 30.2482C31.386 30.4082 30.3858 30.8194 30.0823 30.7394C29.9137 30.6937 29.8913 30.4767 29.8239 30.2711C29.6778 29.8371 29.3406 29.1289 29.3068 28.4664C29.2731 27.6327 29.1832 26.2278 30.071 26.3991C30.7902 26.5362 31.6219 26.8675 32.1726 27.1758C32.521 27.3814 32.7121 27.6098 33.2292 27.6555Z" fill="#D33833"/>
<path d="M33.2292 27.6555C33.2292 27.7241 33.2292 27.7925 33.2178 27.8611C32.9369 28.0439 32.4873 28.0439 32.1726 28.2038C32.6223 28.2265 32.9819 28.3407 33.2966 28.4892C33.2852 28.6606 33.2852 28.8434 33.2741 29.0147C32.7571 29.3688 32.2851 29.9056 31.6782 30.2482C31.386 30.4082 30.3858 30.8194 30.0823 30.7394C29.9137 30.6937 29.8913 30.4767 29.8239 30.2711C29.6778 29.8371 29.3406 29.1289 29.3068 28.4664C29.2731 27.6327 29.1832 26.2278 30.071 26.3991C30.7902 26.5362 31.6219 26.8675 32.1726 27.1758C32.521 27.3814 32.7121 27.6098 33.2292 27.6555Z" fill="black" stroke="#D33833" stroke-width="0.335888"/>
<path d="M33.734 28.6494C33.6553 28.1924 33.5653 28.067 33.5991 27.6671C34.8016 26.8562 35.0152 29.0606 33.734 28.6494Z" fill="#D33833"/>
<path d="M33.734 28.6494C33.6553 28.1924 33.5653 28.067 33.5991 27.6671C34.8016 26.8562 35.0152 29.0606 33.734 28.6494Z" fill="black" stroke="#D33833" stroke-width="0.335888"/>
<path d="M35.4646 29.0133C35.4646 29.0133 35.0937 28.4764 35.3634 28.3165C35.6332 28.1566 35.8917 28.3165 36.049 28.0425C36.2065 27.7683 36.049 27.6085 36.1052 27.2886C36.1614 26.9688 36.4198 26.9117 36.6896 26.8547C36.9593 26.7974 37.7011 26.6947 37.8022 26.9574L37.4876 25.9865L36.847 25.7695L34.8353 26.9574L34.7341 27.5514V28.7392M29.8903 30.795C29.8229 29.9498 29.7555 29.1161 29.688 28.2708C29.5756 27.0145 29.9802 27.2314 31.059 27.2314C31.2277 27.2314 32.0705 27.4257 32.1268 27.5514C32.419 28.1566 31.6435 28.0195 32.4639 28.4764C33.1494 28.8534 34.3745 28.248 34.0935 27.3914C33.9361 27.1972 33.2843 27.3343 33.0483 27.2086L31.8008 26.5577C31.2727 26.2835 30.0588 25.8723 29.4969 26.2607C28.0695 27.2429 29.5868 29.71 30.0926 30.7379" fill="#EF3D3A"/>
<path d="M31.2961 11.6881C29.8463 11.3454 29.1271 12.3048 28.6887 13.2984C28.2954 13.2071 28.4527 12.6589 28.5539 12.3848C28.8123 11.6653 29.8576 10.6943 30.7116 10.8314C31.0712 10.8771 31.5658 11.2198 31.2961 11.6881ZM38.3427 13.3555H38.4101C38.7361 14.0409 39.017 14.7719 39.4329 15.3887C39.152 16.0511 37.3425 16.6222 37.3649 15.4571C37.7583 15.2859 38.4326 15.4228 38.781 15.1945C38.5788 14.6348 38.2977 14.1549 38.3427 13.3555ZM32.0266 13.3785C32.3413 13.961 32.4423 14.5663 32.8807 15.0004C33.0831 15.1945 33.4651 15.4344 33.2741 15.9825C33.2292 16.1082 32.9032 16.3938 32.7121 16.4509C32.0266 16.6565 30.4194 16.4966 30.9589 15.617C31.532 15.6399 32.2963 15.994 32.7234 15.5713C32.3975 15.046 31.813 13.9952 32.0266 13.3785ZM38.0842 19.249C37.0503 19.923 35.8926 20.6654 34.1844 20.494C33.8248 20.1743 33.6787 19.4546 34.0383 18.9865C34.2181 19.3062 34.1057 19.9002 34.6228 19.9915C35.5893 20.1629 36.7131 19.3861 37.4099 19.1236C37.8369 18.3811 37.3762 18.1184 36.9829 17.6387C36.1849 16.6679 35.1285 15.4571 35.1621 14.0067C35.4881 13.7668 35.5105 14.3721 35.5555 14.4749C35.9713 15.4571 37.0166 16.7249 37.7695 17.5702C37.9606 17.7758 38.264 17.9813 38.2977 18.1184C38.3989 18.5067 38.0393 18.9862 38.0842 19.249ZM24.3954 18.541C24.0696 18.3468 23.991 17.5245 23.6088 17.5016C23.0581 17.4674 23.1593 18.5753 23.1593 19.2262C22.7884 18.8837 22.7209 17.81 22.9907 17.2618C22.6761 17.1018 22.5411 17.4331 22.3613 17.5473C22.5974 15.8912 24.7551 16.782 24.3954 18.541ZM38.7361 19.9458C38.2528 20.8824 37.5672 21.9103 36.1512 21.9446C36.1174 21.6477 36.095 21.1794 36.1512 20.9966C37.2413 20.8824 37.9156 20.3228 38.7361 19.9458ZM31.9479 20.5511C32.847 21.0309 34.5103 21.088 35.7466 21.0537C35.814 21.3279 35.814 21.6704 35.814 22.0017C34.2294 22.0702 32.3637 21.6704 31.9479 20.5511ZM31.7794 21.4421C32.4087 23.041 34.5553 22.8584 36.3647 22.8127C36.2861 23.0182 36.1174 23.2695 35.8927 23.3494C35.3082 23.5893 33.7123 23.7721 32.9032 23.338C32.3975 23.0639 32.0603 22.4357 31.7794 22.0702C31.6557 21.8989 30.9814 21.4535 31.7794 21.4421Z" fill="#231F20"/>
<path d="M38.005 30.2471C37.2744 31.5263 36.5665 32.8398 35.7012 33.9591C36.0607 32.8741 36.218 31.0467 36.2743 29.6533C37.0385 29.2877 37.6903 29.7331 38.005 30.2471Z" fill="#81B0C4"/>
<path d="M41.9498 34.8398C41.1295 35.0111 40.5562 35.8221 39.7471 35.765C40.1966 35.1367 40.9608 34.8626 41.9498 34.8398ZM42.3095 36.1418C41.6352 36.2104 40.8485 36.3246 40.1742 36.2675C40.5001 35.765 41.7363 35.9476 42.3095 36.1418ZM42.5455 37.2727C41.7925 37.284 40.8597 37.2726 40.1404 37.2154C40.5674 36.7472 42.0622 37.0442 42.5455 37.2727Z" fill="#231F20"/>
<path d="M36.5894 40.3552C36.7018 41.3146 37.0727 42.2856 37.0278 43.3363C36.6119 43.4733 36.3759 43.599 35.8139 43.599C35.7803 42.708 35.6566 41.3376 35.6903 40.4809C35.96 40.5037 36.3646 40.2867 36.5894 40.3552Z" fill="#DCD9D8"/>
<path d="M35.3752 26.1935C34.993 26.4446 34.6784 26.753 34.3074 27.0272C33.4982 27.0729 33.0599 26.9701 32.4756 26.5018C32.4868 26.4675 32.543 26.4789 32.543 26.4332C33.4083 26.8216 34.5097 26.2735 35.3752 26.1935Z" fill="#F0D6B7"/>
<path d="M30.8584 32.1664C31.0944 31.127 32.0273 30.5789 32.8701 30.0078C33.7354 31.1271 34.2637 32.5662 34.8481 33.9596C33.4657 33.537 32.0609 32.8632 30.8584 32.1664Z" fill="#81B0C4"/>
<path d="M35.6913 40.4923C35.6575 41.3489 35.7699 42.7081 35.8149 43.6103C36.3769 43.6103 36.6128 43.4847 37.0287 43.3476C37.0737 42.2968 36.7028 41.326 36.5904 40.3666C36.3656 40.2867 35.961 40.5037 35.6913 40.4923ZM27.015 35.6496C27.386 39.0874 27.9141 41.9655 28.8918 45.0152C31.0609 45.689 33.6683 45.7461 35.5902 45.1408C35.2418 43.4276 35.3879 41.3375 35.1856 39.4985C35.0281 38.1165 35.1069 36.7346 34.8934 35.3297C32.5669 34.8386 29.2853 35.2155 27.015 35.6496ZM35.444 35.3526C35.4215 36.826 35.5114 38.2878 35.6239 39.7612C36.1857 39.6813 36.5566 39.6242 37.0737 39.4985C36.905 38.0822 36.9276 36.4719 36.5792 35.2155C36.1858 35.227 35.8373 35.2156 35.444 35.3526ZM38.2649 35.1127C37.9952 35.0556 37.6918 35.1127 37.4445 35.1127C37.5681 36.312 37.8491 37.6369 37.9502 38.9047C38.3436 38.9161 38.5571 38.7219 38.8831 38.6648C38.9055 37.5569 38.7932 36.0264 38.2649 35.1127ZM42.5469 39.0874C43.3786 38.8818 43.8955 37.8539 43.6595 36.7917C43.5021 36.0835 43.2324 34.7358 42.9289 34.2788C42.7154 33.9477 42.1197 33.5022 41.6365 33.8106C40.861 34.3131 39.5012 34.4616 38.9393 35.067C39.2202 36.0264 39.3101 37.3285 39.4225 38.5391C40.3891 38.5963 41.569 38.2651 42.3783 38.6191C41.8163 38.8019 41.0971 38.8019 40.6138 39.076C41.0184 39.2702 41.94 39.2359 42.5469 39.0874ZM34.8372 33.9591C34.2527 32.5657 33.7246 31.1266 32.8591 30.0073C32.0162 30.5782 31.0947 31.1266 30.8474 32.1659C32.0612 32.8627 33.4661 33.5365 34.8372 33.9591ZM36.2756 29.6532C36.2195 31.0466 36.0621 32.8741 35.7025 33.9591C36.5679 32.8284 37.276 31.5263 38.0064 30.2471C37.6918 29.7331 37.0399 29.2876 36.2757 29.6531L36.2756 29.6532ZM34.6461 29.0708C34.3201 29.0364 34.0392 29.459 33.6121 29.2763C33.511 29.3904 33.421 29.5047 33.3199 29.6189C34.2639 30.7838 34.7023 32.4287 35.4328 33.7878C35.8262 32.4744 35.7812 31.0466 35.8712 29.6189C35.3317 29.6417 35.0282 29.1051 34.6461 29.0708ZM33.6009 27.6658C33.5671 28.0655 33.6571 28.1912 33.7357 28.6481C35.0169 29.0593 34.8034 26.8548 33.6009 27.6658ZM32.1735 27.1861C31.6228 26.8776 30.7913 26.5465 30.0719 26.4095C29.1841 26.2381 29.274 27.643 29.3077 28.4768C29.3415 29.1392 29.6787 29.8359 29.8248 30.2814C29.8922 30.487 29.9146 30.7039 30.0832 30.7496C30.3867 30.8182 31.3981 30.4185 31.6791 30.2585C32.286 29.9273 32.758 29.3906 33.275 29.025C33.2862 28.8537 33.2862 28.6709 33.2975 28.4996C32.9828 28.3396 32.6344 28.2369 32.1735 28.2142C32.4771 28.0542 32.9378 28.0542 33.2187 27.8715C33.2187 27.8029 33.2187 27.7344 33.2301 27.6658C32.713 27.6087 32.5219 27.3803 32.1735 27.1861ZM26.8914 26.2153C26.4307 26.695 28.1838 27.3346 28.7346 27.3689C28.7346 27.0719 28.9031 26.7865 28.8694 26.5694C28.2063 26.4552 27.341 26.5351 26.8914 26.2153ZM32.5558 26.4323C32.5558 26.478 32.4995 26.4666 32.4883 26.5009C33.084 26.9691 33.5222 27.0718 34.3201 27.0262C34.6798 26.7636 35.0057 26.4438 35.3879 26.1924C34.5112 26.2724 33.4099 26.8207 32.5558 26.4323ZM37.748 28.0314C37.7255 27.5059 37.5905 26.4209 37.2647 26.2267C36.5904 25.8269 35.3991 27.0376 34.8934 27.2204C34.9495 27.3803 35.0395 27.5059 35.0507 27.7115C35.3542 27.6316 35.7137 27.6887 35.9722 27.8143C35.6688 27.8486 35.3429 27.8486 35.1406 27.9971C35.0731 28.214 35.163 28.4996 35.1069 28.7966C35.8149 29.0022 36.6354 29.105 37.5345 29.1392C37.703 28.9108 37.7704 28.4767 37.748 28.0314ZM26.1159 26.6722C25.9698 26.5694 24.9921 25.2787 24.8572 25.3358C23.0928 26.044 21.4407 27.2661 19.9684 28.431C21.3732 31.5035 21.9464 35.2612 22.0476 38.8818C23.6548 39.647 25.0707 40.7549 27.2623 40.8691C27.0038 39.0532 26.7791 37.4198 26.633 35.7065C26.0823 35.4668 25.2955 35.718 24.7786 35.638C24.7786 35.0099 25.5652 35.364 25.6326 34.9414C25.6777 34.6215 25.1943 34.5987 25.3517 34.0962C25.7563 34.2447 25.9698 34.5758 26.3969 34.7015C26.7903 33.8335 26.3969 32.2916 26.4531 31.5606C26.4644 31.4236 26.5205 30.8067 26.8239 30.9095C27.0937 31.0009 26.8127 32.5657 26.8353 33.2509C26.8577 33.8906 26.7565 34.4959 27.015 34.8957C29.128 34.5987 31.2746 34.4159 33.5671 34.3474C33.0614 34.1305 32.4658 33.9249 31.8139 33.5479C31.4543 33.3423 30.3417 32.9198 30.2406 32.5771C30.0719 32.0288 30.6676 31.7434 30.7687 31.275C29.7011 31.8689 29.4988 30.7041 29.2403 29.893C29.0155 29.1506 28.8807 28.591 28.8245 28.1683C27.8917 27.6887 26.9027 27.2432 26.1159 26.6722ZM36.8151 25.4843C38.2874 24.7648 38.5571 28.1912 37.9727 29.2992C38.0626 29.6303 38.366 29.756 38.4897 30.0529C37.6692 31.5492 36.759 32.9426 35.916 34.4159C36.5342 34.0162 37.4333 34.3474 38.1637 34.0505C38.4335 33.9477 38.6246 33.3195 38.8269 32.817C39.3887 31.4464 39.9731 29.7102 40.2317 28.4083C40.2879 28.1114 40.4564 27.4602 40.4115 27.1975C40.3441 26.7179 39.7147 26.3638 39.3887 26.0782C38.7932 25.53 38.4222 25.0618 37.7928 24.5477C37.5569 24.9247 37.0174 25.1759 36.8151 25.4844V25.4843ZM22.7556 12.2238C22.0588 13.012 22.2049 14.474 22.2836 15.5247C23.5535 14.7138 25.2282 15.5933 25.2168 16.9639C25.8237 16.9523 25.4417 16.1986 25.3293 15.7074C24.9696 14.1199 25.9362 12.4066 25.3742 10.9561C24.2841 11.0474 23.3962 11.4928 22.7556 12.2238ZM27.768 7.6667C26.1834 8.12357 24.1492 9.29997 23.4974 10.7504C24.0031 10.6706 24.3515 10.4193 24.846 10.385C25.0371 10.3736 25.2843 10.465 25.4978 10.4079C25.9248 10.2937 26.2958 9.31136 26.6216 8.9459C26.9364 8.59183 27.3185 8.43194 27.577 8.11217C27.7456 8.03217 27.9927 8.03217 28.004 7.78089C27.9366 7.70089 27.8579 7.64391 27.768 7.6667ZM36.0284 8.10066C34.3764 7.15275 31.5892 6.4446 29.836 7.33542C28.4198 8.05496 26.5094 9.24276 25.8575 10.7392C26.4643 12.1895 25.6777 13.5144 25.6214 14.9878C25.599 15.7759 25.9811 16.4499 26.0148 17.3065C25.8013 17.6606 25.1719 17.6948 24.7336 17.672C24.5875 16.918 24.3291 16.0729 23.5648 15.9815C22.4859 15.8559 21.688 16.7697 21.643 17.7177C21.5868 18.837 22.4859 20.6872 23.767 20.5617C24.2616 20.516 24.3852 20.0134 24.9246 20.0134C25.2168 20.6074 24.4752 20.79 24.3965 21.2126C24.3739 21.3269 24.4526 21.7495 24.5088 21.955C24.7449 22.9259 25.2618 24.1937 25.7675 24.9361C26.4194 25.884 27.6894 26.0211 29.0605 26.1125C29.3077 25.5756 30.2068 25.6213 30.7911 25.7584C30.0832 25.473 29.4314 24.7876 28.8919 24.1823C28.2737 23.4855 27.6444 22.7432 27.6107 21.8295C28.7908 23.4855 29.7573 24.9361 31.8926 25.6672C33.511 26.2153 35.3991 25.4158 36.6466 24.5249C37.1635 24.1594 37.4669 23.5655 37.8379 23.0401C39.209 21.0299 39.8496 18.1744 39.7147 15.3991C39.6585 14.257 39.6585 13.1148 39.2763 12.3495C38.8831 11.55 37.5457 10.819 36.7589 11.55C36.6128 10.762 37.4108 10.2822 38.3435 10.5678C37.6806 9.68834 36.9838 8.64892 36.0284 8.10066ZM39.1078 33.9249C40.4003 33.2738 42.8053 32.1773 43.6033 33.9249C43.9068 34.5758 44.2551 35.6609 44.4012 36.3348C44.6147 37.2714 44.1652 39.2588 43.2099 39.567C42.367 39.8412 41.3893 39.8298 40.3778 39.6242C40.2542 39.5214 40.1306 39.35 40.0294 39.1672C39.3102 39.1445 38.6246 39.2017 38.0626 39.51C38.1188 40.0582 37.7592 40.1382 37.4108 40.2525C37.1635 41.2689 37.9165 42.5938 37.7367 43.5075C37.6131 44.17 36.8151 44.2727 36.2308 44.3869C36.2082 44.7525 36.2532 45.0609 36.2982 45.3693C36.1634 45.8718 35.5676 46.1573 34.9945 46.2259C33.1177 46.4543 30.2743 46.5571 28.4761 45.8946C27.9703 44.6383 27.577 43.1192 27.1611 41.6916C25.4079 41.8856 23.9807 40.9262 22.6432 40.2867C22.1825 40.0697 21.5419 39.944 21.362 39.5671C21.1935 39.2017 21.2608 38.5049 21.2159 37.8539C21.1147 36.1749 21.0136 34.553 20.5866 32.8398C20.3955 32.0631 20.0471 31.3893 19.8111 30.647C19.5863 29.9616 19.2042 29.105 19.103 28.4196C18.9569 27.4032 19.901 27.346 20.4966 26.9005C21.4295 26.2153 22.1599 25.8383 23.1714 25.2216C23.4749 25.0389 24.3739 24.582 24.4751 24.3649C24.6775 23.9425 24.1268 23.3485 23.9807 23.0173C23.7446 22.4919 23.6209 22.0464 23.5873 21.5324C22.7444 21.3954 22.0925 20.8814 21.7105 20.3104C21.0698 19.351 20.6202 17.5806 21.1822 16.2443C21.2272 16.1415 21.4407 15.9244 21.4745 15.7645C21.5419 15.4448 21.3508 15.0221 21.3396 14.6795C21.2834 12.932 21.6318 11.4243 22.7893 10.8989C23.2613 8.99159 24.947 8.36345 26.5318 7.41542C27.1275 7.06135 27.7793 6.83298 28.4536 6.58158C30.8699 5.67936 34.5899 5.85065 36.6016 7.39252C37.4557 8.04357 38.8156 9.42555 39.2989 10.4307C40.5912 13.0691 40.4902 17.4892 39.5911 20.7102C39.4674 21.1441 39.2989 21.7723 39.0516 22.2977C38.8831 22.6632 38.3548 23.3827 38.411 23.7025C38.4785 24.0338 39.6249 24.9132 39.8721 25.1531C40.3104 25.587 41.1533 26.1582 41.2206 26.7065C41.2994 27.2889 40.9735 28.0885 40.805 28.6481C40.2654 30.5213 39.726 32.2459 39.1078 33.9249Z" fill="#231F20"/>
<path d="M30.5094 20.9514C30.5768 20.86 30.9588 20.7116 31.4983 20.9743C31.4983 20.9743 30.8577 21.0771 30.9138 22.1622L30.6442 22.105C30.6555 22.1165 30.3745 21.1342 30.5094 20.9514Z" fill="#F7E4CD"/>
<path d="M35.1616 30.2247C35.1616 30.3846 35.0268 30.5217 34.8694 30.5217C34.712 30.5217 34.5771 30.3846 34.5771 30.2247C34.5771 30.0647 34.712 29.9277 34.8694 29.9277C35.038 29.9277 35.1616 30.0647 35.1616 30.2247ZM35.4538 31.6067C35.4538 31.7667 35.319 31.9037 35.1616 31.9037C35.0043 31.9037 34.8694 31.7667 34.8694 31.6067C34.8694 31.4467 35.0043 31.3097 35.1616 31.3097C35.3302 31.3097 35.4538 31.4354 35.4538 31.6067Z" fill="#1D1919"/>
<path d="M20.147 49.082C20.0571 49.0935 19.9785 49.1048 19.911 49.1163C19.8436 49.1277 19.7762 49.1391 19.6863 49.162C19.5851 49.1848 19.5288 49.2305 19.5064 49.2989C19.484 49.3676 19.4614 49.4359 19.4614 49.5274V52.3142C19.4614 52.5592 19.4076 52.8012 19.3041 53.0225C19.203 53.2394 19.0681 53.4107 18.8883 53.5592C18.7084 53.6962 18.5061 53.8105 18.2814 53.879C18.0566 53.9476 17.8206 53.9933 17.5733 53.9933C17.135 53.9933 16.7867 53.8905 16.5169 53.6734C16.2472 53.4564 16.1123 53.1708 16.1123 52.794C16.1123 52.577 16.1685 52.3942 16.2922 52.2457C16.4157 52.0972 16.5844 52.0287 16.7979 52.0287C17.0002 52.0287 17.1575 52.0858 17.2812 52.2115C17.4048 52.3371 17.4609 52.4856 17.4609 52.657C17.4609 52.8055 17.4048 52.954 17.3036 53.0794C17.2025 53.2051 17.0789 53.3308 16.944 53.4336V53.4793C16.9664 53.5249 17.0114 53.5706 17.0788 53.6049C17.1463 53.6392 17.2249 53.6506 17.2924 53.6506C17.5733 53.6506 17.7981 53.5478 17.9555 53.3421C18.1129 53.1366 18.1915 52.8283 18.1915 52.4171V49.5616C18.1915 49.4817 18.1802 49.4017 18.1577 49.3446C18.1353 49.2876 18.0678 49.2419 17.9667 49.1962C17.8993 49.162 17.8093 49.1391 17.7082 49.1163C17.6071 49.0934 17.5285 49.082 17.4609 49.0706V48.7964H20.1133V49.082H20.147ZM24.3053 53.0111C24.2267 53.148 24.1255 53.2736 24.0131 53.3993C23.9007 53.5249 23.7658 53.6163 23.6197 53.7077C23.4624 53.7991 23.305 53.8677 23.1477 53.9133C22.9903 53.959 22.7993 53.9818 22.597 53.9818C22.2486 53.9818 21.9564 53.9362 21.6979 53.8333C21.4507 53.7305 21.2372 53.6049 21.0799 53.4336C20.9112 53.2622 20.7988 53.068 20.7089 52.8397C20.627 52.601 20.5852 52.35 20.5853 52.0972C20.5853 51.8575 20.6303 51.6176 20.7201 51.4006C20.8101 51.1835 20.9337 50.9779 21.0911 50.8066C21.2484 50.6353 21.4507 50.4981 21.6979 50.3955C21.9548 50.2888 22.2297 50.2345 22.5071 50.2355C22.8331 50.2355 23.1029 50.2813 23.3163 50.3612C23.5299 50.4412 23.6984 50.5553 23.8333 50.6924C23.9681 50.8294 24.058 50.9894 24.1255 51.1721C24.1817 51.3549 24.2154 51.5491 24.2154 51.7545V51.983H21.8441C21.8441 52.4742 21.934 52.8397 22.1249 53.0909C22.3048 53.3422 22.6082 53.4678 23.0016 53.4678C23.2264 53.4678 23.4174 53.4107 23.5973 53.2851C23.7768 53.1616 23.9298 53.0023 24.0468 52.8168L24.3053 53.0109V53.0111ZM22.968 51.6518C22.968 51.5147 22.9568 51.3662 22.9455 51.2177C22.9342 51.0692 22.9118 50.9436 22.8668 50.8522C22.8219 50.738 22.777 50.658 22.6983 50.6009C22.6309 50.5438 22.5409 50.5209 22.4398 50.5209C22.26 50.5209 22.1138 50.6123 22.0128 50.7951C21.9003 50.9778 21.8441 51.2748 21.833 51.6745L22.968 51.6518ZM29.2615 53.8562H27.1487V53.5935C27.1936 53.5935 27.2498 53.582 27.3061 53.5706C27.3735 53.5592 27.4184 53.5478 27.4522 53.5364C27.4971 53.5135 27.5308 53.4678 27.5533 53.4221C27.5758 53.3764 27.587 53.2965 27.587 53.2051V51.5377C27.587 51.2979 27.542 51.1151 27.4522 50.9895C27.3622 50.8638 27.2386 50.8067 27.0587 50.8067C26.9688 50.8067 26.879 50.8183 26.8003 50.8524C26.7216 50.8752 26.6428 50.9209 26.5642 50.978C26.4968 51.0237 26.4407 51.0694 26.3957 51.1265C26.3507 51.1722 26.317 51.2179 26.2946 51.2635V53.1709C26.2946 53.2509 26.3059 53.3194 26.3283 53.3765C26.3507 53.4337 26.3957 53.4794 26.4407 53.5022C26.4744 53.525 26.5193 53.5479 26.5754 53.5593L26.7441 53.5936V53.8563H24.6087V53.5936C24.6649 53.5936 24.7211 53.5821 24.7886 53.5707C24.8448 53.5593 24.9009 53.5479 24.9459 53.5365C25.0246 53.5136 25.0695 53.4679 25.1033 53.4108C25.1258 53.3537 25.1482 53.2852 25.1482 53.1939V51.1151C25.1482 51.0466 25.1258 50.9666 25.092 50.8981C25.0583 50.8295 25.0021 50.7724 24.9459 50.7267C24.9009 50.704 24.856 50.6697 24.7885 50.6583C24.7197 50.6349 24.6476 50.6233 24.5751 50.624V50.3613L26.2496 50.2699L26.3058 50.327V50.841H26.3171C26.399 50.7725 26.4778 50.7 26.553 50.624C26.6358 50.5511 26.7221 50.4825 26.8115 50.4184C26.9014 50.3613 27.0138 50.3156 27.1487 50.2699C27.2835 50.2242 27.4409 50.2128 27.5982 50.2128C27.9804 50.2128 28.2613 50.327 28.4524 50.5441C28.6434 50.761 28.7332 51.058 28.7332 51.4235V53.1709C28.7332 53.2623 28.7446 53.3309 28.767 53.3765C28.7895 53.4337 28.8457 53.4679 28.9131 53.5022C28.9469 53.5137 28.9918 53.5365 29.048 53.5479C29.1042 53.5594 29.1604 53.5707 29.2391 53.5822V53.8562H29.2615ZM34.0942 53.8562H32.4421C32.2679 53.5398 32.0804 53.2311 31.8802 52.9311C31.7115 52.6798 31.5542 52.4399 31.4081 52.2343L31.2058 52.4171V53.1937C31.2058 53.2736 31.2171 53.3536 31.2396 53.3993C31.262 53.4564 31.307 53.4907 31.3857 53.5249C31.4306 53.5478 31.4756 53.5592 31.5318 53.5706C31.588 53.5821 31.6441 53.5935 31.7003 53.5935V53.8562H29.52V53.5935C29.5763 53.5935 29.6325 53.582 29.6998 53.5706C29.756 53.5592 29.8122 53.5478 29.8573 53.5364C29.9359 53.5135 29.9807 53.4678 30.0145 53.4107C30.037 53.3536 30.0595 53.2851 30.0595 53.1937V49.2191C30.0595 49.1391 30.037 49.0591 30.0033 48.9792C29.9695 48.8992 29.9247 48.8307 29.8572 48.785C29.8122 48.7622 29.7448 48.7279 29.6549 48.7165C29.5649 48.6936 29.4863 48.6822 29.4076 48.6822V48.4195L31.1496 48.3281L31.2058 48.3852V52.0629C31.3745 51.903 31.5767 51.7204 31.7903 51.5148C32.0038 51.3092 32.1836 51.1378 32.3072 51.0008C32.3859 50.9208 32.4309 50.8637 32.4309 50.818C32.4421 50.7723 32.4421 50.7495 32.4421 50.7381C32.4421 50.6924 32.4083 50.6581 32.3297 50.6353C32.251 50.6124 32.1499 50.5781 31.9925 50.5553V50.3041H33.7682V50.5553C33.5323 50.6238 33.3525 50.6809 33.2288 50.7381C33.1051 50.7952 32.9702 50.8751 32.8242 50.9665C32.7287 51.0323 32.635 51.1009 32.5432 51.1721C32.4533 51.2406 32.3522 51.3321 32.2286 51.4348C32.4533 51.7774 32.6669 52.0858 32.8579 52.3714C33.049 52.6569 33.2513 52.9654 33.4648 53.2851C33.5323 53.3993 33.6222 53.4678 33.7346 53.5135C33.8469 53.5478 33.9481 53.5706 34.0604 53.5821V53.8561H34.0942V53.8562ZM36.3419 53.8562H34.1279V53.5935C34.1841 53.5935 34.2515 53.582 34.3077 53.5706C34.3638 53.5592 34.42 53.5478 34.4538 53.5364C34.5325 53.5135 34.5775 53.4678 34.6112 53.4107C34.6449 53.3536 34.6561 53.2851 34.6561 53.1937V51.115C34.6561 51.035 34.6336 50.955 34.5999 50.898C34.5704 50.836 34.5235 50.7844 34.4651 50.7495C34.42 50.7266 34.3638 50.6924 34.274 50.6695C34.1841 50.6467 34.1054 50.6238 34.038 50.6238V50.3612L35.7575 50.2698L35.8136 50.3269V53.1596C35.8136 53.2396 35.8362 53.308 35.8698 53.3765C35.9036 53.4337 35.9597 53.4794 36.0159 53.5022C36.0609 53.525 36.1171 53.5479 36.1734 53.5593C36.2295 53.5708 36.2857 53.5822 36.3531 53.5936V53.8563H36.3418L36.3419 53.8562ZM35.8362 49.0021C35.8362 49.1848 35.7687 49.3332 35.6339 49.4588C35.499 49.5845 35.3303 49.653 35.1506 49.653C34.9595 49.653 34.8022 49.5845 34.6561 49.4588C34.5213 49.3332 34.4538 49.1734 34.4538 49.002C34.4538 48.8193 34.5212 48.6708 34.6561 48.5337C34.7909 48.4081 34.9596 48.3395 35.1506 48.3395C35.3417 48.3395 35.499 48.4081 35.6339 48.5337C35.7687 48.6594 35.8362 48.8192 35.8362 49.002V49.0021ZM41.2981 53.8562H39.1853V53.5935C39.2303 53.5935 39.2864 53.582 39.3426 53.5706C39.41 53.5592 39.455 53.5478 39.4887 53.5364C39.5337 53.5135 39.5673 53.4678 39.5899 53.4221C39.6123 53.3764 39.6236 53.2965 39.6236 53.2051V51.5377C39.6236 51.2979 39.5787 51.1151 39.4887 50.9895C39.3988 50.8638 39.2752 50.8067 39.0954 50.8067C39.0054 50.8067 38.9155 50.8183 38.8369 50.8524C38.7582 50.8866 38.6794 50.9209 38.6008 50.978C38.5335 51.0237 38.4773 51.0694 38.4323 51.1265C38.3873 51.1722 38.3536 51.2179 38.3312 51.2635V53.1709C38.3312 53.2509 38.3424 53.3194 38.3648 53.3765C38.3873 53.4337 38.4323 53.4794 38.4773 53.5022C38.5109 53.525 38.5559 53.5479 38.6121 53.5593L38.7807 53.5936V53.8563H36.6453V53.5936C36.7015 53.5936 36.7577 53.5821 36.8252 53.5707C36.8814 53.5593 36.9376 53.5479 36.9825 53.5365C37.0611 53.5136 37.1061 53.4679 37.1398 53.4108C37.1623 53.3537 37.1848 53.2852 37.1848 53.1939V51.1151C37.1848 51.0466 37.1623 50.9666 37.1286 50.8981C37.0949 50.8295 37.0387 50.7724 36.9825 50.7267C36.9376 50.704 36.8926 50.6697 36.8251 50.6583C36.7563 50.6349 36.6841 50.6233 36.6116 50.624V50.3613L38.2862 50.2699L38.3424 50.327V50.841H38.3537C38.4357 50.7725 38.5144 50.7 38.5896 50.624C38.6724 50.5511 38.7587 50.4825 38.8481 50.4184C38.938 50.3613 39.0504 50.3156 39.1853 50.2699C39.3201 50.2242 39.4775 50.2128 39.6348 50.2128C40.0169 50.2128 40.2979 50.327 40.4888 50.5441C40.68 50.761 40.7699 51.058 40.7699 51.4235V53.1709C40.7699 53.2623 40.7812 53.3309 40.8036 53.3765C40.8262 53.4337 40.8823 53.4679 40.9497 53.5022C40.9835 53.5137 41.0284 53.5365 41.0845 53.5479C41.1408 53.5594 41.197 53.5707 41.2757 53.5822V53.8562H41.2981ZM43.2423 53.9818C43.0176 53.9818 42.7929 53.9476 42.5794 53.879C42.3658 53.8105 42.1972 53.742 42.0736 53.662L41.9725 53.9019H41.7027L41.6577 52.577H41.9162C41.95 52.6798 42.0061 52.8054 42.0961 52.9425C42.1748 53.0794 42.2759 53.1937 42.377 53.3079C42.493 53.4147 42.6213 53.5068 42.7591 53.5821C42.9052 53.6506 43.0513 53.6963 43.2088 53.6963C43.4223 53.6963 43.5796 53.6506 43.6808 53.5706C43.7819 53.4907 43.8381 53.3536 43.8381 53.1823C43.8381 53.0909 43.8155 53.0109 43.7706 52.9425C43.7257 52.8854 43.6582 52.8283 43.5796 52.7825C43.4897 52.7369 43.3885 52.6912 43.2761 52.657C43.1637 52.6227 43.0289 52.5884 42.8716 52.5313C42.7142 52.4856 42.5794 52.4399 42.4669 52.3828C42.3545 52.3371 42.231 52.2571 42.1185 52.1543C42.0174 52.063 41.9275 51.9487 41.8714 51.8231C41.8039 51.6974 41.7814 51.5377 41.7814 51.3549C41.7814 51.0236 41.9162 50.7494 42.1972 50.544C42.4781 50.3384 42.8378 50.2355 43.2874 50.2355C43.5009 50.2355 43.692 50.2585 43.8718 50.3041C44.0516 50.3498 44.1977 50.3955 44.3214 50.4526L44.4 50.247H44.6697L44.726 51.4577H44.4787C44.4 51.2064 44.2539 51.0007 44.0628 50.818C43.8605 50.6353 43.647 50.544 43.4223 50.544C43.2424 50.544 43.0963 50.5781 42.9952 50.6581C42.894 50.7381 42.8377 50.8409 42.8377 50.9779C42.8377 51.1607 42.9164 51.2864 43.0626 51.3663C43.2087 51.4463 43.4223 51.5263 43.692 51.5947C44.1078 51.709 44.4112 51.8575 44.6135 52.0401C44.8046 52.2343 44.9057 52.4741 44.9057 52.7597C44.9057 53.148 44.7596 53.4564 44.4562 53.6621C44.119 53.8676 43.7255 53.9818 43.2423 53.9818Z" fill="white"/>
</g>
</g>
<rect x="0.5" y="0.5" width="59" height="59" rx="7.5" stroke="white" stroke-opacity="0.2"/>
<defs>
<clipPath id="clip0_1322_38513">
<rect width="60" height="60" rx="8" fill="white"/>
</clipPath>
<clipPath id="clip1_1322_38513">
<rect width="29" height="48" fill="white" transform="translate(16 6)"/>
</clipPath>
</defs>
</svg>
