<svg width="60" height="60" viewBox="0 0 60 60" fill="none" xmlns="http://www.w3.org/2000/svg">
<g clip-path="url(#clip0_1322_38355)">
<rect width="60" height="60" rx="8" fill="#161616"/>
<rect width="60" height="60" fill="#161616"/>
<path d="M30.0003 35.029V31.1646C34.0907 31.1646 37.2658 27.1081 35.6952 22.803C35.1189 21.2211 33.8421 19.9442 32.2489 19.368C27.9438 17.8086 23.8873 20.9725 23.8873 25.0629H20.0342C20.0342 18.5431 26.3393 13.4584 33.1754 15.594C36.1585 16.5318 38.5427 18.9047 39.4692 21.8877C41.6048 28.7239 36.5201 35.029 30.0003 35.029Z" fill="#0080FF"/>
<path fill-rule="evenodd" clip-rule="evenodd" d="M30.0113 31.1871H26.1582V27.334H30.0113V31.1871Z" fill="#0080FF"/>
<path fill-rule="evenodd" clip-rule="evenodd" d="M26.1581 34.1367H23.209V31.1875H26.1581V34.1367Z" fill="#0080FF"/>
<path fill-rule="evenodd" clip-rule="evenodd" d="M23.209 31.1875H20.7344V28.7129H23.209V31.1875Z" fill="#0080FF"/>
<path d="M13.5258 38.9377C13.0287 38.5875 12.3959 38.418 11.6727 38.418H10.0908V43.4462H11.684C12.4072 43.4462 13.04 43.2654 13.5371 42.8925C13.8083 42.7005 14.023 42.4293 14.1812 42.0903C14.3281 41.7513 14.4072 41.3445 14.4072 40.9038C14.4072 40.4632 14.3281 40.0677 14.1812 39.7287C14.023 39.3897 13.8083 39.1185 13.5258 38.9377ZM11.0174 39.2654H11.5145C12.0682 39.2654 12.5202 39.3784 12.8705 39.5931C13.2547 39.8304 13.4468 40.2711 13.4468 40.9038C13.4468 41.5592 13.2547 42.0225 12.8705 42.2711C12.5428 42.4858 12.0908 42.5988 11.5258 42.5988H11.0174V39.2654Z" fill="#0080FF"/>
<path d="M15.5029 38.3516C15.3447 38.3516 15.2204 38.4081 15.1074 38.5098C15.0057 38.6115 14.9492 38.7357 14.9492 38.8939C14.9492 39.0521 15.0057 39.1764 15.1074 39.2894C15.2091 39.3911 15.3447 39.4476 15.5029 39.4476C15.6498 39.4476 15.7854 39.3911 15.8984 39.2894C16.0001 39.1877 16.0566 39.0521 16.0566 38.8939C16.0566 38.7357 16.0001 38.6115 15.8984 38.5098C15.7854 38.4081 15.6498 38.3516 15.5029 38.3516Z" fill="#0080FF"/>
<path d="M15.9434 39.8984H15.0508V43.4465H15.9434V39.8984Z" fill="#0080FF"/>
<path d="M19.1868 40.1928C18.9156 39.9555 18.6218 39.8086 18.2941 39.8086C17.7969 39.8086 17.3902 39.9781 17.0738 40.3171C16.7574 40.6448 16.5879 41.0741 16.5879 41.5939C16.5879 42.0911 16.7461 42.5205 17.0625 42.8594C17.3789 43.1871 17.7969 43.3566 18.2828 43.3566C18.6218 43.3566 18.9269 43.2662 19.1642 43.0741V43.1532C19.1642 43.447 19.0851 43.673 18.9269 43.8312C18.7687 43.9894 18.554 44.0685 18.2828 44.0685C17.876 44.0685 17.6161 43.9103 17.2998 43.4809L16.6896 44.0685L16.7009 44.0911C16.8365 44.2719 17.0286 44.4527 17.2998 44.6222C17.5596 44.7916 17.8986 44.882 18.2941 44.882C18.8252 44.882 19.2546 44.7238 19.5709 44.3962C19.8873 44.0685 20.0455 43.6391 20.0455 43.108V39.8877H19.1642V40.1928H19.1868ZM18.9495 42.2945C18.7913 42.4753 18.5879 42.5544 18.3393 42.5544C18.0794 42.5544 17.8873 42.464 17.7291 42.2945C17.5709 42.1137 17.5031 41.8877 17.5031 41.6052C17.5031 41.3114 17.5822 41.0854 17.7291 40.9046C17.876 40.7238 18.0907 40.6448 18.3393 40.6448C18.5992 40.6448 18.7913 40.7351 18.9495 40.9046C19.1077 41.0854 19.1868 41.3227 19.1868 41.6052C19.1868 41.8877 19.1077 42.1137 18.9495 42.2945Z" fill="#0080FF"/>
<path d="M21.7178 39.8984H20.8252V43.4465H21.7178V39.8984Z" fill="#0080FF"/>
<path d="M21.2773 38.3516C21.1191 38.3516 20.9948 38.4081 20.8818 38.5098C20.7801 38.6115 20.7236 38.7357 20.7236 38.8939C20.7236 39.0521 20.7801 39.1764 20.8818 39.2894C20.9835 39.3911 21.1191 39.4476 21.2773 39.4476C21.4242 39.4476 21.5598 39.3911 21.6728 39.2894C21.7745 39.1877 21.831 39.0521 21.831 38.8939C21.831 38.7357 21.7745 38.6115 21.6728 38.5098C21.5598 38.4081 21.4355 38.3516 21.2773 38.3516Z" fill="#0080FF"/>
<path d="M23.673 38.9375H22.7917V39.898H22.2832V40.7115H22.7917V42.1804C22.7917 42.6437 22.8821 42.9714 23.0629 43.1635C23.2437 43.3556 23.5713 43.446 24.0233 43.446C24.1702 43.446 24.3171 43.446 24.4527 43.4347H24.4979V42.6211L24.1928 42.6324C23.9781 42.6324 23.8425 42.5985 23.7747 42.5194C23.7069 42.4403 23.673 42.2821 23.673 42.0448V40.7002H24.5092V39.8867H23.673V38.9375Z" fill="#0080FF"/>
<path d="M29.5821 38.4062H28.6895V43.4458H29.5821V38.4062Z" fill="#0080FF"/>
<path d="M38.5991 42.1823C38.4409 42.3631 38.2715 42.5213 38.1472 42.6004C38.0229 42.6795 37.8647 42.7247 37.6839 42.7247C37.424 42.7247 37.2093 42.6343 37.0398 42.4309C36.8703 42.2388 36.7799 41.9789 36.7799 41.6851C36.7799 41.3801 36.8703 41.1315 37.0398 40.9394C37.2093 40.7473 37.424 40.6456 37.6839 40.6456C37.9664 40.6456 38.2715 40.8264 38.5313 41.1315L39.1189 40.5665C38.7347 40.0693 38.2489 39.832 37.6613 39.832C37.1754 39.832 36.746 40.0128 36.3958 40.3631C36.0455 40.7134 35.876 41.1541 35.876 41.6851C35.876 42.2162 36.0568 42.6569 36.3958 43.0072C36.746 43.3575 37.1641 43.5382 37.6613 43.5382C38.3054 43.5382 38.8251 43.2558 39.1867 42.7473L38.5991 42.1823Z" fill="#0080FF"/>
<path d="M42.2711 40.3966C42.1469 40.2158 41.9774 40.0802 41.7627 39.9785C41.548 39.8768 41.2994 39.8203 41.0282 39.8203C40.531 39.8203 40.1242 40.0011 39.8192 40.3627C39.5254 40.7243 39.3672 41.1649 39.3672 41.696C39.3672 42.2384 39.5367 42.6791 39.8531 43.0181C40.1807 43.357 40.6101 43.5265 41.1412 43.5265C41.7401 43.5265 42.2372 43.2779 42.6101 42.8034L42.6327 42.7808L42.0452 42.2158C41.9887 42.2836 41.9096 42.3514 41.8418 42.4192C41.7514 42.4983 41.6723 42.5661 41.5819 42.6113C41.4463 42.6791 41.2994 42.713 41.1299 42.713C40.8813 42.713 40.6779 42.6452 40.5197 42.4983C40.3728 42.3627 40.2824 42.1819 40.2598 41.9559H42.6214L42.6327 41.6282C42.6327 41.4022 42.5988 41.1762 42.5423 40.9729C42.4858 40.7695 42.3954 40.5774 42.2711 40.3966ZM40.3163 41.2327C40.3615 41.0633 40.4406 40.9164 40.5536 40.8147C40.6779 40.6904 40.8361 40.6339 41.0169 40.6339C41.2316 40.6339 41.4011 40.6904 41.5141 40.8147C41.6158 40.9277 41.6836 41.0633 41.6949 41.2327H40.3163Z" fill="#0080FF"/>
<path d="M45.6955 40.1706C45.4244 39.9446 45.0515 39.8203 44.5882 39.8203C44.2944 39.8203 44.0119 39.8881 43.7633 40.0124C43.5261 40.1254 43.3001 40.3288 43.1532 40.5774L43.1645 40.5887L43.7407 41.131C43.978 40.7582 44.2379 40.6226 44.5882 40.6226C44.7803 40.6226 44.9272 40.6678 45.0515 40.7695C45.1645 40.8712 45.2323 40.9955 45.2323 41.1536V41.3231C45.0063 41.2553 44.7916 41.2214 44.5769 41.2214C44.1362 41.2214 43.7746 41.3231 43.5035 41.5265C43.2323 41.7299 43.0967 42.035 43.0967 42.4192C43.0967 42.7582 43.2097 43.0181 43.447 43.2214C43.6843 43.4135 43.9667 43.5152 44.3057 43.5152C44.6447 43.5152 44.9611 43.3796 45.2549 43.1423V43.4361H46.1362V41.1536C46.1023 40.7356 45.9667 40.3966 45.6955 40.1706ZM44.1136 42.0915C44.2153 42.0237 44.3622 41.9898 44.543 41.9898C44.7577 41.9898 44.9837 42.035 45.221 42.1141V42.4644C45.0289 42.6452 44.769 42.7356 44.4526 42.7356C44.2944 42.7356 44.1814 42.7017 44.091 42.6339C44.0119 42.5661 43.9667 42.487 43.9667 42.374C43.9667 42.2497 44.0119 42.1593 44.1136 42.0915Z" fill="#0080FF"/>
<path d="M49.5369 40.2384C49.2883 39.9559 48.938 39.8203 48.4974 39.8203C48.1471 39.8203 47.8533 39.922 47.6386 40.1254V39.9107H46.7686V43.4474H47.6612V41.4926C47.6612 41.2214 47.729 41.0068 47.8533 40.8599C47.9776 40.713 48.1471 40.6339 48.3844 40.6339C48.5878 40.6339 48.7347 40.7017 48.8476 40.8373C48.9606 40.9729 49.0171 41.1649 49.0171 41.3909V43.4474H49.9098V41.3909C49.9098 40.9051 49.7855 40.5096 49.5369 40.2384Z" fill="#0080FF"/>
<path d="M27.5715 40.1706C27.3003 39.9446 26.9275 39.8203 26.4642 39.8203C26.1704 39.8203 25.8879 39.8881 25.6393 40.0124C25.402 40.1254 25.176 40.3288 25.0292 40.5774L25.0405 40.5887L25.6167 41.131C25.854 40.7582 26.1139 40.6226 26.4642 40.6226C26.6563 40.6226 26.8032 40.6678 26.9275 40.7695C27.0405 40.8712 27.1082 40.9955 27.1082 41.1536V41.3231C26.8823 41.2553 26.6676 41.2214 26.4529 41.2214C26.0122 41.2214 25.6506 41.3231 25.3794 41.5265C25.1083 41.7299 24.9727 42.035 24.9727 42.4192C24.9727 42.7582 25.0857 43.0181 25.3229 43.2214C25.5602 43.4135 25.8427 43.5152 26.1817 43.5152C26.5207 43.5152 26.8371 43.3796 27.1308 43.1423V43.4361H28.0122V41.1536C27.9783 40.7356 27.8427 40.3966 27.5715 40.1706ZM25.9896 42.0915C26.0913 42.0237 26.2382 41.9898 26.419 41.9898C26.6337 41.9898 26.8597 42.035 27.097 42.1141V42.4644C26.9049 42.6452 26.645 42.7356 26.3286 42.7356C26.1704 42.7356 26.0574 42.7017 25.967 42.6339C25.8879 42.5661 25.8427 42.487 25.8427 42.374C25.8427 42.2497 25.8879 42.1593 25.9896 42.0915Z" fill="#0080FF"/>
<path d="M32.8254 43.5259C31.3904 43.5259 30.2266 42.362 30.2266 40.927C30.2266 39.492 31.3904 38.3281 32.8254 38.3281C34.2605 38.3281 35.4243 39.492 35.4243 40.927C35.4243 42.362 34.2605 43.5259 32.8254 43.5259ZM32.8254 39.2434C31.8989 39.2434 31.1418 40.0004 31.1418 40.927C31.1418 41.8536 31.8989 42.6106 32.8254 42.6106C33.752 42.6106 34.509 41.8536 34.509 40.927C34.509 40.0004 33.752 39.2434 32.8254 39.2434Z" fill="#0080FF"/>
</g>
<rect x="0.5" y="0.5" width="59" height="59" rx="7.5" stroke="white" stroke-opacity="0.2"/>
<defs>
<clipPath id="clip0_1322_38355">
<rect width="60" height="60" rx="8" fill="white"/>
</clipPath>
</defs>
</svg>
