<svg width="60" height="60" viewBox="0 0 60 60" fill="none" xmlns="http://www.w3.org/2000/svg">
<g clip-path="url(#clip0_1322_38440)">
<rect width="60" height="60" rx="8" fill="#161616"/>
<rect width="60" height="60" fill="#161616"/>
<g clip-path="url(#clip1_1322_38440)">
<path d="M13.9661 29.3125C13.8048 29.3125 13.6741 29.4391 13.6741 29.5953C13.6741 31.9227 11.7266 33.8094 9.32417 33.8094C9.16294 33.8094 9.03223 33.936 9.03223 34.0922C9.03223 34.2484 9.16294 34.375 9.32417 34.375C12.0491 34.375 14.258 32.2351 14.258 29.5953C14.258 29.4391 14.1273 29.3125 13.9661 29.3125Z" fill="#00A3E0"/>
<path d="M12.2037 31.125C12.4845 30.6813 12.756 30.0897 12.7026 29.2615C12.5919 27.5459 10.9879 26.2444 9.47331 26.3855C8.88037 26.4407 8.27153 26.9089 8.32562 27.7476C8.34913 28.112 8.53326 28.3271 8.83251 28.4925C9.11734 28.6499 9.48327 28.7496 9.89811 28.8626C10.3992 28.9992 10.9804 29.1525 11.4272 29.4715C11.9626 29.8537 12.3286 30.2968 12.2037 31.125Z" fill="#B9D9EB"/>
<path d="M6.50563 28.125C6.22487 28.5687 5.95335 29.1603 6.00677 29.9885C6.11743 31.7041 7.72143 33.0056 9.23605 32.8645C9.82899 32.8093 10.4378 32.3411 10.3837 31.5024C10.3602 31.138 10.1761 30.9229 9.87685 30.7575C9.59203 30.6001 9.22609 30.5004 8.81125 30.3874C8.31017 30.2508 7.72892 30.0975 7.28219 29.7785C6.74677 29.3963 6.38076 28.9532 6.50563 28.125Z" fill="#00A3E0"/>
<path fill-rule="evenodd" clip-rule="evenodd" d="M52.7751 29.875V32.75H53.9364V29.625C53.9364 29.0491 53.8202 28.614 53.5878 28.3189C53.3555 28.0209 53.005 27.875 52.5493 27.875C52.0548 27.875 51.6586 28.1551 51.4202 28.625H51.3557C51.3733 28.3824 51.3893 28.2434 51.4009 28.1419C51.4129 28.0372 51.4202 27.9725 51.4202 27.875V26.0625H50.2589V32.75H51.4848V30.4375C51.4848 29.9189 51.5027 29.5352 51.6129 29.2601C51.7231 28.9822 51.9152 28.8432 52.1893 28.8432C52.5556 28.8432 52.7751 29.173 52.7751 29.875ZM35.9173 32.4036C36.2311 32.0893 36.388 31.6367 36.388 31.0457C36.388 30.6766 36.302 30.3479 36.13 30.0596C35.961 29.7713 35.6609 29.4888 35.2294 29.212C34.9095 29.0102 34.6848 28.83 34.5549 28.6714C34.4282 28.5128 34.3649 28.3269 34.3649 28.1135C34.3649 27.8973 34.4177 27.7272 34.5233 27.6032C34.632 27.4763 34.7858 27.4129 34.985 27.4129C35.166 27.4129 35.3349 27.4446 35.4918 27.5081C35.6517 27.5715 35.8041 27.6436 35.949 27.7243L36.3562 26.7815C35.8886 26.5105 35.4014 26.375 34.8944 26.375C34.3633 26.375 33.9395 26.5336 33.6227 26.8507C33.3089 27.1679 33.152 27.5975 33.152 28.1395C33.152 28.422 33.1912 28.67 33.2697 28.8833C33.3511 29.0967 33.4642 29.2898 33.6091 29.4628C33.7569 29.6329 33.9726 29.8117 34.2562 29.9991C34.5822 30.2124 34.816 30.407 34.9578 30.5829C35.0996 30.7559 35.1706 30.9476 35.1706 31.1581C35.1706 31.3714 35.1102 31.5401 34.9895 31.6641C34.8718 31.7881 34.6953 31.85 34.46 31.85C34.0466 31.85 33.5925 31.6958 33.0977 31.3873V32.5506C33.5019 32.7669 33.9922 32.875 34.5686 32.875C35.1569 32.875 35.6066 32.7179 35.9173 32.4036ZM37.1846 32.2343C37.5467 32.6614 38.0404 32.875 38.6657 32.875C39.2013 32.875 39.6605 32.7639 40.0435 32.5417V31.5936C39.6366 31.8274 39.2387 31.9443 38.8497 31.9443C38.5445 31.9443 38.3051 31.8404 38.1316 31.6326C37.958 31.4219 37.8809 31.1175 37.8718 30.6875H40.2589V30.0568C40.2589 29.3671 40.1019 28.8317 39.7877 28.4508C39.4735 28.0669 39.0442 27.875 38.4996 27.875C37.9161 27.875 37.4614 28.0987 37.1352 28.546C36.8091 28.9933 36.646 29.6153 36.646 30.4118C36.646 31.1968 36.8255 31.8043 37.1846 32.2343ZM38.0688 29.0265C38.1795 28.8505 38.3201 28.7624 38.4907 28.7624C38.6731 28.7624 38.8168 28.8533 38.9215 29.0352C39.0262 29.217 39.0917 29.5229 39.0977 29.875H37.8718C37.8898 29.5085 37.958 29.1997 38.0688 29.0265ZM43.1622 32.75L42.9686 32.125H42.9041C42.7263 32.4073 42.5551 32.6085 42.3653 32.7151C42.1753 32.8217 41.9356 32.875 41.6463 32.875C41.2755 32.875 40.9831 32.7425 40.769 32.4774C40.558 32.2124 40.4525 31.8436 40.4525 31.3711C40.4525 30.864 40.5971 30.4881 40.8866 30.2432C41.1789 29.9954 41.6146 29.8586 42.1934 29.8326L42.8626 29.8067V29.461C42.8626 29.0116 42.6591 28.7868 42.2521 28.7868C41.9507 28.7868 41.604 28.8992 41.2121 29.1239L40.7961 28.3288C41.2965 28.0262 41.8324 27.875 42.4202 27.875C42.9538 27.875 43.3676 28.0219 43.6449 28.3158C43.9253 28.6068 44.0654 29.0202 44.0654 29.5561V32.75H43.1622ZM42.1391 31.9761C42.3592 31.9761 42.534 31.8825 42.6636 31.6952C42.7962 31.5051 42.8626 31.253 42.8626 30.939V30.5327L42.4918 30.55C42.2175 30.5644 42.0155 30.6393 41.8859 30.7747C41.7593 30.9101 41.696 31.1118 41.696 31.3797C41.696 31.7773 41.8437 31.9761 42.1391 31.9761ZM47.0331 27.9687C46.8951 27.9256 46.6895 27.875 46.5457 27.875C46.3429 27.875 46.1651 27.9397 46.0124 28.069C45.8596 28.1984 45.7431 28.3232 45.6138 28.625H45.5493L45.3557 28H44.4525V32.75H45.6735V30.25C45.6735 29.8303 45.701 29.5595 45.8538 29.3411C46.0066 29.1197 46.2254 29.009 46.5103 29.009C46.6426 29.009 46.7574 29.0337 46.8396 29.0625L47.0331 27.9687ZM48.8396 32.875C48.2516 32.875 47.8014 32.6847 47.4942 32.2663C47.1868 31.8478 47.0331 31.2331 47.0331 30.4221C47.0331 29.5736 47.1779 28.9402 47.4675 28.5217C47.7601 28.1032 48.1966 27.875 48.8054 27.875C48.9885 27.875 49.1947 27.9199 49.3956 27.9719C49.5965 28.0238 49.8413 28.0894 50.0009 28.1875L49.5995 29.0931C49.3543 28.9517 49.137 28.881 48.948 28.881C48.6968 28.881 48.5151 29.0094 48.4027 29.2663C48.2934 29.5202 48.2388 29.9026 48.2388 30.4135C48.2388 30.9127 48.2934 31.2865 48.4027 31.5347C48.5121 31.78 48.6908 31.9026 48.9391 31.9026C49.2346 31.9026 49.5433 31.8016 49.8654 31.5996V32.6126C49.5552 32.8002 49.2148 32.875 48.8396 32.875Z" fill="#B9D9EB"/>
<path fill-rule="evenodd" clip-rule="evenodd" d="M19.9069 32.0328C20.3132 31.4714 20.5163 30.668 20.5163 29.6228C20.5163 28.5777 20.3146 27.7758 19.9114 27.2172C19.5081 26.6557 18.9284 26.375 18.1727 26.375C17.4079 26.375 16.8224 26.6543 16.4161 27.2129C16.0098 27.7686 15.8066 28.569 15.8066 29.6142C15.8066 30.668 16.0098 31.4757 16.4161 32.0371C16.8224 32.5957 17.4049 32.875 18.1637 32.875C18.9195 32.875 19.5006 32.5943 19.9069 32.0328ZM17.3347 31.2684C17.1465 30.8912 17.0524 30.3427 17.0524 29.6228C17.0524 28.9001 17.1465 28.3516 17.3347 27.9773C17.5229 27.6001 17.8022 27.4116 18.1727 27.4116C18.9016 27.4116 19.2661 28.1486 19.2661 29.6228C19.2661 31.097 18.8986 31.8341 18.1637 31.8341C17.7993 31.8341 17.5229 31.6455 17.3347 31.2684ZM22.5403 32.7497C22.7059 32.8423 22.8841 32.875 23.097 32.875C23.5524 32.875 23.9228 32.6658 24.186 32.2201C24.4492 31.7745 24.5808 31.1595 24.5808 30.3753C24.5808 29.5795 24.4536 28.9646 24.1993 28.5305C23.945 28.0935 23.5931 27.875 23.1435 27.875C22.6763 27.875 22.3101 28.1446 22.0647 28.625H22.0002L21.8066 28H20.9034V34.9375H22.0647V32.875C22.0647 32.794 22.0475 32.5186 22.0002 32.125H22.0647C22.1615 32.4062 22.3776 32.6542 22.5403 32.7497ZM22.243 29.1729C22.3466 28.9616 22.5136 28.856 22.7443 28.856C22.9602 28.856 23.1184 28.9805 23.219 29.2293C23.3225 29.4782 23.3743 29.8544 23.3743 30.358C23.3743 31.3824 23.1673 31.8946 22.7532 31.8946C22.5136 31.8946 22.3421 31.773 22.2386 31.53C22.1352 31.2869 22.0834 30.8991 22.0834 30.3666V30.2147C22.0893 29.7285 22.1425 29.3813 22.243 29.1729ZM26.8585 32.875C26.2332 32.875 25.7395 32.6614 25.3775 32.2343C25.0184 31.8043 24.8389 31.1968 24.8389 30.4118C24.8389 29.6153 25.002 28.9933 25.3281 28.546C25.6543 28.0987 26.109 27.875 26.6924 27.875C27.237 27.875 27.6664 28.0669 27.9806 28.4508C28.2948 28.8317 28.4518 29.3671 28.4518 30.0568V30.6875H26.0647C26.0737 31.1175 26.1509 31.4219 26.3244 31.6326C26.498 31.8404 26.7374 31.9443 27.0425 31.9443C27.4315 31.9443 27.8295 31.8274 28.2363 31.5936V32.5417C27.8534 32.7639 27.3941 32.875 26.8585 32.875ZM26.6835 28.7624C26.513 28.7624 26.3723 28.8505 26.2616 29.0265C26.1509 29.1997 26.0826 29.5085 26.0647 29.875H27.2905C27.2846 29.5229 27.219 29.217 27.1144 29.0352C27.0096 28.8534 26.866 28.7624 26.6835 28.7624ZM31.355 29.875V32.75H32.5163V29.6499C32.5163 29.0699 32.4032 28.629 32.1767 28.3274C31.9534 28.0258 31.6152 27.875 31.1624 27.875C30.8944 27.875 30.6604 27.9388 30.4608 28.0664C30.2614 28.1911 30.1074 28.4017 30.0002 28.625H29.9357L29.7744 28H28.8389V32.75H30.0647V30.4688C30.0647 29.88 30.087 29.4788 30.2063 29.2323C30.3253 28.9829 30.513 28.8582 30.7692 28.8582C30.9628 28.8582 31.1029 28.9481 31.1892 29.1279C31.2757 29.3077 31.355 29.5241 31.355 29.875Z" fill="#00A3E0"/>
</g>
</g>
<rect x="0.5" y="0.5" width="59" height="59" rx="7.5" stroke="white" stroke-opacity="0.2"/>
<defs>
<clipPath id="clip0_1322_38440">
<rect width="60" height="60" rx="8" fill="white"/>
</clipPath>
<clipPath id="clip1_1322_38440">
<rect width="48" height="9" fill="white" transform="translate(6 26)"/>
</clipPath>
</defs>
</svg>
