<svg width="60" height="60" viewBox="0 0 60 60" fill="none" xmlns="http://www.w3.org/2000/svg">
<g clip-path="url(#clip0_1322_49582)">
<rect width="60" height="60" rx="8" fill="#161616"/>
<rect width="60" height="60" fill="#161616"/>
<path d="M41.4916 22.4611L41.2383 20.9657C41.1576 20.4823 40.9739 20.0957 40.8241 20.0957C40.6742 20.0957 40.5486 20.4983 40.5486 20.9816V21.3683C40.5464 21.6026 40.4524 21.8267 40.2867 21.9924C40.121 22.1581 39.8969 22.2521 39.6626 22.2542H39.1909V23.3354H40.7438C41.2383 23.3354 41.5723 22.9488 41.4916 22.4654M37.9598 21.1962H33.0588C33.025 21.1962 33.0008 21.1962 32.9781 21.2078V20.9777C32.9781 20.4944 32.8515 20.0918 32.7026 20.0918C32.5538 20.0918 32.3643 20.4785 32.2884 20.9618L32.0351 22.4572C31.9544 22.9406 32.2884 23.3272 32.7713 23.3272H34.2551C34.4001 23.3272 34.5548 23.304 34.6693 23.2581C34.6469 23.3817 34.5815 23.4934 34.4846 23.5734C34.3878 23.6534 34.2657 23.6965 34.1401 23.695H32.0695C31.7311 23.695 31.4827 23.3954 31.5402 23.0667L31.7471 21.8129C31.7613 21.7355 31.7582 21.6558 31.7382 21.5796C31.7181 21.5035 31.6815 21.4326 31.631 21.3722C31.5805 21.3118 31.5173 21.2632 31.4459 21.2299C31.3745 21.1967 31.2966 21.1796 31.2178 21.1798H20.9465C20.728 21.1798 20.5439 21.3064 20.4521 21.5017L18.5202 24.4635C18.4863 24.5095 18.4863 24.5786 18.5318 24.6245L18.9112 25.073C18.9571 25.131 19.0378 25.1421 19.0949 25.0962L20.4061 24.0609V30.3646C20.4061 30.5081 20.4632 30.6458 20.5647 30.7473C20.6662 30.8489 20.8039 30.9059 20.9475 30.9059H23.8692C24.0128 30.9059 24.1505 30.8489 24.252 30.7473C24.3535 30.6458 24.4106 30.5081 24.4106 30.3646V28.1789C24.4106 28.0354 24.4676 27.8977 24.5691 27.7962C24.6706 27.6946 24.8083 27.6376 24.9519 27.6376H32.2323C32.3759 27.6376 32.5136 27.6946 32.6151 27.7962C32.7166 27.8977 32.7737 28.0354 32.7737 28.1789V30.3646C32.7737 30.5081 32.8307 30.6458 32.9322 30.7473C33.0338 30.8489 33.1714 30.9059 33.315 30.9059H36.2343C36.3779 30.9059 36.5156 30.8489 36.6171 30.7473C36.7186 30.6458 36.7757 30.5081 36.7757 30.3646V27.987H35.2227C34.9884 27.9849 34.7643 27.8909 34.5986 27.7252C34.433 27.5595 34.3389 27.3354 34.3368 27.1011V25.5897C34.3365 25.4529 34.3687 25.3179 34.4307 25.1959C34.4927 25.0739 34.5828 24.9683 34.6935 24.8879V26.6941C34.6956 26.9284 34.7897 27.1525 34.9553 27.3182C35.121 27.4839 35.3451 27.5779 35.5794 27.5801H37.9719C38.2062 27.5779 38.4303 27.4839 38.596 27.3182C38.7617 27.1525 38.8557 26.9284 38.8579 26.6941V22.0928C38.8463 21.5983 38.4437 21.1957 37.9608 21.1957" fill="#0076A8"/>
<path d="M8.39844 33.3965H11.4463C12.8963 33.3965 13.8654 34.0997 13.8654 35.4531C13.8654 36.5614 13.109 37.2221 12.3734 37.4565C12.5972 37.6377 12.7571 37.8934 12.8847 38.1597C13.1941 38.7881 13.3961 39.4705 14.0462 39.4705C14.2057 39.4705 14.3444 39.4222 14.3444 39.4222L14.2057 40.733C14.2057 40.733 13.8113 40.8287 13.471 40.8287C12.5972 40.8287 12.0964 40.4875 11.5739 39.3159C11.3502 38.7939 11.0519 37.8659 10.6469 37.8659H10.2312V40.7852H8.39844V33.3965ZM10.2312 34.7286V36.5401H10.892C11.414 36.5401 12.0326 36.3806 12.0326 35.5918C12.0326 34.9417 11.617 34.7286 11.1162 34.7286H10.2312Z" fill="#59595B"/>
<path d="M16.3384 33.3967H18.1924L20.6864 40.7821H18.8324L18.3742 39.3862H15.9014L15.4539 40.7821H13.8555L16.3384 33.3967ZM16.3384 38.0367H17.9261L17.4254 36.4804C17.2548 35.9584 17.1692 35.2121 17.1692 35.2121H17.1267C17.1267 35.2121 17.0203 35.9686 16.8497 36.4698L16.3384 38.0367ZM20.7609 33.3967H22.7217L24.6614 37.0628C24.8209 37.3818 25.0451 37.9367 25.2157 38.3736H25.2583L25.1838 36.9347V33.3967H26.6822V40.7821H24.7633L22.7493 37.1266C22.568 36.796 22.3655 36.3166 22.2167 35.9183H22.1741L22.2592 37.2291V40.7777H20.7609V33.3967ZM27.0698 37.0517C27.0698 34.3769 28.3912 33.2793 30.4372 33.2793C32.59 33.2793 33.4532 34.462 33.2188 36.0609L31.5136 36.2059C31.6948 35.0338 31.2366 34.565 30.4053 34.565C29.6059 34.565 28.9553 35.1512 28.9553 37.059C28.9553 39.073 29.6585 39.5844 30.4536 39.5844C31.21 39.5844 31.8176 39.1155 31.69 38.1455L33.2884 38.305C33.4058 39.8033 32.3294 40.9053 30.3579 40.9053C28.3651 40.916 27.065 39.7332 27.065 37.0474M39.5703 33.3967V40.7927H37.7481V37.6539H35.4996V40.7869H33.6775V33.3919H35.4996V36.1841H37.7481V33.3919L39.5703 33.3967ZM44.7066 36.3489V37.7023H42.1319V39.4287H45.3074V40.7927H40.3049V33.3967H45.1963V34.7607H42.1319V36.3489H44.7066ZM45.6554 33.3967H48.7033C50.1533 33.3967 51.1224 34.1 51.1224 35.4533C51.1224 36.5616 50.366 37.2223 49.6304 37.4567C49.8541 37.638 50.0141 37.8937 50.1417 38.16C50.4511 38.7883 50.6531 39.4708 51.3032 39.4708C51.4627 39.4708 51.6014 39.4225 51.6014 39.4225L51.4564 40.7333C51.4564 40.7333 51.062 40.829 50.7217 40.829C49.8479 40.829 49.3471 40.4877 48.8246 39.3161C48.6009 38.7941 48.3026 37.8661 47.8976 37.8661H47.4819V40.7855H45.6491V33.4006L45.6554 33.3967ZM47.4882 34.7288V36.5403H48.1489C48.6709 36.5403 49.2896 36.3808 49.2896 35.592C49.2896 34.942 48.8739 34.7288 48.3732 34.7288H47.4882Z" fill="#59595B"/>
</g>
<rect x="0.5" y="0.5" width="59" height="59" rx="7.5" stroke="white" stroke-opacity="0.2"/>
<defs>
<clipPath id="clip0_1322_49582">
<rect width="60" height="60" rx="8" fill="white"/>
</clipPath>
</defs>
</svg>
