<svg width="22" height="22" viewBox="0 0 22 22" fill="none" xmlns="http://www.w3.org/2000/svg">
<path d="M11 2C11.6084 2 12.1 2.50273 12.1 3.125V5.375H16.225C17.5931 5.375 18.7 6.50703 18.7 7.90625V17.4688C18.7 18.868 17.5931 20 16.225 20H5.775C4.40688 20 3.3 18.868 3.3 17.4688V7.90625C3.3 6.50703 4.40688 5.375 5.775 5.375H9.9V3.125C9.9 2.50273 10.3916 2 11 2ZM7.15 15.5C6.8475 15.5 6.6 15.7531 6.6 16.0625C6.6 16.3719 6.8475 16.625 7.15 16.625H8.25C8.5525 16.625 8.8 16.3719 8.8 16.0625C8.8 15.7531 8.5525 15.5 8.25 15.5H7.15ZM10.45 15.5C10.1475 15.5 9.9 15.7531 9.9 16.0625C9.9 16.3719 10.1475 16.625 10.45 16.625H11.55C11.8525 16.625 12.1 16.3719 12.1 16.0625C12.1 15.7531 11.8525 15.5 11.55 15.5H10.45ZM13.75 15.5C13.4475 15.5 13.2 15.7531 13.2 16.0625C13.2 16.3719 13.4475 16.625 13.75 16.625H14.85C15.1525 16.625 15.4 16.3719 15.4 16.0625C15.4 15.7531 15.1525 15.5 14.85 15.5H13.75ZM9.075 11C9.075 10.627 8.93013 10.2694 8.67227 10.0056C8.41441 9.74191 8.06467 9.59375 7.7 9.59375C7.33533 9.59375 6.98559 9.74191 6.72773 10.0056C6.46987 10.2694 6.325 10.627 6.325 11C6.325 11.373 6.46987 11.7306 6.72773 11.9944C6.98559 12.2581 7.33533 12.4062 7.7 12.4062C8.06467 12.4062 8.41441 12.2581 8.67227 11.9944C8.93013 11.7306 9.075 11.373 9.075 11ZM14.3 12.4062C14.6647 12.4062 15.0144 12.2581 15.2723 11.9944C15.5301 11.7306 15.675 11.373 15.675 11C15.675 10.627 15.5301 10.2694 15.2723 10.0056C15.0144 9.74191 14.6647 9.59375 14.3 9.59375C13.9353 9.59375 13.5856 9.74191 13.3277 10.0056C13.0699 10.2694 12.925 10.627 12.925 11C12.925 11.373 13.0699 11.7306 13.3277 11.9944C13.5856 12.2581 13.9353 12.4062 14.3 12.4062ZM1.65 9.875H2.2V16.625H1.65C0.739062 16.625 0 15.8691 0 14.9375V11.5625C0 10.6309 0.739062 9.875 1.65 9.875ZM20.35 9.875C21.2609 9.875 22 10.6309 22 11.5625V14.9375C22 15.8691 21.2609 16.625 20.35 16.625H19.8V9.875H20.35Z" fill="white"/>
</svg>
