<svg width="22" height="22" viewBox="0 0 22 22" fill="none" xmlns="http://www.w3.org/2000/svg">
<path d="M11 22C13.9174 22 16.7153 20.8411 18.7782 18.7782C20.8411 16.7153 22 13.9174 22 11C22 8.08262 20.8411 5.28473 18.7782 3.22183C16.7153 1.15893 13.9174 0 11 0C8.08262 0 5.28473 1.15893 3.22183 3.22183C1.15893 5.28473 0 8.08262 0 11C0 13.9174 1.15893 16.7153 3.22183 18.7782C5.28473 20.8411 8.08262 22 11 22ZM7.05117 13.9863C7.82031 14.8758 9.13516 15.8125 11 15.8125C12.8648 15.8125 14.1797 14.8758 14.9488 13.9863C15.198 13.6984 15.632 13.6684 15.9199 13.9176C16.2078 14.1668 16.2379 14.6008 15.9887 14.8887C15.0305 15.9887 13.3676 17.1875 11 17.1875C8.63242 17.1875 6.96953 15.9887 6.01133 14.8887C5.76211 14.6008 5.79219 14.1668 6.08008 13.9176C6.36797 13.6684 6.80195 13.6984 7.05117 13.9863ZM6.20469 8.9375C6.20469 8.57283 6.34955 8.22309 6.60742 7.96523C6.86528 7.70737 7.21501 7.5625 7.57969 7.5625C7.94436 7.5625 8.2941 7.70737 8.55196 7.96523C8.80982 8.22309 8.95469 8.57283 8.95469 8.9375C8.95469 9.30217 8.80982 9.65191 8.55196 9.90977C8.2941 10.1676 7.94436 10.3125 7.57969 10.3125C7.21501 10.3125 6.86528 10.1676 6.60742 9.90977C6.34955 9.65191 6.20469 9.30217 6.20469 8.9375ZM14.4547 7.5625C14.8194 7.5625 15.1691 7.70737 15.427 7.96523C15.6848 8.22309 15.8297 8.57283 15.8297 8.9375C15.8297 9.30217 15.6848 9.65191 15.427 9.90977C15.1691 10.1676 14.8194 10.3125 14.4547 10.3125C14.09 10.3125 13.7403 10.1676 13.4824 9.90977C13.2246 9.65191 13.0797 9.30217 13.0797 8.9375C13.0797 8.57283 13.2246 8.22309 13.4824 7.96523C13.7403 7.70737 14.09 7.5625 14.4547 7.5625Z" fill="white"/>
</svg>
